/* XPM */
static char *_cb1390c6edf4b99c10dbc4b5e0cefa83ySv9zEeLFzJr52j[] = {
/* columns rows colors chars-per-pixel */
"60 60 103 2 ",
"   c #50652B",
".  c #556A31",
"X  c #586D36",
"o  c #5D7336",
"O  c #5D743A",
"+  c #617637",
"@  c #61763B",
"#  c #637A3D",
"$  c #667C42",
"%  c #68803F",
"&  c #6B8245",
"*  c #6E8449",
"=  c #71864A",
"-  c #738A4D",
";  c #768C50",
":  c #798E53",
">  c #7B9354",
",  c #7C9359",
"<  c #819656",
"1  c #80965B",
"2  c #849C5D",
"3  c #849B60",
"4  c #899F62",
"5  c #87A060",
"6  c #8DA565",
"7  c #8EA569",
"8  c #90A567",
"9  c #90A569",
"0  c #8F6296",
"q  c #906396",
"w  c #916599",
"e  c #956B9C",
"r  c #986E9E",
"t  c #9A6FA0",
"y  c #9C74A2",
"u  c #9E78A4",
"i  c #A17BA6",
"p  c #A47FAA",
"a  c #A582AB",
"s  c #A986AE",
"d  c #AC8BAE",
"f  c #AC8AB1",
"g  c #B494B5",
"h  c #BA98B7",
"j  c #B496B8",
"k  c #B79ABA",
"l  c #BA9CBB",
"z  c #C1A2BD",
"x  c #BDA2C1",
"c  c #C2A6C1",
"v  c #C4A9C4",
"b  c #CBACC2",
"n  c #C5ACC9",
"m  c #D0AFC5",
"M  c #CEB1C6",
"N  c #C7B1CB",
"B  c #CAB4CB",
"V  c #CEBACF",
"C  c #D2B1C3",
"Z  c #D2B6CB",
"A  c #D3BACD",
"S  c #CFBBD1",
"D  c #D1BFD3",
"F  c #D9BFD0",
"G  c #D5C3D6",
"H  c #DBC5D4",
"J  c #DFC9D5",
"K  c #D5C5D8",
"L  c #D8C7DA",
"P  c #DCCCDB",
"I  c #E2CEDA",
"U  c #E4D2DC",
"Y  c #EAD7DF",
"T  c #E2D4E0",
"R  c #E4D5E1",
"E  c #E4D9E5",
"W  c #ECDBE2",
"Q  c #EADDE6",
"!  c #F0DFE3",
"~  c #F0DEE4",
"^  c #EFE0E6",
"/  c #E9E0E9",
"(  c #EFE5EB",
")  c #EEE8EF",
"_  c #F0E1E6",
"`  c #F0E2E8",
"'  c #F3E4E9",
"]  c #F4E5E9",
"[  c #F0E7EE",
"{  c #F3EBEF",
"}  c #F5EAED",
"|  c #F6ECEF",
" . c #F2EBF0",
".. c #F7EDF0",
"X. c #F6EFF3",
"o. c #F8F1F3",
"O. c #F9F3F6",
"+. c #FBF5F7",
"@. c #FBF7F9",
"#. c #FAF8FA",
"$. c #FCF9FA",
"%. c #FCFBFC",
"&. c #FEFEFE",
/* pixels */
"6 6 6 6 6 6 6 6 6 6 6 6 6 6 6 6 6 6 6 6 6 6 6 6 6 6 6 6 6 6 6 6 6 6 6 6 6 6 6 6 6 6 6 6 6 6 6 6 6 6 6 6 6 6 6 6 6 6 6 6 ",
"6 6 6 6 6 6 6 6 6 6 6 6 6 6 6 6 6 6 6 6 6 6 6 6 6 6 6 6 6 6 6 6 6 6 6 6 6 6 6 6 6 6 6 6 6 6 6 6 6 6 6 6 6 6 6 6 6 6 6 6 ",
"6 6 6 6 6 6 6 6 6 6 6 6 6 6 6 6 6 6 6 6 6 6 6 6 6 6 6 6 6 6 6 6 6 6 6 6 6 6 6 6 6 6 6 6 6 6 6 6 6 6 6 6 6 6 6 6 6 6 6 6 ",
"6 6 6 6 6 6 6 6 6 6 6 6 6 6 6 6 6 6 6 6 6 6 6 6 6 6 6 6 6 6 6 6 6 6 6 6 6 6 6 6 6 6 6 6 6 6 6 6 6 6 6 6 6 6 6 6 6 6 6 6 ",
"6 6 6 6 6 6 6 6 6 6 6 6 6 6 6 6 6 6 6 6 6 6 6 6 6 6 6 6 6 6 6 6 6 6 6 6 6 6 6 6 6 6 6 6 6 6 6 6 6 6 6 6 6 6 6 6 6 6 6 6 ",
"6 6 6 6 6 6 6 6 6 6 6 6 6 6 6 6 6 6 6 6 6 6 6 6 6 6 6 6 6 6 6 6 6 6 6 6 6 6 6 6 6 6 6 6 6 6 6 6 6 6 6 6 6 6 6 6 6 6 6 6 ",
"6 6 6 6 6 6 6 6 6 6 6 6 6 6 6 6 6 6 6 6 6 6 6 6 6 6 6 6 6 6 6 6 6 6 6 6 6 6 6 6 6 6 6 6 6 6 6 6 6 6 6 6 6 6 6 6 6 6 6 6 ",
"6 6 6 6 6 6 6 6 6 6 6 6 6 6 6 6 6 6 6 6 6 6 6 6 6 6 6 6 6 6 6 6 6 6 6 6 6 6 6 6 6 6 6 6 6 6 6 6 6 6 6 6 6 6 6 6 6 6 6 6 ",
"6 6 6 6 6 6 6 6 6 6 6 6 6 6 6 6 6 6 6 6 6 7 1 6 6 1 6 6 6 6 6 6 6 6 6 6 6 6 6 6 6 6 6 6 6 6 6 6 6 6 6 6 6 6 6 6 6 6 6 6 ",
"6 6 6 6 6 6 6 6 6 6 6 6 6 6 6 6 6 6 6 6 6 7 & > 7 # 5 6 6 6 6 6 6 6 6 6 6 6 6 6 6 6 6 6 6 6 6 6 6 6 6 6 6 6 6 6 6 6 6 6 ",
"6 6 6 6 6 6 6 6 6 6 6 6 6 6 6 6 6 6 6 6 6 6 * ; 6 @ 6 5 6 6 6 6 6 6 6 6 6 6 6 7 6 6 6 6 6 6 8 6 8 6 6 6 6 6 6 6 6 6 6 6 ",
"5 6 6 6 6 6 6 6 6 6 6 6 6 6 6 6 6 6 6 6 6 6 1 > 5 # 5 & 5 6 6 6 6 6 6 6 6 1 2 7 O * 7 > o > 9 4 & + 6 6 6 6 6 6 6 6 6 6 ",
"* 6 , 7 9 6 > 6 6 6 6 6 6 6 6 6 6 6 6 6 6 6 6 6 6 > 2 $ 6 6 6 6 6 6 6 6 6 # . , X # 7 @ @ 6 7 &   2 6 6 6 6 6 6 6 6 6 6 ",
"= & , 7 7 @ - 7 6 6 6 6 6 6 6 6 6 6 6 6 6 6 6 6 6 6 6 5 6 6 6 6 6 6 6 6 6 6 6 6 2 2 6 6 6 6 6 6 6 6 6 6 6 6 6 6 6 6 6 6 ",
"6 & 4 7 & # 6 6 6 6 6 6 6 6 6 6 6 6 6 6 6 6 6 6 6 6 6 6 6 6 6 6 6 6 6 6 6 6 6 6 6 6 6 6 6 6 6 6 6 6 6 6 6 6 6 6 6 6 6 6 ",
"6 5 6 6 1 4 8 6 6 6 6 6 6 6 6 6 6 6 6 6 6 6 6 6 6 6 6 6 6 6 6 6 6 6 6 6 6 6 6 6 6 6 6 6 6 6 6 6 6 6 6 6 6 6 6 6 6 6 6 6 ",
"6 6 6 6 6 6 6 6 6 6 6 6 6 6 6 6 6 6 6 6 6 6 6 6 6 6 6 6 6 6 6 6 6 6 6 6 6 6 6 6 6 6 6 6 6 6 6 6 6 6 6 6 6 6 6 6 6 6 6 6 ",
"6 6 6 6 6 6 6 6 6 6 6 6 6 6 6 6 6 6 6 6 6 6 6 6 6 6 6 6 6 6 6 6 6 6 6 6 6 6 6 6 6 6 6 6 6 6 6 6 6 6 6 6 6 6 6 6 6 6 6 6 ",
"6 6 6 6 6 6 6 6 6 6 6 6 6 6 6 6 6 6 6 6 6 6 6 6 6 6 6 6 6 6 6 6 6 6 6 6 6 6 6 6 6 6 6 6 6 6 6 6 6 6 6 6 6 6 6 6 6 6 6 6 ",
"6 6 6 6 6 6 6 6 6 6 6 6 6 6 6 6 6 6 6 6 6 6 6 6 6 6 6 6 6 6 6 6 6 6 6 6 6 6 6 6 6 6 6 6 6 6 6 6 6 6 6 6 6 6 6 6 6 6 6 6 ",
"6 6 6 6 6 6 6 6 6 6 6 6 6 6 6 6 6 6 6 6 6 6 6 6 6 6 6 6 6 6 6 6 6 6 6 6 6 6 6 6 6 6 6 6 6 6 6 6 6 6 6 6 6 6 6 6 6 6 6 6 ",
"6 6 6 6 6 6 6 6 6 6 6 6 6 6 6 6 6 6 6 6 6 6 6 6 6 6 6 6 6 6 6 6 6 6 6 6 6 6 6 6 6 6 6 6 6 6 6 6 6 6 6 6 6 6 6 6 6 6 6 6 ",
"6 6 6 6 6 6 6 6 6 6 6 6 6 6 6 6 6 6 6 6 6 6 6 6 6 6 6 6 6 6 6 6 6 6 6 6 6 6 6 6 6 6 6 6 6 6 6 6 6 6 6 6 6 6 6 6 6 6 6 6 ",
"6 6 6 6 6 6 6 6 6 6 6 6 6 6 6 6 6 6 6 6 6 6 6 6 6 6 6 6 6 6 6 6 6 6 6 6 6 6 6 6 6 6 6 6 6 6 6 6 6 6 6 6 6 6 6 6 6 6 6 6 ",
"6 6 6 6 6 6 6 6 6 6 6 6 6 6 6 6 6 6 6 6 6 6 6 6 6 6 6 6 6 6 6 6 6 6 6 6 6 6 6 6 6 6 6 6 6 6 6 6 6 6 6 6 6 6 6 6 6 6 6 6 ",
"6 6 6 6 6 6 6 6 6 6 6 6 6 6 6 6 6 6 6 6 6 6 6 6 6 0 q 0 0 0 0 q q q q q 0 q q q 0 6 6 6 6 6 6 6 6 6 6 6 6 6 6 6 6 6 6 6 ",
"6 6 6 6 6 6 6 6 6 6 6 6 6 6 6 0 q 0 0 0 0 0 q 0 0 0 q q 0 q q q 0 q q 0 q q q 0 0 q q q 0 0 q 6 6 6 6 6 6 6 6 6 6 6 6 6 ",
"6 6 6 6 6 6 6 6 6 6 6 6 6 e r y u u i u u u y r r r w w q w w y i s a a a s a i y e w w 0 0 0 0 q 6 6 6 6 6 6 6 6 6 6 6 ",
"6 6 6 6 6 6 6 6 6 6 6 d h c M A H H J I I R T R H H A Z M b b M A J I U U I H B l d i u e w q 0 0 0 6 6 6 6 6 6 6 6 6 6 ",
"6 6 6 6 6 6 6 6 6 6 s f g l c B K T Q ` ' | o.X._ ! ! _ ' ' _ ~ _ } +.$.%.$.@.O.X.[ E T P P L J F A C b l 6 6 6 6 6 6 6 ",
"6 6 6 6 6 6 6 6 6 6 x n S K L T / { { O.%.&.&.$.$.$.&.&.&.$.o.} _ ! ] +.&.&.#.O.X. .{ ) / E P L G S V B M 6 6 6 6 6 6 6 ",
"6 6 6 6 6 6 6 6 6 m b b z h l v A J U W ( | X.O.+.O.O.X.( Q ^ ` { X.} ' _ W Y U P D B n v l k x M K P H b 6 6 6 6 6 6 6 ",
"6 6 6 6 6 6 6 6 6 6 6 u p f k c v M B Z Z Z Z Z M v z h g g h x n M D L L K S N c l k j g f a u w w 6 6 6 6 6 6 6 6 6 6 ",
"6 6 6 6 6 6 6 6 6 6 6 6 r r y y y u u u u u y r e w w w q w w e e r t u i u u y r e w q 0 0 q 0 0 0 6 6 6 6 6 6 6 6 6 6 ",
"6 6 6 6 6 6 6 6 6 6 6 6 6 6 6 q q 0 q w q q 0 q 0 0 0 0 0 0 0 q 0 q q q q q q q w 0 q 0 0 0 0 q 6 6 6 6 6 6 6 6 6 6 6 6 ",
"6 6 6 6 6 6 6 6 6 6 6 6 6 6 6 6 6 6 6 6 6 6 6 6 6 0 q q 0 0 0 0 0 0 0 0 0 0 0 0 0 0 q 0 6 6 6 6 6 6 6 6 6 6 6 6 6 6 6 6 ",
"7 6 6 6 6 6 6 6 6 6 6 6 6 6 6 6 6 6 6 6 6 6 6 6 6 6 6 6 6 6 6 6 6 6 6 6 6 6 6 6 6 6 6 6 6 6 6 6 6 6 6 6 6 6 6 6 6 6 6 6 ",
"6 6 6 6 6 6 6 6 6 6 6 6 6 6 6 6 6 6 6 6 6 6 6 6 6 6 6 6 6 6 6 6 6 6 6 6 6 6 6 6 6 6 6 6 6 6 6 6 6 6 6 6 6 6 6 6 6 6 6 6 ",
"6 6 6 6 6 6 6 6 6 6 6 6 6 6 6 6 6 6 6 6 6 6 6 6 6 6 6 6 6 6 6 6 6 6 6 6 6 6 6 6 6 6 6 6 6 6 6 6 6 7 6 2 6 5 5 6 6 6 6 6 ",
"6 6 6 6 6 6 6 6 6 6 6 6 6 6 6 6 6 6 6 6 6 6 6 6 6 6 6 6 6 6 6 6 6 6 6 6 6 6 6 6 6 6 6 6 6 6 6 6 # 3 $ : 9 ; = 6 6 5 > 6 ",
"6 6 6 6 6 6 6 6 6 6 6 6 6 6 6 6 6 6 6 6 6 6 6 6 6 6 6 6 6 6 6 6 6 6 6 6 6 6 6 6 6 6 6 6 6 6 6 2 O ; o 7 7 # 4 6 6 2 & 6 ",
"6 6 6 6 6 6 6 6 6 6 6 6 6 6 6 6 7 6 2 6 5 5 6 6 6 6 6 6 6 6 6 6 6 6 6 6 6 6 6 6 6 6 6 6 6 6 6 7 3 3 * 6 9 4 7 6 6 6 5 6 ",
"6 6 6 6 6 6 6 6 6 6 6 6 6 6 6 # 3 $ : 9 ; = 6 6 5 > 6 6 6 6 6 6 6 6 6 6 6 6 6 6 6 6 6 6 6 6 6 6 6 6 6 6 6 6 6 6 6 6 6 6 ",
"6 6 6 6 6 6 6 6 6 6 6 6 6 6 2 O ; o 7 7 # 4 6 6 2 & 6 6 6 6 6 6 6 6 6 6 6 6 6 6 6 6 6 6 6 6 6 6 6 6 6 6 6 6 6 6 6 6 6 6 ",
"6 6 6 6 6 6 6 6 6 6 6 6 6 6 7 3 3 * 6 9 4 7 6 6 6 5 6 6 6 6 6 6 6 6 6 6 6 6 6 6 6 6 6 6 6 6 6 6 6 6 6 6 6 6 6 6 6 6 6 6 ",
"6 6 6 6 6 6 6 6 6 6 6 6 6 6 6 6 6 6 6 6 6 6 6 6 6 6 6 6 6 6 6 6 6 6 6 6 6 6 6 6 6 6 6 6 6 6 6 6 6 6 6 6 6 6 6 6 6 6 6 6 ",
"6 6 6 6 6 6 6 6 6 6 6 6 6 6 6 6 6 6 6 6 6 6 6 6 6 6 6 6 6 6 6 6 6 6 6 6 6 6 6 6 6 6 6 6 6 6 6 6 6 6 6 6 6 6 6 6 6 6 6 6 ",
"6 6 6 6 6 6 6 6 6 6 6 6 6 6 6 6 6 6 6 6 6 6 6 6 6 6 6 6 6 6 6 6 6 6 6 6 6 6 6 6 6 6 6 6 6 6 6 6 6 6 6 6 6 6 6 6 6 6 6 6 ",
"6 6 6 6 6 6 6 6 6 6 6 6 6 6 6 6 6 6 6 6 6 6 6 6 6 6 6 6 6 6 6 6 6 6 6 6 6 6 6 6 6 6 6 6 6 6 6 6 6 6 6 6 6 6 6 6 6 6 6 6 ",
"6 6 6 6 6 6 6 6 6 6 6 6 6 6 6 6 6 6 6 6 6 6 6 6 6 6 6 6 6 6 6 6 6 6 6 6 6 6 6 6 6 6 6 6 6 6 6 6 6 6 6 6 6 6 6 6 6 6 6 6 ",
"6 6 6 6 6 6 6 6 6 6 6 6 6 6 6 6 6 6 6 6 6 6 6 6 6 6 6 6 6 6 6 6 6 6 6 6 6 6 6 6 6 6 6 6 6 6 6 6 6 6 6 6 6 6 6 6 6 6 6 6 ",
"6 6 6 6 6 6 6 6 6 6 6 6 6 6 6 6 6 6 6 6 6 6 6 6 6 6 6 6 6 6 6 6 6 6 6 6 6 6 6 6 6 6 6 6 6 6 6 6 6 6 6 6 6 6 6 6 6 6 6 6 ",
"6 6 6 6 6 6 6 6 6 6 6 6 6 6 6 6 6 6 6 6 6 6 6 6 6 6 6 6 6 6 6 6 6 6 6 6 6 6 6 6 6 6 6 6 6 6 6 6 6 6 6 6 6 6 6 6 6 6 6 6 ",
"6 < 6 6 6 6 6 6 6 6 6 6 6 6 6 6 6 6 6 6 6 6 6 6 6 6 6 6 6 6 6 6 6 6 6 6 6 6 6 6 6 6 6 6 6 6 6 6 6 6 6 6 6 6 6 6 6 6 6 6 ",
"6 + 6 6 6 6 6 6 6 6 6 6 6 6 6 6 6 6 6 6 6 6 6 6 6 6 6 6 6 6 6 6 6 6 6 6 6 6 5 6 6 6 6 6 6 6 6 6 6 6 6 6 6 6 6 6 6 6 6 6 ",
"5 + 6 5 6 6 6 6 6 6 6 6 6 6 6 6 6 6 6 6 6 6 6 6 6 6 6 6 6 6 6 6 6 6 6 6 5 5 & 5 5 5 6 5 6 6 6 6 6 6 6 6 6 6 6 6 6 6 6 6 ",
"2 # 5 % 6 6 6 6 6 6 6 6 6 6 6 6 6 6 6 6 6 6 6 6 6 6 6 6 6 6 6 6 6 6 6 6 > > = 6 # > 2 o 5 6 6 6 6 & 2 6 6 6 6 6 6 6 6 6 ",
"6 > 5 & 6 6 6 6 6 6 6 6 6 6 6 6 6 6 6 6 6 6 6 6 6 6 6 6 6 6 6 6 6 6 6 6 > > 6 6 ; 6 4 - 6 6 6 6 > # 5 6 6 6 6 6 6 6 6 6 ",
"6 6 6 2 6 6 6 6 6 6 6 6 6 6 6 6 6 6 6 6 6 6 6 6 6 6 6 6 6 6 6 6 6 6 6 6 6 2 6 6 6 6 6 6 6 6 6 6 6 6 6 6 6 6 6 6 6 6 6 6 ",
"6 6 6 6 6 6 6 6 6 6 6 6 6 6 6 6 6 6 6 6 6 6 6 6 6 6 6 6 6 6 6 6 6 6 6 6 6 6 6 6 6 6 6 6 6 6 6 6 6 6 6 6 6 6 6 6 6 6 6 6 "
};
