/* XPM */
static char *_b3c01c8e21743a2ce49ebba3f6c4aceFTcEumiBembEsbZo[] = {
/* columns rows colors chars-per-pixel */
"60 60 121 2 ",
"   c #010101",
".  c #080707",
"X  c #060608",
"o  c #07080A",
"O  c #0B0B0C",
"+  c #110F0F",
"@  c #0D0E12",
"#  c #0F1014",
"$  c #131314",
"%  c #14151A",
"&  c #17191F",
"*  c #1C1B1C",
"=  c #1A1C23",
"-  c #1F212A",
";  c #232323",
":  c #282626",
">  c #22252E",
",  c #2B2B2B",
"<  c #262932",
"1  c #292C37",
"2  c #292D38",
"3  c #2D313D",
"4  c #333232",
"5  c #393637",
"6  c #3D3B3B",
"7  c #556B32",
"8  c #586D36",
"9  c #5E7437",
"0  c #5E743A",
"q  c #617637",
"w  c #61763B",
"e  c #637A3D",
"r  c #2F3340",
"t  c #313442",
"y  c #343947",
"u  c #363949",
"i  c #3A3E4E",
"p  c #3D4252",
"a  c #444343",
"s  c #494646",
"d  c #4C4B4B",
"f  c #504B4B",
"g  c #404556",
"h  c #424759",
"j  c #454A5C",
"k  c #525151",
"l  c #5C5B5B",
"z  c #615E5E",
"x  c #667C42",
"c  c #474D60",
"v  c #4C5266",
"b  c #4E5469",
"n  c #646464",
"m  c #696465",
"M  c #6C6B6B",
"N  c #736D6D",
"B  c #737373",
"V  c #797475",
"C  c #7B7B7B",
"Z  c #68803F",
"A  c #6B8245",
"S  c #6E8449",
"D  c #71864A",
"F  c #738A4D",
"G  c #768C50",
"H  c #798E53",
"J  c #7B9354",
"K  c #7C9359",
"L  c #819656",
"P  c #80965B",
"I  c #859C5E",
"U  c #849C60",
"Y  c #899F62",
"T  c #87A060",
"R  c #8DA565",
"E  c #8EA569",
"W  c #90A567",
"Q  c #90A569",
"!  c #838383",
"~  c #8B8B8B",
"^  c #938B8C",
"/  c #978F90",
"(  c #929292",
")  c #9B9394",
"_  c #9C9C9C",
"`  c #A39B9B",
"'  c #A4A4A4",
"]  c #ADA5A6",
"[  c #ACACAC",
"{  c #B0A6A7",
"}  c #B0A7A8",
"|  c #B3A9AA",
" . c #B4B3B4",
".. c #BCB2B3",
"X. c #BDBDBD",
"o. c #C7BDBE",
"O. c #C9BEBF",
"+. c #C9BFC0",
"@. c #C2C2C2",
"#. c #CCC2C2",
"$. c gray79",
"%. c #CACACA",
"&. c gray81",
"*. c #D0C6C7",
"=. c #D2C7C8",
"-. c #D3C9CA",
";. c #D2D2D2",
":. c #D5D5D5",
">. c #D9D1D1",
",. c #DADADA",
"<. c #DFDFDF",
"1. c #E2E2E2",
"2. c #E5E5E5",
"3. c #EAEAEA",
"4. c #EEEBEB",
"5. c #ECECEC",
"6. c #F1EEEE",
"7. c #F3F3F3",
"8. c #F4F4F4",
"9. c #F9F9F9",
"0. c white",
/* pixels */
"R R R R R R R R R R R R R R R R R R R R R R R R R R R R R R R R R R R R R R R R R R R R R R R R R R R R R R R R R R R R ",
"R R R R R R R R R R R R R R R R R R R R R R R R R R R           R R R R R R R R R R R R R R R R R R R R R R R R R R R R ",
"R R R R R R R R R R R R R R R R R R R R R R R R R       O ;     R R R R R R R R R R R R R R R R R R R R R R R R R R R R ",
"R R R R R R R R R R R R R R R R R R R R R R R R     $ n %._     R R R R R R R R R R R R R R R R R R R R R R R R R R R R ",
"R R R R R R R R R R R R R R R R R R R R R R R     k 1.0.9.:     R R R R R R R R R R R R R R R R R R R R R R R R R R R R ",
"R R R R R R R R R R R R R R R R R R R R R R     n 9.0.0.:.X X R R R R R R R R R R R R R R R R R R R R R R R R R R R R R ",
"R R R R R R R R R R R R R R R R R R R R R     d 5.0.0.0.1.O     R R R R R R R R R R R R R R R R R R R R R R R R R R R R ",
"R R R R R R R R R R R R R R R R R R R R     : ,.0.0.0.3.l     R R R R R R R R R R R R R R R R       R R R R R R R R R R ",
"R R R R R R R R R R R R R R R R R R R R     ' 0.0.0.3.a       R R R R R R R R R R R R R R R R         R R R R R R R R R ",
"R R R R R R R R R R R R R R R R R R R     4 5.0.0.8.M       R R R R R R R R R R R R R R R R     5 4     R R R R R R R R ",
"R R R R R R R R R R R R R R R R R R R     ! 0.0.0._ X   R R R R R R R R R R R E R R R R R     o [ @.o   R R R R R R R R ",
"T R R R R R R R R R R R R R R R R R R   % ,.0.0.1.:   A T R R R R R R R R P I E 0 S E J     o k 8.9.:   R R R R R R R R ",
"S R K E Q R J R R R R R R R R R R R     s 8.0.0._     x R R R R R R R R R e 7 K 8 w E w     n 5.0.0.l   R R R R R R R R ",
"D A K E E w F E R R R R R R R R R R     C 0.0.9.k   R T R R R R R R R R R R R R I I R R R   a 0.0.0.!     R R R R R R R ",
"R A Y E A e R R R R R R R R R R R R     X.0.0.5.:                 R R R R R R R R R R R R   * 5.0.0.!     R R R R R R R ",
"R T R R P Y W R R R R R R R R R R R     ;.0.0.2.;   o % * O             R R R R R R R R R   ; 2.0.0.M     R R R R R R R ",
"R R R R R R R R R R R R R R R R R R     :.0.0.3.: * :.7.7.5.,.[ l $         R R R R R R R   : 5.0.0.a   R R R R R R R R ",
"R R R R R R R R R R R R R R R R R R     %.0.0.9.d X ' 0.0.0.0.0.9.5. .6         R R R R R   d 0.0.9.;   R R R R R R R R ",
"R R R R R R R R R R R R R R R R R R     X.0.0.0.[ X n 0.0.0.0.0.0.0.0.9.X.;       R R R     ~ 0.0.1.o   R R R R R R R R ",
"R R R R R R R R R R R R R R R R R R     ' 0.0.0.8.(  .0.0.0.0.0.0.0.0.0.0.8.B       R     4 <.0.0.!     R R R R R R R R ",
"R R R R R R R R R R R R R R R R R R     l 9.0.0.0.0.0.0.0.0.0.0.0.0.0.0.0.0.0._         , @.0.0.<.O   R R R R R R R R R ",
"R R R R R R R R R R R R R R R R R     * ; 5.0.0.0.0.0.0.0.0.0.0.0.0.0.0.0.0.0.0._     : &.0.0.7.d     R R R R R R R R R ",
"R R R R R R R R R R R R R R R R R   , ( % ,.0.0.0.0.0.0.0.0.0.0.0.0.0.0.0.0.0.0.0.~ o o [ 0.8.!     R R R R R R R R R R ",
"R R R R R R R R R R R R R R R R     ( 7.C <.0.0.0.0.0.0.0.0.0.0.0.0.0.0.0.0.0.0.0.0.l   s 3.!       R R R R R R R R R R ",
"R R R R R R R R R R R R R R R R   O 3.0.0.0.0.0.0.0.0.0.0.0.0.0.0.0.0.0.0.0.0.0.0.0.1.* O s       R R R R R R R R R R R ",
"R R R R R R R R R     R R R R R   4 0.0.0.0.0.0.0.0.0.0.0.0.0.0.0.0.0.0.0.0.0.0.0.0.0.C   X   R R R R R R R R R R R R R ",
"R R R R R R R R       R R R R T   l 0.0.0.0.0.0.0.0.0.0.0.0.0.0.0.0.0.0.0.0.0.0.0.0.0.[     R R R R R R R R R R R R R R ",
"R R R R R R R R   X O   R T R A   M 0.9.8.9.9.0.0.0.0.0.0.0.0.0.0.0.0.0.0.0.0.0.0.0.0.2.O   R R R R R R R R R R R R R R ",
"R R R R R R R R   $ <       Y 7   _ >.#.#.#.*.>.6.0.0.0.0.0.0.0.0.0.0.0.0.0.0.0.0.0.0.7.:   R R R R R R R R R R R R R R ",
"R R R R R         $ j O           M f 6 5 6 z { =.4.0.0.1.3.0.0.0.0.0.0.0.0.0.0.0.0.0.0.a   R R R R R R R R R R R R R R ",
"R R R R R     X   X h y X X # O         * o   % ) -.1.n % : M 5.0.0.0.0.0.0.0.0.0.0.0.0.6   R R R R R R R R R R R R R R ",
"R R R R R R   O #   @ c t   = <     * s 6 ! O O 4 O.V         _ 0.0.0.0.0.0.0.0.0.0.0.9.,   R R R R R R R R R R R R R R ",
"R R R R R R     t %   < v > X =     6 #.z n * ' O ^ `         B 0.0.0.0.0.0.0.0.0.0.0.1.O   R R R R R R R R R R R R R R ",
"R R R R R R R   O v $   y v > X   O l s d , 5 1.l s ..$ X     n 0.0.0.0.0.0.0.7. .@.9.(     R R R R R R R R R R R R R R ",
"R R R R R R R     j h     u v <   k  .l $ o X O : * ..%       C 0.0.0.0.0.0.@.;   o ;.5   R R R R R R R R R R R R R R R ",
"R R R R R R R     3 b 3     = <   5 ..: ..a ; ^ a $ | %        .0.0.0.0.0.~       k ~     R R R R R R R R R R R R R R R ",
"E R R R R R R     $ b b 2         5 o.` #.5 : } / ; ` +     ; 3.0.0.0.0.~ *     o _ ;   R R R R R R R R R R R R R R R R ",
"R R R R R R R R     p b b &       . V +.N 6 V d M O 6       ' 0.0.0.0.' X X   X ! 5   R R R R R R R R R R R R R R R R R ",
"R R R R R R R R     O p b %           5 m ` ] ) 5       $ ~ 9.0.0.0.<.:     X ~ M     R R R R R R E R I R T T R R R R R ",
"R R R R R R R R R     O 3 2             X : : O   : l C %.9.0.0.0.0._     O ( ~ X   R R R R R R e U x H Q G D R R T J R ",
"R R R R R R R R R R       # - = o               X M :.0.0.0.0.0.0.0.X.4 d @.~ X   R R R R R R I 0 G 9 E E e Y R R I A R ",
"R R R R R R R R R R R                     i y &     X , C [ <.8.7.7.5.:.! s     R R R R R R R E U U S R Q Y E R R R T R ",
"R R R R R R R R R R R R R R X             t b b %   X         $ * * * $       R R R R R R R R R R R R R R R R R R R R R ",
"R R R R R R R R R R R R R R I       $       h b >   & t - $ O o o                 R R R R R R R R R R R R R R R R R R R ",
"R R R R R R R R R R R R R R E U   S         o c j $     % u c b b c i %           R R R R R R R R R R R R R R R R R R R ",
"R R R R R R R R R R R R         R             o j c 1 O X   X > v b b v g t r o   R R R R R R R R R R R R R R R R R R R ",
"R R R R R R R R R R R                           X t v v v t     > c b b b j &     R R R R R R R R R R R R R R R R R R R ",
"R R R R R R R R R R R                               o @ O           o O o       R R R R R R R R R R R R R R R R R R R R ",
"R R R R R R R R R R                                                           R R R R R R R R R R R R R R R R R R R R R ",
"R R R R R R R R R R                                                   R R R R R R R R R R R R R R R R R R R R R R R R R ",
"R R R R R R R R R R R                                                 R R R R R R R R R R R R R R R R R R R R R R R R R ",
"R R R R R R R R R R R                                                 R R R R R R R R R R R R R R R R R R R R R R R R R ",
"R R R R R R R R R R R                                               R R R R R R R R R R R R R R R R R R R R R R R R R R ",
"R L R R R R R R R R R R         R R R R R R R R R R R R           R R R R R R R R R R R R R R R R R R R R R R R R R R R ",
"R q R R R R R R R R R R R     R R R R R R R R R R R R R         R R R R R R T R R R R R R R R R R R R R R R R R R R R R ",
"T q R T R R R R R R R R R R R R R R R R R R R R R R R R R R R R R R R R T T A T T T R T R R R R R R R R R R R R R R R R ",
"I e T Z R R R R R R R R R R R R R R R R R R R R R R R R R R R R R R R R J J D R e J I 9 T R R R R A I R R R R R R R R R ",
"R J T A R R R R R R R R R R R R R R R R R R R R R R R R R R R R R R R R J J R R G R Y F R R R R J e T R R R R R R R R R ",
"R R R I R R R R R R R R R R R R R R R R R R R R R R R R R R R R R R R R R I R R R R R R R R R R R R R R R R R R R R R R ",
"R R R R R R R R R R R R R R R R R R R R R R R R R R R R R R R R R R R R R R R R R R R R R R R R R R R R R R R R R R R R "
};
