/* XPM */
static char *_8f8d12fe67f4afa88a325ab99f45164b3JhUqMoHabLO1Fx[] = {
/* columns rows colors chars-per-pixel */
"60 60 158 2 ",
"   c #010101",
".  c #05050B",
"X  c #07080D",
"o  c #08090D",
"O  c #0A0A13",
"+  c #0C0E1A",
"@  c #0F1017",
"#  c #0E101C",
"$  c #121317",
"%  c #16161B",
"&  c #0F1522",
"*  c #111324",
"=  c #151925",
"-  c #1B1D25",
";  c #141629",
":  c #181728",
">  c #151A2D",
",  c #1B1D2A",
"<  c #171B31",
"1  c #1B1D32",
"2  c #1F2129",
"3  c #1A2235",
"4  c #1F263B",
"5  c #1F293E",
"6  c #222025",
"7  c #26252E",
"8  c #252631",
"9  c #262933",
"0  c #2E2E36",
"q  c #22263A",
"w  c #24293B",
"e  c #2C2D3A",
"r  c #2F313D",
"t  c #50652B",
"y  c #556B32",
"u  c #586D36",
"i  c #5E7437",
"p  c #5D743A",
"a  c #617637",
"s  c #62773D",
"d  c #637A3D",
"f  c #242D44",
"g  c #2C2E43",
"h  c #2E3342",
"j  c #223049",
"k  c #2C354D",
"l  c #2E394F",
"z  c #373744",
"x  c #373945",
"c  c #3B3A43",
"v  c #32374D",
"b  c #333B4D",
"n  c #3A3D4C",
"m  c #2F3C53",
"M  c #343D54",
"N  c #403E4A",
"B  c #344057",
"V  c #3F4153",
"C  c #374259",
"Z  c #3B445B",
"A  c #3F485E",
"S  c #434149",
"D  c #424052",
"F  c #4E4D57",
"G  c #404258",
"H  c #41495F",
"J  c #53535F",
"K  c #667C42",
"L  c #444D62",
"P  c #484F65",
"I  c #4A5166",
"U  c #4D5369",
"Y  c #505363",
"T  c #585460",
"R  c #5E5B66",
"E  c #535669",
"W  c #51586C",
"Q  c #5C5C6D",
"!  c #575B70",
"~  c #5C6174",
"^  c #67616D",
"/  c #646374",
"(  c #656578",
")  c #676A7C",
"_  c #6B6D7F",
"`  c #82797E",
"'  c #68803F",
"]  c #6B8245",
"[  c #6E8449",
"{  c #71864B",
"}  c #738A4D",
"|  c #758B50",
" . c #798E53",
".. c #7B9354",
"X. c #7C9259",
"o. c #819656",
"O. c #80965B",
"+. c #849C5E",
"@. c #849B60",
"#. c #899F62",
"$. c #87A060",
"%. c #8DA565",
"&. c #8EA569",
"*. c #90A667",
"=. c #90A569",
"-. c #6A6F80",
";. c #747485",
":. c #7B7989",
">. c #827E8C",
",. c #86808F",
"<. c #8A8692",
"1. c #898897",
"2. c #938F9D",
"3. c #95919C",
"4. c #9C96A2",
"5. c #9B9AA5",
"6. c #A19AA6",
"7. c #A19CA8",
"8. c #A4A1AB",
"9. c #AAA3AE",
"0. c #A9A8B3",
"q. c #AFAEB8",
"w. c #B3ABB5",
"e. c #B4AFB8",
"r. c #BBB2BB",
"t. c #C4BCC4",
"y. c #C8C0C7",
"u. c #C7C4CC",
"i. c #CDC5CC",
"p. c #D1C4CB",
"a. c #D6C8CE",
"s. c #CFCCD3",
"d. c #D2CCD2",
"f. c #D9CED3",
"g. c #D6D2D7",
"h. c #D8D1D6",
"j. c #DED6DA",
"k. c #E4D5DA",
"l. c #E8D7DC",
"z. c #EADBDF",
"x. c #E3DCE0",
"c. c #E9DCE0",
"v. c #E3E0E3",
"b. c #EEE3E6",
"n. c #E9E5E8",
"m. c #EEEBED",
"M. c #F1E6E9",
"N. c #FAEBEC",
"B. c #FAEEF0",
"V. c #F6F3F4",
"C. c #FDF2F2",
"Z. c #FBF4F5",
"A. c #F9F5F6",
"S. c #FDF6F6",
"D. c #FAF7F8",
"F. c #FEFAFB",
"G. c #FDFCFC",
"H. c white",
/* pixels */
"%.%.%.%.%.%.%.%.%.%.%.%.%.%.%.%.%.%.%.%.%.%.%.%.%.%.%.%.%.%.%.%.%.%.%.%.%.%.%.%.%.%.%.%.%.%.%.%.%.%.%.%.%.%.%.%.%.%.%.%.",
"%.%.%.%.%.%.%.%.%.%.%.%.%.%.%.%.%.%.%.%.%.%.%.%.%.%.%.%.%.%.%.%.%.%.%.%.%.%.%.%.%.%.%.%.%.%.%.%.%.%.%.%.%.%.%.%.%.%.%.%.",
"%.%.%.%.%.%.%.%.%.%.%.%.%.%.%.%.%.%.%.%.%.%.%.%.%.%.%.%.%.%.%.%.%.%.%.%.%.%.%.%.%.%.%.%.%.%.%.%.%.%.%.%.%.%.%.%.%.%.%.%.",
"%.%.%.%.%.%.%.%.%.%.%.%.%.%.%.%.%.%.%.%.%.%.%.%.      %.%.%.%.%.%.%.%.%.%.%.%.%.%.%.%.%.%.%.%.%.%.%.%.%.%.%.%.%.%.%.%.%.",
"%.%.%.%.%.%.%.%.%.%.%.%.%.%.%.%.%.%.%.%.%.%.%.  8 I . %.%.%.%.%.%.%.%.%.%.%.%.%.%.%.%.  %.%.%.%.%.%.%.%.%.%.%.%.%.%.%.%.",
"%.%.%.%.%.%.%.%.%.%.%.%.%.%.%.%.%.%.%.%.%.. X E M.I   %.%.%.%.%.%.%.%.%.%.%.%.%.%.%.  X     %.%.%.%.%.%.%.%.%.%.%.%.%.%.",
"%.%.%.%.%.%.%.%.%.%.%.%.%.%.%.%.%.%.%.%.%.  9.G.e.> %.%.%.%.%.%.%.%.%.%.%.%.%.%.%.%.  b _   %.%.%.%.%.%.%.%.%.%.%.%.%.%.",
"%.%.%.%.%.%.%.%.%.%.%.%.%.%.%.%.%.%.%.%.. H G.G.) * %.%.%.%.%.%.%.%.%.%.%.%.%.%.%.%.  b A.e   %.%.%.%.%.%.%.%.%.%.%.%.%.",
"%.%.%.%.%.%.%.%.%.%.%.%.%.%.%.%.%.%.%.%.  c.G.G.b.! . %.%.%.%.%.%.%.%.%.%.%.%.%.%.  O / F.e.  %.%.%.%.%.%.%.%.%.%.%.%.%.",
"%.%.%.%.%.%.%.%.%.%.%.%.%.%.%.%.%.%.%.O C G.G.G.k.$ $.%.%.%.%.%.%.%.%.%.%.%.%.%.%.  3.G.G.b.+ %.%.%.%.%.%.%.%.%.%.%.%.%.",
"%.%.%.%.%.%.%.%.%.%.%.%.%.%.%.%.%.%.%.  6.G.G.G.L + %.$.%.%.%.%.%.%.%.%.%.%.%.&.%.  M D.G.G.= %.*.%.%.%.%.%.%.%.%.%.%.%.",
"$.%.%.%.%.%.%.%.%.%.%.%.%.%.%.%.%.%.%.  N.G.G.i.X d $.] $.%.%.%.%.%.%.%.%.O.+.&.p [   m.G.F.,   ] a %.%.%.%.%.%.%.%.%.%.",
"[ %.X.&.=.%...%.%.%.%.%.%.%.%.%.%.%.%.+ G.G.G.) + ..+.K %.%.%.%.%.%.%.%.%.s y X.u s   n.G.G.-   t O.%.%.%.%.%.%.%.%.%.%.",
"{ ] X.&.&.s } &.%.%.%.%.%.%.%.%.%.%.  : G.G.G.e   %.%.$.%.%.%.%.%.%.%.%.%.%.%.%.+.    m.G.F.+ %.%.%.%.%.%.%.%.%.%.%.%.%.",
"%.] #.&.] d %.%.%.%.%.%.%.%.%.%.%.%.  : G.G.G.% %.%.%.%.%.%.%.%.%.%.%.%.%.%.%.%.%.  / G.G.i.. %.%.%.%.%.%.%.%.%.%.%.%.%.",
"%.$.%.%.O.#.*.%.%.%.%.%.%.%.%.%.%.%.  f G.G.G.%   + . . . . .             %.%.%.    v.G.G.;.  %.%.%.%.%.%.%.%.%.%.%.%.%.",
"%.%.%.%.%.%.%.%.%.%.%.%.%.%.%.%.%.%.%.1 G.G.G.g . w.s.d.g.g.d.u.w.>.T h .         >.G.G.G.n   %.%.%.%.%.%.%.%.%.%.%.%.%.",
"%.%.%.%.%.%.%.%.%.%.%.%.%.%.%.%.%.%.%.. S.G.G.r.X Y A.G.G.G.G.G.G.G.G.S.d.F   3 R A.G.G.i.o %.%.%.%.%.%.%.%.%.%.%.%.%.%.",
"%.%.%.%.%.%.%.%.%.%.%.%.%.%.%.%.%.%.%.  6.G.G.G.1.. 9.G.G.G.G.G.G.G.G.G.G.G.x.n.B.G.G.S.x   %.%.%.%.%.%.%.%.%.%.%.%.%.%.",
"%.%.%.%.%.%.%.%.%.%.%.%.%.%.%.%.%.%.%.  4 G.G.G.G.e.j.G.G.G.G.G.G.G.G.G.G.G.G.G.C./ h.R   %.%.%.%.%.%.%.%.%.%.%.%.%.%.%.",
"%.%.%.%.%.%.%.%.%.%.%.%.%.%.%.%.%.%.%.    t.G.G.G.G.G.G.G.G.G.G.G.G.G.G.G.G.G.G.G.~ &   %.%.%.%.%.%.%.%.%.%.%.%.%.%.%.%.",
"%.%.%.%.%.%.%.%.%.%.%.%.%.%.%.%.%.%.%.    > A.G.G.G.G.G.G.G.G.G.G.G.G.G.G.G.G.G.G.j.o   %.%.%.%.%.%.%.%.%.%.%.%.%.%.%.%.",
"%.%.%.%.%.%.%.%.%.%.%.%.%.%.%.%.%.%.  1 7.c V.G.G.G.G.G.G.G.G.G.G.G.G.G.G.G.G.G.G.G.V   %.%.%.%.%.%.%.%.%.%.%.%.%.%.%.%.",
"%.%.%.%.%.%.%.%.%.%.%.%.%.%.%.%.%.%.  ~ G.F.G.G.G.G.G.G.G.G.G.G.G.G.G.G.G.G.G.G.G.G.t.  %.%.%.%.%.%.%.%.%.%.%.%.%.%.%.%.",
"%.%.%.%.%.%.%.%.%.%.%.%.%.%.%.%.%.%.  r.G.G.G.G.G.G.G.G.G.G.G.G.G.G.G.G.G.G.G.G.G.G.F.% %.%.%.%.%.%.%.%.%.%.%.%.%.%.%.%.",
"%.%.%.%.%.%.%.%.%.%.%.%.%.%.%.%.%.%.  N.G.G.G.G.G.G.G.G.G.G.G.G.G.G.G.G.G.G.G.G.G.G.G.D   %.%.%.%.%.%.%.%.%.%.%.%.%.%.%.",
"%.%.%.%.%.%.%.%.%.%.%.%.%.%.%.$.&.&.. C.G.G.G.G.G.G.G.G.G.G.G.G.G.G.G.G.G.G.G.G.G.G.G.~   %.%.%.%.%.%.%.%.%.%.%.%.%.%.%.",
"%.%.%.%.%.%.%.%.%.%.%.%.%.$.%.] O.X.X S.G.G.G.G.G.G.G.G.G.G.G.G.G.G.G.G.G.G.G.G.G.G.G.W   %.%.%.%.%.%.%.%.%.%.%.%.%.%.%.",
"%.%.%.%.%.%.%.%.%.%.%.%.%.%.#.y s | . S.G.G.G.G.G.G.G.G.G.G.G.G.G.G.G.G.G.G.G.G.G.G.G.7   %.%.%.%.%.%.%.%.%.%.%.%.%.%.%.",
"%.%.%.%.%.%.%.%.%.%.%.%.%.%.%.O.{     N.G.G.G.G.G.G.N.r.9.z.G.G.G.G.G.G.G.G.G.G.G.G.G.$ %.%.%.%.%.%.%.%.%.%.%.%.%.%.%.%.",
"%.%.%.%.%.%.%.%.%.%.%.%.%.%.%.%.      t.G.G.G.G.G.y.=     O w.G.G.G.G.G.G.G.A.-.4.G.p.X %.%.%.%.%.%.%.%.%.%.%.%.%.%.%.%.",
"%.%.%.%.%.%.%.%.%.%.%.%.%.%.%.  X Q   L G.G.G.G.M.-         S F.G.G.G.G.G.a.O     k.-.. %.%.%.%.%.%.%.%.%.%.%.%.%.%.%.%.",
"%.%.%.%.%.%.%.%.%.%.%.%.%.%.%.%.  U . * G.G.G.G.~           9 B.G.G.G.G.c.o       p.e   %.%.%.%.%.%.%.%.%.%.%.%.%.%.%.%.",
"%.%.%.%.%.%.%.%.%.%.%.%.%.%.%.%.. @ H   f.G.G.G.7           c S.G.G.G.F.Q         l.. %.%.%.%.%.%.%.%.%.%.%.%.%.%.%.%.%.",
"%.%.%.%.%.%.%.%.%.%.%.%.%.%.%.%.%.  L   , F.G.G.6           >.G.G.G.G.m..       n Z   %.%.%.%.%.%.%.%.%.%.%.%.%.%.%.%.%.",
"%.%.%.%.%.%.%.%.%.%.%.%.%.%.%.%.%.  O E   :.G.G.~         - M.G.G.G.G.p.        9.. %.%.%.%.%.%.%.%.%.%.%.%.%.%.%.%.%.%.",
"&.%.%.%.%.%.%.%.%.%.%.%.%.%.%.%.%.  # >.G   8.G.m.n     z j.G.G.G.G.G.f.      2.2   %.%.%.%.%.%.%.%.%.%.%.%.%.%.%.%.%.%.",
"%.%.%.%.%.%.%.%.%.%.%.%.%.%.%.%.  . ( ,./ . . <.A.A.i.i.V.G.G.G.G.G.G.G.r.` w.N   %.%.%.%.%.%.%.%.%.%.%.%.%.%.%.%.%.%.%.",
"%.%.%.%.%.%.%.%.%.%.%.%.%.%.%.%.    ;.( + O X   0 2.x.S.G.G.G.G.G.G.G.G.A.5.8   %.%.%.%.%.%.%.%.%.&.%.+.%.$.$.%.%.%.%.%.",
"%.%.%.%.%.%.%.%.%.%.%.%.%.%.%.%.%.  + O   o * w * . X , ^ 3.5.0.e.8.>.T r .   %.%.%.%.%.%.%.%.%.s @.K  .=.| { %.%.$...%.",
"%.%.%.%.%.%.%.%.%.%.%.%.%.%.%.%.%.        g I U M ; O & +                 %.%.%.%.%.%.%.%.%.%.+.p | i &.&.s #.%.%.+.] %.",
"%.%.%.%.%.%.%.%.%.%.%.%.%.%.%.%.&.    . M I A > X 3 Z U I * # w .     %.%.%.%.%.%.%.%.%.%.%.%.&.@.@.[ %.=.#.&.%.%.%.$.%.",
"%.%.%.%.%.%.%.%.%.%.%.%.%.%.%.s @.    Z L f X = Z U U I f . + L * O   %.%.%.%.%.%.%.%.%.%.%.%.%.%.%.%.%.%.%.%.%.%.%.%.%.",
"%.%.%.%.%.%.%.%.%.%.%.%.%.%.+.p     k L 3 O k U U U L =   * O L 4 X   %.%.%.%.%.%.%.%.%.%.%.%.%.%.%.%.%.%.%.%.%.%.%.%.%.",
"%.%.%.%.%.%.%.%.%.%.%.%.%.%.&.@.  = H > O A U U U b X X k H   Z v . O   %.%.%.%.%.%.%.%.%.%.%.%.%.%.%.%.%.%.%.%.%.%.%.%.",
"%.%.%.%.%.%.%.%.%.%.%.%.%.%.%.%.  Z ; X L U U L 1   # Z U q   k Z   *   %.%.%.%.%.%.%.%.%.%.%.%.%.%.%.%.%.%.%.%.%.%.%.%.",
"%.%.%.%.%.%.%.%.%.%.%.%.%.%.%.  # > . Z U I f   . 5 I U q     w L . *   %.%.%.%.%.%.%.%.%.%.%.%.%.%.%.%.%.%.%.%.%.%.%.%.",
"%.%.%.%.%.%.%.%.%.%.%.%.%.%.%.  *   m I H +   * H U L =       , I O *   %.%.%.%.%.%.%.%.%.%.%.%.%.%.%.%.%.%.%.%.%.%.%.%.",
"%.%.%.%.%.%.%.%.%.%.%.%.%.%.      3 U l . X Z U I M X         = U + #     %.%.%.%.%.%.%.%.%.%.%.%.%.%.%.%.%.%.%.%.%.%.%.",
"%.%.%.%.%.%.%.%.%.%.%.%.%.%.    O I k   O P U Z O             # U * +     %.%.%.%.%.%.%.%.%.%.%.%.%.%.%.%.%.%.%.%.%.%.%.",
"%.%.%.%.%.%.%.%.%.%.%.%.%.%.    f M   X P U 5                 X I * +     %.%.%.%.%.%.%.%.%.%.%.%.%.%.%.%.%.%.%.%.%.%.%.",
"%.%.%.%.%.%.%.%.%.%.%.%.%.%.  O Z .   j U ;                     L * + .   %.%.%.%.%.%.%.%.%.%.%.%.%.%.%.%.%.%.%.%.%.%.%.",
"%.%.%.%.%.%.%.%.%.%.%.%.%.    < .     C 1                       Z + # O   %.%.%.%.%.%.%.%.%.%.%.%.%.%.%.%.%.%.%.%.%.%.%.",
"%.o.%.%.%.%.%.%.%.%.%.%.%.        %.  f                         k   O O   %.%.%.%.%.%.%.%.%.%.%.%.%.%.%.%.%.%.%.%.%.%.%.",
"%.a %.%.%.%.%.%.%.%.%.%.%.  %.%.%.%.  X X         %.            3         %.$.%.%.%.%.%.%.%.%.%.%.%.%.%.%.%.%.%.%.%.%.%.",
"$.a %.$.%.%.%.%.%.%.%.%.%.%.%.%.%.%.    %.        %.        .       %.    $.] $.$.$.%.$.%.%.%.%.%.%.%.%.%.%.%.%.%.%.%.%.",
"+.d $.' %.%.%.%.%.%.%.%.%.%.%.%.%.%.    %.        %.      .       %.%.%.....{ %.d ..+.i $.%.%.%.%.] O.%.%.%.%.%.%.%.%.%.",
"%...$.] %.%.%.%.%.%.%.%.%.%.%.%.%.%.%.%.%.%.      %.      %.    %.%.%.%.....%.%.| %.#.} %.%.%.%...s $.%.%.%.%.%.%.%.%.%.",
"%.%.%.+.%.%.%.%.%.%.%.%.%.%.%.%.%.%.%.%.%.%.%.  %.%.    %.%.%.%.%.%.%.%.%.+.%.%.%.%.%.%.%.%.%.%.%.%.%.%.%.%.%.%.%.%.%.%.",
"%.%.%.%.%.%.%.%.%.%.%.%.%.%.%.%.%.%.%.%.%.%.%.%.%.%.%.%.%.%.%.%.%.%.%.%.%.%.%.%.%.%.%.%.%.%.%.%.%.%.%.%.%.%.%.%.%.%.%.%."
};
