/* XPM */
static char *_75cbaaf1b354d3f89cb157cfc5d051bo4Td7g0N6qUjCmG5[] = {
/* columns rows colors chars-per-pixel */
"60 60 139 2 ",
"   c #010101",
".  c #060709",
"X  c #07080A",
"o  c #0B0B0C",
"O  c #0D0E12",
"+  c #0D0E1A",
"@  c #0E121D",
"#  c #121314",
"$  c #14161B",
"%  c #17191E",
"&  c #1C1C1C",
"*  c #0E1522",
"=  c #141724",
"-  c #1B1D25",
";  c #121B2B",
":  c #1B1D2C",
">  c #1D2027",
",  c #1D2029",
"<  c #1A2133",
"1  c #1C2639",
"2  c #232324",
"3  c #23252C",
"4  c #2D2D2D",
"5  c #242633",
"6  c #262933",
"7  c #292B36",
"8  c #20273C",
"9  c #262C39",
"0  c #2B2E3A",
"q  c #2E313E",
"w  c #333333",
"e  c #31323C",
"r  c #3C3C3C",
"t  c #5D7337",
"y  c #5D743A",
"u  c #617637",
"i  c #62773A",
"p  c #637A3E",
"a  c #2E3240",
"s  c #313543",
"d  c #353847",
"f  c #3C3E45",
"g  c #373B4A",
"h  c #393D4D",
"j  c #3E4353",
"k  c #3A4158",
"l  c #444444",
"z  c #4D4D4D",
"x  c #414656",
"c  c #4A4B53",
"v  c #424758",
"b  c #454A5C",
"n  c #4B4E5E",
"m  c #535353",
"M  c #5D5D5D",
"N  c #667B43",
"B  c #474C60",
"V  c #484E61",
"C  c #4C5266",
"Z  c #4E5469",
"A  c #535564",
"S  c #515568",
"D  c #5E5E6F",
"F  c #575C70",
"G  c #595E71",
"H  c #5F6272",
"J  c #646464",
"K  c #64656D",
"L  c gray42",
"P  c #6A6B79",
"I  c #726F7A",
"U  c #747474",
"Y  c #7E7E7E",
"T  c #68803F",
"R  c #6B8345",
"E  c #6E8449",
"W  c #71864A",
"Q  c #738A4D",
"!  c #758B50",
"~  c #798E53",
"^  c #7B9354",
"/  c #7D9559",
"(  c #819656",
")  c #80965B",
"_  c #849C5D",
"`  c #849B60",
"'  c #899F62",
"]  c #87A060",
"[  c #8DA565",
"{  c #8EA569",
"}  c #90A567",
"|  c #91A669",
" . c #7C7A8B",
".. c #838383",
"X. c #82838E",
"o. c #8B8B8B",
"O. c #858393",
"+. c #888693",
"@. c #8B8895",
"#. c #918E9B",
"$. c #939393",
"%. c #96909E",
"&. c #9B9B9B",
"*. c #9997A5",
"=. c #9A98A5",
"-. c #A59EA4",
";. c #A49EAA",
":. c #A5A5A5",
">. c #ACA4AB",
",. c #AAAAAA",
"<. c #B4ABAE",
"1. c #B5ABB6",
"2. c #B5B5B5",
"3. c #BCBCBC",
"4. c #C4BBBC",
"5. c #C4C3C3",
"6. c #CAC2C3",
"7. c #CEC6CA",
"8. c #C9C9C9",
"9. c #CDCDCD",
"0. c #D0CACB",
"q. c #D3CFD5",
"w. c #D2D2D2",
"e. c gray84",
"r. c #DBDBDB",
"t. c #DBDBDC",
"y. c #DDDDDD",
"u. c #E4DEDF",
"i. c #E0E0E0",
"p. c #E6E2E2",
"a. c #E6E6E6",
"s. c #E9E9E9",
"d. c gray93",
"f. c #F0EEEF",
"g. c #F3F3F3",
"h. c gray96",
"j. c #F9F9F9",
"k. c #FCFBFB",
"l. c white",
/* pixels */
"[ [ [ [ [ [ [ [ [ [ [ [ [ [ [ [ [ [ [ [ [ [ [ [ [ [ [ [ [ [ [ [ [ [ [ [ [ [ [ [ [ [ [ [ [ [ [ [ [ [ [ [ [ [ [ [ [ [ [ [ ",
"[ [ [ [ [ [ [ [ [ [ [ [ [ [ [ [ [ [ [ [ [ [ [ [ [ [ [ [ [ [ [ [ [ [ [ [ [ [ [ [ [ [       [ [ [ [ [ [ [ [ [ [ [ [ [ [ [ ",
"[ [ [ [ [ [ [ [ [ [ [ [ [ [       [ [ [ [ [ [ [ [ [ [ [ [ [ [ [ [ [ [ [ [ [ [ [ [ [   o .   [ [ [ [ [ [ [ [ [ [ [ [ [ [ ",
"[ [ [ [ [ [ [ [ [ [ [ [ [     #     [ [ [ [ [ [ [ [ [ [ [ [ [ [ [ [ [ [ [ [ [ [ [ [   r ..o   [ [ [ [ [ [ [ [ [ [ [ [ [ ",
"[ [ [ [ [ [ [ [ [ [ [ [     m U   [ [ [ [ [ [ [ [ [ [ [ [ [ [ [ [ [ [ [ [ [ [ [ [ [   & a.8.o   [ [ [ [ [ [ [ [ [ [ [ [ ",
"[ [ [ [ [ [ [ [ [ [ [     & y.9.2 .   [ [ [ [ [ [ [ [ [ [ [ [ [ [ [ [ [ [ [ [ [ [ [     2.l.J     [ [ [ [ [ [ [ [ [ [ [ ",
"[ [ [ [ [ [ [ [ [ [ [   2 5.l.d.U #   [ [ [ [ [ [ [ [ [ [ [ [ [ [ [ [ [ [ [ [ [ [     r d.l.s.o   [ [ [ [ [ [ [ [ [ [ [ ",
"[ [ [ [ [ [ [ [ [ [     2.l.l.l.o..   [ [ [ [ [ [ [ [ [ [ [ [ [ [ [ [ [ [ [ [ [ [     J l.l.l.L   w [ [ [ [ [ [ [ [ [ [ ",
"[ [ [ [ [ [ [ [ [ [   o i.l.l.w.#   [ [ [ { ) [ [ ) [ [ [ [ [ [ [ [ [ [ [ [ [ [ [ [   o 3.l.l.r.. o [ [ [ [ [ [ [ [ [ [ ",
"[ [ [ [ [ [ [ [ [ [   4 g.l.l.$.    [ [ [ { R ^                           [ [ [ [ [ [   w h.l.l.&   [ [ [ [ [ [ [ [ [ [ ",
"[ [ [ [ [ [ [ [ [ [   l j.l.l.o.  [ [ [ [ [         o & w l z z M l 2 o       { [ [ [   # i.l.l.r   [ [ [ [ [ [ [ [ [ [ ",
"] [ [ [ [ [ [ [ [ [   l j.l.l.Y   [ [ [ [     . w &.9.a.h.l.l.l.l.l.g.8.o.r #     E {   # y.l.l.z   [ [ [ [ [ [ [ [ [ [ ",
"E [ / { | [ ^ [ [ [   w h.l.l.$.    [ [     2 ,.h.l.l.l.l.l.l.l.l.l.l.l.l.l.w.M .   {   # i.l.l.r   [ [ [ [ [ [ [ [ [ [ ",
"W R / { { i Q { [ [   o i.l.l.y.#         z i.h.d.j.l.l.l.l.l.l.l.l.l.l.h.y.i.j.o..     2 d.l.l.#   [ [ [ [ [ [ [ [ [ [ ",
"[ R ' { R p [ [ [ [     o.l.l.l...o     l d.2.4 # M s.l.l.l.l.l.l.l.l.h.M o o L s.m   . J l.l.g..   [ [ [ [ [ [ [ [ [ [ ",
"[ ] [ [ ) ' } [ [ [ [   2 i.l.l.j.U   & i.o.        U l.l.l.l.l.l.l.l.Y         J 5.. 4 g.l.l.$.    [ [ [ [ [ [ [ [ [ [ ",
"[ [ [ [ [ [ [ [ [ [ [     l d.l.h.l . ,.r..         4 h.l.l.l.l.l.l.l.r         . ,.2 o e.l.d.#   [ [ [ [ [ [ [ [ [ [ [ ",
"[ [ [ [ [ [ [ [ [ [ [ [     ..l.e.# 4 h...          & a.l.l.l.l.l.l.j.w           l M   Y h.z     [ [ [ [ [ [ [ [ [ [ [ ",
"[ [ [ [ [ [ [ [ [ [ [ [ [     U 2.. z h.w           o r.l.l.l.l.l.l.l.l           # ..  z U     [ [ [ [ [ [ [ [ [ [ [ [ ",
"[ [ [ [ [ [ [ [ [ [ [ [ [       4 . M s.&           o e.l.l.l.l.l.l.l.L           o ... o     [ [ [ [ [ [ [ [ [ [ [ [ [ ",
"[ [ [ [ [ [ [ [ [ [ [ [ [ [ [       J a.#           & a.l.l.l.l.l.l.l.5..         . $.o       [ [ [ [ [ [ [ [ [ [ [ [ [ ",
"[ [ [ [ [ [ [ [ [ [ [ [ [ [ [ [     J d.&           J l.l.l.l.l.l.l.l.l.m         o 2.#   [ [ [ [ [ [ [ [ [ [ [ [ [ [ [ ",
"[ [ [ [ [ [ [ [ [ [ [ [ [ [ [ [ [   M l.M         & r.l.l.l.l.l.l.l.l.l.s.2       4 i.&   [ [ [ [ [ [ [ [ [ [ [ [ [ [ [ ",
"[ [ [ [ [ [ [ [ [ [     [ [ [ [ [   M l.e.2     4 8.l.l.l.l.l.l.l.l.l.l.l.8.m w l 3.h.2   [ [ [ [ [ [ [ [ [ [ [ [ [ [ [ ",
"[ [ [ [ [ [ [ [ [ [     [ [ [ [ [   m l.l.r.$.:.s.l.l.l.l.l.l.l.l.l.l.l.l.l.j.g.h.l.g.&   [ [ [ [ [ [ [ [ [ [ [ [ [ [ [ ",
"[ [ [ [ [ [ [ [ [ [   #   [ [ [ [   l l.l.l.l.l.l.l.l.l.k.u.7.6.0.p.j.l.l.l.l.l.l.l.r.o   [ [ [ [ [ [ [ [ [ [ [ [ [ [ [ ",
"[ [ [ [ [     [ [ O   g   .     { o w j.l.l.l.l.l.l.l.q.#.@.+.#.-.<.4.f.l.l.l.l.l.l.2.    [ [ [ [ [ [ [ [ [ [ [ [ [ [ [ ",
"[ [ [ [ [           $ C #   O .     # 5.l.l.l.l.l.d.K ; X .   o + b -.>.h.l.l.l.l.l.&.    [ [ [ [ [ [ [ [ [ [ [ [ [ [ [ ",
"[ [ [ [ [ [   o O $ b Z v o $ j q O   . U g.l.l.h.z     & &., #.3   < >.6.l.l.l.l.j.z   [ [ [ [ [ [ [ [ [ [ [ [ [ [ [ [ ",
"[ [ [ [ [ [   # B Z Z Z Z h X O x Z j #   # 3.l.&..   o # w.r : .   * b <.h.l.l.l.5.o   [ [ [ [ [ [ [ [ [ [ [ [ [ [ [ [ ",
"[ [ [ [ [ [ [   # v Z Z Z Z d . . 7 C C s     4 w   < m o & # $ X.H * ; P d.l.l.j.m     [ [ [           [ [ [ [ [ [ [ [ ",
"[ [ [ [ [ [ [ [   o 0 C Z Z Z h o   o 0 C B 7 .   = k # 2 .   6 *.G % ; < t.d.r.Y . o [ [         o O o     [ [ [ [ [ [ ",
"[ [ [ [ [ [ [ [ [     o 7 v C Z b -     X > h v . 5 #.=.7.9 + . . # # 1 @ 2 # o       .     - h b B g 7 -   [ [ [ [ [ [ ",
"[ [ [ [ [ [ [ [ [   o .   . . o $ - # .       o   @ 1.;.S 8 O.c . & s a . O $ # O .     $ j C h - o .       [ [ [ [ [ [ ",
"[ [ [ [ [ [ [ [ .   6 s 5 - # o .     . . . O o     H  .@ : >.I o e F O 7 v s $ .   o q V V 3 .     [ [ [ [ [ [ [ [ [ [ ",
"[ [ [ [ [ [ [     % 0 0 0 0 d d s a q a a s d s 7 . + P G S  .%.C H 3   # o     . , v Z C -     [ [ [ [ [ [ [ [ [ [ [ [ ",
"{ [ [ [ [ [ [   . .         o $ 6 0 0 0 0 0 5 - O .   . 7 A A D n -   . X o $ 0 j C Z Z v     [ [ [ [ [ [ [ [ [ [ [ [ [ ",
"[ [ [ [ [ [ [                                     .                 . o 3 v C Z Z Z Z Z V %     [ [ [ [ [ [ [ [ [ [ [ [ ",
"[ [ [ [ [ [ [ [ [ [ [ [ [ [ [ [ [     . .                                 & f x j j j h s %       { [ _ [ ] ] [ [ [ [ [ ",
"[ [ [ [ [ [ [ [ [ [ [ [ [ [         O d 0                                                       p ` N ~ | ! W [ [ ] ^ [ ",
"[ [ [ [ [ [ [ [ [ [ [ [ [ [     . $ s h d                                                 [ [ _ y ! t { { p ' [ [ _ R [ ",
"[ [ [ [ [ [ [ [ [ [ [ [ [ [ [     . O - 6 , o                         .     [ [ [ [ [ [ [ [ [ { ` ` E [ | ' { [ [ [ ] [ ",
"[ [ [ [ [ [ [ [ [ [ [ [ [ [ [ p `           .                             [ [ [ [ [ [ [ [ [ [ [ [ [ [ [ [ [ [ [ [ [ [ [ ",
"[ [ [ [ [ [ [ [ [ [ [ [ [ [ _ y ! t { { p '                               [ [ [ [ [ [ [ [ [ [ [ [ [ [ [ [ [ [ [ [ [ [ [ ",
"[ [ [ [ [ [ [ [ [ [ [ [ [ [ { ` ` E [ | ' { [                             [ [ [ [ [ [ [ [ [ [ [ [ [ [ [ [ [ [ [ [ [ [ [ ",
"[ [ [ [ [ [ [ [ [ [ [ [ [ [ [ [ [ [ [ [ [ [ [                             [ [ [ [ [ [ [ [ [ [ [ [ [ [ [ [ [ [ [ [ [ [ [ ",
"[ [ [ [ [ [ [ [ [ [ [ [ [ [ [ [ [ [ [ [ [ [ [                             [ [ [ [ [ [ [ [ [ [ [ [ [ [ [ [ [ [ [ [ [ [ [ ",
"[ [ [ [ [ [ [ [ [ [ [ [ [ [ [ [ [ [ [ [ [ [ [                           [ [ [ [ [ [ [ [ [ [ [ [ [ [ [ [ [ [ [ [ [ [ [ [ ",
"[ [ [ [ [ [ [ [ [ [ [ [ [ [ [ [ [ [ [ [ [ [ [                           [ [ [ [ [ [ [ [ [ [ [ [ [ [ [ [ [ [ [ [ [ [ [ [ ",
"[ [ [ [ [ [ [ [ [ [ [ [ [ [ [ [ [ [ [ [ [ [ [ [                         [ [ [ [ [ [ [ [ [ [ [ [ [ [ [ [ [ [ [ [ [ [ [ [ ",
"[ [ [ [ [ [ [ [ [ [ [ [ [ [ [ [ [ [ [ [ [ [ [ [                         [ [ [ [ [ [ [ [ [ [ [ [ [ [ [ [ [ [ [ [ [ [ [ [ ",
"[ [ [ [ [ [ [ [ [ [ [ [ [ [ [ [ [ [ [ [ [ [ [ [     .                 [ [ [ [ [ [ [ [ [ [ [ [ [ [ [ [ [ [ [ [ [ [ [ [ [ ",
"[ [ [ [ [ [ [ [ [ [ [ [ [ [ [ [ [ [ [ [ [ [ [ [ [                     [ [ [ [ [ [ [ [ [ [ [ [ [ [ [ [ [ [ [ [ [ [ [ [ [ ",
"[ ( [ [ [ [ [ [ [ [ [ [ [ [ [ [ [ [ [ [ [ [ [ [ [         [ [         [ [ [ [ [ [ [ [ [ [ [ [ [ [ [ [ [ [ [ [ [ [ [ [ [ ",
"[ u [ [ [ [ [ [ [ [ [ [ [ [ [ [ [ [ [ [ [ [ [ [ [         [ [       [ [ [ [ ] [ [ [ [ [ [ [ [ [ [ [ [ [ [ [ [ [ [ [ [ [ ",
"] i [ ] [ [ [ [ [ [ [ [ [ [ [ [ [ [ [ [ [ [ [ [ [         [ [       [ [ ] ] R ] ] ] [ ] [ [ [ [ [ [ [ [ [ [ [ [ [ [ [ [ ",
"_ p ] T [ [ [ [ [ [ [ [ [ [ [ [ [ [ [ [ [ [ [ [ [ [       [ [       [ [ ^ ^ W [ p ^ _ t ] [ [ [ [ R ) [ [ [ [ [ [ [ [ [ ",
"[ ^ ] R [ [ [ [ [ [ [ [ [ [ [ [ [ [ [ [ [ [ [ [ [ [       [ [     [ [ [ ^ ^ [ [ ! [ ' Q [ [ [ [ ^ p ] [ [ [ [ [ [ [ [ [ ",
"[ [ [ _ [ [ [ [ [ [ [ [ [ [ [ [ [ [ [ [ [ [ [ [ [ [ [ [ [ [ [ [ [ [ [ [ [ _ [ [ [ [ [ [ [ [ [ [ [ [ [ [ [ [ [ [ [ [ [ [ ",
"[ [ [ [ [ [ [ [ [ [ [ [ [ [ [ [ [ [ [ [ [ [ [ [ [ [ [ [ [ [ [ [ [ [ [ [ [ [ [ [ [ [ [ [ [ [ [ [ [ [ [ [ [ [ [ [ [ [ [ [ "
};
