/* XPM */
static char *_000[] = {
/* columns rows colors chars-per-pixel */
"60 60 170 2 ",
"   c #010102",
".  c #05050B",
"X  c #07080E",
"o  c #08090F",
"O  c #0A0B14",
"+  c #0D0D1A",
"@  c #0F111E",
"#  c #13141D",
"$  c #0F0F23",
"%  c #0F1220",
"&  c #121323",
"*  c #151926",
"=  c #1A1C26",
"-  c #14162B",
";  c #15192B",
":  c #1A1C2C",
">  c #171B33",
",  c #191E34",
"<  c #1A1F3B",
"1  c #1F212D",
"2  c #1C2235",
"3  c #1C233A",
"4  c #212027",
"5  c #21212D",
"6  c #232534",
"7  c #24273B",
"8  c #22293D",
"9  c #2D2F3F",
"0  c #302F3A",
"q  c #33323B",
"w  c #556C32",
"e  c #5D7436",
"r  c #5D743A",
"t  c #617637",
"y  c #61763B",
"u  c #637A3D",
"i  c #1C2641",
"p  c #1E2943",
"a  c #222740",
"s  c #232C44",
"d  c #2A2F45",
"f  c #222F48",
"g  c #233047",
"h  c #2B3146",
"j  c #26324A",
"k  c #2A344B",
"l  c #2C384E",
"z  c #333241",
"x  c #3B3A44",
"c  c #32374A",
"v  c #32394E",
"b  c #293750",
"n  c #2E3A51",
"m  c #333D54",
"M  c #413F4A",
"N  c #364156",
"B  c #364259",
"V  c #3A445B",
"C  c #3F495F",
"Z  c #45424C",
"A  c #4A454A",
"S  c #4B4750",
"D  c #4C4B55",
"F  c #42495F",
"G  c #4D4D5C",
"H  c #55525C",
"J  c #59555F",
"K  c #657D40",
"L  c #687F44",
"P  c #434C61",
"I  c #484F65",
"U  c #4A5267",
"Y  c #4D5469",
"T  c #545462",
"R  c #5B5860",
"E  c #52566A",
"W  c #555B6F",
"Q  c #5C5B69",
"!  c #5A5E72",
"~  c #625D69",
"^  c #5D6275",
"/  c #66626E",
"(  c #68636E",
")  c #636273",
"_  c #636779",
"`  c #696678",
"'  c #6B6C7D",
"]  c #726B76",
"[  c #797479",
"{  c #68803F",
"}  c #6B8245",
"|  c #6E8549",
" . c #71864B",
".. c #748B4D",
"X. c #768D51",
"o. c #788E53",
"O. c #7B9354",
"+. c #7C9359",
"@. c #819656",
"#. c #80965C",
"$. c #849C5D",
"%. c #859C61",
"&. c #899F62",
"*. c #87A060",
"=. c #8DA565",
"-. c #8EA568",
";. c #90A567",
":. c #90A569",
">. c #6F7182",
",. c #757686",
"<. c #7B7683",
"1. c #7A7A8A",
"2. c #837E87",
"3. c #898287",
"4. c #87808A",
"5. c #838291",
"6. c #8B8794",
"7. c #8C8997",
"8. c #8F8C99",
"9. c #938D98",
"0. c #97919E",
"q. c #9B949C",
"w. c #9B95A2",
"e. c #9F99A5",
"r. c #A49CA5",
"t. c #A59EA9",
"y. c #AAA2AC",
"u. c #ADA6B1",
"i. c #B3AAB2",
"p. c #BAAEB5",
"a. c #B9AEB8",
"s. c #BCB4B7",
"d. c #BDB3BB",
"f. c #C0B4BD",
"g. c #C3B9BF",
"h. c #C5BBC2",
"j. c #CBBEC5",
"k. c #CCC0C7",
"l. c #CEC2C9",
"z. c #CCCBCF",
"x. c #D3C5CC",
"c. c #D6C9CF",
"v. c #D7CED2",
"b. c #DBCCD2",
"n. c #D1D0D5",
"m. c #DFD2D6",
"M. c #DCD4D9",
"N. c #E2D2D6",
"B. c #E4D5D9",
"V. c #E8D7DB",
"C. c #E5D9DD",
"Z. c #EBDADE",
"A. c #EDDBDF",
"S. c #DEDEE1",
"D. c #E4DDE1",
"F. c #EADEE1",
"G. c #F1DFE2",
"H. c #EDE2E5",
"J. c #E8E4E8",
"K. c #F2E2E5",
"L. c #F5E6E9",
"P. c #F9E7EA",
"I. c #F4EAED",
"U. c #F9ECEE",
"Y. c #F3EEF0",
"T. c #FBEEF0",
"R. c #F4F1F3",
"E. c #FCF4F5",
"W. c #FCF7F8",
"Q. c #FFFEFE",
/* pixels */
"=.=.=.=.=.=.=.=.=.=.=.=.=.=.=.=.=.=.=.=.=.=.=.=.=.=.=.=.=.=.=.=.=.=.=.=.=.=.=.=.=.=.=.=.=.=.=.=.=.=.=.=.=.=.=.=.=.=.=.=.",
"=.=.=.=.=.=.=.=.=.=.=.=.=.=.=.=.=.=.=.=.=.=.=.=.=.=.=.=.=.=.=.=.=.=.=.=.=.=.=.=.=.=.=.=.=.=.=.=.=.=.=.=.=.=.=.=.=.=.=.=.",
"=.=.=.=.=.=.=.=.=.=.=.=.=.=.=.=.=.=.=.=.=.=.=.=.=.=.=.=.=.=.=.=.=.=.=.=.=.=.=.=.=.=.=.=.=.=.=.=.=.=.=.=.=.=.=.=.=.=.=.=.",
"=.=.=.=.=.=.=.=.=.=.=.=.=.=.=.=.=.=.=.=.=.=.=.=.=.=.=.=.=.=.=.=.=.=.=.=.=.=.=.=.=.=.=.=.=.=.=.=.=.=.=.=.=.=.=.=.=.=.=.=.",
"=.=.=.=.=.=.=.=.=.=.=.=.=.=.=.=.=.=.=.=.=.=.=.=.=.=.=.=.=.=.=.=.=.=.=.=.=.=.=.=.=.=.=.=.=.=.=.=.=.=.=.=.=.=.=.=.=.=.=.=.",
"=.=.=.=.=.=.=.=.=.=.=.=.=.=.=.=.=.=.=.=.=.=.=.=.=.=.=.=.=.=.=.=.=.=.=.=.=.=.=.=.=.=.=.=.=.=.=.=.=.=.=.=.=.=.=.=.=.=.=.=.",
"=.=.=.=.=.=.=.=.=.=.=.=.=.=.=.=.=.=.=.=.=.=.=.=.=.=.=.=.=.=.=.=.=.=.=.=.=.=.=.=.=.=.=.=.=.=.=.=.=.=.=.=.=.=.=.=.=.=.=.=.",
"=.=.=.=.=.=.=.=.=.=.=.=.=.=.=.=.=.=.=.=.=.=.=.=.=.=.=.=.=.=.=.=.=.=.=.=.=.=.=.  =.=.=.=.=.=.=.=.=.=.=.=.=.=.=.=.=.=.=.=.",
"=.=.=.=.=.=.=.=.=.=.=.=.=.=.=.=.=.=.=.=.=.-.#.=.=.#.=.=.=.=.=.=.=.=.=.=.=.. O .   =.=.=.=.=.=.=.=.=.=.=.=.=.=.=.=.=.=.=.",
"=.=.=.=.=.=.=.=.=.=.=.=.=.=.=.=.=.=.=.=.=.-.} O.-.u *.=.=.=.=.=.=.=.=.=., ; G , @ =.=.=.=.=.=.=.=.=.=.=.=.=.=.=.=.=.=.=.",
"=.=.=.=.=.=.=.=.=.=.=.=.=.=.=.=.=.=.=.=.=.=.| X.=.y =.*.=.=.=.=.=.=.=.=.k F 0.m , =.=.=.=.=.;.  ;.=.=.=.=.=.=.=.=.=.=.=.",
"*.=.=.=.=.=.=.=.=.=.=.=.=.=.=.=.=.=.=.=.=.=.#.O.*.u *.} *.=.=.=.=.=.=.=.n >.u.P > | -.O.e O.  O #   =.=.=.=.=.=.=.=.=.=.",
"| =.+.-.:.=.O.=.=.=.=.=.=.=.=.=.=.=.=.=.=.=.=.=.=.O.$.K =.=.=.=.=.=.=.B B 7.f.,.h @ -.y y =.o # <.q . =.=.=.=.=.=.=.=.=.",
" .} +.-.-.y ..-.=.=.=.=.=.=.=.=.=.=.=.=.=.=.=.=.=.=.=.*.=.=.=.=.=.=.=.m C t.N.V.b.E d =.=.=.=.o ~ p.x + =.=.=.=.=.=.=.=.",
"=.} &.-.} u =.=.=.=.=.=.=.=.=.=.=.=.=.=.=.=.=.=.=.=.=.=.=.=.=.=.=.=.=.m P y.V.G.c.h =.=.=.=.  O ~ F.i.0 @ =.=.=.=.=.=.=.",
"=.*.=.=.#.&.;.=.=.=.=.=.=.=.=.=.=.=.=.=.=.=.=.=.=.=.=.=.=.=.=.=.=.=.=.m P y.N.A.a.s =.=.=.=.. = q.T.U.6.* =.=.=.=.=.=.=.",
"=.=.=.=.=.=.=.=.=.=.=.=.=.=.=.=.=.=.=.=.=.=.=.=.=.=.=.=.=.=.=.=.=.=.=.N P t.b.Z.r.s =.=.=.=.=.O M d.E.C.x & =.=.=.=.=.=.",
"=.=.=.=.=.=.=.=.=.=.=.=.=.=.=.=.=.=.=.=.=.=.=.=.=.=.=.=.=.=.=.=.=.=.=.=.V 0.b.V.i.s =.=.=.=.=.=.O D x.U.2.O =.=.=.=.=.=.",
"=.=.=.=.=.=.=.=.=.=.=.=.=.=.=.=.=.=.=.=.=.=.=.=.=.=.=.=.=.=.=.=.=.=.=.=.m 5.c.V.l.v a =.=.=.=.=.=.+ <.H.c.+ =.=.=.=.=.=.",
"=.=.=.=.=.=.=.=.=.=.=.=.=.=.=.=.=.=.=.=.=.=.=.=.=.=.=.=.=.=.=.=.=.=.=.=.n ^ h.V.N.) 3 =.=.=.=.=.=.O q j.P.9 + =.=.=.=.=.",
"=.=.=.=.=.=.=.=.=.=.=.=.=.=.=.=.=.=.=.=.=.=.=.=.=.=.=.=.=.=.=.=.=.=.=.=.k m e.b.V.t.s =.=.=.=.=.=.=.O 9.K.H O =.=.=.=.=.",
"=.=.=.=.=.=.=.=.=.=.=.=.=.=.=.=.=.=.=.=.=.=.=.=.=.=.=.=.=.=.=.=.=.=.=.=.=.f ! j.V.c.) > + =.=.=.=.=.O Q A.<.O =.=.=.=.=.",
"=.=.=.=.=.=.=.=.=.=.=.=.=.=.=.=.=.=.=.=.=.=.=.=.=.=.=.=.=.=.=.=.=.=.=.=.=.3 s 1.c.V.d.G & * O . .   . M x.8.O =.=.=.=.=.",
"=.=.=.=.=.=.=.=.=.=.=.=.=.=.=.=.=.=.=.=.=.=.=.=.=.=.=.=.=.=.=.=.=.=.=.=.=.O & s ' j.Z.h.' <.r.q.2.D 1 = A x   =.=.=.=.=.",
"=.=.=.=.=.=.=.=.=.=.=.=.=.=.=.=.=.=.=.=.=.=.=.=.=.=.=.=.=.=.=.=.=.=.=.=., 3 Q ) m ^ d.K.D.J.Q.Q.R.S.z.s.) #     =.=.=.=.",
"=.=.=.=.=.=.=.=.=.=.=.=.=.=.=.=.=.=.=.=.=.=.=.=.=.=.=.=.=.=.=.=.=.=.-.j n 1.h.x.i.Y ' c.T.Q.Q.Q.Q.Q.Q.Q.Y.m.G o =.=.=.=.",
"=.=.=.=.=.=.=.=.=.=.=.=.=.=.=.*.-.-.*.*.=.=.=.=.=.=.=.=.=.=.=.=.=.u %.b W d.A.E.W.E.U.W.Q.Q.Q.Q.Q.Q.Q.Q.Q.W.D.Q + =.=.=.",
"=.=.=.=.=.=.=.=.=.=.=.=.=.*.=.} #.+.o...=.=.=.=.=.=.=.=.=.=.=.=.$.r b m 5.b.L.W.Q.Q.Q.Q.Q.Q.Q.Q.Q.Q.Q.Q.Q.Q.E.g.z =.=.=.",
"=.=.=.=.=.=.=.=.=.=.=.=.=.=.&.w y X.L X.=.=.=.=.=.=.=.=.=.=.=.=.-.%.B U u.Z.E.Q.Q.Q.Q.Q.Q.Q.Q.Q.Q.Q.Q.Q.Q.Q.W.M.T * =.=.",
"=.=.=.=.=.=.=.=.=.=.=.=.=.=.=.$. .$.o.*.=.=.=.=.=.=.=.=.=.=.=.=.=.=.V _ j.K.E.Q.Q.Q.Q.Q.Q.Q.Q.Q.I.D.R.Q.Q.Q.W.F.( & =.=.",
"=.=.=.=.=.=.=.=.=.=.=.=.=.=.=.=.*.=.=.=.=.=.=.=.=.=.=.=.=.=.=.=.=.=.N 1.b.L.W.Q.Q.Q.Q.Q.Q.W.E.u.H S q.I.Q.Q.W.H.] & =.=.",
"=.=.=.=.=.=.=.=.=.=.=.=.=.=.=.=.=.=.=.=.=.=.=.=.=.=.=.=.=.=.=.=.=.=.V 7.N.I.W.Q.Q.Q.Q.Q.W.E.l.7 O + Z v.W.Q.E.B./ @ =.=.",
"=.=.=.=.=.=.=.=.=.=.=.=.=.=.=.=.=.=.                      =.=.=.=.F V w.N.U.Q.Q.Q.Q.Q.Q.E.L.` + . . 6 h.E.E.i.6 =   =.=.",
"=.=.=.=.=.=.=.=.=.=.=.=.=.=.. . O + - 3 g l m l s , & O X .     + m C t.V.U.Q.Q.Q.Q.Q.W.U.N.8 O . . 6 h.E.U.Z O O   =.=.",
"=.=.=.=.=.=.=.=.=.=.=.=.=.. . O O + - 3 j m V P U U U P V h : @ O , C e.N.T.Q.Q.Q.Q.Q.W.U.x., O . . M c.E.K.& O O   =.=.",
"=.=.=.=.=.=.=.=.=.=.=.=.=.=.=.O O + & - > 3 p s k v V F P P V n s s P 0.b.U.Q.Q.Q.Q.Q.W.U.b.3 O . o ( D.E.x.O O @ =.=.=.",
"-.=.=.=.=.=.=.=.=.=.=.=.=.=.=.=.$ & - < p j l k s 8 3 2 2 2 6 6 8 h P 7.c.I.Q.Q.Q.Q.Q.W.U.N.h + O : r.U.E.0.O # O =.=.=.",
"=.=.=.=.=.=.=.=.=.=.=.=.=.=.=.=.=.O + @ & : 2 7 d k l v c h 7 , & - h ' h.K.W.Q.Q.Q.Q.W.T.A.E & & / B.E.E.] O * . =.=.=.",
"=.=.=.=.=.=.=.=.=.=.=.=.=.=.=.+ + + + & - ; ; - & & & ; 8 n V V l s s P 0.b.U.Q.Q.Q.Q.Q.W.E.M.t.y.D.W.W.E.J O #   =.=.=.",
"=.=.=.=.=.=.=.=.=.=.=.=.=.> > < i f l B P I U U U P B f > - 3 n V V n j U 0.b.U.Q.Q.Q.Q.Q.Q.Q.Q.Q.Q.Q.Q.W.l.Q O =.*.O.=.",
"=.=.=.=.=.=.=.=.=.=.=.=.. . . . . . . O O @ ; 3 h N F P V l 3 > 3 k m n s h E 0.k.H.R.W.Q.Q.Q.Q.Q.Q.Q.Q.W.H.D . =.$.} =.",
"=.=.=.=.=.=.=.=.                                . O ; s m V V n a , 3 s j a , , d T 4.y.h.n.J.R.E.E.R.D.h.] X =.=.=.*.=.",
"=.=.=.=.=.=.=.                                        X % 2 h m V n s 2 , 3 8 8 3 ; & # 5 x R [ 3.3.[ H 4   =.=.=.=.=.=.",
"=.=.=.=.=.=.=.=.=.=.                                      . O * 2 d h s 3 ; & & & & & & @ .     . .       =.=.=.=.=.=.=.",
"=.=.=.=.=.=.=.=.=.=.=.=.=.                                      . o O O O O O + ; 2 2 - O .   =.=.=.=.=.=.=.=.=.=.=.=.=.",
"=.=.=.=.=.=.=.=.=.=.=.=.=.=.=.=.                  . . + & 2 8 h c v m m m v l s , @ O . =.=.=.=.=.=.=.=.=.=.=.=.=.=.=.=.",
"=.=.=.=.=.=.=.=.=.=.=.=.=.=.=.=.=.=.=.=.. . o O & > i g j j s 6 : & + O . .         =.=.=.=.=.=.=.=.=.=.=.=.=.=.=.=.=.=.",
"=.=.=.=.=.=.=.=.=.=.=.=.=.=.=.=.=.=.=.=.=.=.=.                            =.=.=.=.=.=.=.=.=.=.=.=.=.=.=.=.=.=.=.=.=.=.=.",
"=.=.=.=.=.=.=.=.=.=.=.=.=.=.=.=.=.=.=.=.=.=.=.=.          =.=.=.=.=.=.=.=.=.=.=.=.=.=.=.=.=.=.=.=.=.=.=.=.=.=.=.=.=.=.=.",
"=.=.=.=.=.=.=.=.=.=.=.=.=.=.=.=.=.=.=.=.=.=.=.=.=.=.=.=.=.=.=.=.=.=.=.=.=.=.=.=.=.=.=.=.=.=.=.=.=.=.=.=.=.=.=.=.=.=.=.=.",
"=.=.=.=.=.=.=.=.=.=.=.=.=.=.=.=.=.=.=.=.=.=.=.=.=.=.=.=.=.=.=.=.=.=.=.=.=.=.=.=.=.=.=.=.=.=.=.=.=.=.=.=.=.=.=.=.=.=.=.=.",
"=.=.=.=.=.=.=.=.=.=.=.=.=.=.=.=.=.=.=.=.=.=.=.=.=.=.=.=.=.=.=.=.=.=.=.=.=.=.=.=.=.=.=.=.=.=.=.=.=.=.=.=.=.=.=.=.=.=.=.=.",
"=.=.=.=.=.=.=.=.=.=.=.=.=.=.=.=.=.=.=.=.=.=.=.=.=.=.=.=.=.=.=.=.=.=.=.=.=.=.=.=.=.=.=.=.=.=.=.=.=.=.=.=.=.=.=.=.=.=.=.=.",
"=.@.=.=.=.=.=.=.=.=.=.=.=.=.=.=.=.=.=.=.=.=.=.=.=.=.=.=.=.=.=.=.=.=.=.=.=.=.=.=.=.=.=.=.=.=.=.=.=.=.=.=.=.=.=.=.=.=.=.=.",
"=.t =.=.=.=.=.=.=.=.=.=.=.=.=.=.=.=.=.=.=.=.=.=.=.=.=.=.=.=.=.=.=.=.=.=.=.=.*.=.=.=.=.=.=.=.=.=.=.=.=.=.=.=.=.=.=.=.=.=.",
"*.t =.*.=.=.=.=.=.=.=.=.=.=.=.=.=.=.=.=.=.=.=.=.=.=.=.=.=.=.=.=.=.=.=.=.*.*.} *.*.*.=.*.=.=.=.=.=.=.=.=.=.=.=.=.=.=.=.=.",
"$.u *.{ =.=.=.=.=.=.=.=.=.=.=.=.=.=.=.=.=.=.=.=.=.=.=.=.=.=.=.=.=.=.=.=.O.O. .=.u O.$.e *.=.=.=.=.} $.=.=.=.=.=.=.=.=.=.",
"=.O.*.} =.=.=.=.=.=.=.=.=.=.=.=.=.=.=.=.=.=.=.=.=.=.=.=.=.=.=.=.=.=.=.=.O.O.=.=.X.=.&...=.=.=.=.O.u *.=.=.=.=.=.=.=.=.=.",
"=.=.=.$.=.=.=.=.=.=.=.=.=.=.=.=.=.=.=.=.=.=.=.=.=.=.=.=.=.=.=.=.=.=.=.=.=.$.=.=.=.=.=.=.=.=.=.=.=.=.=.=.=.=.=.=.=.=.=.=.",
"=.=.=.=.=.=.=.=.=.=.=.=.=.=.=.=.=.=.=.=.=.=.=.=.=.=.=.=.=.=.=.=.=.=.=.=.=.=.=.=.=.=.=.=.=.=.=.=.=.=.=.=.=.=.=.=.=.=.=.=."
};
