/* XPM */
static char *a629d8a07b8b4ccfd61d0747124635287dlYJrq1qMbRQlbb[] = {
/* columns rows colors chars-per-pixel */
"60 60 125 2 ",
"   c #3C3C3C",
".  c #50652B",
"X  c #5D7337",
"o  c #5D743A",
"O  c #617637",
"+  c #62773A",
"@  c #637A3D",
"#  c #3F3F40",
"$  c #3F4041",
"%  c #434344",
"&  c #464649",
"*  c #47484B",
"=  c #4B4B4C",
"-  c #4C4D52",
";  c #504F58",
":  c #4F5055",
">  c #4B515B",
",  c #545455",
"<  c #54555C",
"1  c #56585E",
"2  c #5B5B5B",
"3  c #667B43",
"4  c #575760",
"5  c #575961",
"6  c #5A5C64",
"7  c #525C6B",
"8  c #5B5E6C",
"9  c #5E606A",
"0  c #5D6375",
"q  c #646464",
"w  c #62646E",
"e  c #6C6C6C",
"r  c #636671",
"t  c #656975",
"y  c #6A6C76",
"u  c #646B7C",
"i  c #6A6E7A",
"p  c #6D707D",
"a  c #737374",
"s  c #71737D",
"d  c #7B7B7B",
"f  c #68803F",
"g  c #6B8245",
"h  c #6E8449",
"j  c #71864A",
"k  c #738A4D",
"l  c #768C50",
"z  c #798E53",
"x  c #7B9354",
"c  c #7D9559",
"v  c #819656",
"b  c #80965B",
"n  c #849C5E",
"m  c #849B60",
"M  c #899F62",
"N  c #87A060",
"B  c #8DA565",
"V  c #8EA569",
"C  c #90A567",
"Z  c #90A569",
"A  c #676D82",
"S  c #717582",
"D  c #767B8A",
"F  c #797E8D",
"G  c #757D93",
"H  c #7D8293",
"J  c #838383",
"K  c #86858F",
"L  c #8B8B8B",
"P  c #8A8A95",
"I  c #818799",
"U  c #83899B",
"Y  c #949494",
"T  c #929398",
"R  c #9B9B9B",
"E  c #878DA0",
"W  c #898FA2",
"Q  c #8D90A2",
"!  c #9292A0",
"~  c #9A9BA9",
"^  c #A3A3A3",
"/  c #A3A2AE",
"(  c #ACACAC",
")  c #A3A4B4",
"_  c #ABABB4",
"`  c #ABAAB9",
"'  c #B4B4B4",
"]  c #BCBCBC",
"[  c #B7B7C4",
"{  c #BCBCC3",
"}  c #BEBECB",
"|  c #C2BEC9",
" . c #C3C3C3",
".. c #C6C6C6",
"X. c #C4C2CA",
"o. c #CBCBCB",
"O. c gray80",
"+. c #CCC7D0",
"@. c #CECED5",
"#. c #CECCD8",
"$. c #D2D2D2",
"%. c #D5D5D5",
"&. c gray86",
"*. c gainsboro",
"=. c #DADAE1",
"-. c #E3DCE1",
";. c #E2E2E2",
":. c #E4E4E4",
">. c #EBE4E7",
",. c #E3E3E9",
"<. c #E7E4E8",
"1. c #E9E9E9",
"2. c #EEE8EA",
"3. c #EFEFEF",
"4. c #F3EAEB",
"5. c #EFE8F1",
"6. c #F4EEF8",
"7. c #F2F2F3",
"8. c #F5F5F6",
"9. c #F6F6F6",
"0. c #FAF6F7",
"q. c #FCF7F8",
"w. c #F8F8F8",
"e. c #FFF9FA",
"r. c #FEFEFE",
/* pixels */
"B B B B B B B B B B B B B B B B B B B B B B B B B B B B B B B B B B B B B B B B B B B B B B B B B B B B B B B B B B B B ",
"B B B B B B B B B B B B B B B B B B B B B B B B B B B B B B B B B B B B B B B B B B B B B B B B B B B B B B B B B B B B ",
"B B B B B B B B B B B B B B B B B B B B B B B B B B B B B B B B B B B B B B B       B B B B B B B B B B B B B B B B B B ",
"B B B B B B B B B B B B B       B B B B B B B B B B B B B B B B B B B B B B B % , =   B B B B B B B B B B B B B B B B B ",
"B B B B B B B B B B B B % , 2   B B B B B B B B B B B B B B B B B B B B B B B % L ' q % B B B B B B B B B B B B B B B B ",
"B B B B B B B B B B B   2 ' ( & B B B B B B B B B B B B B B B B B B B B B B B   J 1.] 2   B B B B B B B B B B B B B B B ",
"B B B B B B B B B B   , R w.$.q     B B B B B B B B B B B B B B B B B B B B B   J :.7.L % B B B B B B B B B B B B B B B ",
"B B B B B B B B B B & Y 9.r.3.R &   B B B B B B B B B B B B B B B B B B B B   & ^ w.r. .2 % B B B B B B B B B B B B B B ",
"B B B B B B B B B   , %.r.r.%.e   B B B B V b B B b B B B B B B B B B B B B B % L 1.r.7.J * B B B B B B B B B B B B B B ",
"B B B B B B B B B   q 3.r.9.(   B B B B B V g x                   B B B B B B   , ] w.r.R = B B B B B B B B B B B B B B ",
"B B B B B B B B B   a r.r.7.^   B B B B B     & 2 q e a a a d e 2 *     B B B V   Y 7.r.] , C B C B B B B B B B B B B B ",
"N B B B B B B B B % a r.r.7.^   B B B B   = e Y ] $.*.:.:.1.3.*...R J q *   n V   Y 3.r...2 Z M g + B B B B B B B B B B ",
"h B c V Z B x B B   e w.r.9.(   B B B % q ^ &.w.r.r.r.r.r.r.r.r.r.r.3.o.Y 2       Y 7.r.] , V g . n B B B B B B B B B B ",
"j g c V V + k V B   2 &.r.r...,     % a  .*.*.3.r.r.r.r.r.r.r.r.r.w.&.$.*.( ,   % R 9.r.^ = B B B B B B B B B B B B B B ",
"B g M V g @ B B B   & ^ r.r.3.^ ,   e  . .L d Y :.r.r.r.r.r.r.r.9.' a e Y ..Y % q o.r.w.L & B B B B B B B B B B B B B B ",
"B N B B b M C B B B   q $.r.r.&.a 2 ' ] e %   % ( 9.r.r.r.r.r.r.1.,     & Y ' , L 3.r.&.e   B B B B B B B B B B B B B B ",
"B B B B B B B B B B   & d ;.r.O.e L *.L %       a 1.r.r.r.r.r.r.;.        , Y a d *.7.R = B B B B B B B B B B B B B B B ",
"B B B B B B B B B B B   * Y ;.' 2 ( O.q         2 :.r.r.r.r.r.r.;.          d L 2 ' ' 2   B B B B B B B B B B B B B B B ",
"B B B B B B B B B B B B   = J J 2 ] ( =         , ;.r.r.r.r.r.r.:.%         a L , e q   B B B B B B B B B B B B B B B B ",
"B B B B B B B B B B B B B   & = 2 ] ^ &         2 :.r.r.r.r.r.r.1.,         q L , %     B B B B B B B B B B B B B B B B ",
"B B B B B B B B B B B B B B     2  .^ &         L 3.r.r.r.r.r.r.9.^         e R 2   B B B B B B B B B B B B B B B B B B ",
"B B B B B B B B B B B B B B B   2  .] 2       , o.r.r.r.r.r.r.r.r.:.d       d ' q   B B B B B B B B B B B B B B B B B B ",
"B B B B B B B B B B B B B B B   2  .1.L %   2 ' 9.r.r.r.r.r.r.r.r.w.&.L q a  .o.e   B B B B B B B B B B B B B B B B B B ",
"B B B B B B B B B B B   B B B   2 ] r.:.] ' $.9.r.r.r.r.r.r.r.r.r.r.w.1.;.:.9.O.q   B B B B B B B B B B B B B B B B B B ",
"B B B B B B B B B B       B B B , ' r.r.w.9.r.r.r.r.r.r.e.q.0.r.r.r.r.r.r.r.r. .2   B B B B B B B B B B B B B B B B B B ",
"B B B B B B B B B B     # B B B = ( r.r.r.r.r.r.r.,.} [ [ +.-.4.0.r.r.r.r.r.r.' *   B B B B B B B B B B B B B B B B B B ",
"B B B B B B B B B B   % =   B N * ^ r.r.r.r.r.7.T 6 - = < 4 9 / >.0.r.r.r.r.r.( & B N x           B B B B B B B B B B B ",
"B B B B B B B B B B   % 1 %   & = R r.r.r.r.w.L &   a { u } % - ~ 2.r.r.r.r.;.d         # & * %     B B B B B B B B B B ",
"B B B B B B B B B B %   = <     % Y 9.r.r.r. .2 % 2 2 &.- ; # % 0 X.9.r.w.O.d %   - 6 y D D < #   B B B B B B B B B B B ",
"B B B B B B B           % r i =   * d ..9.r.Y - 0 a & =   _ =.U > F @.*.J & % , p U W W W r %   B B B B B B B B B B B B ",
"B B B B B B B   = 9 w : % 1 F U S 1 % & q R q 8 H y Y &   t P < 1 7 1 * # : p U W W W W U 1   B B B B B B B B B B B B B ",
"B B B B B B B % - 1 w y 9 - * w H U F w - %   9 @.<.#.8 P % , 6 0 > * 1 p I W W W W W W H :   B B B B B B B B B B B B B ",
"B B B B B B B         - t i < % * 5 S H H D 6 - | ) p G 6.d , i F - S H I I U U U E W W H < %   B B B B B B B B B B B B ",
"B B B B B B B B B B     * 9 i w : & % = 5 i r * S ` s A 5.K s W 1 % : - = = - : 5 i F U U D 6 *     B B B B B B B B B B ",
"B B B B B B B B B B B     # - r i t 6 - %   %   # 9 ! ) ` ) Q 6 * 1 5 1 < : - * % # * 5 r t w , %   B B B B B B B B B B ",
"B B B B B B B B B B B B B     % - 9 t r -           # - - < * % 1 r r 9 r p i t 5 *             B B B B B B B B B B B B ",
"V B B B B B B B B B B B B B     $ % * *                           $ #   % : < = %   B B B B B B B B B B B B B B B B B B ",
"B B B B B B B B B B B B B B   % 1 5 - %                                           B B B B B B B B B B B B B B B B B B B ",
"B B B B B B B B B B B B B     - r y 9 *                                   B B B B B B B B B B B B V B n B N N B B B B B ",
"B B B B B B B B B B B B     % = : = &                                 B B B B B B B B B B B B B @ m 3 z Z l j B B N x B ",
"B B B B B B B B B B B B B             B B                           B B B B B B B B B B B B B n o l X V V @ M B B n g B ",
"B B B B B B B B B B B B B B B B V B n B N                           B B B B B B B B B B B B B V m m h B Z M V B B B N B ",
"B B B B B B B B B B B B B B B @ m 3 z Z l                           B B B B B B B B B B B B B B B B B B B B B B B B B B ",
"B B B B B B B B B B B B B B n o l X V V @                           B B B B B B B B B B B B B B B B B B B B B B B B B B ",
"B B B B B B B B B B B B B B V m m h B Z M                           B B B B B B B B B B B B B B B B B B B B B B B B B B ",
"B B B B B B B B B B B B B B B B B B B B B B                         B B B B B B B B B B B B B B B B B B B B B B B B B B ",
"B B B B B B B B B B B B B B B B B B B B B B                       B B B B B B B B B B B B B B B B B B B B B B B B B B B ",
"B B B B B B B B B B B B B B B B B B B B B B                       B B B B B B B B B B B B B B B B B B B B B B B B B B B ",
"B B B B B B B B B B B B B B B B B B B B B B                       B B B B B B B B B B B B B B B B B B B B B B B B B B B ",
"B B B B B B B B B B B B B B B B B B B B B B B                     B B B B B B B B B B B B B B B B B B B B B B B B B B B ",
"B B B B B B B B B B B B B B B B B B B B B B B         B         B B B B B B B B B B B B B B B B B B B B B B B B B B B B ",
"B B B B B B B B B B B B B B B B B B B B B B B         B         B B B B B B B B B B B B B B B B B B B B B B B B B B B B ",
"B B B B B B B B B B B B B B B B B B B B B B B         B         B B B B B B B B B B B B B B B B B B B B B B B B B B B B ",
"B v B B B B B B B B B B B B B B B B B B B B B B       B       B B B B B B B B B B B B B B B B B B B B B B B B B B B B B ",
"B O B B B B B B B B B B B B B B B B B B B B B B B   B B B   B B B B B B B B N B B B B B B B B B B B B B B B B B B B B B ",
"N + B N B B B B B B B B B B B B B B B B B B B B B B B B B B B B B B B B N N g N N N B N B B B B B B B B B B B B B B B B ",
"n @ N f B B B B B B B B B B B B B B B B B B B B B B B B B B B B B B B B x x j B @ x n X N B B B B g n B B B B B B B B B ",
"B x N g B B B B B B B B B B B B B B B B B B B B B B B B B B B B B B B B x x B B l B M k B B B B x @ N B B B B B B B B B ",
"B B B n B B B B B B B B B B B B B B B B B B B B B B B B B B B B B B B B B n B B B B B B B B B B B B B B B B B B B B B B ",
"B B B B B B B B B B B B B B B B B B B B B B B B B B B B B B B B B B B B B B B B B B B B B B B B B B B B B B B B B B B B "
};
