/* XPM */
static char *_003[] = {
/* columns rows colors chars-per-pixel */
"60 60 151 2 ",
"   c #000001",
".  c #06060B",
"X  c #070A11",
"o  c #0A0B14",
"O  c #0C0E1A",
"+  c #0D111B",
"@  c #12141C",
"#  c #17181F",
"$  c #0E1421",
"%  c #111522",
"&  c #151924",
"*  c #1C1D24",
"=  c #151C2A",
"-  c #191E2B",
";  c #171F34",
":  c #1B212E",
">  c #1D2332",
",  c #1C233A",
"<  c #21212B",
"1  c #222631",
"2  c #252934",
"3  c #292934",
"4  c #22263E",
"5  c #252A3E",
"6  c #2C2E3B",
"7  c #33343E",
"8  c #556B32",
"9  c #586D36",
"0  c #5D7337",
"q  c #5E743A",
"w  c #617637",
"e  c #62773C",
"r  c #637A3D",
"t  c #272C42",
"y  c #292D40",
"u  c #2C3045",
"i  c #243048",
"p  c #353640",
"a  c #3A3A44",
"s  c #31354B",
"d  c #31384F",
"f  c #3B3A48",
"g  c #2F3B53",
"h  c #343E55",
"j  c #3A445B",
"k  c #41414A",
"l  c #434452",
"z  c #484651",
"x  c #4D4B56",
"c  c #4C4C5A",
"v  c #524F57",
"b  c #524E58",
"n  c #4F505E",
"m  c #56525D",
"M  c #59545B",
"N  c #667C42",
"B  c #687F44",
"V  c #444D62",
"C  c #4A5166",
"Z  c #4D5369",
"A  c #575563",
"S  c #5C5A66",
"D  c #5E5D6A",
"F  c #615C67",
"G  c #605F6B",
"H  c #65616E",
"J  c #656171",
"K  c #696570",
"L  c #6C6975",
"P  c #6F6C7B",
"I  c #716A75",
"U  c #736F7E",
"Y  c #76727C",
"T  c #68803F",
"R  c #6B8245",
"E  c #6E8449",
"W  c #71864B",
"Q  c #748B4D",
"!  c #768C51",
"~  c #788E53",
"^  c #7B9354",
"/  c #7C9259",
"(  c #819656",
")  c #80965B",
"_  c #849B5D",
"`  c #849B60",
"'  c #899F62",
"]  c #87A060",
"[  c #8DA565",
"{  c #8EA569",
"}  c #90A667",
"|  c #91A669",
" . c #767486",
".. c #7A7683",
"X. c #7D7984",
"o. c #7C7D8C",
"O. c #827A83",
"+. c #837E89",
"@. c #87818E",
"#. c #8B848E",
"$. c #858291",
"%. c #8A8694",
"&. c #8F8B99",
"*. c #908894",
"=. c #938D9A",
"-. c #95929F",
";. c #99949F",
":. c #9494A1",
">. c #9C9AA6",
",. c #979DA9",
"<. c #A49DA9",
"1. c #A6A1AD",
"2. c #A9A1AC",
"3. c #A9A6B0",
"4. c #ADACB6",
"5. c #B0ADB7",
"6. c #B1AEB8",
"7. c #B6B6BF",
"8. c #BBB3BC",
"9. c #BEBCC4",
"0. c #C2BBC4",
"q. c #C5C2CA",
"w. c #CBC4CB",
"e. c #CFC8CE",
"r. c #D0C7CD",
"t. c #D2C9CF",
"y. c #CFCBD1",
"u. c #D4CED4",
"i. c #D8CFD5",
"p. c #D7D1D6",
"a. c #DAD1D6",
"s. c #D9D4D9",
"d. c #DED9DD",
"f. c #E2DADE",
"g. c #E4DEE2",
"h. c #EAE2E5",
"j. c #EDE5E8",
"k. c #EDE6E8",
"l. c #EFEAEC",
"z. c #F0E8EB",
"x. c #F2EAEC",
"c. c #F3ECEE",
"v. c #F7EFF1",
"b. c #F6F1F2",
"n. c #F9F3F4",
"m. c #FBF4F5",
"M. c #FCF6F7",
"N. c #FBF7F8",
"B. c #FEF7F8",
"V. c #FEFBFB",
"C. c white",
/* pixels */
"[ [ [ [ [ [ [ [ [ [ [ [ [ [ [ [ [ [ [ [ [ [ [ [ [ [ [ [ [ [ [ [ [ [ [ [ [ [ [ [ [ [ [ [ [ [ [ [ [ [ [ [ [ [ [ [ [ [ [ [ ",
"[ [ [ [ [ [ [ [ [ [ [ [ [ [ [ [ [ [ [ [ [ [ [ [ [ [ [ [ [ [ [ [ [ [ [ [ [ [ [ [ [ [ [ [ [ [ [ [ [ [ [ [ [ [ [ [ [ [ [ [ ",
"[ [ [ [ [ [ [ [ [ [ [ [ [ [ [ [ [ [ [ [ [ [ [ [ [ [ [ [ [ [ [ [ [ [ [         [ [ [ [ [ [ [ [ [ [ [ [ [ [ [ [ [ [ [ [ [ ",
"[ [ [ [ [ [ [ [ [ [ [ [ [ [ [ [ [ [ [ [ [ [ [ [ [ [ [ [ [ [ [ [ [ [   X m %   [ [ [ [ [ [ [ [ [ [ [ [ [ [ [ [ [ [ [ [ [ ",
"[ [ [ [ [ [ [ [ [ [ [ [ [ [ [ [ [ [ [ [ [ [ [ [ [ [ [ [ [ [ [ [ [   * 0.#.  [ [ [ [     [ [ [ [ [ [ [ [ [ [ [ [ [ [ [ [ ",
"[ [ [ [ [ [ [ [ [ [ [ [ [ [ [ [ [ [ [ [ [ [ [ [ [ [ [ [ [ [ [ [   f h.e.O   [ [ [ [   X .   [ [ [ [ [ [ [ [ [ [ [ [ [ [ ",
"[ [ [ [ [ [ [ [ [ [ [ [ [ [ [ [ [ [ [ [ [ [ [ [ [ [ [ [ [ [ [   a x.C.D   [ [ [ [ [ [ .  ..   [ [ [ [ [ [ [ [ [ [ [ [ [ ",
"[ [ [ [ [ [ [ [ [ [ [ [ [ [ [ [ [ [ [ [ [ [ [ [ [ [ [ [ [ [   @ a.C.C.P O   [ [ [ [ [   -.X.  [ [ [ [ [ [ [ [ [ [ [ [ [ ",
"[ [ [ [ [ [ [ [ [ [ [ [ [ [ [ [ [ [ [ [ [ { ) [ [ ) [ [ [ [   #.C.C.C.n.D   [ [ [ [     o.s.X   [ [ [ [ [ [ [ [ [ [ [ [ ",
"[ [ [ [ [ [ [ [ [ [ [ [ [ [ [ [ [ [ [ [ [ { R ^ { r ] [ [   < z.C.C.N.+..   [ [ [   . x r.V.D   [ [ [ [ [ [ [ [ [ [ [ [ ",
"[ [ [ [ [ [ [ [ [ [ [ [ [ [ [ [ [ [ [ [ [ [ E ! [ e [ ] [   =.C.C.C.Y     [ [ { [ [ . s.C.C.y.. } [ [ [ [ [ [ [ [ [ [ [ ",
"] [ [ [ [ [ [ [ [ [ [ [ [ [ [ [ [ [ [ [ [ [ ) ^ ] r ] R   O f.C.C.5..   [ ) _ { q E   <.C.C.g.$   w [ [ [ [ [ [ [ [ [ [ ",
"E [ / { | [ ^ [ [ [ [ [ [ [ [ [ [ [ [ [ [ [ [ [ [ ^ _ N   f V.C.n.7   [ [ r 8 / 9 e   ..C.C.k.1   _ [ [ [ [ [ [ [ [ [ [ ",
"W R / { { e Q { [ [ [ [ [ [ [ [ [ [ [ [ [ [ [ [ [ [ [ ]   J C.C.w.. [ [ [ [ [ [ _ _   v C.C.B.z   [ [ [ [ [ [ [ [ [ [ [ ",
"[ R ' { R r [ [ [ [ [ [ [ [ [ [ [ [ [ [ [ [ [ [ [ [ [ [   %.C.C.<.  [ [ [ [ [ [ [ [   7 V.C.C.b   [ [ [ [ [ [ [ [ [ [ [ ",
"[ ] [ [ ) ' } [ [ [ [ [ [ [ [ [ [ [ [ [ [ [ [ [ [ [ [ [   6.C.C.2.  [ [ [ [ [ [ [ [   2 n.C.B.k   [ [ [ [ [ [ [ [ [ [ [ ",
"[ [ [ [ [ [ [ [ [ [ [ [ [ [ [ [ [ [ [ [ [ [ [ [ [ [ [ [   7.C.C.8.  [ [ [ [ [ [ [ [   p V.C.x.-   [ [ [ [ [ [ [ [ [ [ [ ",
"[ [ [ [ [ [ [ [ [ [ [ [ [ [ [ [ [ [ [ [ [ [ [ [ [ [ [ [   4.C.C.u.  [ [ [ [ [ [ [ [   H C.C.0.  [ [ [ [ [ [ [ [ [ [ [ [ ",
"[ [ [ [ [ [ [ [ [ [ [ [ [ [ [ [ [ [ [ [ [ [ [ [ [ [ [ [   %.C.C.h.+   [ [ [ [ [ [ [ . 0.C.C.H   [ [ [ [ [ [ [ [ [ [ [ [ ",
"[ [ [ [ [ [ [ [ [ [ [ [ [ [ [ [ [ [ [ [ [ [ [ [ [ [ [ [   x C.C.V.D             [   x V.C.x.@   [ [ [ [ [ [ [ [ [ [ [ [ ",
"[ [ [ [ [ [ [ [ [ [ [ [ [ [ [ [ [ [ [ [ [ [ [ [ [ [     2 O f.C.C.k.1.3.H 2 O       6 &.g.;.  [ [ [ [ [ [ [ [ [ [ [ [ [ ",
"[ [ [ [ [ [ [ [ [ [ [ [ [ [ [ [ [ [ [ [ [ [ [ [ [ [   L f.@ ..C.C.C.C.C.C.v.s.1. .l &   % #   [ [ [ [ [ [ [ [ [ [ [ [ [ ",
"[ [ [ [ [ [ [ [ [ [ [ [ [ [ [ [ [ [ [ [ [ [ [ [ [   3 c.C.P 6 v.C.C.C.C.C.C.C.C.C.C.h.8.S @   [ [ [ [ [ [ [ [ [ [ [ [ [ ",
"[ [ [ [ [ [ [ [ [ [ [ [ [ [ [ [ [ [ [ [ [ [ [ [ [   3.C.C.l.<.m.C.C.C.C.C.C.C.C.C.C.C.C.C.i.6   [ [ [ [ [ [ [ [ [ [ [ [ ",
"[ [ [ [ [ [ [ [ [ [ [ [ [ [ [ [ [ [ [ [ [ [ [ [   7 n.C.C.C.C.C.C.C.C.C.C.C.C.C.C.C.C.C.C.C.u.+   [ [ [ [ [ [ [ [ [ [ [ ",
"[ [ [ [ [ [ [ [ [ [ [ [ [ [ [ [ [ [ [ [ [ [ [ [   %.C.C.C.C.C.C.C.C.C.C.C.C.C.C.C.C.C.C.C.C.C.+.  [ [ [ [ [ [ [ [ [ [ [ ",
"[ [ [ [ [ [ [ [ [ [ [ [ [ [ [ ] { { ] ] [ [ [   X p.C.C.C.C.C.C.C.C.C.C.C.C.C.C.C.C.C.C.C.C.C.q.  [ [ [ [ [ [ [ [ [ [ [ ",
"[ [ [ [ [ [ [ [ [ [ [ [ [ ] [ R ) / ~ Q [       p M.C.C.C.C.C.C.C.C.C.C.C.C.C.C.C.C.C.C.C.C.C.u.. [ [ [ [ [ [ [ [ [ [ [ ",
"[ [ [ [ [ [ [ [ [ [ [ [ [ [ ' 8 e ! B !   & l X $.C.C.C.C.C.C.C.C.C.C.C.C.C.C.C.C.C.C.C.C.C.C.d.o [ [ [ [ [ [ [ [ [ [ [ ",
"[ [ [ [ [ [ [ [ [ [ [ [ [ [ [ _ W _ ~ ]   7 P . q.C.C.C.C.C.C.C.C.C.C.C.C.C.C.C.C.C.C.C.C.C.C.g.O [ [ [ [ [ [ [ [ [ [ [ ",
"[ [ [ [ [ [ [ [ [ [ [ [ [ [ [ [ ] [ [ [   X C & x.C.C.C.C.C.C.C.C.C.C.C.V.V.C.C.C.C.C.C.C.C.C.g.. [ [ [ [ [ [ [ [ [ [ [ ",
"[ [ [ [ [ [ [ [ [ [ [ [ [ [ [ [ [ [ [ [ [   4 2 C.C.C.C.C.C.C.C.C.C.C.t.v m w.C.C.C.C.C.C.C.C.a.  [ [ [ [ [ [ [ [ [ [ [ ",
"[ [ [ [ [ [ [ [ [ [ [ [ [ [ [ [ [ [ [ [ [   . p C.C.C.C.C.C.C.C.C.C.f.*     @ s.C.C.C.C.V.u.m.8.  [ [ [ [ [ [ [ [ [ [ [ ",
"[ [ [ [ [ [ [ [ [ [ [ [ [ [ [ [ [ [ [ [     . k C.C.C.C.C.C.C.C.C.C.K     .   ,.C.C.C.C.Y o @.@.  [ [ [ [ [ [ [ [ [ [ [ ",
"[ [ [ [ [ [ [ [ [ [ [ [ [ [ [ [ [ [ [     - - k V.C.C.C.C.C.C.C.C.M.&     .   :.C.C.C.k.X   I M   [ [ [ [ [ [ [ [ [ [ [ ",
"[ [ [ [ [ [ [ [ [ [ [ [ [ [ [ [ [ [   . . o . 1 n.C.C.C.C.C.C.C.C.d..       . q.C.C.C.:.    -.@   [ [ [ [ [ [ [ [ [ [ [ ",
"{ [ [ [ [ [ [ [ [ [ [ [ [ [ [ [       . + > = . e.C.C.C.C.C.C.C.C.q..       7 M.C.C.C.b   . 2.  [ [ [ [ [ [ [ [ [ [ [ [ ",
"[ [ [ [ [ [ [ [ [ [ [           . = ; , - $ O   G V.C.C.C.C.C.C.C.g.O   .   >.C.C.C.C.:   a F   [ [ [ [ [ [ [ [ [ [ [ [ ",
"[ [ [ [ [ [ [ [ [ [ [   O - > - , % . X = > 5 % . =.m.C.C.C.C.C.C.C.n   . D m.C.C.C.C.&   U O   [ { [ _ [ ] ] [ [ [ [ [ ",
"[ [ [ [ [ [ [ [ [ [ [   . 5 = . . . . O > y d g O   7 >.h.C.C.C.C.C.l.&.4.V.C.C.C.C.C.c l x   [ r ` N ~ | ! W [ [ ] ^ [ ",
"[ [ [ [ [ [ [ [ [ [ [ [   . & u h h h u > % X . O = o   & A 3.g.C.C.C.C.C.C.C.C.C.C.C.b.*.  [ _ q ! 0 { { r ' [ [ _ R [ ",
"[ [ [ [ [ [ [ [ [ [ [ [   , C Z C V C C C Z Z C C Z V u $ .   X = b O.:.0.g.x.k.s.9.-.c .   [ { ` ` E [ | ' { [ [ [ ] [ ",
"[ [ [ [ [ [ [ [ [ [ [   O t - O . . . . o $ : d j V V V Z V d > % .       . o o X .       [ [ [ [ [ [ [ [ [ [ [ [ [ [ [ ",
"[ [ [ [ [ [ [ [ [ [ [             0 {         . X . . . O $ $ O . . O t 5 s s h h i +   [ [ [ [ [ [ [ [ [ [ [ [ [ [ [ [ ",
"[ [ [ [ [ [ [ [ [ [ [ [ [ [ { ` ` E [ |   { [ . 5 . .                 X : 5 > % .     [ [ [ [ [ [ [ [ [ [ [ [ [ [ [ [ [ ",
"[ [ [ [ [ [ [ [ [ [ [ [ [ [ [ [ [ [ [ [ [ [ [     .                 . O           [ [ [ [ [ [ [ [ [ [ [ [ [ [ [ [ [ [ [ ",
"[ [ [ [ [ [ [ [ [ [ [ [ [ [ [ [ [ [ [ [ [ [ [                         O X         [ [ [ [ [ [ [ [ [ [ [ [ [ [ [ [ [ [ [ ",
"[ [ [ [ [ [ [ [ [ [ [ [ [ [ [ [ [ [ [ [ [ [ [                       [ [ [ [       [ [ [ [ [ [ [ [ [ [ [ [ [ [ [ [ [ [ [ ",
"[ [ [ [ [ [ [ [ [ [ [ [ [ [ [ [ [ [ [ [ [ [         . .         .   [ [ [ [       [ [ [ [ [ [ [ [ [ [ [ [ [ [ [ [ [ [ [ ",
"[ [ [ [ [ [ [ [ [ [ [ [ [ [ [ [ [ [ [ [ [ [                       [ [ [ [ [ [   [ [ [ [ [ [ [ [ [ [ [ [ [ [ [ [ [ [ [ [ ",
"[ [ [ [ [ [ [ [ [ [ [ [ [ [ [ [ [ [ [ [ [ [                   .     [ [ [ [ [ [ [ [ [ [ [ [ [ [ [ [ [ [ [ [ [ [ [ [ [ [ ",
"[ [ [ [ [ [ [ [ [ [ [ [ [ [ [ [ [ [ [ [ [ [                           [ [ [ [ [ [ [ [ [ [ [ [ [ [ [ [ [ [ [ [ [ [ [ [ [ ",
"[ [ [ [ [ [ [ [ [ [ [ [ [ [ [ [ [ [ [ [ [ [                           [ [ [ [ [ [ [ [ [ [ [ [ [ [ [ [ [ [ [ [ [ [ [ [ [ ",
"[ ( [ [ [ [ [ [ [ [ [ [ [ [ [ [ [ [ [ [ [ [ [                           [ [ [ [ [ [ [ [ [ [ [ [ [ [ [ [ [ [ [ [ [ [ [ [ ",
"[ w [ [ [ [ [ [ [ [ [ [ [ [ [ [ [ [ [ [ [ [ [     .     [ [ [         [ [ [ ] [ [ [ [ [ [ [ [ [ [ [ [ [ [ [ [ [ [ [ [ [ ",
"] w [ ] [ [ [ [ [ [ [ [ [ [ [ [ [ [ [ [ [ [ [         [ [ [ [         [ ] ] R ] ] ] [ ] [ [ [ [ [ [ [ [ [ [ [ [ [ [ [ [ ",
"_ r ] T [ [ [ [ [ [ [ [ [ [ [ [ [ [ [ [ [ [ [     [ [ [ [ [ [       [ [ ^ ^ W [ r ^ _ 0 ] [ [ [ [ E _ [ [ [ [ [ [ [ [ [ ",
"[ ^ ] E [ [ [ [ [ [ [ [ [ [ [ [ [ [ [ [ [ [ [ [ [ [ [ [ [ [ [ [ [ [ [ [ ^ ^ [ [ ! [ ' Q [ [ [ [ ^ r ] [ [ [ [ [ [ [ [ [ ",
"[ [ [ _ [ [ [ [ [ [ [ [ [ [ [ [ [ [ [ [ [ [ [ [ [ [ [ [ [ [ [ [ [ [ [ [ [ _ [ [ [ [ [ [ [ [ [ [ [ [ [ [ [ [ [ [ [ [ [ [ ",
"[ [ [ [ [ [ [ [ [ [ [ [ [ [ [ [ [ [ [ [ [ [ [ [ [ [ [ [ [ [ [ [ [ [ [ [ [ [ [ [ [ [ [ [ [ [ [ [ [ [ [ [ [ [ [ [ [ [ [ [ "
};
