/* XPM */
static char *a1e7f138cc51453da51ed1afbd8a545fjGoRbQOmCOtUDGan[] = {
/* columns rows colors chars-per-pixel */
"60 60 147 2 ",
"   c #000001",
".  c #06060B",
"X  c #070A11",
"o  c #0A0B14",
"O  c #0C0E1A",
"+  c #0D111B",
"@  c #12141C",
"#  c #17181F",
"$  c #0E1421",
"%  c #111522",
"&  c #151924",
"*  c #1C1D24",
"=  c #151C2A",
"-  c #191E2B",
";  c #171F34",
":  c #1B212E",
">  c #1D2332",
",  c #1C233A",
"<  c #21212B",
"1  c #222631",
"2  c #252934",
"3  c #292934",
"4  c #22263E",
"5  c #252A3E",
"6  c #2C2E3B",
"7  c #33343E",
"8  c #50652B",
"9  c #556A31",
"0  c #586D36",
"q  c #5D7336",
"w  c #5D743A",
"e  c #617637",
"r  c #61763B",
"t  c #637A3D",
"y  c #272C42",
"u  c #292D40",
"i  c #2C3045",
"p  c #243048",
"a  c #353640",
"s  c #3A3A44",
"d  c #31354B",
"f  c #31384F",
"g  c #3B3A48",
"h  c #2F3B53",
"j  c #343E55",
"k  c #3A445B",
"l  c #41414A",
"z  c #434452",
"x  c #484651",
"c  c #4D4B56",
"v  c #4C4C5A",
"b  c #524F57",
"n  c #524E58",
"m  c #4F505E",
"M  c #56525D",
"N  c #59545B",
"B  c #667B43",
"V  c #444D62",
"C  c #4A5166",
"Z  c #4D5369",
"A  c #575563",
"S  c #5C5A66",
"D  c #5E5D6A",
"F  c #615C67",
"G  c #65616E",
"H  c #656171",
"J  c #696570",
"K  c #6C6975",
"L  c #6F6C7B",
"P  c #716A75",
"I  c #736F7E",
"U  c #76727C",
"Y  c #68803F",
"T  c #6C8345",
"R  c #6E8549",
"E  c #71864A",
"W  c #738A4D",
"Q  c #768C51",
"!  c #798E53",
"~  c #7C9355",
"^  c #7C9359",
"/  c #819656",
"(  c #80965B",
")  c #849C5E",
"_  c #849B60",
"`  c #899F62",
"'  c #87A060",
"]  c #8DA565",
"[  c #8EA569",
"{  c #90A567",
"}  c #90A56A",
"|  c #767486",
" . c #7A7683",
".. c #7D7984",
"X. c #7C7D8C",
"o. c #827A83",
"O. c #837E89",
"+. c #87818E",
"@. c #8B848E",
"#. c #858291",
"$. c #8A8694",
"%. c #8F8B99",
"&. c #908894",
"*. c #938D9A",
"=. c #95929F",
"-. c #99949F",
";. c #9494A1",
":. c #9C9AA6",
">. c #979DA9",
",. c #A49DA9",
"<. c #A6A1AD",
"1. c #A9A1AC",
"2. c #A9A6B0",
"3. c #ADACB6",
"4. c #B0ADB7",
"5. c #B1AEB8",
"6. c #B6B6BF",
"7. c #BBB3BC",
"8. c #BEBCC4",
"9. c #C2BBC4",
"0. c #C5C2CA",
"q. c #CBC4CB",
"w. c #CFC8CE",
"e. c #D0C7CD",
"r. c #CFCBD1",
"t. c #D4CED4",
"y. c #D8CFD5",
"u. c #D7D1D6",
"i. c #DAD1D6",
"p. c #D9D4D9",
"a. c #DED9DD",
"s. c #E2DADE",
"d. c #E4DEE2",
"f. c #EAE2E5",
"g. c #EDE6E8",
"h. c #EFEAEC",
"j. c #F0E8EB",
"k. c #F1EBED",
"l. c #F3ECEE",
"z. c #F7EFF1",
"x. c #F6F1F2",
"c. c #F9F3F4",
"v. c #FCF6F7",
"b. c #FBF7F8",
"n. c #FEF7F8",
"m. c #FEFBFB",
"M. c #FFFCFD",
/* pixels */
"] ] ] ] ] ] ] ] ] ] ] ] ] ] ] ] ] ] ] ] ] ] ] ] ] ] ] ] ] ] ] ] ] ] ] ] ] ] ] ] ] ] ] ] ] ] ] ] ] ] ] ] ] ] ] ] ] ] ] ] ",
"] ] ] ] ] ] ] ] ] ] ] ] ] ] ] ] ] ] ] ] ] ] ] ] ] ] ] ] ] ] ] ] ] ] ] ] ] ] ] ] ] ] ] ] ] ] ] ] ] ] ] ] ] ] ] ] ] ] ] ] ",
"] ] ] ] ] ] ] ] ] ] ] ] ] ] ] ] ] ] ] ] ]         ] ] ] ] ] ] ] ] ] ] ] ] ] ] ] ] ] ] ] ] ] ] ] ] ] ] ] ] ] ] ] ] ] ] ] ",
"] ] ] ] ] ] ] ] ] ] ] ] ] ] ] ] ] ] ] ] ]   % M X   ] ] ] ] ] ] ] ] ] ] ] ] ] ] ] ] ] ] ] ] ] ] ] ] ] ] ] ] ] ] ] ] ] ] ",
"] ] ] ] ] ] ] ] ] ] ] ] ] ] ] ]     ] ] ] ]   @.9.*   ] ] ] ] ] ] ] ] ] ] ] ] ] ] ] ] ] ] ] ] ] ] ] ] ] ] ] ] ] ] ] ] ] ",
"] ] ] ] ] ] ] ] ] ] ] ] ] ]   . X   ] ] ] ]   o w.f.g   ] ] ] ] ] ] ] ] ] ] ] ] ] ] ] ] ] ] ] ] ] ] ] ] ] ] ] ] ] ] ] ] ",
"] ] ] ] ] ] ] ] ] ] ] ] ]   . | . ] ] ] ] ] ]   D M.k.s   ] ] ] ] ] ] ] ] ] ] ] ] ] ] ] ] ] ] ] ] ] ] ] ] ] ] ] ] ] ] ] ",
"] ] ] ] ] ] ] ] ] ] ] ] ]   ..=.  ] ] ] ] ]   o L M.M.i.@   ] ] ] ] ] ] ] ] ] ] ] ] ] ] ] ] ] ] ] ] ] ] ] ] ] ] ] ] ] ] ",
"] ] ] ] ] ] ] ] ] ] ] ]   X p.X.    ] ] ] [   D c.M.M.M.@.  ] ] ] ] ] ] ] ] ] ] ] ] ] ] ] ] ] ] ] ] ] ] ] ] ] ] ] ] ] ] ",
"] ] ] ] ] ] ] ] ] ] ] ]   D m.e.c .   ] ] [   . O.b.M.M.j.<   ] ] ] ] ] ] ] ] ] ] ] ] ] ] ] ] ] ] ] ] ] ] ] ] ] ] ] ] ] ",
"] ] ] ] ] ] ] ] ] ] ] ] . r.M.M.p.. ] ] ] ] R     U M.M.M.*.  ] ] ] ] ] ] ] ] [ ] ] ] ] ] ] { ] { ] ] ] ] ] ] ] ] ] ] ] ",
"' ] ] ] ] ] ] ] ] ] ]   $ d.M.M.,.  ] ] ] ] ( ~   . 4.M.M.s.O   ] ] ] ] ] ( ) [ w R [ ~ q ~ } ` T e ] ] ] ] ] ] ] ] ] ] ",
"R ] ^ [ } ] ~ ] ] ] ]   1 g.M.M. .  ] ] ] ] ] ] ]   7 c.M.m.g   ] ] ] ] ] t 9 ^ 0 r [ r r ] [ T 8 ) ] ] ] ] ] ] ] ] ] ] ",
"E T ^ [ [ r W [ ] ] ]   x n.M.M.b   ] ] ] ] ] ] ] ] . q.M.M.H   ] ] ] ] ] ] ] ] ) ) ] ] ] ] ] ] ] ] ] ] ] ] ] ] ] ] ] ] ",
"] T ` [ T t ] ] ] ] ]   n M.M.m.7   ] ] ] ] ] ] ] ]   ,.M.M.$.  ] ] ] ] ] ] ] ] ] ] ] ] ] ] ] ] ] ] ] ] ] ] ] ] ] ] ] ] ",
"] ' ] ] ( ` { ] ] ] ]   l n.M.c.2   ] ] ] ] ] ] ] ]   1.M.M.5.  ] ] ] ] ] ] ] ] ] ] ] ] ] ] ] ] ] ] ] ] ] ] ] ] ] ] ] ] ",
"] ] ] ] ] ] ] ] ] ] ]   - k.M.m.a   ] ] ] ] ] ] ] ]   7.M.M.6.  ] ] ] ] ] ] ] ] ] ] ] ] ] ] ] ] ] ] ] ] ] ] ] ] ] ] ] ] ",
"] ] ] ] ] ] ] ] ] ] ] ]   9.M.M.G   ] ] ] ] ] ] ] ]   y.M.M.3.  ] ] ] ] ] ] ] ] ] ] ] ] ] ] ] ] ] ] ] ] ] ] ] ] ] ] ] ] ",
"] ] ] ] ] ] ] ] ] ] ] ]   G M.M.9.. ] ] ] ] ] ] ]   + f.M.M.$.  ] ] ] ] ] ] ] ] ] ] ] ] ] ] ] ] ] ] ] ] ] ] ] ] ] ] ] ] ",
"] ] ] ] ] ] ] ] ] ] ] ]   @ k.M.m.c   ]             D m.M.M.v   ] ] ] ] ] ] ] ] ] ] ] ] ] ] ] ] ] ] ] ] ] ] ] ] ] ] ] ] ",
"] ] ] ] ] ] ] ] ] ] ] ] ]   -.d.%.6       o 2 G 2.<.g.M.M.s.o 2     ] ] ] ] ] ] ] ] ] ] ] ] ] ] ] ] ] ] ] ] ] ] ] ] ] ] ",
"] ] ] ] ] ] ] ] ] ] ] ] ]   # %   & z | <.p.z.M.M.M.M.M.M. .@ s.K   ] ] ] ] ] ] ] ] ] ] ] ] ] ] ] ] ] ] ] ] ] ] ] ] ] ] ",
"] ] ] ] ] ] ] ] ] ] ] ] ]   @ S 7.f.M.M.M.M.M.M.M.M.M.M.z.6 L M.l.3   ] ] ] ] ] ] ] ] ] ] ] ] ] ] ] ] ] ] ] ] ] ] ] ] ] ",
"] ] ] ] ] ] ] ] ] ] ] ]   6 y.M.M.M.M.M.M.M.M.M.M.M.M.M.v.,.h.M.M.2.  ] ] ] ] ] ] ] ] ] ] ] ] ] ] ] ] ] ] ] ] ] ] ] ] ] ",
"] ] ] ] ] ] ] ] ] ] ]   + y.M.M.M.M.M.M.M.M.M.M.M.M.M.M.M.M.M.M.M.v.7   ] ] ] ] ] ] ] ] ] ] ] ] ] ] ] ] ] ] ] ] ] ] ] ] ",
"] ] ] ] ] ] ] ] ] ] ]   O.M.M.M.M.M.M.M.M.M.M.M.M.M.M.M.M.M.M.M.M.M.$.  ) ] ' ' ] ] ] ] ] ] ] ] ] ] ] ] ] ] ] ] ] ] ] ] ",
"] ] ] ] ] ] ] ] ] ] ]   0.M.M.M.M.M.M.M.M.M.M.M.M.M.M.M.M.M.M.M.M.M.u.X   } Q E ] ] ' ~ ] ] ] ] ] ] ] ] ] ] ] ] ] ] ] ] ",
"] ] ] ] ] ] ] ] ] ] ] . t.M.M.M.M.M.M.M.M.M.M.M.M.M.M.M.M.M.M.M.M.M.n.a .     ` ] ] ) T ] ] ] ] ] ] ] ] ] ] ] ] ] ] ] ] ",
"] ] ] ] ] ] ] ] ] ] ] o a.M.M.M.M.M.M.M.M.M.M.M.M.M.M.M.M.M.M.M.M.M.M.#.X z &   ] ] ] ' ] ] ] ] ] ] ] ] ] ] ] ] ] ] ] ] ",
"] ] ] ] ] ] ] ] ] ] ] O d.M.M.M.M.M.M.M.M.M.M.M.M.M.M.M.M.M.M.M.M.M.M.0.. L 7   ] ] ] ] ] ] ] ] ] ] ] ] ] ] ] ] ] ] ] ] ",
"] ] ] ] ] ] ] ] ] ] ] . d.M.M.M.M.M.M.M.M.M.M.M.M.M.M.M.M.M.M.M.M.M.M.k.& C X   ] ] ] ] ] ] ] ] ] ] ] ] ] ] ] ] ] ] ] ] ",
"] ] ] ] ] ] ] ] ] ] ]   i.M.M.M.M.M.M.M.M.q.M b t.M.M.M.M.M.M.M.M.M.M.M.2 4   ] ] ] ] ] ] ] ] ] ] ] ] ] ] ] ] ] ] ] ] ] ",
"] ] ] ] ] ] ] ] ] ] ]   7.v.t.m.M.M.M.M.a.@     * s.M.M.M.M.M.M.M.M.M.M.a .   ] ] ] ] ] ] ] ] ] ] ] ] ] ] ] ] ] ] ] ] ] ",
"] ] ] ] ] ] ] ] ] ] ]   +.+.o U M.M.M.M.>.  .     J M.M.M.M.M.M.M.M.M.M.l .     ] ] ] ] ] ] ] ] ] ] ] ] ] ] ] ] ] ] ] ] ",
"] ] ] ] ] ] ] ] ] ] ]   N P   X g.M.M.M.;.  .     & v.M.M.M.M.M.M.M.M.m.l - -     ] ] ] ] ] ] ] ] ] ] ] ] ] ] ] ] ] ] ] ",
"] ] ] ] ] ] ] ] ] ] ]   @ =.    ;.M.M.M.0.. .     . a.M.M.M.M.M.M.M.M.v.1 . o . .   ] ] ] ] ] ] ] ] ] ] ] ] ] ] ] ] ] ] ",
"[ ] ] ] ] ] ] ] ] ] ] ]   1..   n M.M.M.v.7       . 0.M.M.M.M.M.M.M.M.w.. = > + .       ] ] ] ] ] ] ] ] ] ] ] ] ] ] ] ] ",
"] ] ] ] ] ] ] ] ] ] ] ]   F s   : M.M.M.M.:.  .   o d.M.M.M.M.M.M.M.m.G   o $ - , ; = .           ] ] ] ] ] ] ] ] ] ] ] ",
"] ] ] ] ] ] ] ] ] ] ] ]   o I   = M.M.M.M.v.D .   m M.M.M.M.M.M.M.v.*.. % 5 > = X . % , - > - o   [ ] ) ] ' ' ] ] ] ] ] ",
"] ] ] ] ] ] ] ] ] ] ] ] ]   v z v M.M.M.M.M.m.3.%.h.M.M.M.M.M.f.:.a   + h f u > O . . . . = 5 .   _ B ! } Q E ] ] ' ~ ] ",
"] ] ] ] ] ] ] ] ] ] ] ] ] ]   &.x.M.M.M.M.M.M.M.M.M.M.M.d.2.A &   o = O . X % > i j j j i & .   w Q q [ [ t ` ] ] ) T ] ",
"] ] ] ] ] ] ] ] ] ] ] ] ] ]   . c =.8.p.g.k.d.9.;.o.n = X   . $ i V Z C C Z Z C C C V C Z C ,   _ _ R ] } ` [ ] ] ] ' ] ",
"] ] ] ] ] ] ] ] ] ] ] ] ] ] ]       . X o o .       . % > f V Z V V V k f : $ o . . . . o - y O   ] ] ] ] ] ] ] ] ] ] ] ",
"] ] ] ] ] ] ] ] ] ] ] ] ] ] ) w   + p j j d d 5 y O . . O $ $ O . . . X .         ] ]             ] ] ] ] ] ] ] ] ] ] ] ",
"] ] ] ] ] ] ] ] ] ] ] ] ] ] [ _ _     . % > 5 : X                 . . 5 . ] ]   ] ] ] ] ] ] ] ] ] ] ] ] ] ] ] ] ] ] ] ] ",
"] ] ] ] ] ] ] ] ] ] ] ] ] ] ] ] ] ] ]           O .                 .     ] ] ] ] ] ] ] ] ] ] ] ] ] ] ] ] ] ] ] ] ] ] ] ",
"] ] ] ] ] ] ] ] ] ] ] ] ] ] ] ] ] ] ]         X O                         ] ] ] ] ] ] ] ] ] ] ] ] ] ] ] ] ] ] ] ] ] ] ] ",
"] ] ] ] ] ] ] ] ] ] ] ] ] ] ] ] ] ] ]       ] ] ] ]                       ] ] ] ] ] ] ] ] ] ] ] ] ] ] ] ] ] ] ] ] ] ] ] ",
"] ] ] ] ] ] ] ] ] ] ] ] ] ] ] ] ] ] ]       ] ] ] ]   .         . .         ] ] ] ] ] ] ] ] ] ] ] ] ] ] ] ] ] ] ] ] ] ] ",
"] ] ] ] ] ] ] ] ] ] ] ] ] ] ] ] ] ] ] ]   ] ] ] ] ] ]                       ] ] ] ] ] ] ] ] ] ] ] ] ] ] ] ] ] ] ] ] ] ] ",
"] ] ] ] ] ] ] ] ] ] ] ] ] ] ] ] ] ] ] ] ] ] ] ] ] ]     .                   ] ] ] ] ] ] ] ] ] ] ] ] ] ] ] ] ] ] ] ] ] ] ",
"] ] ] ] ] ] ] ] ] ] ] ] ] ] ] ] ] ] ] ] ] ] ] ] ]                           ] ] ] ] ] ] ] ] ] ] ] ] ] ] ] ] ] ] ] ] ] ] ",
"] ] ] ] ] ] ] ] ] ] ] ] ] ] ] ] ] ] ] ] ] ] ] ] ]                           ] ] ] ] ] ] ] ] ] ] ] ] ] ] ] ] ] ] ] ] ] ] ",
"] / ] ] ] ] ] ] ] ] ] ] ] ] ] ] ] ] ] ] ] ] ] ]                           ] ] ] ] ] ] ] ] ] ] ] ] ] ] ] ] ] ] ] ] ] ] ] ",
"] e ] ] ] ] ] ] ] ] ] ] ] ] ] ] ] ] ] ] ] ] ] ] ]         ] ] ]     .     ] ' ] ] ] ] ] ] ] ] ] ] ] ] ] ] ] ] ] ] ] ] ] ",
"' e ] ' ] ] ] ] ] ] ] ] ] ] ] ] ] ] ] ] ] ] ] ] ]         ] ] ] ]         ' T ' ' ' ] ' ] ] ] ] ] ] ] ] ] ] ] ] ] ] ] ] ",
") t ' Y ] ] ] ] ] ] ] ] ] ] ] ] ] ] ] ] ] ] ] ] ] ]       ] ] ] ] ] ]     ~ E ] t ~ ) q ' ] ] ] ] T ) ] ] ] ] ] ] ] ] ] ",
"] ~ ' T ] ] ] ] ] ] ] ] ] ] ] ] ] ] ] ] ] ] ] ] ] ] ] ] ] ] ] ] ] ] ] ] ~ ~ ] ] Q ] ` W ] ] ] ] ~ t ' ] ] ] ] ] ] ] ] ] ",
"] ] ] ) ] ] ] ] ] ] ] ] ] ] ] ] ] ] ] ] ] ] ] ] ] ] ] ] ] ] ] ] ] ] ] ] ] ) ] ] ] ] ] ] ] ] ] ] ] ] ] ] ] ] ] ] ] ] ] ] ",
"] ] ] ] ] ] ] ] ] ] ] ] ] ] ] ] ] ] ] ] ] ] ] ] ] ] ] ] ] ] ] ] ] ] ] ] ] ] ] ] ] ] ] ] ] ] ] ] ] ] ] ] ] ] ] ] ] ] ] ] "
};
