/* XPM */
static char *_40d865f845245f2a96c8101ccc1cc2e4SDTW6mGok0stxN8[] = {
/* columns rows colors chars-per-pixel */
"60 60 181 2 ",
"   c #010102",
".  c #05050B",
"X  c #07090D",
"o  c #090A0D",
"O  c #060612",
"+  c #070911",
"@  c #0A0B13",
"#  c #070718",
"$  c #0B0C1A",
"%  c #0F1013",
"&  c #0E111B",
"*  c #111114",
"=  c #13141B",
"-  c #191718",
";  c #19191E",
":  c #0D0D29",
">  c #0E1121",
",  c #0F1825",
"<  c #121424",
"1  c #161A26",
"2  c #1A1B24",
"3  c #121629",
"4  c #161B2C",
"5  c #1E1F29",
"6  c #121332",
"7  c #171B31",
"8  c #1B1E31",
"9  c #161A3B",
"0  c #1F2025",
"q  c #1B202D",
"w  c #172233",
"e  c #1D2234",
"r  c #1B233B",
"t  c #1F293F",
"y  c #222124",
"u  c #24252D",
"i  c #292729",
"p  c #29292E",
"a  c #222533",
"s  c #2E2D35",
"d  c #242838",
"f  c #262B3D",
"g  c #2A2D3B",
"h  c #2C303D",
"j  c #33333D",
"k  c #38363A",
"l  c #50652B",
"z  c #556B32",
"x  c #586D36",
"c  c #5D7336",
"v  c #5D743A",
"b  c #617637",
"n  c #61773C",
"m  c #637A3D",
"M  c #232540",
"N  c #242940",
"B  c #2A2F43",
"V  c #2C3246",
"C  c #273048",
"Z  c #2E354B",
"A  c #373742",
"S  c #3D3B47",
"D  c #313549",
"F  c #35394A",
"G  c #3F3C4A",
"H  c #383754",
"J  c #343C53",
"K  c #413F43",
"L  c #423F49",
"P  c #3B4357",
"I  c #3D445A",
"U  c #444246",
"Y  c #45434C",
"T  c #444351",
"R  c #4B4A54",
"E  c #41475C",
"W  c #41495F",
"Q  c #4D4B5D",
"!  c #514E52",
"~  c #585357",
"^  c #54525B",
"/  c #5A555A",
"(  c #667C42",
")  c #454D63",
"_  c #484F65",
"`  c #495066",
"'  c #4E5468",
"]  c #515263",
"[  c #585662",
"{  c #5C5963",
"}  c #565D70",
"|  c #5F5F71",
" . c #605F67",
".. c #625F69",
"X. c #59627C",
"o. c #666367",
"O. c #69666C",
"+. c #686475",
"@. c #6C6976",
"#. c #706E73",
"$. c #716D7A",
"%. c #747275",
"&. c #68803F",
"*. c #6B8245",
"=. c #6E8449",
"-. c #71864B",
";. c #758C4F",
":. c #768C50",
">. c #798E53",
",. c #7C9355",
"<. c #7C9359",
"1. c #819656",
"2. c #80965B",
"3. c #849C5E",
"4. c #849B60",
"5. c #899F62",
"6. c #87A060",
"7. c #8DA565",
"8. c #8EA569",
"9. c #90A567",
"0. c #90A569",
"q. c #767580",
"w. c #7B7A84",
"e. c #7B7987",
"r. c #837D84",
"t. c #847E89",
"y. c #858187",
"u. c #81808F",
"i. c #8C878E",
"p. c #8E898F",
"a. c #858694",
"s. c #8B8592",
"d. c #8B8A94",
"f. c #8B8D9A",
"g. c #908B90",
"h. c #948C99",
"j. c #959396",
"k. c #95929D",
"l. c #9C96A1",
"z. c #9F9EA9",
"x. c #A094A0",
"c. c #A29CA3",
"v. c #A59FA9",
"b. c #A6A4A6",
"n. c #A9A0A6",
"m. c #A4A2AD",
"M. c #ABA4A9",
"N. c #B0A7B1",
"B. c #B3AEB4",
"V. c #B8ADB7",
"C. c #B1B0B4",
"Z. c #B5B4BC",
"A. c #BAB4BC",
"S. c #BFB8BF",
"D. c #BDB6C0",
"F. c #C3BCC2",
"G. c #C4C4CB",
"H. c #CDC6CB",
"J. c #CECACE",
"K. c #D2C7CD",
"L. c #D4CED3",
"P. c #D9CDD3",
"I. c #D6D1D6",
"U. c #DAD0D7",
"Y. c #DAD7DB",
"T. c #DBD9DD",
"R. c #E5DBDE",
"E. c #E3DEE1",
"W. c #E5E2E5",
"Q. c #EAE1E4",
"!. c #EAE7EA",
"~. c #EEE9EB",
"^. c #F0E6E8",
"/. c #F2EBED",
"(. c #F2EEF0",
"). c #F6F2F4",
"_. c #F9F4F5",
"`. c #FCF7F8",
"'. c #FEFAFB",
"]. c #FDFCFC",
"[. c #FFFDFD",
/* pixels */
"7.7.7.7.7.7.7.7.7.7.7.7.7.7.7.7.7.7.7.7.7.7.7.7.7.7.7.7.7.7.7.7.7.7.7.7.7.7.7.7.7.7.7.7.7.7.7.7.7.7.7.7.7.7.7.7.7.7.7.7.",
"7.7.7.7.7.7.7.7.7.7.7.7.7.7.7.7.7.7.7.7.7.7.7.7.7.7.7.7.7.7.7.7.7.7.7.7.7.7.7.7.7.7.7.7.7.7.7.7.7.7.7.7.7.7.7.7.7.7.7.7.",
"7.7.7.7.7.7.7.7.7.7.7.7.7.7.7.7.7.7.7.7.7.7.7.7.7.7.7.7.7.7.7.7.7.7.7.7.7.7.7.7.7.7.7.7.7.7.7.7.7.7.7.7.7.7.7.7.7.7.7.7.",
"7.7.7.7.7.7.7.7.7.7.7.7.7.7.7.7.7.7.7.7.7.7.    7.7.7.7.7.7.7.. ; 7.7.7.7.7.7.7.7.7.7.7.7.7.7.7.7.7.7.7.7.7.7.7.7.7.7.7.",
"7.7.7.7.7.7.7.7.7.7.7.7.7.7.7.7.7.7.7.7.. X X   7.7.7.7.7.7.7.* @.p 7.7.7.7.7.7.7.7.7.7.7.7.7.7.7.7.7.7.7.7.7.7.7.7.7.7.",
"7.7.7.7.7.7.7.7.7.7.7.7.7.7.7.7.7.7.7.4 1 r.g   7.7.7.7.7.7.7.* l.s.2 7.7.7.7.7.7.7.7.7.7.7.7.7.7.7.7.7.7.7.7.7.7.7.7.7.",
"7.7.7.7.7.7.7.7.7.7.7.7.7.7.7.7.7.7.7.& t.P.=   7.7.7.7.7.7.  o f.E.o.. 7.7.7.7.7.7.7.7.7.7.7.7.7.7.7.7.7.7.7.7.7.7.7.7.",
"7.7.7.7.7.7.7.7.7.7.7.7.7.7.7.7.7.7.. S T.l.    7.7.7.7.7.7.  u F.'.c.1 7.7.7.7.7.7.7.7.7.7.7.7.7.7.7.7.7.7.7.7.7.7.7.7.",
"7.7.7.7.7.7.7.7.7.7.7.7.7.7.7.7.7.7.X c._.s..   7.2.7.7.7.7.  c.'.[.E.~   7.7.7.7.7.7.7.7.7.7.7.7.7.7.7.7.7.7.7.7.7.7.7.",
"7.7.7.7.7.7.7.7.7.7.7.7.7.7.7.7.7.7.p J.[.K.$   8.m 6.7.7.7.  g E.[.'.w.@ 7.7.7.7.7.7.7.7.7.7.7.7.7.7.7.7.7.7.7.7.7.7.7.",
"7.7.7.7.7.7.7.7.7.7.7.7.7.7.7.7.7.  R T.`.$.  :.7.n 7.6.7.7.7.o w.'.[.m.0 7.7.8.7.7.7.7.7.7.9.7.9.7.7.7.7.7.7.7.7.7.7.7.",
"6.7.7.7.7.7.7.7.7.7.7.7.7.7.7.7.7.  [ W.L.$   ,.6.m 6.*.6.7.7.  S ~.[.L.k 2.3.8.v =.8.,.c ,.0.5.*.b 7.7.7.7.7.7.7.7.7.7.",
"=.7.<.8.0.7.,.7.7.7.7.7.7.7.7.7.7.  { W.k..   7.7.,.3.( 7.7.7.7.i H.[.E.K m z <.x n 8.n n 7.8.*.l 2.7.7.7.7.7.7.7.7.7.7.",
"-.*.<.8.8.n -.8.7.7.7.7.7.7.7.7.7.   .W.w.  7.7.7.7.7.6.7.7.7.7.; z.[.Q.U   7.7.3.3.7.7.7.7.7.7.7.7.7.7.7.7.7.7.7.7.7.7.",
"7.*.5.8.*.m 7.7.7.7.7.7.7.7.7.7.7.  [ E.h.  7.7.7.7.7.7.7.7.7.7.* a.[.Q.U   7.7.7.7.7.7.7.7.7.7.7.7.7.7.7.7.7.7.7.7.7.7.",
"7.6.7.7.2.5.9.7.7.7.7.7.7.7.7.7.7.  Y Y.S.. 7.7.7.7.7.7.7.7.7.7.= f.[.Y.k   7.7.7.7.7.7.7.7.7.7.7.7.7.7.7.7.7.7.7.7.7.7.",
"7.7.7.7.7.7.7.7.7.7.7.7.7.7.7.7.7.  s J.E.1   7.7.7.7.7.7.7.7.7.= k.'.Z.p 7.7.7.7.7.7.7.7.7.7.7.7.7.7.7.7.7.7.7.7.7.7.7.",
"7.7.7.7.7.7.7.7.7.7.7.7.7.7.7.7.7.7.@ n._.@.  7.7.7.            y A.'.d.= 7.7.7.7.7.7.7.7.7.7.7.7.7.7.7.7.7.7.7.7.7.7.7.",
"7.7.7.7.7.7.7.7.7.7.7.7.7.7.7.7.7.7.  R W.R.s . . * ; u s L } X R /./.O.$ $ 7.7.7.7.7.7.7.7.7.7.7.7.7.7.7.7.7.7.7.7.7.7.",
"7.7.7.7.7.7.7.7.7.7.7.7.7.7.7.7.7.7.  = F.[.S.{ O.f.Z.L.^._.N.j A.`.B.j < 6 6 7.7.7.7.7.7.7.7.7.7.7.7.7.7.7.7.7.7.7.7.7.",
"7.7.7.7.7.7.7.7.7.7.7.7.7.7.7.7.7.7.  u A.[.[.`.'.[.[.[.[.[.m.A.'.I.[ ^ q.P 6 7.7.7.7.7.7.7.7.7.7.7.7.7.7.7.7.7.7.7.7.7.",
"7.7.7.7.7.7.7.7.7.7.7.7.7.7.7.7.7.  = d.(.[.[.[.[.[.[.[.[.[.'.[.!.q.T F.'.G.H 6 7.7.7.7.7.7.7.7.7.7.7.7.7.7.7.7.7.7.7.7.",
"7.7.7.7.7.7.7.7.7.7.7.7.7.7.7.7.7.  R Y.[.[.[.[.[.[.[.[.[.[.[.[.!.k.B.).[.[.D.9 : 7.7.7.7.7.7.7.7.7.7.7.7.7.7.7.7.7.7.7.",
"7.7.7.7.7.7.7.7.7.7.7.7.7.7.7.7.7.@ p.).[.[.[.[.[.[.[.[.[.[.[.[.'.(._.[.[.[.[.X.: 7.7.7.7.7.7.7.7.7.7.7.7.7.7.7.7.7.7.7.",
"7.7.7.7.7.7.7.7.7.7.7.7.7.7.7.7.7.= M.[.[.[.[.[.[.[.[.[.[.[.[.[.[.[.[.[.[.[.[.U.6 7.7.7.7.7.7.7.7.7.7.7.7.7.7.7.7.7.7.7.",
"7.7.7.7.7.7.7.7.7.7.7.7.7.7.7.7.7.; M.'.[.[.[.[.[.[.[.[.[.[.[.[.[.[.[.[.[.[.[.`.D O 7.7.7.7.7.7.7.7.7.7.7.7.7.7.7.7.7.7.",
"7.7.7.7.7.7.7.7.7.7.7.7.7.7.7.6.8.2 M.'.[.[.[.[.[.[.[.[.[.[.[.[.[.[.[.[.[.[.[.[.` + 6.,.7.7.7.7.7.7.7.7.7.7.7.7.7.7.7.7.",
"7.7.7.7.7.7.7.7.7.7.7.7.7.6.7.*.2.* c.'.[.[.[.[.[.'.W.Y.).[.[.[.[.[.[.[.[.[.[.[.w.+ 3.*.7.7.7.7.7.7.7.7.7.7.7.7.7.7.7.7.",
"7.7.7.7.7.7.7.7.7.7.7.7.7.7.5.z n $ i.~.[.[.[.[.`.H...F g./.[.[.[.[.[.[.[.[.[.[.v.$ 7.6.7.7.7.7.7.7.7.7.7.7.7.7.7.7.7.7.",
"7.7.7.7.7.7.7.7.7.7.7.7.7.7.7.2.-.. k r.~.[.[.[.Y.R       t.[.[.[.[.[.[.[.[.[.[.F.> 7.7.7.7.7.7.7.7.7.7.7.7.7.7.7.7.7.7.",
"7.7.7.7.7.7.7.7.7.7.7.7.7.7.7.7.6.    o B.[.[.[.C.@       $ /.[.[.[.[.[.[.[.[.[.K.3 7.7.7.7.7.7.7.7.7.7.7.7.7.7.7.7.7.7.",
"7.7.7.7.7.7.7.7.7.7.7.7.7.7.7.7.7.      ^ `.[.[.b.          V.[.[.[.[.[.[.[.[.[.H.1   7.7.7.7.7.7.7.7.7.7.7.7.7.7.7.7.7.",
"7.7.7.7.7.7.7.7.7.7.7.7.7.7.7.7.7.      = _.[.'.b.          a.[.[.[.[.[.[.[.[.[.F.3   7.7.7.7.7.7.7.7.7.7.7.7.7.7.7.7.7.",
"7.7.7.7.7.7.7.7.7.7.7.7.7.7.7.7.7.7.      Q.[.[.B.X         u.[.[.[.[.[.[.[.[.[.l.$   7.7.7.7.7.7.7.7.7.7.7.7.7.7.7.7.7.",
"7.7.7.7.7.7.7.7.7.7.7.7.7.7.7.7.7.7.      A.[.[.E./         P.[.[.[.[.[.[.[.[.`.' + .   7.7.7.7.7.7.7.7.7.7.7.7.7.7.7.7.",
"7.7.7.7.7.7.7.7.7.7.7.7.7.7.7.7.7.7.    . A.[.[.`.j.@     y [.[.[.[.[.[.[.[.`.B.4 j { @ 7.7.7.7.7.7.7.7.7.7.7.7.7.7.7.7.",
"8.7.7.7.7.7.7.7.7.7.7.7.7.7.7.7.7.7.    j ).[.[.[.!.y.K U L.[.[.[.[.[.[.'.T.c.= g +.A . 7.7.7.7.7.7.7.7.7.7.7.7.7.7.7.7.",
"7.7.7.7.7.7.7.7.7.7.7.7.7.7.7.7.7.7.7.  Y T.[.[.[.[.[.).).[.[.[.[.[.(.G.c.T X s | j . 7.7.7.7.7.7.7.7.7.7.7.7.7.7.7.7.7.",
"7.7.7.7.7.7.7.7.7.7.7.7.7.7.7.7.7.7.7.7.  ^ c.W.'.'.[.[.[.[.'.~.A.j.%.k X @ L s.] . 7.7.7.7.7.7.7.8.7.3.7.6.6.7.7.7.7.7.",
"7.7.7.7.7.7.7.7.7.7.7.7.7.7.7.7.7.7.7.7.7.  ; ! o.O.#.%.%.#.o.~ s $ @ $ . G h.c.+.X 7.7.7.7.7.7.m 4.( >.0.:.-.7.7.6.,.7.",
"7.7.7.7.7.7.7.7.7.7.7.7.7.7.7.7.7.7.7.7.7.7.7.    . X X o X X 4 g g 8 e 3 a h.x.Q . 7.7.7.7.7.3.v :.c 8.8.m 5.7.7.3.*.7.",
"7.7.7.7.7.7.7.7.7.7.7.7.7.7.7.7.8.7.3.7.6.6.7.7.  & t & $ D 4 3 J ) J 7 r $ E p @ 7.7.7.7.7.7.8.4.4.=.7.0.5.8.7.7.7.6.7.",
"7.7.7.7.7.7.7.7.7.7.7.7.7.7.7.m 4.( >.0.:.-.7.7.. e Z $ @ P I < 1 W ) B r < .   7.7.7.7.7.7.7.7.7.7.7.7.7.7.7.7.7.7.7.7.",
"7.7.7.7.7.7.7.7.7.7.7.7.7.7.3.v :.c 8.8.m 5.7.7.+ r 1     X ) P > d ) ) e r . 7.7.7.7.7.7.7.7.7.7.7.7.7.7.7.7.7.7.7.7.7.",
"7.7.7.7.7.7.7.7.7.7.7.7.7.7.8.4.4.=.7.0.5.8.7.7.$ 1         e ) V 3 J ` J r @ 7.7.7.7.7.7.7.7.7.7.7.7.7.7.7.7.7.7.7.7.7.",
"7.7.7.7.7.7.7.7.7.7.7.7.7.7.7.7.7.7.7.7.7.7.7.  X . X o       W E 8 a ) ) 8 $ $ 7.7.7.7.7.7.7.7.7.7.7.7.7.7.7.7.7.7.7.7.",
"7.7.7.7.7.7.7.7.7.7.7.7.7.7.7.7.7.7.7.7.7.7.7.    . 0 *   .   f _ Z 3 J _ V $ $ 7.7.7.7.7.7.7.7.7.7.7.7.7.7.7.7.7.7.7.7.",
"7.7.7.7.7.7.7.7.7.7.7.7.7.7.7.7.7.7.7.7.7.7.7.    * ;   . .   $ _ P 4 f ) I < $ 7.7.7.7.7.7.7.7.7.7.7.7.7.7.7.7.7.7.7.7.",
"7.7.7.7.7.7.7.7.7.7.7.7.7.7.7.7.7.7.7.7.7.7.7.  @ % *   p d   o ) ) d 4 I _ 3 $ 7.7.7.7.7.7.7.7.7.7.7.7.7.7.7.7.7.7.7.7.",
"7.7.7.7.7.7.7.7.7.7.7.7.7.7.7.7.7.7.7.7.7.7.7.. , . X   * &   . I _ B > J _ e $ 7.7.7.7.7.7.7.7.7.7.7.7.7.7.7.7.7.7.7.7.",
"7.7.7.7.7.7.7.7.7.7.7.7.7.7.7.7.7.7.7.7.7.7.7.+ w   $ X     5 . F ` V $ F _ M X 7.7.7.7.7.7.7.7.7.7.7.7.7.7.7.7.7.7.7.7.",
"7.7.7.7.7.7.7.7.7.7.7.7.7.7.7.7.7.7.7.7.7.7.7.@ t @   % * . #.. h ` V $ D _ 8 X 7.7.7.7.7.7.7.7.7.7.7.7.7.7.7.7.7.7.7.7.",
"7.7.7.7.7.7.7.7.7.7.7.7.7.7.7.7.7.7.7.7.7.7.7.X r $       . -   a ` J < V ) 1 + 7.7.7.7.7.7.7.7.7.7.7.7.7.7.7.7.7.7.7.7.",
"7.1.7.7.7.7.7.7.7.7.7.7.7.7.7.7.7.7.7.7.7.7.7.  $ @ @ .         < E ) e e E N @ 7.7.7.7.7.7.7.7.7.7.7.7.7.7.7.7.7.7.7.7.",
"7.b 7.7.7.7.7.7.7.7.7.7.7.7.7.7.7.7.7.7.7.7.7.7.  . X .   . . . + q P f $ f C X 7.7.7.7.7.7.7.7.7.7.7.7.7.7.7.7.7.7.7.7.",
"6.b 7.6.7.7.7.7.7.7.7.7.7.7.7.7.7.7.7.7.7.7.7.7.  . .   X $ $ $ O X 1 8 $ @ 3 X 6.6.7.6.7.7.7.7.7.7.7.7.7.7.7.7.7.7.7.7.",
"3.m 6.&.7.7.7.7.7.7.7.7.7.7.7.7.7.7.7.7.7.7.7.7.7.7.7.7.@ $ $ # 7.O + X . . X . m ,.3.c 6.7.7.7.7.*.2.7.7.7.7.7.7.7.7.7.",
"7.,.6.*.7.7.7.7.7.7.7.7.7.7.7.7.7.7.7.7.7.7.7.7.7.7.7.7.7.. X 7.7.7.+ X . ,.7.7.:.7.5.;.7.7.7.7.,.m 6.7.7.7.7.7.7.7.7.7.",
"7.7.7.3.7.7.7.7.7.7.7.7.7.7.7.7.7.7.7.7.7.7.7.7.7.7.7.7.7.7.  7.7.7.7.7.7.3.7.7.7.7.7.7.7.7.7.7.7.7.7.7.7.7.7.7.7.7.7.7.",
"7.7.7.7.7.7.7.7.7.7.7.7.7.7.7.7.7.7.7.7.7.7.7.7.7.7.7.7.7.7.7.7.7.7.7.7.7.7.7.7.7.7.7.7.7.7.7.7.7.7.7.7.7.7.7.7.7.7.7.7."
};
