/* XPM */
static char *_b0a8287afdd46258102605278112850lQfub1L6g3wy4WSr[] = {
/* columns rows colors chars-per-pixel */
"60 60 170 2 ",
"   c #010101",
".  c #05050A",
"X  c #07080D",
"o  c #09090C",
"O  c #0B0C13",
"+  c #0D0E1A",
"@  c #100F11",
"#  c #0F1016",
"$  c #0E121C",
"%  c #121114",
"&  c #13141C",
"*  c #1A1A1E",
"=  c #0F1320",
"-  c #121523",
";  c #151825",
":  c #1C1D24",
">  c #161A2A",
",  c #1A1D2C",
"<  c #1F2027",
"1  c #1D222D",
"2  c #1D2234",
"3  c #1E2439",
"4  c #222126",
"5  c #23242C",
"6  c #28272B",
"7  c #2A292D",
"8  c #222632",
"9  c #242935",
"0  c #292B35",
"q  c #222738",
"w  c #242A3C",
"e  c #292E3C",
"r  c #302E34",
"t  c #2F303E",
"y  c #323135",
"u  c #36353C",
"i  c #39373C",
"p  c #3A383D",
"a  c #50652B",
"s  c #556B32",
"d  c #586D36",
"f  c #5D7337",
"g  c #5D743A",
"h  c #617637",
"j  c #62773C",
"k  c #637A3D",
"l  c #262D42",
"z  c #2B3143",
"x  c #2D354A",
"c  c #2F384D",
"v  c #343643",
"b  c #373840",
"n  c #3B3A44",
"m  c #32394E",
"M  c #383A4C",
"N  c #2F3850",
"B  c #343C51",
"V  c #383F55",
"C  c #433F46",
"Z  c #3A4156",
"A  c #3C4459",
"S  c #3F485E",
"D  c #44434C",
"F  c #4A474E",
"G  c #4A484D",
"H  c #444555",
"J  c #4E4B53",
"K  c #40465B",
"L  c #42495D",
"P  c #4A4C5D",
"I  c #504D53",
"U  c #504C5A",
"Y  c #555257",
"T  c #55525A",
"R  c #667C42",
"E  c #687F44",
"W  c #454C62",
"Q  c #494F64",
"!  c #4A5166",
"~  c #5D5B63",
"^  c #5D5E69",
"/  c #5C5F70",
"(  c #625E64",
")  c #63616A",
"_  c #6B666B",
"`  c #6D686C",
"'  c #6B6874",
"]  c #6E6D7D",
"[  c #716B71",
"{  c #716E7C",
"}  c #787276",
"|  c #75727C",
" . c #79767B",
".. c #68803F",
"X. c #6B8244",
"o. c #6E8449",
"O. c #71864B",
"+. c #738A4D",
"@. c #758B50",
"#. c #798E53",
"$. c #7B9354",
"%. c #7C9259",
"&. c #819656",
"*. c #80965B",
"=. c #849B5D",
"-. c #849B60",
";. c #899F62",
":. c #87A060",
">. c #8DA565",
",. c #8EA569",
"<. c #90A667",
"1. c #90A569",
"2. c #747484",
"3. c #7E7B81",
"4. c #837D85",
"5. c #828086",
"6. c #84818A",
"7. c #8A858C",
"8. c #8E8D94",
"9. c #8C8C98",
"0. c #918D94",
"q. c #928F98",
"w. c #949096",
"e. c #96919B",
"r. c #9F9A9E",
"t. c #9F97A0",
"y. c #A29EA5",
"u. c #A49FA9",
"i. c #9FA1AB",
"p. c #A3A2AB",
"a. c #A8A5AB",
"s. c #AFAAAF",
"d. c #A8A9B2",
"f. c #B2ABB4",
"g. c #B7AFB8",
"h. c #AFB1BB",
"j. c #B7B3B7",
"k. c #B3B1B9",
"l. c #BCB3BA",
"z. c #BEB8BC",
"x. c #B7B7C0",
"c. c #BDBCC2",
"v. c #C2BDC4",
"b. c #C6C1C6",
"n. c #C5C3CA",
"m. c #CAC5CB",
"M. c #CDC8CD",
"N. c #D0C6CC",
"B. c #CFCCD2",
"V. c #D3CDD3",
"C. c #DACED3",
"Z. c #D8D2D7",
"A. c #DDD6DB",
"S. c #DDD9DD",
"D. c #E2DADE",
"F. c #E5DFE2",
"G. c #E6E1E4",
"H. c #EAE4E7",
"J. c #ECE5E9",
"K. c #ECE9EC",
"L. c #F3E6E9",
"P. c #F3EBEE",
"I. c #F4EFF1",
"U. c #FBEFF1",
"Y. c #F6F2F3",
"T. c #FBF4F5",
"R. c #F9F5F6",
"E. c #FDF6F7",
"W. c #FEF9FA",
"Q. c #FFFCFC",
/* pixels */
">.>.>.>.>.>.>.>.>.>.>.>.>.>.>.>.>.>.>.>.>.>.>.>.>.>.>.>.>.>.>.>.>.>.>.>.>.>.>.>.>.>.>.>.>.>.>.>.>.>.>.>.>.>.>.>.>.>.>.>.",
">.>.>.>.>.>.>.>.>.>.>.>.>.>.>.>.>.>.>.>.>.>.>.>.>.>.>.>.>.>.>.>.>.>.>.>.>.>.>.>.>.>.>.>.>.>.>.>.>.>.>.>.>.>.>.>.>.>.>.>.",
">.>.>.>.>.>.>.>.>.>.>.>.>.>.>.>.>.>.>.>..     >.>.>.>.>.>.>.>.>.>.>.>.>.>.>.  . & O   >.>.>.>.>.>.>.>.>.>.>.>.>.>.>.>.>.",
">.>.>.>.>.>.>.>.>.>.>.>.>.>.>.>.>.>.* G &   >.>.>.>.>.>.>.>.>.>.>.>.>.>.>.>.  . b  .i . >.>.>.>.>.>.>.>.>.>.>.>.>.>.>.>.",
">.>.>.>.>.>.>.>.>.>.>.>.>.>.>.>.>.: w.f.%   >.>.>.>.>.>.>.>.>.>.>.>.>.>.>.>.>.  % g.c.I X >.>.>.>.>.>.>.>.>.>.>.>.>.>.>.",
">.>.>.>.>.>.>.>.>.>.>.>.>.>.>.>.% q.I.u..   >.>.>.>.>.>.>.>.>.>.>.>.>.>.>.>.>.  O | R.v.D . >.>.>.>.>.>.>.>.>.>.>.>.>.>.",
">.>.>.>.>.>.>.>.>.>.>.>.>.>.>.. ~ G.Q.N.M     >.>.>.>.>.>.>.>.>.>.>.>.>.>.>.>.  . t.W.R.y.4 >.>.>.>.>.>.>.>.>.>.>.>.>.>.",
">.>.>.>.>.>.>.>.>.>.>.>.>.>.>.& a.W.Q.F.#   >.>.>.>.>.>.>.>.>.>.>.>.>.>.>.>.>.>.  5 L.E.G.J . >.>.>.>.>.>.>.>.>.>.>.>.>.",
">.>.>.>.>.>.>.>.>.>.>.>.>.>.>.n B.Q.R.J   ,.*.>.>.*.>.>.>.>.>.>.>.>.>.>.>.>.>.>.>.. Y F.W.3.o >.>.>.>.>.>.>.>.>.>.>.>.>.",
">.>.>.>.>.>.>.>.>.>.>.>.>.>.. ( J.Q.m.  >.,.X.$.,.k :.>.>.>.>.>.>.>.>.>.>.>.>.>.>.>.* s.W.y.* >.>.>.>.>.>.>.>.>.>.>.>.>.",
">.>.>.>.>.>.>.>.>.>.>.>.>.>.X | I.Q.|   >.>.o.@.>.j >.:.>.>.>.>.>.>.>.>.>.>.>.,.>.>.O 3.E.b.6 >.<.>.>.>.>.>.>.>.>.>.>.>.",
":.>.>.>.>.>.>.>.>.>.>.>.>.>.# 6.Y.W.F   >.>.*.$.:.k :.X.:.>.>.>.>.>.>.>.>.*.=.,.g o.. ( Y.D.r   X.h >.>.>.>.>.>.>.>.>.>.",
"o.>.%.,.1.>.$.>.>.>.>.>.>.>.O 4.Y.E.F   >.>.>.>.>.$.=.R >.>.>.>.>.>.>.>.>.k s %.d j . ) R.S.7   a =.>.>.>.>.>.>.>.>.>.>.",
"O.X.%.,.,.j +.,.>.>.>.>.>.>.. [ P.W.~   >.>.>.>.>.>.>.:.>.>.>.>.>.>.>.>.>.>.>.>.=.=.% 5.W.V.6   >.>.>.>.>.>.>.>.>.>.>.>.",
">.X.;.,.X.k >.>.>.>.>.>.>.>.  I S.Q.7.  >.>.>.>.>.>.>.>.>.>.>.>.>.>.>.>.>.>.>.>.>.>.7 m.Q.v.4   >.>.>.>.>.>.>.>.>.>.>.>.",
">.:.>.>.*.;.<.>.>.>.>.>.>.>.>.4 j.Q.A.O   >.>.>.>.>.>.>.>.>.>.>.>.>.>.>.>.>.>.>.>.. ^ P.W.7.@ >.>.>.>.>.>.>.>.>.>.>.>.>.",
">.>.>.>.>.>.>.>.>.>.>.>.>.>.>.. [ K.W.' .   >.>.>.>.>.>.>.>.>.>.>.>.>.>.>.>.>.>.. D V.Q.D.F . >.>.>.>.>.>.>.>.>.>.>.>.>.",
">.>.>.>.>.>.>.>.>.>.>.>.>.>.>.  : a.R.G.~ : % & : 7 y u i i u p p y 0 5 < * & r ) Z.W.K.7.& >.>.>.>.>.>.>.>.>.>.>.>.>.>.",
">.>.>.>.>.>.>.>.>.>.>.>.>.>.>.>.  y l.W.J.p.0.q.i.x.m.B.V.V.B.V.B.n.c.h.p.q.9.v.R.W.K.8.4   >.>.>.>.>.>.>.>.>.>.>.>.>.>.",
">.>.>.>.>.>.>.>.>.>.>.>.>.>.>.>.>.  y m.W.W.W.Q.Q.Q.Q.Q.Q.Q.Q.Q.Q.Q.Q.Q.Q.Q.Q.Q.E.C.` *   >.>.>.>.>.>.>.>.>.>.>.>.>.>.>.",
">.>.>.>.>.>.>.>.>.>.>.>.>.>.>.>.>.>.  ~ H.Q.Q.Q.Q.Q.Q.Q.Q.Q.Q.Q.Q.Q.Q.Q.Q.Q.Q.Q.U.J o   >.>.>.>.>.>.>.>.>.>.>.>.>.>.>.>.",
">.>.>.>.>.>.>.>.>.>.>.>.>.>.>.>.>.>.>.b P.Q.Q.Q.Q.Q.Q.Q.Q.Q.Q.Q.Q.Q.Q.Q.Q.Q.Q.Q.P.8   >.>.>.>.>.>.>.>.>.>.>.>.>.>.>.>.>.",
">.>.>.>.>.>.>.>.>.>.>.>.>.>.>.>.>.>.>.0 R.Q.Q.Q.Q.Q.Q.Q.Q.Q.Q.Q.Q.Q.Q.Q.Q.Q.Q.Q.W.u   >.>.>.>.>.>.>.>.>.>.>.>.>.>.>.>.>.",
">.>.>.>.>.>.>.>.>.>.>.>.>.>.>.>.>.>.>.9 Y.Q.Q.Q.Q.Q.Q.Q.Q.Q.Q.Q.Q.Q.Q.Q.Q.Q.Q.Q.W.I   >.>.>.>.>.>.>.>.>.>.>.>.>.>.>.>.>.",
">.>.>.>.>.>.>.>.>.>.>.>.>.>.>.>.>.>.  8 R.Q.Q.Q.Q.Q.Q.Q.Q.Q.Q.Q.Q.Q.Q.Q.Q.Q.Q.Q.Q.F   >.>.>.>.>.>.>.>.>.>.>.>.>.>.>.>.>.",
">.>.>.>.>.>.>.>.>.>.>.>.>.>.>.>.>.>.  1 U.Q.Q.Q.Q.Q.Q.Q.Q.Q.Q.Q.Q.Q.Q.Q.Q.Q.Q.Q.W.F   >.>.>.>.>.>.>.>.>.>.>.>.>.>.>.>.>.",
">.>.>.>.>.>.>.>.>.>.>.>.>.>.>.:.,.,.:.; R.Q.Q.F.d.d.P.Q.Q.Q.Q.Q.Q.Q.Q.Y.A.A.Y.Q.W.D   $.>.>.>.>.>.>.>.>.>.>.>.>.>.>.>.>.",
">.>.>.>.>.>.>.>.>.>.>.>.>.:.>.X.*.%.#.O Y.R.a.D : 4 Y J.Q.Q.Q.Q.Q.Q.F.{ D C T b.E.D   X.>.>.>.>.>.>.>.>.>.>.>.>.>.>.>.>.",
">.>.>.>.>.>.>.>.>.>.>.>.>.>.;.s j @.E o J.m.r .     . 3.Q.Q.Q.Q.Q.Q.{ O     . b H.n   :.>.>.>.>.>.>.>.>.>.>.>.>.>.>.>.>.",
">.>.>.>.>.>.>.>.>.>.>.>.>.>.>.=.O.=.#.o M.0.          7 J.Q.Q.Q.Q.H.-         X v.u   >.>.>.>.>.>.>.>.>.>.>.>.>.>.>.>.>.",
">.>.>.>.>.>.>.>.>.>.>.>.>.>.>.>.:.>.>.. p.3.          4 G.Q.Q.Q.Q.D..         X l.1   >.>.>.>.>.>.>.>.>.>.>.>.>.>.>.>.>.",
">.>.>.>.>.>.>.>.>.>.>.>.>.>.>.>.>.>.>.. } r.X     .   u R.Q.Q.Q.Q.E.0         1 C.+   >.>.>.>.>.>.>.>.>.>.>.>.>.>.>.>.>.",
">.>.>.>.>.>.>.>.>.>.>.>.>.>.>.>.>.>.>.  G V.( %   . 5 w.Q.Q.Q.Q.Q.Q.a.6 .   X | g.  >.>.>.>.>.>.>.>.>.>.>.>.>.>.>.>.>.>.",
">.>.>.>.>.>.>.>.>.>.>.>.>.>.>.>.>.>.>.>.* z.S.0.( _ k.W.Q.Q.Q.Q.Q.Q.R.j.} ` 3.V.U . = >.>.>.>.>.>.>.>.>.>.>.>.>.>.>.>.>.",
">.>.>.>.>.>.>.>.>.>.>.>.>.>.>.>.>.>.>.>.. G M.W.J.P.Q.Q.Q.Q.Q.Q.Q.Q.Q.Q.W.Y.R.e.& H H . >.>.>.>.>.>.>.>.>.>.>.>.>.>.>.>.",
">.>.>.>.>.>.>.>.>.>.>.>.>.>.>.>.>.>.>.>.>.o y y.Y.Q.Q.Q.Q.Q.Q.Q.Q.Q.Q.Q.Q.R.y.v ' ] 8 . >.>.>.>.>.>.>.>.>.>.>.>.>.>.>.>.",
",.>.>.>.>.>.>.>.>.>.>.>.>.>.>.>.>.>.>.>.>.>.  % b 9.D.E.W.W.W.W.W.W.P.V.6.u t ] H % . >.>.>.>.>.>.>.>.>.>.>.>.>.>.>.>.>.",
">.>.>.>.>.>.>.>.>.>.>.>.>.>.>.>.>.>.>.>.>.>.>.>.  . . X O % % * : % . . 2 / 2.5 . . >.>.>.>.>.>.>.>.>.>.>.>.>.>.>.>.>.>.",
">.>.>.>.>.>.>.>.>.>.>.>.>.>.>.>.>.>.>.>.>.>.>.>.>.  + - l 3 2 2 3 + B c P e.D . >.>.>.>.>.>.>.>.>.,.>.=.>.:.:.>.>.>.>.>.",
">.>.>.>.>.>.>.>.>.>.>.>.>.>.>.>.>.>.>.>.>.>.>.>.>.  + m K l x l w $ w Z z ) b . >.>.>.>.>.>.>.>.k -.R #.1.@.O.>.>.:.$.>.",
">.>.>.>.>.>.>.>.>.>.>.>.>.>.>.>.>.>.>.>.>.>.>.>.  . z Q x c z x ; 2 3 w 2 X .   >.>.>.>.>.>.>.=.g @.f ,.,.k ;.>.>.=.X.>.",
">.>.>.>.>.>.>.>.>.>.>.>.>.>.>.>.,.>.=.>.:.:.>.>.  2 ! B l A q m % , m - 2 X >.>.>.>.>.>.>.>.>.,.-.-.o.>.1.;.,.>.>.>.:.>.",
">.>.>.>.>.>.>.>.>.>.>.>.>.>.>.k -.R #.1.@.O.>.  O A A 3 A v 2 B + - x > ; $ >.>.>.>.>.>.>.>.>.>.>.>.>.>.>.>.>.>.>.>.>.>.",
">.>.>.>.>.>.>.>.>.>.>.>.>.>.=.g @.f ,.,.k ;.>.. e A , V K , z x > m - w $ $ >.>.>.>.>.>.>.>.>.>.>.>.>.>.>.>.>.>.>.>.>.>.",
">.>.>.>.>.>.>.>.>.>.>.>.>.>.,.-.-.o.>.1.;.,.  $ c , B Q q , A , w ! , ; - + X >.>.>.>.>.>.>.>.>.>.>.>.>.>.>.>.>.>.>.>.>.",
">.>.>.>.>.>.>.>.>.>.>.>.>.>.>.>.>.>.>.>.>.O O - - c ! e & V m ; ; Q A + O O . >.>.>.>.>.>.>.>.>.>.>.>.>.>.>.>.>.>.>.>.>.",
">.>.>.>.>.>.>.>.>.>.>.>.>.>.>.>.>.>.>.2 & v : O z L q & B S , z w 2 L l . O . >.>.>.>.>.>.>.>.>.>.>.>.>.>.>.>.>.>.>.>.>.",
">.>.>.>.>.>.>.>.>.>.>.>.>.>.>.>.>.>.; O 0 n O , z , , A L 8 O q A 2 2 m - . . >.>.>.>.>.>.>.>.>.>.>.>.>.>.>.>.>.>.>.>.>.",
">.>.>.>.>.>.>.>.>.>.>.>.>.>.>.>.>.    . O . . + ; e W Z 1 .   . 2 A q ; , O . >.>.>.>.>.>.>.>.>.>.>.>.>.>.>.>.>.>.>.>.>.",
">.>.>.>.>.>.>.>.>.>.>.>.>.>.>.>.>.    . >.>.  , B S e # .       . > x q $ O . >.>.>.>.>.>.>.>.>.>.>.>.>.>.>.>.>.>.>.>.>.",
">.>.>.>.>.>.>.>.>.>.>.>.>.>.>.>.>.>.>.>.>.>.. 2 N , .               # q q + . . >.>.>.>.>.>.>.>.>.>.>.>.>.>.>.>.>.>.>.>.",
">.>.>.>.>.>.>.>.>.>.>.>.>.>.>.>.>.>.>.>.>.>.  X O +                 . X + 2 - >.>.>.>.>.>.>.>.>.>.>.>.>.>.>.>.>.>.>.>.>.",
">.>.>.>.>.>.>.>.>.>.>.>.>.>.>.>.>.>.>.>.>.>.>.  . >.                . >.. . . >.>.>.>.>.>.>.>.>.>.>.>.>.>.>.>.>.>.>.>.>.",
">.&.>.>.>.>.>.>.>.>.>.>.>.>.>.>.>.>.>.>.>.>.>.>.>.>.      >.>.        >.>.>.>.>.>.>.>.>.>.>.>.>.>.>.>.>.>.>.>.>.>.>.>.>.",
">.h >.>.>.>.>.>.>.>.>.>.>.>.>.>.>.>.>.>.>.>.>.>.>.>.>.      >.      >.>.>.>.:.>.>.>.>.>.>.>.>.>.>.>.>.>.>.>.>.>.>.>.>.>.",
":.h >.:.>.>.>.>.>.>.>.>.>.>.>.>.>.>.>.>.>.>.>.>.>.>.>.>.    >.      >.>.:.:.X.:.:.:.>.:.>.>.>.>.>.>.>.>.>.>.>.>.>.>.>.>.",
"=.k :...>.>.>.>.>.>.>.>.>.>.>.>.>.>.>.>.>.>.>.>.>.>.>.>.>.>.>.    >.>.>.$.$.O.>.k $.=.f :.>.>.>.>.o.=.>.>.>.>.>.>.>.>.>.",
">.$.:.o.>.>.>.>.>.>.>.>.>.>.>.>.>.>.>.>.>.>.>.>.>.>.>.>.>.>.>.>.>.>.>.>.$.$.>.>.@.>.;.+.>.>.>.>.$.k :.>.>.>.>.>.>.>.>.>.",
">.>.>.=.>.>.>.>.>.>.>.>.>.>.>.>.>.>.>.>.>.>.>.>.>.>.>.>.>.>.>.>.>.>.>.>.>.=.>.>.>.>.>.>.>.>.>.>.>.>.>.>.>.>.>.>.>.>.>.>.",
">.>.>.>.>.>.>.>.>.>.>.>.>.>.>.>.>.>.>.>.>.>.>.>.>.>.>.>.>.>.>.>.>.>.>.>.>.>.>.>.>.>.>.>.>.>.>.>.>.>.>.>.>.>.>.>.>.>.>.>."
};
