/* XPM */
static char *_001[] = {
/* columns rows colors chars-per-pixel */
"60 60 179 2 ",
"   c #010102",
".  c #05050B",
"X  c #07090D",
"o  c #090A0D",
"O  c #060612",
"+  c #0A0B13",
"@  c #070718",
"#  c #0B0C1A",
"$  c #0F1013",
"%  c #0E111B",
"&  c #111114",
"*  c #13141B",
"=  c #191718",
"-  c #19191E",
";  c #0D0D29",
":  c #0E1121",
">  c #0F1825",
",  c #121424",
"<  c #161A26",
"1  c #1A1B24",
"2  c #121629",
"3  c #161B2C",
"4  c #1E1F29",
"5  c #121332",
"6  c #171B31",
"7  c #1B1E31",
"8  c #161A3B",
"9  c #1F2025",
"0  c #1B202D",
"q  c #172233",
"w  c #1D2234",
"e  c #1B233B",
"r  c #1F293F",
"t  c #222124",
"y  c #24252D",
"u  c #292729",
"i  c #29292E",
"p  c #222533",
"a  c #2E2D35",
"s  c #242838",
"d  c #262B3D",
"f  c #2A2D3B",
"g  c #2C303D",
"h  c #33333D",
"j  c #38363A",
"k  c #50652B",
"l  c #556C32",
"z  c #5D7336",
"x  c #5D743A",
"c  c #617637",
"v  c #61763B",
"b  c #637A3D",
"n  c #232540",
"m  c #242940",
"M  c #2A2F43",
"N  c #2C3246",
"B  c #273048",
"V  c #2E354B",
"C  c #373742",
"Z  c #3D3B47",
"A  c #313549",
"S  c #35394A",
"D  c #3F3C4A",
"F  c #383754",
"G  c #343C53",
"H  c #413F43",
"J  c #423F49",
"K  c #3B4357",
"L  c #3D445A",
"P  c #444246",
"I  c #45434C",
"U  c #444351",
"Y  c #4B4A54",
"T  c #41475C",
"R  c #41495F",
"E  c #4D4B5D",
"W  c #514E52",
"Q  c #585357",
"!  c #54525B",
"~  c #5A555A",
"^  c #667B43",
"/  c #454D63",
"(  c #484F65",
")  c #495066",
"_  c #4E5468",
"`  c #515263",
"'  c #585662",
"]  c #5C5963",
"[  c #565D70",
"{  c #5F5F71",
"}  c #605F67",
"|  c #625F69",
" . c #59627C",
".. c #666367",
"X. c #69666C",
"o. c #686475",
"O. c #6C6976",
"+. c #706E73",
"@. c #716D7A",
"#. c #747275",
"$. c #68803F",
"%. c #6B8245",
"&. c #6E8549",
"*. c #71864B",
"=. c #738A4D",
"-. c #758B50",
";. c #798E53",
":. c #7C9355",
">. c #7C9359",
",. c #819656",
"<. c #80965C",
"1. c #849C5D",
"2. c #849B60",
"3. c #899F62",
"4. c #87A060",
"5. c #8DA565",
"6. c #8EA569",
"7. c #90A567",
"8. c #90A569",
"9. c #767580",
"0. c #7B7A84",
"q. c #7B7987",
"w. c #837D84",
"e. c #847E89",
"r. c #858187",
"t. c #81808F",
"y. c #8C878E",
"u. c #8E898F",
"i. c #858694",
"p. c #8B8592",
"a. c #8B8A94",
"s. c #8B8D9A",
"d. c #908B90",
"f. c #948C99",
"g. c #959396",
"h. c #95929D",
"j. c #9C96A1",
"k. c #9F9EA9",
"l. c #A094A0",
"z. c #A29CA3",
"x. c #A59FA9",
"c. c #A6A4A6",
"v. c #A9A0A6",
"b. c #A4A2AD",
"n. c #ABA4A9",
"m. c #B0A7B1",
"M. c #B3AEB4",
"N. c #B8ADB7",
"B. c #B1B0B4",
"V. c #B5B4BC",
"C. c #BAB4BC",
"Z. c #BFB8BF",
"A. c #BDB6C0",
"S. c #C3BCC2",
"D. c #C4C4CB",
"F. c #CDC6CB",
"G. c #CECACE",
"H. c #D2C7CD",
"J. c #D4CED3",
"K. c #D9CDD3",
"L. c #D6D1D6",
"P. c #DAD0D7",
"I. c #DAD7DB",
"U. c #DBD9DD",
"Y. c #E5DBDE",
"T. c #E3DEE1",
"R. c #E5E2E5",
"E. c #EAE1E4",
"W. c #EAE7EA",
"Q. c #EEE9EB",
"!. c #F0E6E8",
"~. c #F2EBED",
"^. c #F2EEF0",
"/. c #F6F2F4",
"(. c #F9F4F5",
"). c #FCF7F8",
"_. c #FDFAFA",
"`. c #FEFBFB",
"'. c #FFFEFE",
/* pixels */
"5.5.5.5.5.5.5.5.5.5.5.5.5.5.5.5.5.5.5.5.5.5.5.5.5.5.5.5.5.5.5.5.5.5.5.5.5.5.5.5.5.5.5.5.5.5.5.5.5.5.5.5.5.5.5.5.5.5.5.5.",
"5.5.5.5.5.5.5.5.5.5.5.5.5.5.5.5.5.5.5.5.5.5.5.5.5.5.5.5.5.5.5.5.5.5.5.5.5.5.5.5.5.5.5.5.5.5.5.5.5.5.5.5.5.5.5.5.5.5.5.5.",
"5.5.5.5.5.5.5.5.5.5.5.5.5.5.5.5.5.5.5.5.5.5.5.5.5.5.5.5.5.5.5.5.5.5.5.5.5.5.5.5.5.5.5.5.5.5.5.5.5.5.5.5.5.5.5.5.5.5.5.5.",
"5.5.5.5.5.5.5.5.5.5.5.5.5.5.5.5.5.5.5.5.5.5.5.5.5.5.5.- . 5.5.5.5.5.5.5.    5.5.5.5.5.5.5.5.5.5.5.5.5.5.5.5.5.5.5.5.5.5.",
"5.5.5.5.5.5.5.5.5.5.5.5.5.5.5.5.5.5.5.5.5.5.5.5.5.5.y O.& 5.5.5.5.5.5.5.  X X . 5.5.5.5.5.5.5.5.5.5.5.5.5.5.5.5.5.5.5.5.",
"5.5.5.5.5.5.5.5.5.5.5.5.5.5.5.5.5.5.5.5.5.5.5.5.5.1 p.j.& 5.5.5.5.5.5.5.  f w.1 3 5.5.5.5.5.5.5.5.5.5.5.5.5.5.5.5.5.5.5.",
"5.5.5.5.5.5.5.5.5.5.5.5.5.5.5.5.5.5.5.5.5.5.5.5.. ..T.s.o   5.5.5.5.5.5.  * K.e.% 5.5.5.5.5.5.5.5.5.5.5.5.5.5.5.5.5.5.5.",
"5.5.5.5.5.5.5.5.5.5.5.5.5.5.5.5.5.5.5.5.5.5.5.5.1 x.`.S.y   5.5.5.5.5.5.    j.U.Z . 5.5.5.5.5.5.5.5.5.5.5.5.5.5.5.5.5.5.",
"5.5.5.5.5.5.5.5.5.5.5.5.5.5.5.5.5.5.5.5.5.6.<.  Q T.'.`.z.  5.5.5.5.5.5.  . p.).z.X 5.5.5.5.5.5.5.5.5.5.5.5.5.5.5.5.5.5.",
"5.5.5.5.5.5.5.5.5.5.5.5.5.5.5.5.5.5.5.5.5.6.%.+ 0.`.'.T.f   5.5.5.5.5.5.  # H.'.G.y 5.5.5.5.5.5.5.5.5.5.5.5.5.5.5.5.5.5.",
"5.5.5.5.5.5.5.5.5.5.5.5.5.5.5.5.5.5.5.5.5.5.&.9 b.'.`.0.o 5.5.5.5.5.5.5.5.  @.).U.Y   5.5.5.7.5.7.5.5.5.5.5.5.5.5.5.5.5.",
"4.5.5.5.5.5.5.5.5.5.5.5.5.5.5.5.5.5.5.5.5.5.<.j J.'.Q.Z   5.5.5.5.5.5.5.5.  # K.R.'   :.z :.8.3.%.c 5.5.5.5.5.5.5.5.5.5.",
"&.5.>.6.8.5.:.5.5.5.5.5.5.5.5.5.5.5.5.5.5.5.5.H T.'.F.u 5.5.5.5.5.5.5.5.5.  . h.R.]   v v 5.6.%.k 1.5.5.5.5.5.5.5.5.5.5.",
"*.%.>.6.6.v =.6.5.5.5.5.5.5.5.5.5.5.5.5.5.5.  P E.'.k.- 5.5.5.5.5.5.5.5.5.5.  0.R.}   5.5.5.5.5.5.5.5.5.5.5.5.5.5.5.5.5.",
"5.%.3.6.%.b 5.5.5.5.5.5.5.5.5.5.5.5.5.5.5.5.  P E.'.i.& 5.5.5.5.5.5.5.5.5.5.  f.T.'   5.5.5.5.5.5.5.5.5.5.5.5.5.5.5.5.5.",
"5.4.5.5.<.3.7.5.5.5.5.5.5.5.5.5.5.5.5.5.5.5.  j I.'.s.* 5.5.5.5.5.5.5.5.5.5.. Z.I.I   5.5.5.5.5.5.5.5.5.5.5.5.5.5.5.5.5.",
"5.5.5.5.5.5.5.5.5.5.5.5.5.5.5.5.5.5.5.5.5.5.5.i V.`.h.* 5.5.5.5.5.5.5.5.5.  < T.G.a   5.5.5.5.5.5.5.5.5.5.5.5.5.5.5.5.5.",
"5.5.5.5.5.5.5.5.5.5.5.5.5.5.5.5.5.5.5.5.5.5.5.* a.`.C.t             5.5.5.  O.(.v.+ 5.5.5.5.5.5.5.5.5.5.5.5.5.5.5.5.5.5.",
"5.5.5.5.5.5.5.5.5.5.5.5.5.5.5.5.5.5.5.5.5.5.# + X.~.~.Y X [ J a y - & . . a Y.R.Y   5.5.5.5.5.5.5.5.5.5.5.5.5.5.5.5.5.5.",
"5.5.5.5.5.5.5.5.5.5.5.5.5.5.5.5.5.5.5.5.5.5 5 , h M.`.C.h m.(.!.J.V.s.X.] Z.'.S.*   5.5.5.5.5.5.5.5.5.5.5.5.5.5.5.5.5.5.",
"5.5.5.5.5.5.5.5.5.5.5.5.5.5.5.5.5.5.5.5.5.5 K 9.! ' L.`.C.b.'.'.'.'.'.`.).'.'.C.y   5.5.5.5.5.5.5.5.5.5.5.5.5.5.5.5.5.5.",
"5.5.5.5.5.5.5.5.5.5.5.5.5.5.5.5.5.5.5.5.5 F D.`.S.U 9.W.'.`.'.'.'.'.'.'.'.'.'.^.a.*   5.5.5.5.5.5.5.5.5.5.5.5.5.5.5.5.5.",
"5.5.5.5.5.5.5.5.5.5.5.5.5.5.5.5.5.5.5.; 8 A.'.'./.M.h.W.'.'.'.'.'.'.'.'.'.'.'.'.I.Y   5.5.5.5.5.5.5.5.5.5.5.5.5.5.5.5.5.",
"5.5.5.5.5.5.5.5.5.5.5.5.5.5.5.5.5.5.5.;  .`.'.'.'.).^.`.'.'.'.'.'.'.'.'.'.'.'.'./.u.+ 5.5.5.5.5.5.5.5.5.5.5.5.5.5.5.5.5.",
"5.5.5.5.5.5.5.5.5.5.5.5.5.5.5.5.5.5.5.5 P.'.'.'.'.'.'.'.'.'.'.'.'.'.'.'.'.'.'.'.`.n.* 5.5.5.5.5.5.5.5.5.5.5.5.5.5.5.5.5.",
"5.5.5.5.5.5.5.5.5.5.5.5.5.5.5.5.5.5.@ A `.'.'.'.'.'.'.'.'.'.'.'.'.'.'.'.'.'.'.'.`.n.* 5.5.5.5.5.5.5.5.5.5.5.5.5.5.5.5.5.",
"5.5.5.5.5.5.5.5.5.5.5.5.5.5.5.4.6.6.O ) `.'.'.'.'.'.'.'.'.'.'.'.'.'.'.'.'.'.'.'.`.n.1 :.5.5.5.5.5.5.5.5.5.5.5.5.5.5.5.5.",
"5.5.5.5.5.5.5.5.5.5.5.5.5.4.5.%.<.>.O 0.'.'.'.'.'.'.'.'.'.'.'./.I.R.`.'.'.'.'.'.`.z.& %.5.5.5.5.5.5.5.5.5.5.5.5.5.5.5.5.",
"5.5.5.5.5.5.5.5.5.5.5.5.5.5.3.l v -.# x.'.'.'.'.'.'.'.'.'.'.~.d.S | F.`.'.'.'.'.Q.y.# 4.5.5.5.5.5.5.5.5.5.5.5.5.5.5.5.5.",
"5.5.5.5.5.5.5.5.5.5.5.5.5.5.5.1.*.1.: S.'.'.'.'.'.'.'.'.'.'.e.      Y I.'.'.'.Q.w.h . 5.5.5.5.5.5.5.5.5.5.5.5.5.5.5.5.5.",
"5.5.5.5.5.5.5.5.5.5.5.5.5.5.5.5.4.5.2 H.'.'.'.'.'.'.'.'.'.~.#       + B.'.'.'.M.o     5.5.5.5.5.5.5.5.5.5.5.5.5.5.5.5.5.",
"5.5.5.5.5.5.5.5.5.5.5.5.5.5.5.5.5.  3 F.'.'.'.'.'.'.'.'.'.N.          c.'.'.`.Q       5.5.5.5.5.5.5.5.5.5.5.5.5.5.5.5.5.",
"5.5.5.5.5.5.5.5.5.5.5.5.5.5.5.5.5.  2 S.'.'.'.'.'.'.'.'.'.i.          c.`.'.).*       5.5.5.5.5.5.5.5.5.5.5.5.5.5.5.5.5.",
"5.5.5.5.5.5.5.5.5.5.5.5.5.5.5.5.5.  # j.'.'.'.'.'.'.'.'.'.t.        X M.'.'.E.      5.5.5.5.5.5.5.5.5.5.5.5.5.5.5.5.5.5.",
"5.5.5.5.5.5.5.5.5.5.5.5.5.5.5.5.  . O _ `.'.'.'.'.'.'.'.'.K.        ~ T.'.'.C.      5.5.5.5.5.5.5.5.5.5.5.5.5.5.5.5.5.5.",
"5.5.5.5.5.5.5.5.5.5.5.5.5.5.5.5.+ ] h 3 M.`.'.'.'.'.'.'.'.'.t     o g.`.'.'.C..     5.5.5.5.5.5.5.5.5.5.5.5.5.5.5.5.5.5.",
"6.5.5.5.5.5.5.5.5.5.5.5.5.5.5.5.. C o.f * z.U.`.'.'.'.'.'.'.K.P H r.W.'.'.'./.h     5.5.5.5.5.5.5.5.5.5.5.5.5.5.5.5.5.5.",
"5.5.5.5.5.5.5.5.5.5.5.5.5.5.5.5.5.. h { a o U z.D.^.'.'.'.'.'././.'.'.'.'.'.U.I   5.5.5.5.5.5.5.5.5.5.5.5.5.5.5.5.5.5.5.",
"5.5.5.5.5.5.5.5.5.5.5.5.5.5.5.5.5.5.. ` p.J + o h #.g.C.Q.`.'.'.'.'.`.`.R.x.Q   5.5.5.5.5.5.5.5.5.6.5.1.5.4.4.5.5.5.5.5.",
"5.5.5.5.5.5.5.5.5.5.5.5.5.5.5.5.5.5.X o.z.f.D . # + + i Q ..+.#.#.+.X...W -   5.5.5.5.5.5.5.5.5.b 2.^ ;.8.-.*.5.5.4.:.5.",
"5.5.5.5.5.5.5.5.5.5.5.5.5.5.5.5.5.5.. E l.f.p , w 7 f f 3 O o o o o .     5.5.5.5.5.5.5.5.5.5.1.x -.z 6.6.b 3.5.5.1.%.5.",
"5.5.5.5.5.5.5.5.5.5.5.5.5.5.5.5.6.5.1.+ y T # r 6 G / G , 6 A + % r %   5.5.5.5.5.5.5.5.5.5.5.6.2.2.&.5.8.3.6.5.5.5.4.5.",
"5.5.5.5.5.5.5.5.5.5.5.5.5.5.5.b 2.^ ;.8.  . , e M ( R 3 , L K + # V w . 5.5.5.5.5.5.5.5.5.5.5.5.5.5.5.5.5.5.5.5.5.5.5.5.",
"5.5.5.5.5.5.5.5.5.5.5.5.5.5.1.x -.z 6.6.b . e w / ( s : K / X .   < w O 5.5.5.5.5.5.5.5.5.5.5.5.5.5.5.5.5.5.5.5.5.5.5.5.",
"5.5.5.5.5.5.5.5.5.5.5.5.5.5.6.2.2.&.5.8.3.+ e G ) G , B / w         < # 5.5.5.5.5.5.5.5.5.5.5.5.5.5.5.5.5.5.5.5.5.5.5.5.",
"5.5.5.5.5.5.5.5.5.5.5.5.5.5.5.5.5.5.5.5.# # 7 / / p 7 T R       o o . X   5.5.5.5.5.5.5.5.5.5.5.5.5.5.5.5.5.5.5.5.5.5.5.",
"5.5.5.5.5.5.5.5.5.5.5.5.5.5.5.5.5.5.5.5.# # B ( G 2 V ( d   .   & 9 .     5.5.5.5.5.5.5.5.5.5.5.5.5.5.5.5.5.5.5.5.5.5.5.",
"5.5.5.5.5.5.5.5.5.5.5.5.5.5.5.5.5.5.5.5.+ , L / d 3 K ( #   . . . - &     5.5.5.5.5.5.5.5.5.5.5.5.5.5.5.5.5.5.5.5.5.5.5.",
"5.5.5.5.5.5.5.5.5.5.5.5.5.5.5.5.5.5.5.5.+ 2 ( L 3 s / / o   s i   & $ +   5.5.5.5.5.5.5.5.5.5.5.5.5.5.5.5.5.5.5.5.5.5.5.",
"5.5.5.5.5.5.5.5.5.5.5.5.5.5.5.5.5.5.5.5.+ w ( G : f ( L .   % &   X . > . 5.5.5.5.5.5.5.5.5.5.5.5.5.5.5.5.5.5.5.5.5.5.5.",
"5.5.5.5.5.5.5.5.5.5.5.5.5.5.5.5.5.5.5.5.X n ( S # N ) S . 4     o #   q O 5.5.5.5.5.5.5.5.5.5.5.5.5.5.5.5.5.5.5.5.5.5.5.",
"5.5.5.5.5.5.5.5.5.5.5.5.5.5.5.5.5.5.5.5.X 7 ( A # N ) g . +.. & $   + r + 5.5.5.5.5.5.5.5.5.5.5.5.5.5.5.5.5.5.5.5.5.5.5.",
"5.5.5.5.5.5.5.5.5.5.5.5.5.5.5.5.5.5.5.5.O 3 / N , G ( p   = o       # r X 5.5.5.5.5.5.5.5.5.5.5.5.5.5.5.5.5.5.5.5.5.5.5.",
"5.,.5.5.5.5.5.5.5.5.5.5.5.5.5.5.5.5.5.5.+ m T w w / T ,         . + + # . 5.5.5.5.5.5.5.5.5.5.5.5.5.5.5.5.5.5.5.5.5.5.5.",
"5.c 5.5.5.5.5.5.5.5.5.5.5.5.5.5.5.5.5.5.X B d # d K 0 O . . .   . X .   5.5.4.5.5.5.5.5.5.5.5.5.5.5.5.5.5.5.5.5.5.5.5.5.",
"4.c 5.4.5.5.5.5.5.5.5.5.5.5.5.5.5.5.5.5.X , + + 7 < X @ # # # X   . .   4.4.%.4.4.4.5.4.5.5.5.5.5.5.5.5.5.5.5.5.5.5.5.5.",
"1.b 4.$.5.5.5.5.5.5.5.5.5.5.5.5.5.5.5.5.. X . . X O @ 5.@ # # + 5.5.5.5.:.:.*.5.b :.1.z 4.5.5.5.5.%.1.5.5.5.5.5.5.5.5.5.",
"5.:.4.%.5.5.5.5.5.5.5.5.5.5.5.5.5.5.5.5.5.5.5.. X O 5.5.5.X . 5.5.5.5.5.:.:.5.5.-.5.3.=.5.5.5.5.:.b 4.5.5.5.5.5.5.5.5.5.",
"5.5.5.1.5.5.5.5.5.5.5.5.5.5.5.5.5.5.5.5.5.5.5.5.5.5.5.5.5.  5.5.5.5.5.5.5.1.5.5.5.5.5.5.5.5.5.5.5.5.5.5.5.5.5.5.5.5.5.5.",
"5.5.5.5.5.5.5.5.5.5.5.5.5.5.5.5.5.5.5.5.5.5.5.5.5.5.5.5.5.5.5.5.5.5.5.5.5.5.5.5.5.5.5.5.5.5.5.5.5.5.5.5.5.5.5.5.5.5.5.5."
};
