/* XPM */
static char *cbd899e9fa634d99b01ce9845959d732UTkQzi7y6e9bvcC4[] = {
/* columns rows colors chars-per-pixel */
"60 60 165 2 ",
"   c #010102",
".  c #05060B",
"X  c #06080C",
"o  c #0A0A0C",
"O  c #070910",
"+  c #0B0C13",
"@  c #0D0E1B",
"#  c #100F17",
"$  c #0F1014",
"%  c #0E111B",
"&  c #111115",
"*  c #13151C",
"=  c #1C1B1F",
"-  c #131623",
";  c #151925",
":  c #1C1C24",
">  c #151A2D",
",  c #1A1E2B",
"<  c #1E212D",
"1  c #1E2334",
"2  c #24242C",
"3  c #29292E",
"4  c #222534",
"5  c #242837",
"6  c #2C2C33",
"7  c #222739",
"8  c #252A3A",
"9  c #2A2E3D",
"0  c #313136",
"q  c #32333B",
"w  c #3A393E",
"e  c #50652B",
"r  c #556A31",
"t  c #586D36",
"y  c #5D7336",
"u  c #5D743A",
"i  c #617637",
"p  c #61763B",
"a  c #637A3D",
"s  c #292F42",
"d  c #2D3244",
"f  c #2F364A",
"g  c #333544",
"h  c #393743",
"j  c #363A44",
"k  c #3C3B45",
"l  c #313649",
"z  c #343A4D",
"x  c #3A3E48",
"c  c #363B51",
"v  c #383E52",
"b  c #403E46",
"n  c #403F49",
"m  c #3F404B",
"M  c #3B4255",
"N  c #3C4358",
"B  c #44424C",
"V  c #48454C",
"C  c #474652",
"Z  c #4C4B54",
"A  c #40465D",
"S  c #41495F",
"D  c #4B4B5B",
"F  c #535156",
"G  c #52525D",
"H  c #58565E",
"J  c #667C42",
"K  c #444D62",
"L  c #495166",
"P  c #4C5268",
"I  c #565660",
"U  c #585564",
"Y  c #5D5B65",
"T  c #5D5D6A",
"R  c #605E65",
"E  c #635F69",
"W  c #636066",
"Q  c #63636C",
"!  c #68666E",
"~  c #666472",
"^  c #6A6674",
"/  c #6C6B73",
"(  c #6F6B79",
")  c #756F7E",
"_  c #74727B",
"`  c #7C777E",
"'  c #7A787F",
"]  c #68803F",
"[  c #6B8245",
"{  c #6E8449",
"}  c #71864A",
"|  c #738A4D",
" . c #768C50",
".. c #798E53",
"X. c #7C9355",
"o. c #7C9359",
"O. c #819656",
"+. c #80965B",
"@. c #849C5D",
"#. c #849B60",
"$. c #899F62",
"%. c #87A060",
"&. c #8DA565",
"*. c #8EA569",
"=. c #90A567",
"-. c #90A569",
";. c #777580",
":. c #787785",
">. c #7B7A83",
",. c #7F7F8E",
"<. c #817D86",
"1. c #85838D",
"2. c #88858B",
"3. c #858493",
"4. c #8F8A94",
"5. c #8D8C9A",
"6. c #918E96",
"7. c #949195",
"8. c #97939C",
"9. c #9A979E",
"0. c #9695A2",
"q. c #9E9BA4",
"w. c #A09EA5",
"e. c #A5A3AC",
"r. c #A9A6AD",
"t. c #ABA8AE",
"y. c #ABA7B2",
"u. c #AFA9B2",
"i. c #B2ADB2",
"p. c #B5B1B7",
"a. c #B5B1BA",
"s. c #B9B5BC",
"d. c #BEBBBF",
"f. c #BAB9C0",
"g. c #C1BFC4",
"h. c #C5C2C7",
"j. c #C6C4CA",
"k. c #CAC6CB",
"l. c #CFC8CF",
"z. c #CECBD1",
"x. c #D1CED2",
"c. c #D4D1D6",
"v. c #D9D4D7",
"b. c #D6D4D8",
"n. c #D9D5DA",
"m. c #DDDADE",
"M. c #E1DBDF",
"N. c #DEDDE0",
"B. c #E1DFE2",
"V. c #E5E2E5",
"C. c #E6E5E8",
"Z. c #EBE6E9",
"A. c #ECEAEC",
"S. c #EFECEE",
"D. c #F1EDEF",
"F. c #EFEEF0",
"G. c #F4EEF0",
"H. c #F5F2F3",
"J. c #F4F3F4",
"K. c #F9F4F6",
"L. c #F8F7F8",
"P. c #FAF9F9",
"I. c #FDFAFB",
"U. c #FEFDFD",
"Y. c #FFFFFF",
/* pixels */
"&.&.&.&.&.&.&.&.&.&.&.&.&.&.&.&.&.&.&.&.&.&.&.&.&.&.&.&.&.&.&.&.&.&.&.&.&.&.&.&.&.&.&.&.&.&.&.&.&.&.&.&.&.&.&.&.&.&.&.&.",
"&.&.&.&.&.&.&.&.&.&.&.&.&.&.&.&.&.&.&.&.&.&.&.&.&.  &.&.&.&.&.&.&.&.&.&.&.&.&.&.&.&.&.&.&.&.&.&.&.&.&.&.&.&.&.&.&.&.&.&.",
"&.&.&.&.&.&.&.&.&.&.&.&.&.&.&.&.&.&.      &.&.&.      . &.&.&.&.&.&.&.&.&.&.&.&.&.&.&.&.&.&.&.&.&.&.&.&.&.&.&.&.&.&.&.&.",
"&.&.&.&.&.&.&.&.&.&.&.&.&.&.&.&.&.. .   &.&.&.&.&.  * 9 : o &.&.&.&.&.&.&.&.&.&.&.&.&.&.&.&.&.&.&.&.&.&.&.&.&.&.&.&.&.&.",
"&.&.&.&.&.&.&.&.&.&.&.&.&.&.&.&.+ , g   &.&.&.&.&.  2 1.4.6 o &.&.&.&.&.&.&.&.&.&.&.&.&.&.&.&.&.&.&.&.&.&.&.&.&.&.&.&.&.",
"&.&.&.&.&.&.&.&.&.&.&.&.&.&.&.. 2 <.B   &.&.&.&.&.&.X W m.e.q . &.&.&.&.&.&.&.&.&.&.&.&.&.&.&.&.&.&.&.&.&.&.&.&.&.&.&.&.",
"&.&.&.&.&.&.&.&.&.&.&.&.&.&.&.* ;.c.C X   &.&.&.&.&.  F n.D.<.* &.&.&.&.&.&.&.&.&.&.&.&.&.&.&.&.&.&.&.&.&.&.&.&.&.&.&.&.",
"&.&.&.&.&.&.&.&.&.&.&.&.&.&.o m M.S.6.% &.&.&.&.&.&.  Z x.Y.g.B . &.&.&.&.&.&.&.&.&.&.&.&.&.&.&.&.&.&.&.&.&.&.&.&.&.&.&.",
"&.&.&.&.&.&.&.&.&.&.&.&.&.&.& 8.Y.B.T . &.*.+.&.&.+.  2 6.H.S._ + &.&.&.&.&.&.&.&.&.&.&.&.&.&.&.&.&.&.&.&.&.&.&.&.&.&.&.",
"&.&.&.&.&.&.&.&.&.&.&.&.&.&.3 m.L.i.* &.&.*.[ X.*.a %.X Z z.I.q.2 &.&.&.&.&.&.&.&.&.&.&.&.&.&.&.&.&.&.&.&.&.&.&.&.&.&.&.",
"&.&.&.&.&.&.&.&.&.&.&.&.&.o G K.A._   &.&.&.{  .&.p &.%.3 q.I.f.h   &.&.&.&.&.*.&.&.&.&.&.&.=.&.=.&.&.&.&.&.&.&.&.&.&.&.",
"%.&.&.&.&.&.&.&.&.&.&.&.&.o :.Y.C.T   &.&.&.+.X.%.a %.[ % ' D.b.Z   &.&.&.+.@.*.u { *.X.y X.-.$.[ i &.&.&.&.&.&.&.&.&.&.",
"{ &.o.*.-.&.X.&.&.&.&.&.&.+ 5.Y.C.T   &.&.&.&.&.&.X.@.J . ! C.m.F   &.&.&.a r o.t a *.p p &.*.[ e @.&.&.&.&.&.&.&.&.&.&.",
"} [ o.*.*.p | *.&.&.&.&.&.& 0.Y.B.C   &.&.&.&.&.&.&.&.%.X / C.n.F   &.&.&.&.&.&.@.@.&.&.&.&.&.&.&.&.&.&.&.&.&.&.&.&.&.&.",
"&.[ $.*.[ a &.&.&.&.&.&.&.+ 3.Y.m.b   &.&.&.&.&.&.&.&.&.* >.G.c.Z   &.&.&.&.&.&.&.&.&.&.&.&.&.&.&.&.&.&.&.&.&.&.&.&.&.&.",
"&.%.&.&.+.$.=.&.&.&.&.&.&.o ~ I.V.U   &.&.&.&.&.&.&.&.&.6 w.P.j.B   &.&.&.&.&.&.&.&.&.&.&.&.&.&.&.&.&.&.&.&.&.&.&.&.&.&.",
"&.&.&.&.&.&.&.&.&.&.&.&.&.. C G.H.4..   &.&.&.&.&.&.&.# E n.Y.t.0 &.&.&.&.&.&.&.&.&.&.&.&.&.&.&.&.&.&.&.&.&.&.&.&.&.&.&.",
"&.&.&.&.&.&.&.&.&.&.&.&.&.. 6 m.I.k.n .           . : W h.P.H.<.* &.&.&.&.&.&.&.&.&.&.&.&.&.&.&.&.&.&.&.&.&.&.&.&.&.&.&.",
"&.&.&.&.&.&.&.&.&.&.&.&.&.&.= a.Y.H.s./ B h k Z R ` q.b.P.Y.c.F . &.&.&.&.&.&.&.&.&.&.&.&.&.&.&.&.&.&.&.&.&.&.&.&.&.&.&.",
"&.&.&.&.&.&.&.&.&.&.&.&.&.. k l.Y.Y.K.B.z.h.k.c.m.Z.K.Y.Y.I.w.B q * &.&.&.&.&.&.&.&.&.&.&.&.&.&.&.&.&.&.&.&.&.&.&.&.&.&.",
"&.&.&.&.&.&.&.&.&.&.&.&.  3 s.K.Y.Y.Y.Y.Y.Y.Y.Y.Y.Y.Y.Y.Y.m.:.1.a.Z . &.&.&.&.&.&.&.&.&.&.&.&.&.&.&.&.&.&.&.&.&.&.&.&.&.",
"&.&.&.&.&.&.&.&.&.&.&.  o >.L.Y.Y.Y.Y.Y.Y.Y.Y.Y.Y.Y.Y.Y.S.q.5.N.K.e.6   &.&.&.&.&.&.&.&.&.&.&.&.&.&.&.&.&.&.&.&.&.&.&.&.",
"&.&.&.&.&.&.&.&.&.&.&.. m M.Y.Y.Y.Y.Y.Y.Y.Y.Y.Y.Y.Y.Y.I.k.e.n.Y.Y.Z.! + &.&.&.&.&.&.&.&.&.&.&.&.&.&.&.&.&.&.&.&.&.&.&.&.",
"&.&.&.&.&.&.&.&.&.&.&.+ q.Y.Y.Y.Y.Y.Y.Y.Y.Y.Y.Y.Y.Y.Y.Y.G.A.I.Y.Y.Y.w.2 &.&.&.&.&.&.&.&.&.&.&.&.&.&.&.&.&.&.&.&.&.&.&.&.",
"&.&.&.&.&.&.&.&.&.&.  ; z.Y.Y.Y.Y.Y.Y.Y.Y.Y.Y.Y.Y.Y.Y.Y.Y.Y.Y.Y.Y.Y.z.B   &.&.&.&.&.&.&.&.&.&.&.&.&.&.&.&.&.&.&.&.&.&.&.",
"&.&.&.&.&.&.&.&.&.&.  & l.Y.Y.Y.Y.Y.Y.Y.Y.Y.Y.Y.Y.Y.Y.Y.Y.Y.Y.Y.Y.Y.Z.Y + &.%.%.&.&.&.&.&.&.&.&.&.&.&.&.&.&.&.&.&.&.&.&.",
"&.&.&.&.&.&.&.&.&.&.  o a.Y.Y.Y.Y.Y.Y.Y.Y.Y.Y.Y.Y.Y.Y.Y.Y.Y.Y.Y.Y.Y.K._ $ -. .} &.&.%.X.&.&.&.&.&.&.&.&.&.&.&.&.&.&.&.&.",
"&.&.&.&.&.&.&.&.&.&.&.o q.Y.Y.Y.Y.Y.Y.Y.Y.Y.Y.Y.Y.Y.Y.Y.Y.Y.Y.Y.Y.Y.Y.1.* *.a $.&.&.@.[ &.&.&.&.&.&.&.&.&.&.&.&.&.&.&.&.",
"&.&.&.&.&.&.&.&.&.&.&.o ,.Y.Y.Y.Y.Y.Y.H.u.^ 4.V.Y.Y.Y.Y.Y.Y.Y.Y.Y.Y.Y.6.: -.$.*.&.&.&.%.&.&.&.&.&.&.&.&.&.&.&.&.&.&.&.&.",
"&.&.&.&.&.&.&.&.&.&.&.  c T Z.Y.Y.Y.H.8.+   + ! A.Y.Y.Y.Y.Y.Y.Y.Y.Y.Y.7.= &.&.&.&.&.&.&.&.&.&.&.&.&.&.&.&.&.&.&.&.&.&.&.",
"&.&.&.&.&.&.&.&.&.&.&.    & y.Y.Y.Y.x.6       6 a.Y.Y.Y.Y.Y.Y.Y.Y.Y.Y.6.= &.&.&.&.&.&.&.&.&.&.&.&.&.&.&.&.&.&.&.&.&.&.&.",
"&.&.&.&.&.&.&.&.&.&.&.    o ( Y.Y.P.i..       & >.Y.Y.Y.Y.Y.Y.Y.Y.Y.Y.1.* &.&.&.&.&.&.&.&.&.&.&.&.&.&.&.&.&.&.&.&.&.&.&.",
"&.&.&.&.&.&.&.&.&.&.&.    . Z I.Y.L.t..       X Q H.Y.Y.Y.Y.Y.Y.Y.Y.K.( + &.&.&.&.&.&.&.&.&.&.&.&.&.&.&.&.&.&.&.&.&.&.&.",
"&.&.&.&.&.&.&.&.&.&.&.      x G.Y.P.s.*       X W D.Y.Y.Y.Y.Y.Y.Y.Y.A.H . &.  + . &.&.&.&.&.&.&.&.&.&.&.&.&.&.&.&.&.&.&.",
"&.&.&.&.&.&.&.&.&.&.&.      j H.Y.Y.v.V       + _ K.Y.Y.Y.Y.Y.Y.Y.Y.s.q   . : T 9 X &.&.&.&.&.&.&.&.&.&.&.&.&.&.&.&.&.&.",
"&.&.&.&.&.&.&.&.&.&.&.&.  . G K.Y.Y.K.r.2 o o w p.Y.Y.Y.Y.Y.Y.Y.Y.n.R + . 3 ( ^ :   &.&.&.&.&.&.&.&.&.&.&.&.&.&.&.&.&.&.",
"*.&.&.&.&.&.&.&.&.&.&.&.  & q.Y.Y.Y.Y.H.a./ Q r.K.Y.Y.Y.Y.Y.Y.L.c.W : : g ) ~ :   &.&.&.&.&.&.&.&.&.&.&.&.&.&.&.&.&.&.&.",
"&.&.&.&.&.&.&.&.&.&.&.&.&.X T D.Y.Y.Y.Y.Y.I.K.Y.Y.Y.Y.Y.Y.L.V.p.G & 4 D Q U : . &.&.&.&.&.&.&.&.&.&.&.&.&.&.&.&.&.&.&.&.",
"&.&.&.&.&.&.&.&.&.&.&.&.&.  : 8.m.J.I.Y.Y.Y.P.K.J.F.Z.n.k.t.^ 4 @ @ @ @ % @ + . . . . &.&.&.&.&.&.*.&.@.&.%.%.&.&.&.&.&.",
"&.&.&.&.&.&.&.&.&.&.&.&.&.&.. ; Y 9.p.d.d.s.r.q.7.2.>.I q - . + ; > > > > ; @ + + . . . . &.&.&.a #.J ..-. .} &.&.%.X.&.",
"&.&.&.&.&.&.&.&.&.&.&.&.&.&.&..   + < 3 4 4 ; - * + + , < , ; ; ; ; , < 4 4 4 7 5 4 , % . . &.@.u  .y *.*.a $.&.&.@.[ &.",
"&.&.&.&.&.&.&.&.&.&.&.&.&.&.&.&.*.&.@.. + 1 ; 4 c 4 > l S K S K K K K L L K K K K K K l * . &.*.#.#.{ &.-.$.*.&.&.&.%.&.",
"&.&.&.&.&.&.&.&.&.&.&.&.&.&.&.a #.J ... * f 4 4 L N 7 , 4 d z M M v z l d 9 s s 9 8 9 l 7 @ . &.&.&.&.&.&.&.&.&.&.&.&.&.",
"&.&.&.&.&.&.&.&.&.&.&.&.&.&.@.u  .y *.. % d 4 - N L S d , - - - - - ; , 1 5 8 9 5 4 , ; > @ . + &.&.&.&.&.&.&.&.&.&.&.&.",
"&.&.&.&.&.&.&.&.&.&.&.&.&.&.*.#.#.{ &.  + 7 8 . , z K L S v d 5 4 5 d v S K A v f s 1 - + + . . &.&.&.&.&.&.&.&.&.&.&.&.",
"&.&.&.&.&.&.&.&.&.&.&.&.&.&.&.&.&.&.&.&.. ; 1     % < z S L P L K K S M l 5 < ; % + + o + + . . &.&.&.&.&.&.&.&.&.&.&.&.",
"&.&.&.&.&.&.&.&.&.&.&.&.&.&.&.&.&.&.&.&.. + %         + , 4 9 d 9 5 < ; % + . . &.&.&.&.&.&.. . &.&.&.&.&.&.&.&.&.&.&.&.",
"&.&.&.&.&.&.&.&.&.&.&.&.&.&.&.&.&.&.&.&.. . .               . O . . . . &.&.&.&.&.&.&.&.&.&.&.&.&.&.&.&.&.&.&.&.&.&.&.&.",
"&.&.&.&.&.&.&.&.&.&.&.&.&.&.&.&.&.&.&.&.&.+ .                         &.&.&.&.&.&.&.&.&.&.&.&.&.&.&.&.&.&.&.&.&.&.&.&.&.",
"&.&.&.&.&.&.&.&.&.&.&.&.&.&.&.&.&.&.&.&.&.&.- .                         &.&.&.&.&.&.&.&.&.&.&.&.&.&.&.&.&.&.&.&.&.&.&.&.",
"&.&.&.&.&.&.&.&.&.&.&.&.&.&.&.&.&.&.&.&.&.&.&.&.                        &.&.&.&.&.&.&.&.&.&.&.&.&.&.&.&.&.&.&.&.&.&.&.&.",
"&.&.&.&.&.&.&.&.&.&.&.&.&.&.&.&.&.&.&.&.&.&.&.&.                        &.&.&.&.&.&.&.&.&.&.&.&.&.&.&.&.&.&.&.&.&.&.&.&.",
"&.&.&.&.&.&.&.&.&.&.&.&.&.&.&.&.&.&.&.&.&.&.&.                          &.&.&.&.&.&.&.&.&.&.&.&.&.&.&.&.&.&.&.&.&.&.&.&.",
"&.O.&.&.&.&.&.&.&.&.&.&.&.&.&.&.&.&.&.&.&.&.&.            &.&.          &.&.&.&.&.&.&.&.&.&.&.&.&.&.&.&.&.&.&.&.&.&.&.&.",
"&.i &.&.&.&.&.&.&.&.&.&.&.&.&.&.&.&.&.&.&.&.&.        &.&.&.&.&.          &.%.&.&.&.&.&.&.&.&.&.&.&.&.&.&.&.&.&.&.&.&.&.",
"%.i &.%.&.&.&.&.&.&.&.&.&.&.&.&.&.&.&.&.&.&.&.        &.&.&.&.&.          %.[ %.%.%.&.%.&.&.&.&.&.&.&.&.&.&.&.&.&.&.&.&.",
"@.a %.] &.&.&.&.&.&.&.&.&.&.&.&.&.&.&.&.&.&.&.      &.&.&.&.&.&.&.&.        } &.a X.@.y %.&.&.&.&.[ @.&.&.&.&.&.&.&.&.&.",
"&.X.%.[ &.&.&.&.&.&.&.&.&.&.&.&.&.&.&.&.&.&.&.&.    &.&.&.&.&.&.&.&.&.      &.&. .&.$.| &.&.&.&.X.a %.&.&.&.&.&.&.&.&.&.",
"&.&.&.@.&.&.&.&.&.&.&.&.&.&.&.&.&.&.&.&.&.&.&.&.&.&.&.&.&.&.&.&.&.&.&.&.&.@.&.&.&.&.&.&.&.&.&.&.&.&.&.&.&.&.&.&.&.&.&.&.",
"&.&.&.&.&.&.&.&.&.&.&.&.&.&.&.&.&.&.&.&.&.&.&.&.&.&.&.&.&.&.&.&.&.&.&.&.&.&.&.&.&.&.&.&.&.&.&.&.&.&.&.&.&.&.&.&.&.&.&.&."
};
