/* XPM */
static char *_005[] = {
/* columns rows colors chars-per-pixel */
"60 60 163 2 ",
"   c #010102",
".  c #05060B",
"X  c #06080C",
"o  c #0A0A0C",
"O  c #070910",
"+  c #0B0C13",
"@  c #0D0E1B",
"#  c #0F1014",
"$  c #0E111B",
"%  c #111115",
"&  c #13151C",
"*  c #1C1B1F",
"=  c #131623",
"-  c #151925",
";  c #1C1C24",
":  c #151A2D",
">  c #1A1E2B",
",  c #1E212D",
"<  c #1E2334",
"1  c #24242C",
"2  c #29292E",
"3  c #222534",
"4  c #242837",
"5  c #2C2C33",
"6  c #222739",
"7  c #252A3A",
"8  c #2A2E3D",
"9  c #313136",
"0  c #32333B",
"q  c #3A393E",
"w  c #50652B",
"e  c #556B32",
"r  c #586D36",
"t  c #5E7437",
"y  c #5E743A",
"u  c #617637",
"i  c #61773B",
"p  c #637A3D",
"a  c #292F42",
"s  c #2D3244",
"d  c #2F364A",
"f  c #333544",
"g  c #393743",
"h  c #363A44",
"j  c #3C3B45",
"k  c #313649",
"l  c #343A4D",
"z  c #3A3E48",
"x  c #363B51",
"c  c #383E52",
"v  c #403E46",
"b  c #403F49",
"n  c #3F404B",
"m  c #3B4255",
"M  c #3C4358",
"N  c #44424C",
"B  c #48454C",
"V  c #474652",
"C  c #4C4B54",
"Z  c #40465D",
"A  c #41495F",
"S  c #4B4B5B",
"D  c #535156",
"F  c #52525D",
"G  c #58565E",
"H  c #667B43",
"J  c #687F44",
"K  c #444D62",
"L  c #495166",
"P  c #4C5268",
"I  c #565660",
"U  c #585564",
"Y  c #5D5D6A",
"T  c #605E65",
"R  c #635F69",
"E  c #636066",
"W  c #63636C",
"Q  c #68666E",
"!  c #666472",
"~  c #6A6674",
"^  c #6C6B73",
"/  c #6F6B79",
"(  c #756F7E",
")  c #74727B",
"_  c #7C777E",
"`  c #7A787F",
"'  c #68803F",
"]  c #6B8245",
"[  c #6E8549",
"{  c #71864B",
"}  c #748B4D",
"|  c #768C51",
" . c #788E53",
".. c #7B9354",
"X. c #7C9259",
"o. c #819656",
"O. c #80965B",
"+. c #849B5D",
"@. c #859C60",
"#. c #899F62",
"$. c #87A060",
"%. c #8DA565",
"&. c #8EA569",
"*. c #90A667",
"=. c #90A569",
"-. c #777580",
";. c #787785",
":. c #7B7A83",
">. c #7F7F8E",
",. c #817D86",
"<. c #85838D",
"1. c #88858B",
"2. c #858493",
"3. c #8F8A94",
"4. c #8D8C9A",
"5. c #918E96",
"6. c #949195",
"7. c #97939C",
"8. c #9A979E",
"9. c #9695A2",
"0. c #9E9BA4",
"q. c #A09EA5",
"w. c #A5A3AC",
"e. c #A9A6AD",
"r. c #ABA8AE",
"t. c #ABA7B2",
"y. c #AFA9B2",
"u. c #B2ADB2",
"i. c #B5B1B7",
"p. c #B5B1BA",
"a. c #B9B5BC",
"s. c #BEBBBF",
"d. c #BAB9C0",
"f. c #C1BFC4",
"g. c #C5C2C7",
"h. c #C6C4CA",
"j. c #CAC6CB",
"k. c #CFC8CF",
"l. c #CECBD1",
"z. c #D1CED2",
"x. c #D4D1D6",
"c. c #D9D4D7",
"v. c #D6D4D8",
"b. c #D9D5DA",
"n. c #DDDADE",
"m. c #E1DBDF",
"M. c #DEDDE0",
"N. c #E1DFE2",
"B. c #E5E2E5",
"V. c #E6E5E8",
"C. c #EBE6E9",
"Z. c #ECEAEC",
"A. c #F1EDEF",
"S. c #EFEEF0",
"D. c #F4EEF0",
"F. c #F5F2F3",
"G. c #F4F3F4",
"H. c #F9F4F5",
"J. c #FAF6F7",
"K. c #F8F7F8",
"L. c #FAF9F9",
"P. c #FDFAFA",
"I. c #FFFDFD",
/* pixels */
"%.%.%.%.%.%.%.%.%.%.%.%.%.%.%.%.%.%.%.%.%.%.%.%.%.%.%.%.%.%.%.%.%.%.%.%.%.%.%.%.%.%.%.%.%.%.%.%.%.%.%.%.%.%.%.%.%.%.%.%.",
"%.%.%.%.%.%.%.%.%.%.%.%.%.%.%.%.%.%.%.%.%.%.%.%.%.%.%.%.%.%.%.%.%.%.  %.%.%.%.%.%.%.%.%.%.%.%.%.%.%.%.%.%.%.%.%.%.%.%.%.",
"%.%.%.%.%.%.%.%.%.%.%.%.%.%.%.%.%.%.%.%.%.%.%.%.%.%.%.%.%.%.%.%..       %.%.%.      %.%.%.%.%.%.%.%.%.%.%.%.%.%.%.%.%.%.",
"%.%.%.%.%.%.%.%.%.%.%.%.%.%.%.%.%.%.%.%.%.%.%.%.%.%.%.%.%.%.o ; 8 &   %.%.%.%.%.  . . %.%.%.%.%.%.%.%.%.%.%.%.%.%.%.%.%.",
"%.%.%.%.%.%.%.%.%.%.%.%.%.%.%.%.%.%.%.%.%.%.%.%.%.%.%.%.%.o 5 3.<.1   %.%.%.%.%.  f > O %.%.%.%.%.%.%.%.%.%.%.%.%.%.%.%.",
"%.%.%.%.%.%.%.%.%.%.%.%.%.%.%.%.%.%.%.%.%.%.%.%.%.%.%.%.. 0 w.n.W X %.%.%.%.%.%.  N ,.1 . %.%.%.%.%.%.%.%.%.%.%.%.%.%.%.",
"%.%.%.%.%.%.%.%.%.%.%.%.%.%.%.%.%.%.%.%.%.%.%.%.%.%.%.%.& ,.A.b.D   %.%.%.%.%.  X V x.-.& %.%.%.%.%.%.%.%.%.%.%.%.%.%.%.",
"%.%.%.%.%.%.%.%.%.%.%.%.%.%.%.%.%.%.%.%.%.%.%.%.%.%.%.. N f.I.z.C   %.%.%.%.%.%.$ 5.Z.m.n o %.%.%.%.%.%.%.%.%.%.%.%.%.%.",
"%.%.%.%.%.%.%.%.%.%.%.%.%.%.%.%.%.%.%.%.%.&.O.%.%.O.%.+ ) Z.F.5.1   %.%.%.%.%.%.. Y N.I.7.% %.%.%.%.%.%.%.%.%.%.%.%.%.%.",
"%.%.%.%.%.%.%.%.%.%.%.%.%.%.%.%.%.%.%.%.%.&.] ..&.p $.1 0.P.l.C X %.%.%.%.%.%.%.%.& u.K.n.2 %.%.%.%.%.%.%.%.%.%.%.%.%.%.",
"%.%.%.%.%.%.%.%.%.%.%.%.%.%.%.%.%.%.%.%.%.%.[ | %.i   g d.P.0.2 %.%.%.%.%.%.%.&.%.  ) Z.J.F o %.*.%.%.%.%.%.%.%.%.%.%.%.",
"$.%.%.%.%.%.%.%.%.%.%.%.%.%.%.%.%.%.%.%.%.%.O...$.p   C v.A.` $ %.%.%.%.%.O.+.&.y   Y V.I.;.o #.] u %.%.%.%.%.%.%.%.%.%.",
"[ %.X.&.=.%...%.%.%.%.%.%.%.%.%.%.%.%.%.%.%.%.%.%...  D n.V.Q . %.%.%.%.%.p e X.r   Y V.I.4.+ ] w +.%.%.%.%.%.%.%.%.%.%.",
"{ ] X.&.&.i } &.%.%.%.%.%.%.%.%.%.%.%.%.%.%.%.%.%.%.  D b.V.^ X %.%.%.%.%.%.%.%.+.  V N.I.9.% %.%.%.%.%.%.%.%.%.%.%.%.%.",
"%.] #.&.] p %.%.%.%.%.%.%.%.%.%.%.%.%.%.%.%.%.%.%.%.  C x.D.:.& %.%.%.%.%.%.%.%.%.  v n.I.2.+ %.%.%.%.%.%.%.%.%.%.%.%.%.",
"%.$.%.%.O.#.*.%.%.%.%.%.%.%.%.%.%.%.%.%.%.%.%.%.%.%.  N h.L.q.5 %.%.%.%.%.%.%.%.%.  U B.P.! o %.%.%.%.%.%.%.%.%.%.%.%.%.",
"%.%.%.%.%.%.%.%.%.%.%.%.%.%.%.%.%.%.%.%.%.%.%.%.%.%.%.9 r.I.b.R % %.%.%.%.%.%.%.  . 3.F.D.V . %.%.%.%.%.%.%.%.%.%.%.%.%.",
"%.%.%.%.%.%.%.%.%.%.%.%.%.%.%.%.%.%.%.%.%.%.%.%.%.%.%.& ,.F.L.g.W ; .           . b j.P.n.5 . %.%.%.%.%.%.%.%.%.%.%.%.%.",
"%.%.%.%.%.%.%.%.%.%.%.%.%.%.%.%.%.%.%.%.%.%.%.%.%.%.%.. D x.I.L.v.0._ T C j g N ^ a.F.I.p.* %.%.%.%.%.%.%.%.%.%.%.%.%.%.",
"%.%.%.%.%.%.%.%.%.%.%.%.%.%.%.%.%.%.%.%.%.%.%.%.%.%.& 0 N q.P.I.I.G.C.M.x.j.g.l.N.J.I.I.k.j . %.%.%.%.%.%.%.%.%.%.%.%.%.",
"%.%.%.%.%.%.%.%.%.%.%.%.%.%.%.%.%.%.%.%.%.%.%.%.%.. C p.<.;.n.I.I.I.I.I.I.I.I.I.I.I.I.I.G.a.2   %.%.%.%.%.%.%.%.%.%.%.%.",
"%.%.%.%.%.%.%.%.%.%.%.%.%.%.%.%.%.%.%.%.%.%.%.%.  5 w.J.M.4.0.Z.I.I.I.I.I.I.I.I.I.I.I.I.I.L.:.o   %.%.%.%.%.%.%.%.%.%.%.",
"%.%.%.%.%.%.%.%.%.%.%.%.%.%.%.%.%.%.%.%.%.%.%.%.+ Q V.I.I.b.w.j.P.I.I.I.I.I.I.I.I.I.I.I.I.I.N.n . %.%.%.%.%.%.%.%.%.%.%.",
"%.%.%.%.%.%.%.%.%.%.%.%.%.%.%.%.%.%.%.%.%.%.%.%.1 q.P.I.I.P.Z.D.I.I.I.I.I.I.I.I.I.I.I.I.I.I.I.0.+ %.%.%.%.%.%.%.%.%.%.%.",
"%.%.%.%.%.%.%.%.%.%.%.%.%.%.%.%.%.%.%.%.%.%.%.  N l.I.I.I.I.I.I.I.I.I.I.I.I.I.I.I.I.I.I.I.I.I.l.-   %.%.%.%.%.%.%.%.%.%.",
"%.%.%.%.%.%.%.%.%.%.%.%.%.%.%.%.%.%.%.%.%.%.%.O Y V.I.I.I.I.I.I.I.I.I.I.I.I.I.I.I.I.I.I.I.I.I.k.%   %.%.%.%.%.%.%.%.%.%.",
"%.%.%.%.%.%.%.%.%.%.%.%.%.%.%.$.&.&.$.$.%.%.%.# ) J.I.I.I.I.I.I.I.I.I.I.I.I.I.I.I.I.I.I.I.I.I.p.o   %.%.%.%.%.%.%.%.%.%.",
"%.%.%.%.%.%.%.%.%.%.%.%.%.$.%.] O.X. .} %.%.%.& <.I.I.I.I.I.I.I.I.I.I.I.I.I.I.I.I.I.I.I.I.I.I.0.o %.%.%.%.%.%.%.%.%.%.%.",
"%.%.%.%.%.%.%.%.%.%.%.%.%.%.#.e i | J | %.%.%.; 5.I.I.I.I.I.I.I.I.I.I.I.B.4.~ y.F.I.I.I.I.I.I.>.o %.%.%.%.%.%.%.%.%.%.%.",
"%.%.%.%.%.%.%.%.%.%.%.%.%.%.%.+.{ +. .$.%.%.%.* 6.I.I.I.I.I.I.I.I.I.I.Z.Q +   + 7.F.I.I.I.C.Y x   %.%.%.%.%.%.%.%.%.%.%.",
"%.%.%.%.%.%.%.%.%.%.%.%.%.%.%.%.$.%.%.%.%.%.%.* 5.I.I.I.I.I.I.I.I.I.I.i.5       5 z.I.I.I.t.%     %.%.%.%.%.%.%.%.%.%.%.",
"%.%.%.%.%.%.%.%.%.%.%.%.%.%.%.%.%.%.%.%.%.%.%.& <.I.I.I.I.I.I.I.I.I.I.-.%       . u.L.I.I./ o     %.%.%.%.%.%.%.%.%.%.%.",
"%.%.%.%.%.%.%.%.%.%.%.%.%.%.%.%.%.%.%.%.%.%.%.+ / J.I.I.I.I.I.I.I.I.F.W X       . r.K.I.P.C .     %.%.%.%.%.%.%.%.%.%.%.",
"%.%.%.%.%.%.%.%.%.%.%.%.%.%.%.%.%.%.%.. +   %.. G Z.I.I.I.I.I.I.I.I.D.W X       & a.L.I.D.z       %.%.%.%.%.%.%.%.%.%.%.",
"%.%.%.%.%.%.%.%.%.%.%.%.%.%.%.%.%.%.X 8 Y ; .   0 a.I.I.I.I.I.I.I.I.K.) +       B c.I.I.F.h       %.%.%.%.%.%.%.%.%.%.%.",
"%.%.%.%.%.%.%.%.%.%.%.%.%.%.%.%.%.%.  ; ~ / 2 . + T b.I.I.I.I.I.I.I.I.i.q o o 1 e.G.I.I.J.F .   %.%.%.%.%.%.%.%.%.%.%.%.",
"&.%.%.%.%.%.%.%.%.%.%.%.%.%.%.%.%.%.%.  ; ! ( f ; ; E x.K.I.I.I.I.I.I.G.t.W ^ p.F.I.I.I.I.0.%   %.%.%.%.%.%.%.%.%.%.%.%.",
"%.%.%.%.%.%.%.%.%.%.%.%.%.%.%.%.%.%.%.%.. ; U W S 3 % F i.B.K.I.I.I.I.I.I.J.P.I.I.I.I.I.A.Y X %.%.%.%.%.%.%.%.%.%.%.%.%.",
"%.%.%.%.%.%.%.%.%.%.%.%.%.%.%.%.%.. . . . O @ $ @ @ @ @ 3 ~ r.j.b.C.S.G.G.L.P.I.I.P.G.n.7.;   %.%.&.%.+.%.$.$.%.%.%.%.%.",
"%.%.%.%.%.%.%.%.%.%.%.%.%.%.%.. . . . O + @ = : : : : = + . = 0 I -.1.6.0.e.a.s.s.i.8.Y - . %.%.p @.H  .=.| { %.%.$...%.",
"%.%.%.%.%.%.%.%.%.%.%.%.%.%.. . $ > 3 4 6 3 3 3 , > - - - - > , > + O & = - 3 3 2 , +   . %.%.+.y | t &.&.p #.%.%.+.] %.",
"%.%.%.%.%.%.%.%.%.%.%.%.%.%.. & k K K K K K K L L K K K K A K A l : 3 x 3 - < + . %.%.%.%.%.%.&.@.@.[ %.=.#.&.%.%.%.$.%.",
"%.%.%.%.%.%.%.%.%.%.%.%.%.. @ 6 k 8 7 8 a a 8 s l l c m m l s 3 : 6 M L 3 3 d & . %.%.%.%.%.%.%.%.%.%.%.%.%.%.%.%.%.%.%.",
"%.%.%.%.%.%.%.%.%.%.%.%.O . @ : = > 3 4 8 7 4 < : - = = - = = > s A L M = 3 s $ . %.%.%.%.%.%.%.%.%.%.%.%.%.%.%.%.%.%.%.",
"%.%.%.%.%.%.%.%.%.%.%.%.. . O + = < a d c Z K A c s 4 3 4 s c A L K l : . 7 6 O   %.%.%.%.%.%.%.%.%.%.%.%.%.%.%.%.%.%.%.",
"%.%.%.%.%.%.%.%.%.%.%.%.. . O O o O + $ - , 4 k m A K K L P L A l , $     < - . %.%.%.%.%.%.%.%.%.%.%.%.%.%.%.%.%.%.%.%.",
"%.%.%.%.%.%.%.%.%.%.%.%.. . %.%.%.%.%.%.. . O $ - , 4 8 s 8 3 > +         $ O . %.%.%.%.%.%.%.%.%.%.%.%.%.%.%.%.%.%.%.%.",
"%.%.%.%.%.%.%.%.%.%.%.%.%.%.%.%.%.%.%.%.%.%.%.%.. . . . O .               . . . %.%.%.%.%.%.%.%.%.%.%.%.%.%.%.%.%.%.%.%.",
"%.%.%.%.%.%.%.%.%.%.%.%.%.%.%.%.%.%.%.%.%.%.%.%.%.                        . O %.%.%.%.%.%.%.%.%.%.%.%.%.%.%.%.%.%.%.%.%.",
"%.%.%.%.%.%.%.%.%.%.%.%.%.%.%.%.%.%.%.%.%.%.%.%.                        . = %.%.%.%.%.%.%.%.%.%.%.%.%.%.%.%.%.%.%.%.%.%.",
"%.%.%.%.%.%.%.%.%.%.%.%.%.%.%.%.%.%.%.%.%.%.%.%.                        %.%.%.%.%.%.%.%.%.%.%.%.%.%.%.%.%.%.%.%.%.%.%.%.",
"%.%.%.%.%.%.%.%.%.%.%.%.%.%.%.%.%.%.%.%.%.%.%.%.                        %.%.%.%.%.%.%.%.%.%.%.%.%.%.%.%.%.%.%.%.%.%.%.%.",
"%.%.%.%.%.%.%.%.%.%.%.%.%.%.%.%.%.%.%.%.%.%.%.%.                          %.%.%.%.%.%.%.%.%.%.%.%.%.%.%.%.%.%.%.%.%.%.%.",
"%.o.%.%.%.%.%.%.%.%.%.%.%.%.%.%.%.%.%.%.%.%.%.%.          %.%.            %.%.%.%.%.%.%.%.%.%.%.%.%.%.%.%.%.%.%.%.%.%.%.",
"%.u %.%.%.%.%.%.%.%.%.%.%.%.%.%.%.%.%.%.%.%.%.          %.%.%.%.%.        %.$.%.%.%.%.%.%.%.%.%.%.%.%.%.%.%.%.%.%.%.%.%.",
"$.u %.$.%.%.%.%.%.%.%.%.%.%.%.%.%.%.%.%.%.%.%.          %.%.%.%.%.        $.] $.$.$.%.$.%.%.%.%.%.%.%.%.%.%.%.%.%.%.%.%.",
"+.p $.' %.%.%.%.%.%.%.%.%.%.%.%.%.%.%.%.%.%.        %.%.%.%.%.%.%.%.      ..{ %.p ..+.t $.%.%.%.%.] +.%.%.%.%.%.%.%.%.%.",
"%...$.] %.%.%.%.%.%.%.%.%.%.%.%.%.%.%.%.%.%.      %.%.%.%.%.%.%.%.%.    ....%.%.| %.#.} %.%.%.%...p $.%.%.%.%.%.%.%.%.%.",
"%.%.%.+.%.%.%.%.%.%.%.%.%.%.%.%.%.%.%.%.%.%.%.%.%.%.%.%.%.%.%.%.%.%.%.%.%.+.%.%.%.%.%.%.%.%.%.%.%.%.%.%.%.%.%.%.%.%.%.%.",
"%.%.%.%.%.%.%.%.%.%.%.%.%.%.%.%.%.%.%.%.%.%.%.%.%.%.%.%.%.%.%.%.%.%.%.%.%.%.%.%.%.%.%.%.%.%.%.%.%.%.%.%.%.%.%.%.%.%.%.%."
};
