/* XPM */
static char *_9984a67038543b0f5d6828d4b839d24pdt8Cjfr4BHhkkiZ[] = {
/* columns rows colors chars-per-pixel */
"60 60 163 2 ",
"   c #000001",
".  c #05060A",
"X  c #07080E",
"o  c #0B0B0D",
"O  c #070910",
"+  c #0B0C13",
"@  c #0D0D1A",
"#  c #0E111B",
"$  c #111214",
"%  c #14151B",
"&  c #1B1A1D",
"*  c #131524",
"=  c #131825",
"-  c #1C1C21",
";  c #16162C",
":  c #151B2A",
">  c #1B1F28",
",  c #161930",
"<  c #201F22",
"1  c #1B212E",
"2  c #1F2433",
"3  c #222227",
"4  c #26262B",
"5  c #2C2B2E",
"6  c #232734",
"7  c #252935",
"8  c #2B2B33",
"9  c #222A3D",
"0  c #2B2E3B",
"q  c #312F34",
"w  c #2F3039",
"e  c #323235",
"r  c #33333B",
"t  c #3B393D",
"y  c #50652B",
"u  c #5D7336",
"i  c #5D743A",
"p  c #617637",
"a  c #61763B",
"s  c #637A3D",
"d  c #1E2D45",
"f  c #252C42",
"g  c #273246",
"h  c #2A3245",
"j  c #223048",
"k  c #2C354A",
"l  c #3A3B43",
"z  c #323A4E",
"x  c #383C4C",
"c  c #2F3A51",
"v  c #353D53",
"b  c #413F46",
"n  c #374156",
"m  c #3A4156",
"M  c #374259",
"N  c #3B455B",
"B  c #3F485E",
"V  c #44424A",
"C  c #474549",
"Z  c #4B494E",
"A  c #4B4B52",
"S  c #40485E",
"D  c #4D4A58",
"F  c #514F57",
"G  c #504F5C",
"H  c #53535B",
"J  c #5A595D",
"K  c #667C42",
"L  c #414A60",
"P  c #585662",
"I  c #5D5B63",
"U  c #64626B",
"Y  c #69666E",
"T  c #6E696E",
"R  c #616371",
"E  c #6E6C74",
"W  c #706C71",
"Q  c #6F717B",
"!  c #74737C",
"~  c #79747C",
"^  c #7B797F",
"/  c #68803F",
"(  c #6B8245",
")  c #6E8449",
"_  c #71864A",
"`  c #738A4D",
"'  c #758C50",
"]  c #798E53",
"[  c #7B9354",
"{  c #7D9559",
"}  c #819656",
"|  c #80965B",
" . c #849C5D",
".. c #849B60",
"X. c #899F62",
"o. c #87A060",
"O. c #8DA565",
"+. c #8EA569",
"@. c #90A567",
"#. c #90A569",
"$. c #7E7B83",
"%. c #7B7C8B",
"&. c #838086",
"*. c #84838A",
"=. c #8D878C",
"-. c #8E888F",
";. c #838492",
":. c #8D8A91",
">. c #858B99",
",. c #918E94",
"<. c #908E99",
"1. c #969296",
"2. c #959399",
"3. c #9A999D",
"4. c #A1989B",
"5. c #9A9CA5",
"6. c #9E9EAA",
"7. c #A19DA3",
"8. c #A39FA9",
"9. c #A2A0A4",
"0. c #A8A4A7",
"q. c #A5A4AB",
"w. c #AAA6AE",
"e. c #AAA8AE",
"r. c #A7AAB3",
"t. c #ACABB3",
"y. c #B4AEB5",
"u. c #B2AFB8",
"i. c #AFB1B9",
"p. c #B6B4B7",
"a. c #B8B2B6",
"s. c #B4B2B9",
"d. c #B9B4BB",
"f. c #BEBABF",
"g. c #BCBAC2",
"h. c #C3BEC5",
"j. c #C4C1C7",
"k. c #C6C2CA",
"l. c #CBC6CB",
"z. c #CBC8CD",
"x. c #CECDD2",
"c. c #D2CDD2",
"v. c #D7D2D6",
"b. c #D8D1D6",
"n. c #D6D5DA",
"m. c #DAD6DB",
"M. c #DBD9DD",
"N. c #E0D8DD",
"B. c #E1DFE2",
"V. c #E5E3E6",
"C. c #E8E1E4",
"Z. c #E9E7EA",
"A. c #ECEAEC",
"S. c #F3ECED",
"D. c #EFEEF0",
"F. c #F3EFF1",
"G. c #F5F3F4",
"H. c #F8F6F7",
"J. c #FCF5F6",
"K. c #FAF7F8",
"L. c #FDF7F8",
"P. c #FFFDFD",
"I. c #FFFEFE",
/* pixels */
"O.O.O.O.O.O.O.O.O.O.O.O.O.O.O.O.O.O.O.O.O.O.O.O.O.O.O.O.O.O.O.O.O.O.O.O.O.O.O.O.O.O.O.O.O.O.O.O.O.O.O.O.O.O.O.O.O.O.O.O.",
"O.O.O.O.O.O.O.O.O.O.O.O.O.O.O.O.O.O.O.O.O.O.O.O.O.O.O.O.O.O.O.O.O.O.O.O.O.O.O.O.O.O.O.O.O.O.O.O.O.O.O.O.O.O.O.O.O.O.O.O.",
"O.O.O.O.O.O.O.O.O.O.O.O.O.O.O.O.O.O.O.O.O.O.O.O.O.O.O.O.O.O.O.O.. X   O.O.O.O.O.O.O.O.O.O.O.O.O.O.O.O.O.O.O.O.O.O.O.O.O.",
"O.O.O.O.O.O.O.O.O.O.O.O.O.O.O.O.O.  . O.O.O.O.O.O.O.O.O.O.O.O.O.& F r & r $ O.O.O.O.O.O.O.O.O.O.O.O.O.O.O.O.O.O.O.O.O.O.",
"O.O.O.O.O.O.O.O.O.O.O.O.O.  . . o C -   O.O.O.O.O.O.O.O.O.O.O.O.3 1.d.2.h.I . O.O.O.O.O.O.O.O.O.O.O.O.O.O.O.O.O.O.O.O.O.",
"O.O.O.O.O.O.O.O.O.O.O.O.O.& H P ! w.3 O.O.O.O.O.O.O.O.O.O.O.O.O.O.Z c.K.I.z.-   O.O.O.O.O.O.O.O.O.O.O.O.O.O.O.O.O.O.O.O.",
"O.O.O.O.O.O.O.O.O.O.O.O.O.t h.M.Z.2.$ O.O.O.O.O.O.O.O.O.O.O.O.O.O.% ,.H.I.K.P   O.O.O.O.O.O.O.O.O.O.O.O.O.O.O.O.O.O.O.O.",
"O.O.O.O.O.O.O.O.O.O.O.O.. I F.I.K.H . O.O.O.O.O.O.O.O.O.O.O.O.O.O.O.I B.I.I.8.  O.O.O.O.O.O.O.O.O.O.O.O.O.O.O.O.O.O.O.O.",
"O.O.O.O.O.O.O.O.O.O.O.O.$ ^ L.I.B.e O.O.O.+.| O.O.| O.O.O.O.O.O.O.O.t l.I.I.v.O O.O.O.O.O.O.O.O.O.O.O.O.O.O.O.O.O.O.O.O.",
"O.O.O.O.O.O.O.O.O.O.O.O.% *.I.I.g.3 O.O.O.+.( [ +.s o.O.O.O.O.O.O.O.4 p.I.I.S.:   O.O.O.O.O.O.O.O.O.O.O.O.O.O.O.O.O.O.O.",
"O.O.O.O.O.O.O.O.O.O.O.O.& :.I.I.8.& O.O.O.O.) ' O.a O.o.O.O.O.O.O.O.% e.I.I.L.8   O.O.O.O.O.@.O.@.O.O.O.O.O.O.O.O.O.O.O.",
"o.O.O.O.O.O.O.O.O.O.O.O.% *.I.I.7.& O.O.O.O.| [ o.s o.( o.O.O.O.O.O.# q.I.I.J.w   ) +.[ u [ #.X.( p O.O.O.O.O.O.O.O.O.O.",
") O.{ +.#.O.[ O.O.O.O.O.+ ! I.I.u.< O.O.O.O.O.O.O.[  .K O.O.O.O.O.O.3 s.I.I.F.7   s +.a a O.+.( y  .O.O.O.O.O.O.O.O.O.O.",
"_ ( { +.+.a ` +.O.O.O.O.. H A.I.c.8   O.O.O.O.O.O.O.O.o.O.O.O.O.O.  b x.I.I.C.#  . .O.O.O.O.O.O.O.O.O.O.O.O.O.O.O.O.O.O.",
"O.( X.+.( s O.O.O.O.O.O.O.q g.I.F.P . O.O.      X + $ $ X         . Y Z.I.I.s.  O.O.O.O.O.O.O.O.O.O.O.O.O.O.O.O.O.O.O.O.",
"O.o.O.O.| X.@.O.O.O.O.O.O.o E V.I.<.$   . - A W &.1.3.3.=.T H r # & 2.K.I.H.J   O.O.O.O.O.O.O.O.O.O.O.O.O.O.O.O.O.O.O.O.",
"O.O.O.O.O.O.O.O.O.O.O.O.O.  4 t.S.;.0 Y 4.p.n.A.G.I.I.I.L.Z.M.r.0 Z v.I.I.u.% O.O.O.O.O.O.O.O.O.O.O.O.O.O.O.O.O.O.O.O.O.",
"O.O.O.O.O.O.O.O.O.O.O.O.O.O.. I b.M.x.Z.L.I.I.I.I.I.I.I.I.I.V.R r e.K.I.z.l   O.O.O.O.O.O.O.O.O.O.O.O.O.O.O.O.O.O.O.O.O.",
"O.O.O.O.O.O.O.O.O.O.O.O.O.O.  I B.I.I.I.I.I.I.I.I.I.I.I.I.I.c.x <.G.I.c.C . O.O.O.O.O.O.O.O.O.O.O.O.O.O.O.O.O.O.O.O.O.O.",
"O.O.O.O.O.O.O.O.O.O.O.O.O.O.% 3.L.I.I.I.I.I.I.I.I.I.I.I.I.I.N.d.H.I.k.V % . O.O.O.O.O.O.O.O.O.O.O.O.O.O.O.O.O.O.O.O.O.O.",
"O.O.O.O.O.O.O.O.O.O.O.O.O.  A n.I.I.I.I.I.I.I.I.I.I.I.I.I.I.I.I.I.I.B.u.h.5   O.O.O.O.O.O.O.O.O.O.O.O.O.O.O.O.O.O.O.O.O.",
"O.O.O.O.O.O.O.O.O.O.O.O.O.. E F.I.I.I.I.I.I.I.I.I.I.I.I.I.I.I.I.I.I.I.I.L.U . O.O.O.O.O.O.O.O.O.O.O.O.O.O.O.O.O.O.O.O.O.",
"O.O.O.O.O.O.O.O.O.O.O.O.O.+ &.K.I.I.I.I.I.I.I.I.I.I.I.I.I.I.I.I.I.I.I.I.I.:.o O.O.O.O.O.O.O.O.O.O.O.O.O.O.O.O.O.O.O.O.O.",
"O.O.O.O.O.O.O.O.O.O.O.O.O.% 2.I.I.I.I.I.I.I.I.I.I.I.I.I.I.I.I.I.I.I.I.I.I.w.X O.O.O.O.O.O.O.O.O.O.O.O.O.O.O.O.O.O.O.O.O.",
"O.O.O.O.O.O.O.O.O.O.O.O.O.- 9.I.I.I.I.I.I.I.I.I.I.I.I.I.I.I.I.I.I.I.I.I.I.g.o O.O.O.O.O.O.O.O.O.O.O.O.O.O.O.O.O.O.O.O.O.",
"O.O.O.O.O.O.O.O.O.O.O.O.O.& 7.I.I.I.I.I.I.I.I.I.I.I.I.I.I.I.I.I.I.I.I.I.I.k.o o.O.O.O.O.O.O.O.O.O.O.O.O.O.O.O.O.O.O.O.O.",
"O.O.O.O.O.O.O.O.O.O.O.O.O.% 1.S.S.I.I.I.I.I.I.n.$.! l.K.I.I.I.I.I.I.I.I.I.j.o _ O.O.o.[ O.O.O.O.O.O.O.O.O.O.O.O.O.O.O.O.",
"O.O.O.O.O.O.O.O.O.O.O.O.O.$ E T J M.I.I.I.I.B.U + X 5 y.K.I.I.I.I.I.I.I.I.t.o X.O.O. .( O.O.O.O.O.O.O.O.O.O.O.O.O.O.O.O.",
"O.O.O.O.O.O.O.O.O.O.O.O.O.O 0 & X a.I.I.I.K.0.X       b A.I.I.I.I.I.I.I.I.-.o +.O.O.O.o.O.O.O.O.O.O.O.O.O.O.O.O.O.O.O.O.",
"O.O.O.O.O.O.O.O.O.O.O.O.O.. @ .   *.G.I.I.D.~         O l.I.I.I.I.I.I.I.L.J .               O.O.O.O.O.O.O.O.O.O.O.O.O.O.",
"O.O.O.O.O.O.O.O.O.O.O.O.O.  O .   U D.I.I.F.$.          q.I.I.I.I.I.I.I.v.8 = M N c d j =   O.O.O.O.O.O.O.O.O.O.O.O.O.O.",
"O.O.O.O.O.O.O.O.O.O.O.O.O.. @ .   G A.I.I.K.7..         5.I.I.I.I.I.I.K.;.$ f m v k g 2 . O.O.O.O.O.O.O.O.O.O.O.O.O.O.O.",
"O.O.O.O.O.O.O.O.O.O.O.O.O.  O X   D A.I.I.I.z.8         r.I.I.I.I.I.I.j.l . , # $ $ $ @ . O.O.O.O.O.O.O.O.O.O.O.O.O.O.O.",
"O.O.O.O.O.O.O.O.O.O.O.O.O.O.* 6 + U D.I.I.I.V.Y .     - c.I.I.I.I.I.m.I + # 2 c B L N g = O   O.O.O.O.O.O.O.O.O.O.O.O.O.",
"O.O.O.O.O.O.O.O.O.O.O.O.O.O.$ P ! f.K.I.I.I.I.j.H > 4 *.G.I.I.I.I.V.E $ % z L B v 0 7 1 = #   O.O.O.O.O.O.O.O.O.O.O.O.O.",
"O.O.O.O.O.O.O.O.O.O.O.O.O.O.  q q.G.I.I.I.I.I.K.n.r.i.A.I.I.I.K.z.U % # z B k 1 # .           O.O.O.O.O.O.O.O.O.O.O.O.O.",
"+.O.O.O.O.O.O.O.O.O.O.O.O.O.O.. 5 ! z.L.I.I.I.I.I.I.I.I.I.L.g.Q t + = k v 2 @ +         O.O.O.O.O.O.O.O.O.O.O.O.O.O.O.O.",
"O.O.O.O.O.O.O.O.O.O.O.O.O.O.O.O.  + 5 Z R >.6.t.h.k.u.%.J C 4 + : h v h % . O ; @ @ .   O.O.O.O.O.O.O.O.O.O.O.O.O.O.O.O.",
"O.O.O.O.O.O.O.O.O.O.O.O.O.O.O.O.O.      . + $ % & & % + X * 9 z N N 2 X = k n v 9 .   O.O.O.O.O.O.+.O. .O.o.o.O.O.O.O.O.",
"O.O.O.O.O.O.O.O.O.O.O.O.O.O.O.O.O.O.O.O.  . * @ : g z m N S L N 9 @ # h N k = @     O.O.O.O.O.O.s ..K ] #.' _ O.O.o.[ O.",
"O.O.O.O.O.O.O.O.O.O.O.O.O.O.O.O.O.O.O.O.O.      . : k n n f % . . = k f @       O.O.O.O.O.O.O. .i ' u +.+.s X.O.O. .( O.",
"O.O.O.O.O.O.O.O.O.O.O.O.O.O.O.O.+.O. .O.o.                  . O O X .           O.O.O.O.O.O.O.+.....) O.#.X.+.O.O.O.o.O.",
"O.O.O.O.O.O.O.O.O.O.O.O.O.O.O.s ..K ] #.            .                           O.O.O.O.O.O.O.O.O.O.O.O.O.O.O.O.O.O.O.O.",
"O.O.O.O.O.O.O.O.O.O.O.O.O.O. .i ' u +.+.                            O.O.O.      O.O.O.O.O.O.O.O.O.O.O.O.O.O.O.O.O.O.O.O.",
"O.O.O.O.O.O.O.O.O.O.O.O.O.O.+.....) O.#.X.                          O.O.O.O.    O.O.O.O.O.O.O.O.O.O.O.O.O.O.O.O.O.O.O.O.",
"O.O.O.O.O.O.O.O.O.O.O.O.O.O.O.O.O.O.O.O.O.O.                        O.O.O.O.O.O.O.O.O.O.O.O.O.O.O.O.O.O.O.O.O.O.O.O.O.O.",
"O.O.O.O.O.O.O.O.O.O.O.O.O.O.O.O.O.O.O.                              O.O.O.O.O.O.O.O.O.O.O.O.O.O.O.O.O.O.O.O.O.O.O.O.O.O.",
"O.O.O.O.O.O.O.O.O.O.O.O.O.O.O.O.O.O.                                O.O.O.O.O.O.O.O.O.O.O.O.O.O.O.O.O.O.O.O.O.O.O.O.O.O.",
"O.O.O.O.O.O.O.O.O.O.O.O.O.O.O.O.O.O.                                O.O.O.O.O.O.O.O.O.O.O.O.O.O.O.O.O.O.O.O.O.O.O.O.O.O.",
"O.O.O.O.O.O.O.O.O.O.O.O.O.O.O.O.O.O.                                O.O.O.O.O.O.O.O.O.O.O.O.O.O.O.O.O.O.O.O.O.O.O.O.O.O.",
"O.O.O.O.O.O.O.O.O.O.O.O.O.O.O.O.O.O.                              O.O.O.O.O.O.O.O.O.O.O.O.O.O.O.O.O.O.O.O.O.O.O.O.O.O.O.",
"O.O.O.O.O.O.O.O.O.O.O.O.O.O.O.O.O.O.                              O.O.O.O.O.O.O.O.O.O.O.O.O.O.O.O.O.O.O.O.O.O.O.O.O.O.O.",
"O.O.O.O.O.O.O.O.O.O.O.O.O.O.O.O.O.O.O.                          O.O.O.O.O.O.O.O.O.O.O.O.O.O.O.O.O.O.O.O.O.O.O.O.O.O.O.O.",
"O.} O.O.O.O.O.O.O.O.O.O.O.O.O.O.O.O.O.    O.O.O.              O.O.O.O.O.O.O.O.O.O.O.O.O.O.O.O.O.O.O.O.O.O.O.O.O.O.O.O.O.",
"O.p O.O.O.O.O.O.O.O.O.O.O.O.O.O.O.O.O.O.O.O.O.O.          O.O.O.O.O.O.O.O.O.o.O.O.O.O.O.O.O.O.O.O.O.O.O.O.O.O.O.O.O.O.O.",
"o.p O.o.O.O.O.O.O.O.O.O.O.O.O.O.O.O.O.O.O.O.O.O.O.        O.O.O.O.O.O.O.o.o.( o.o.o.O.o.O.O.O.O.O.O.O.O.O.O.O.O.O.O.O.O.",
" .s o./ O.O.O.O.O.O.O.O.O.O.O.O.O.O.O.O.O.O.O.O.O.O.O.  O.O.O.O.O.O.O.O.[ [ _ O.s [  .u o.O.O.O.O.(  .O.O.O.O.O.O.O.O.O.",
"O.[ o.( O.O.O.O.O.O.O.O.O.O.O.O.O.O.O.O.O.O.O.O.O.O.O.O.O.O.O.O.O.O.O.O.[ [ O.O.' O.X.` O.O.O.O.[ s o.O.O.O.O.O.O.O.O.O.",
"O.O.O. .O.O.O.O.O.O.O.O.O.O.O.O.O.O.O.O.O.O.O.O.O.O.O.O.O.O.O.O.O.O.O.O.O. .O.O.O.O.O.O.O.O.O.O.O.O.O.O.O.O.O.O.O.O.O.O.",
"O.O.O.O.O.O.O.O.O.O.O.O.O.O.O.O.O.O.O.O.O.O.O.O.O.O.O.O.O.O.O.O.O.O.O.O.O.O.O.O.O.O.O.O.O.O.O.O.O.O.O.O.O.O.O.O.O.O.O.O."
};
