/* XPM */
static char *_a1f8f84475e4d7c8cd211217140f334ULk52PC7oJkpYld5[] = {
/* columns rows colors chars-per-pixel */
"60 60 124 2 ",
"   c #000001",
".  c #05050B",
"X  c #08080E",
"o  c #070710",
"O  c #0A0A13",
"+  c #0D0D1A",
"@  c #0F1021",
"#  c #111224",
"$  c #14152A",
"%  c #15182E",
"&  c #171A32",
"*  c #191D35",
"=  c #1B223C",
"-  c #50652B",
";  c #5E7437",
":  c #5D743A",
">  c #617637",
",  c #61773B",
"<  c #637A3D",
"1  c #1D2641",
"2  c #1E2943",
"3  c #222C45",
"4  c #242F48",
"5  c #25334B",
"6  c #29344D",
"7  c #2B3750",
"8  c #2D3A52",
"9  c #323D55",
"0  c #344057",
"q  c #374259",
"w  c #3A455B",
"e  c #3F485E",
"r  c #667C42",
"t  c #434C62",
"y  c #484F65",
"u  c #4A5166",
"i  c #4D5369",
"p  c #51576C",
"a  c #53596D",
"s  c #575C70",
"d  c #5A5F73",
"f  c #5E6275",
"g  c #616477",
"h  c #646679",
"j  c #67697B",
"k  c #6A6B7D",
"l  c #68803F",
"z  c #6B8245",
"x  c #6E8549",
"c  c #71864A",
"v  c #738A4D",
"b  c #758C50",
"n  c #798E53",
"m  c #7B9354",
"M  c #7D9559",
"N  c #819656",
"B  c #80965B",
"V  c #849C5D",
"C  c #849B60",
"Z  c #899F62",
"A  c #87A060",
"S  c #8DA565",
"D  c #8EA568",
"F  c #90A567",
"G  c #90A569",
"H  c #6E6F81",
"J  c #6F7081",
"K  c #737384",
"L  c #787788",
"P  c #7C7B8B",
"I  c #807E8E",
"U  c #82808F",
"Y  c #848191",
"T  c #8A8695",
"R  c #8C8896",
"E  c #8F8B99",
"W  c #918D9A",
"Q  c #958F9D",
"!  c #96919E",
"~  c #98919F",
"^  c #9B94A1",
"/  c #9C95A1",
"(  c #9E97A3",
")  c #9F99A5",
"_  c #A19BA6",
"`  c #A69EAA",
"'  c #A7A0AB",
"]  c #A8A0AB",
"[  c #AAA1AC",
"{  c #AFA6B1",
"}  c #B0A7B2",
"|  c #B4ABB5",
" . c #B5ABB5",
".. c #B6ADB7",
"X. c #BBB0BA",
"o. c #BFB4BD",
"O. c #C0B6BE",
"+. c #C4BAC2",
"@. c #C8BBC3",
"#. c #CBBFC6",
"$. c #CDC3CA",
"%. c #CDC8CE",
"&. c #D1C5CB",
"*. c #D2C5CC",
"=. c #D3C9CF",
"-. c #D8C9CF",
";. c #DBCED4",
":. c #D8D2D7",
">. c #DDD5DA",
",. c #E2D4D8",
"<. c #E2D7DB",
"1. c #E4DCDF",
"2. c #EADCE1",
"3. c #EFE2E5",
"4. c #ECE3E6",
"5. c #EEE7E9",
"6. c #F3E5E8",
"7. c #F1EDEF",
"8. c #F2ECEE",
"9. c #F6F0F2",
"0. c #FAF4F5",
"q. c #FBF7F8",
"w. c #FCFAFA",
"e. c #FEFCFC",
/* pixels */
"S S S S S S S S S S S S S S S S S S S S S S S S S S S S S S S S S S S S S S S S S S S S S S S S S S S S S S S S S S S S ",
"S S S S S S S S S S S S S S S S S S S S S S S S S S S S S S S S S S S S S S S S S S S S S S S S S S S S S S S S S S S S ",
"S S S S S S S S S S S S S S           S S S S S S S S S S S S S S S S S S S       S S S S S S S S S S S S S S S S S S S ",
"S S S S S S S S S S S S S             S S S S S S S S S S S S S S S S S S S         S S S S S S S S S S S S S S S S S S ",
"S S S S S S S S S S S S             S S S S S S S S S S S S S S S S S S S S         S S S S S S S S S S S S S S S S S S ",
"S S S S S S S S S S S               S S S S S S S S S S S S S S S S S S S S         S S S S S S S S S S S S S S S S S S ",
"S S S S S S S S S S               S S S S S S S S S S S S S S S S S S S S S         S S S S S S S S S S S S S S S S S S ",
"S S S S S S S S S                   S S S S S S S S S S S S S S S S S S S             S S S S S S S S S S S S S S S S S ",
"S S S S S S S S S                 S S S S D B S S B S S S S S S S S S S S             S S S S S S S S S S S S S S S S S ",
"S S S S S S S S                   S S S S D z m D < A S S S S S S S S S S             S S S S S S S S S S S S S S S S S ",
"S S S S S S S S                 S S S S S S x b S , S A S S S S S S S S S               S S F S F S S S S S S S S S S S ",
"A S S S S S S S                 S S S S S S B m A < A z A S S S S S S S S B               m G Z z > S S S S S S S S S S ",
"x S M D G S m S               S S S S S S S S S S m V r S S S S S S S S S <               S D z - V S S S S S S S S S S ",
"c z M D D , v D               S S S S S S S S S S S S A S S S S S S S S S S S               S S S S S S S S S S S S S S ",
"S z Z D z < S S               S S S S S S S S S S S S S S S S S S S S S S S S               S S S S S S S S S S S S S S ",
"S A S S B Z F S               S S S S S S S S S S S S S S S S S S S S S S S S               S S S S S S S S S S S S S S ",
"S S S S S S S S               S S S S S S                 S S S S         S S               S S S S S S S S S S S S S S ",
"S S S S S S S S S               S                                         S S               S S S S S S S S S S S S S S ",
"S S S S S S S S S                                                       S S S                 S S S S S S S S S S S S S ",
"S S S S S S S S S S                                                     S S                   S S S S S S S S S S S S S ",
"S S S S S S S S S S                                                                             S S S S S S S S S S S S ",
"S S S S S                     . . . .                                                           S S S S S S S S S S S S ",
"S S S S S                   . X o o X . .                                                       S S S S S S S S S S S S ",
"S S S S S S                 X O + + + O X X .       . . . . .                                   S S S S S S S S S S S S ",
"S S S S S S S             . o # $ % $ # + o X . . . X X o o X .                                 S S S S S S S S S S S S ",
"S S S S S S S S           X + * = 1 = * % # O X X X O + + + + o .                             S S S S S S S S S S S S S ",
"S S S S S S S S         . o $ 2 6 8 8 5 1 * # + O + # $ % % % + X .                                     S S S S S S S S ",
"S S S S S S S S         X + * 9 t u u t 9 4 = $ # $ * = 1 2 1 & + o .                                     S S S S S S S ",
"S S S S S S S S       . o # 3 u h J K j p w 6 1 * = 3 6 8 9 9 3 $ + X                                   S S S S S S S S ",
"S S S S S S S S       . + & 9 h Y Q ~ E L f t 8 4 6 q t i p p w = $ O .                             S S S S S S   S S S ",
"S S S S S S S S S     X # 1 t I  .,.-.X._ U h y w e p h K K K f 9 = # o                           S S S S S       S S S ",
"S S S S S S S S S     o % 6 p ] 7.e.w.5.#.' Y h p d K T ~ / / T p 8 * + .                                         S S S ",
"S S S S S S S S S     O * 9 h %.e.e.e.e.3.#.) P k K Q { o.$.*...K t 5 $ o                                         S S S ",
"S S S S S S S S S S . + = w J >.e.e.e.e.0.;.} E I T } &.5.e.e.e.{ f 9 * + .                                       S S S ",
"S S S S S S S S S S o + = w K :.e.e.e.e.w.,.X.^ R / @.5.e.e.e.e.>.K t 3 @ .                                   S S S S S ",
"S S S S S S S S S S S $ = w k +.w.e.e.e.w.>...^ W ` =.q.e.e.e.e.3.Y i 3 # X                               S S S S S S S ",
"D S S S S S S S S S S S 3 9 d / 8.e.e.e.9.&.] E R ` ;.e.e.e.e.e.,.T p 6 $ o               S S S S S S S S S S S S S S S ",
"S S S S S S S S S S S S S 7 t L +.0.e.e.1. .W P P ^ %.e.e.e.e.e.#.Y i 3 # X         S S S S S S S S S S S S S S S S S S ",
"S S S S S S S S S S S S S 9 8 a W X.$.$. .W K j k Y ..7.e.e.e.2...K t 3 # .     S S S S S S S S S D S V S A A S S S S S ",
"S S S S S S S S S S S S S S 6 w k R ! ! R K s i p j R O.2.6.;.o.^ g 9 = + .   S S S S S S S S S < C r n G b c S S A M S ",
"S S S S S S S S S S S S S S S 6 t h H J j p w 9 q u k W [ } [ ^ L u 4 % O . S S S S S S S S S V : b ; D D < Z S S V z S ",
"S S S S S S S S S S S S S S S S w y i i t 0 5 2 3 8 t k U T Y K d 9 = $ + S S S S S S S S S S D C C x S G Z D S S S A S ",
"S S S S S S S S S S S S S S S < C u 9 8 7 3 * & * = 6 t d g f p e 3 % $ S S S S S S S S S S S S S S S S S S S S S S S S ",
"S S S S S S S S S S S S S S V : b 6 2 1 = * # # # $ = 6 w e w 0 5 = # S S S S S S S S S S S S S S S S S S S S S S S S S ",
"S S S S S S S S S S S S S     X + # $ $ $ # + o O + # * 3 5 5 3 = * S S S S S S S S S S S S S S S S S S S S S S S S S S ",
"S S S S S S S S S S S S         . o + + + O X X X X O # & = 1 = 2 S S S S S S S S S S S S S S S S S S S S S S S S S S S ",
"S S S S S S S S S S S S           . X X X X . . . . X o + * S S S S S S S S S S S S S S S S S S S S S S S S S S S S S S ",
"S S S S S S S S S S S               . . . .         . . o S S S S S S S S S S S S S S S S S S S S S S S S S S S S S S S ",
"S S S S S S S S S S S                                   . S S S S S S S S S S S S S S S S S S S S S S S S S S S S S S S ",
"S S S S S S S S S S S                                     X S S S S S S S S S S S S S S S S S S S S S S S S S S S S S S ",
"S S S S S S S S S S S                                       S S S S S S S S S S S S S S S S S S S S S S S S S S S S S S ",
"S S S S S S S S S S S       S S S S S S S S S               S S S S S S S S S S S S S S S S S S S S S S S S S S S S S S ",
"S S S S S S S S S S S S   S S S S S S S S S S               S S S S S S S S S S S S S S S S S S S S S S S S S S S S S S ",
"S N S S S S S S S S S S S S S S S S S S S S S S           S S S S S S S S S S S S S S S S S S S S S S S S S S S S S S S ",
"S > S S S S S S S S S S S S S S S S S S S S S             S S S S S S S S S A S S S S S S S S S S S S S S S S S S S S S ",
"A > S A S S S S S S S S S S S S S S S S S S S           S S S S S S S S A A z A A A S A S S S S S S S S S S S S S S S S ",
"V < A l S S S S S S S S S S S S S S S S S S S S     S S S S S S S S S S m M c S < M V ; A S S S S z V S S S S S S S S S ",
"S M A z S S S S S S S S S S S S S S S S S S S S S S S S S S S S S S S S m m S S b S Z v S S S S m < A S S S S S S S S S ",
"S S S V S S S S S S S S S S S S S S S S S S S S S S S S S S S S S S S S S V S S S S S S S S S S S S S S S S S S S S S S ",
"S S S S S S S S S S S S S S S S S S S S S S S S S S S S S S S S S S S S S S S S S S S S S S S S S S S S S S S S S S S S "
};
