/* XPM */
static char *fb24c9f186e24498b0c5b086415ae8d5LdStd2XCtrqGF2Us[] = {
/* columns rows colors chars-per-pixel */
"60 60 98 2 ",
"   c #000000",
".  c #06060C",
"X  c #070710",
"o  c #0A0A14",
"O  c #0D0E1B",
"+  c #0F111F",
"@  c #10101F",
"#  c #0F0F20",
"$  c #0F1320",
"%  c #121528",
"&  c #14192B",
"*  c #171A31",
"=  c #181F33",
"-  c #1C233B",
";  c #50652B",
":  c #556B32",
">  c #586D36",
",  c #5D7336",
"<  c #5D743A",
"1  c #617637",
"2  c #61773C",
"3  c #637A3D",
"4  c #1F2B44",
"5  c #232C45",
"6  c #25314A",
"7  c #2E384F",
"8  c #2D3951",
"9  c #333D54",
"0  c #354057",
"q  c #374258",
"w  c #3A455B",
"e  c #3E485E",
"r  c #667C42",
"t  c #444D63",
"y  c #4A4F64",
"u  c #495166",
"i  c #4E546A",
"p  c #50576C",
"a  c #545A6E",
"s  c #5A5E72",
"d  c #5D6174",
"f  c #616577",
"g  c #636679",
"h  c #676A7D",
"j  c #686B7D",
"k  c #68803F",
"l  c #6B8245",
"z  c #6E8449",
"x  c #71864B",
"c  c #738A4D",
"v  c #768C50",
"b  c #798E53",
"n  c #7B9354",
"m  c #7C9359",
"M  c #819656",
"N  c #80965B",
"B  c #849B5D",
"V  c #849B60",
"C  c #899F62",
"Z  c #87A060",
"A  c #8DA565",
"S  c #8EA569",
"D  c #90A567",
"F  c #90A569",
"G  c #6E6F80",
"H  c #6F7081",
"J  c #747585",
"K  c #8A8695",
"L  c #928D9C",
"P  c #9B95A2",
"I  c #AAA1AD",
"U  c #B0A7B2",
"Y  c #B4ABB5",
"T  c #B9AFB9",
"R  c #BCB1BB",
"E  c #C2B7BF",
"W  c #C9BCC4",
"Q  c #CCC2C9",
"!  c #D0C2C9",
"~  c #D5C9CF",
"^  c #DACAD0",
"/  c #DCCDD3",
"(  c #E3D2D7",
")  c #E3DCDF",
"_  c #E9DCE1",
"`  c #E5E0E3",
"'  c #E9E2E5",
"]  c #EFE4E7",
"[  c #F0E5E8",
"{  c #F3EBED",
"}  c #F7EFF1",
"|  c #F5F1F3",
" . c #F7F5F6",
".. c #FAF2F3",
"X. c #FAF3F5",
"o. c #F9F6F7",
"O. c #FAF7F8",
"+. c #FFFEFE",
/* pixels */
"A A A A A A A A A A A A A A A A A A A A A A A A A A A A A A A A A A A A A A A A A A A A A A A A A A A A A A A A A A A A ",
"A A A A A A A A A A A A A A A A A A A A A A A A A A A A A A A A A A A A A A A A A A A A A A A A A A A A A A A A A A A A ",
"A A A A A A A A A A A A A A A A A A A A A A A A A A A A A A A A A A A A A A A A A A A A A A A A A A A A A A A A A A A A ",
"A A A A A A A A A A A A A A A A A A A A A A A A A A A A A A A A A A A A A A A A A A A A A A A A A A A A A A A A A A A A ",
"A A A A A A A A A A A A A A A A A A A A A A A A A A A A A A A A A A A A A A A A A A A A A A A A A A A A A A A A A A A A ",
"A A A A A A A A A A A A A A A A A A A A A A A A A A A A A A A A A A A A A A A A A A A A A A A A A A A A A A A A A A A A ",
"A A A A A A A A A A A A A A A A A A A A A A A A A A A A A A A A A A A A A A A A A A A A A A A A A A A A A A A A A A A A ",
"A A A A A A A A A A A A A A A A A A A A A A A A A A A A A A A A A A A A A A A A A A A A A A A A A A A A A A A A A A A A ",
"A A A A A A A A A A A A A A A A A A A A A S N A A N A A A A A A A A A A A A A A A A A A A A A A A A A A A A A A A A A A ",
"A A A A A A A A A A A A A A A A A A A A A S l n S 3 Z A A A A A A A A A A A A A A A A A A A A A A A A A A A A A A A A A ",
"A A A A A A A A A A A A A A A A A A A A A A z v A 2 A Z A A A A A A A A A A A S A A A A A A D A D A A A A A A A A A A A ",
"Z A A A A A A A A A A A A A A A A A A A A A N n Z 3 Z l Z     A A A A A A N B S < z S n , n F C l 1 A A A A A A A A A A ",
"z A m S F A n A A A A A A A A A A A A A A A   A A n B r A     A A A A A A 3 : m > 2 S 2 2 A S l ; B A A A A A A A A A A ",
"x l m S S 2 c S A A A A A A A A A A A A       A A A A Z A       A A A A A A A A B B A A A A A A A A A A A A A A A A A A ",
"A l C S l 3 A A A A A A A A A A A A A         A A A A A A A       A A A A A A A A A A A A A A A A A A A A A A A A A A A ",
"A Z A A N C D A A A A A A A A A A A         A A A A A A A A         A A A A A A A A A A A A A A A A A A A A A A A A A A ",
"A A A A A A A A A A A A A A A A A           A A A A A A A             A A A A A A A A A A A A A A A A A A A A A A A A A ",
"A A A A A A A A A A A A A A A A             A A A A A A A A             A A A A A A A A A A A A A A A A A A A A A A A A ",
"A A A A A A A A A A A A A A A A             A A A A A A A A A             A A A A A A A A A A A A A A A A A A A A A A A ",
"A A A A A A A A A A A A A A A             A A A A A A A A A A A           A A A A A A A A A A A A A A A A A A A A A A A ",
"A A A A A A A A A A A A A A A           A A A A A     A A A A A A           A A A A A A A A A A A A A A A A A A A A A A ",
"A A A A A A A A A A A A A A A   . . . A A @ O O O O # O + & = - A A X . . . A A A A A A A A A A A A A A A A A A A A A A ",
"A A A A A A A A A A A A A A A o % - 5 A 9 y G J g p i i f K L J s u 5 - * # A A A A A A A A A A A A A A A A A A A A A A ",
"A A A A       A A A A A A A A * 6 w i g L Q } } / Y I I W [ .._ U J a t 8 6 A A A A A                   A A A A A A A A ",
"A A A A           A A A A A A 4 9 u h P ' +.+.+.X.^ E E ( +.+.+.{ I H p e A A A A A                       A A A A A A A ",
"A A A A A A A     A A A A A A w 9 i G Y O.+.+.+.] ! T Y W o.+.+.+.R J a h A Z Z A         A A A A A A A A A A A A A A A ",
"A A A A A A A A     A A A A A Z 8 e a L ) o.| ~ Y P L K K I `  .' K a f b F v x         A A A A A A A A A A A A A A A A ",
"A A A A A A A A     A A A Z A l N 8 5 9 d J j p e q w 0 8 9 t d i 7 5 , S S 3         l A A A A A A A A A A A A A A A A ",
"A A A A A   A A     A A A A C : 2 v o X O $ + O o o O O o X o O o X X z A F         A Z A A A               A A A A A A ",
"A A A A     A A     A A A A A B x B                                   A A A       A A A A                       A A A A ",
"A A A A   A A A A     A A A A A Z A A                                 A           A A         A A A A A A A A     A A A ",
"A A A A   A A A A     A A A A A A A A                                                       A A A A A A A A A A A A A A ",
"A A A A     A A A     A A A     A                                                       A A A A A A A A A A A A A A A A ",
"A A A A     A A A                                                                   A A A A A A A     A A A A A A A A A ",
"A A A A       A A A                                                             A A A                 A A A A A A A A A ",
"A A A A A       A                                                                                       A A A A A A A A ",
"S A A A A                                                                                     A A         A A A A A A A ",
"A A A A A A                     A A                                                       A A A A A A A   A A A A A A A ",
"A A A A A A A A         A                                                         A A A A A A A A S A B A Z Z A A A A A ",
"A A A A A A A A A   A A A A A A                                             A A A A A A A A A A 3 V r b F v x A A Z n A ",
"A A A A A A A A A   A A A A A A A A A A                           A A A A A A A A A A A A A A B < v , S S 3 C A A B l A ",
"A A A A A A A A A   A A A A A A S A B A Z Z A                     A A A A A A A A A A A A A A S V V z A F C S A A A Z A ",
"A A A A A A A A A A A A A A A 3 V r b F v x                       A A A A A A A A A A A A A A A A A A A A A A A A A A A ",
"A A A A A A A A A A A A A A B < v , S S 3 C A A               A   A A A A A A A A A A A A A A A A A A A A A A A A A A A ",
"A A A A A A A A A A A A A A S V V z A F C S A A       A       A A A A A A A A A A A A A A A A A A A A A A A A A A A A A ",
"A A A A A A A A A A A A A A A A A A A A A A A A     A A A     A A A A A A A A A A A A A A A A A A A A A A A A A A A A A ",
"A A A A A A A A A A A A A A A A A A A A A A A A     A A A     A A A A A A A A A A A A A A A A A A A A A A A A A A A A A ",
"A A A A A A A A A A A A A A A A A A A A A A A A A   A A A   A A A A A A A A A A A A A A A A A A A A A A A A A A A A A A ",
"A A A A A A A A A A A A A A A A A A A A A A A A A A A A A A A A A A A A A A A A A A A A A A A A A A A A A A A A A A A A ",
"A A A A A A A A A A A A A A A A A A A A A A A A A A A A A A A A A A A A A A A A A A A A A A A A A A A A A A A A A A A A ",
"A A A A A A A A A A A A A A A A A A A A A A A A A A A A A A A A A A A A A A A A A A A A A A A A A A A A A A A A A A A A ",
"A A A A A A A A A A A A A A A A A A A A A A A A A A A A A A A A A A A A A A A A A A A A A A A A A A A A A A A A A A A A ",
"A A A A A A A A A A A A A A A A A A A A A A A A A A A A A A A A A A A A A A A A A A A A A A A A A A A A A A A A A A A A ",
"A M A A A A A A A A A A A A A A A A A A A A A A A A A A A A A A A A A A A A A A A A A A A A A A A A A A A A A A A A A A ",
"A 1 A A A A A A A A A A A A A A A A A A A A A A A A A A A A A A A A A A A A Z A A A A A A A A A A A A A A A A A A A A A ",
"Z 1 A Z A A A A A A A A A A A A A A A A A A A A A A A A A A A A A A A A Z Z l Z Z Z A Z A A A A A A A A A A A A A A A A ",
"B 3 Z k A A A A A A A A A A A A A A A A A A A A A A A A A A A A A A A A n n x A 3 n B , Z A A A A z B A A A A A A A A A ",
"A n Z z A A A A A A A A A A A A A A A A A A A A A A A A A A A A A A A A n n A A v A C c A A A A n 3 Z A A A A A A A A A ",
"A A A B A A A A A A A A A A A A A A A A A A A A A A A A A A A A A A A A A B A A A A A A A A A A A A A A A A A A A A A A ",
"A A A A A A A A A A A A A A A A A A A A A A A A A A A A A A A A A A A A A A A A A A A A A A A A A A A A A A A A A A A A "
};
