/* XPM */
static char *_4e86165cd9e41bce888f9b00834a9222N7U7BXnE6yVwg83[] = {
/* columns rows colors chars-per-pixel */
"60 60 111 2 ",
"   c #010101",
".  c #05050B",
"X  c #07080D",
"o  c #08090F",
"O  c #070710",
"+  c #0A0A14",
"@  c #0D0D1B",
"#  c #0E101D",
"$  c #10121F",
"%  c #0F0F20",
"&  c #121224",
"*  c #161921",
"=  c #141429",
"-  c #151B2C",
";  c #191C2A",
":  c #171730",
">  c #171931",
",  c #191B34",
"<  c #191E38",
"1  c #1C2235",
"2  c #1B233B",
"3  c #212736",
"4  c #24293D",
"5  c #50652B",
"6  c #556A31",
"7  c #586D36",
"8  c #5D7336",
"9  c #5E7339",
"0  c #617637",
"q  c #61763C",
"w  c #637A3C",
"e  c #1E2741",
"r  c #1E2A44",
"t  c #232D44",
"y  c #252F48",
"u  c #2C3242",
"i  c #25324A",
"p  c #2A354C",
"a  c #32384E",
"s  c #2D3A51",
"d  c #323E55",
"f  c #383D54",
"g  c #3B4256",
"h  c #3B455C",
"j  c #3F485E",
"k  c #41485E",
"l  c #667B43",
"z  c #434C62",
"x  c #4A5166",
"c  c #4D5469",
"v  c #51576C",
"b  c #53596D",
"n  c #575C70",
"m  c #5D6174",
"M  c #646779",
"N  c #65687A",
"B  c #6B6C7E",
"V  c #68803F",
"C  c #6C8345",
"Z  c #6E8449",
"A  c #71864A",
"S  c #778F4F",
"D  c #778E51",
"F  c #798E53",
"G  c #7C9354",
"H  c #7D935A",
"J  c #819656",
"K  c #80955A",
"L  c #859C5E",
"P  c #869D60",
"I  c #899F62",
"U  c #87A060",
"Y  c #8DA565",
"T  c #8DA169",
"R  c #8EA569",
"E  c #8FA46C",
"W  c #90A567",
"Q  c #91A668",
"!  c #717283",
"~  c #737485",
"^  c #767687",
"/  c #787788",
"(  c #7C7B8A",
")  c #838090",
"_  c #8A8796",
"`  c #8C8896",
"'  c #94909E",
"]  c #9695A1",
"[  c #9892A0",
"{  c #9B96A3",
"}  c #9D98A4",
"|  c #A39DA8",
" . c #A7A3AE",
".. c #AAA3AE",
"X. c #ACA7B2",
"o. c #BBB0BA",
"O. c #BBB3BC",
"+. c #BAB7C0",
"@. c #C0BCC4",
"#. c #D5D0D6",
"$. c #DDD3D7",
"%. c #DBD2D8",
"&. c #D8D4DA",
"*. c #DCD4D9",
"=. c #DED8DD",
"-. c #E0D8DD",
";. c #E8DFE3",
":. c #ECE6E9",
">. c #EFE9EC",
",. c #FBF9F9",
"<. c #FFFEFE",
/* pixels */
"Y Y Y Y Y Y Y Y Y Y Y Y Y Y Y Y Y Y Y Y Y Y Y Y Y Y Y Y Y Y Y Y Y Y Y Y Y Y Y Y Y Y Y Y Y Y Y Y Y Y Y Y Y Y Y Y Y Y Y Y ",
"Y Y Y Y Y Y Y Y Y Y Y Y Y Y Y Y Y Y Y Y Y Y Y Y Y Y Y Y Y Y Y Y Y Y Y Y Y Y Y Y Y Y Y Y Y Y Y Y Y Y Y Y Y Y Y Y Y Y Y Y ",
"Y Y Y Y Y Y Y Y Y Y Y Y Y Y Y Y Y Y Y       Y Y Y Y Y Y Y Y Y Y Y Y Y Y Y Y Y Y Y Y Y Y Y Y Y Y Y Y Y Y Y Y Y Y Y Y Y Y ",
"Y Y Y Y Y Y Y Y Y Y Y Y Y Y Y Y Y Y     .         Y Y Y Y Y Y Y Y Y Y Y Y Y Y Y Y Y Y Y Y Y Y Y Y Y Y Y Y Y Y Y Y Y Y Y ",
"Y Y Y Y Y Y Y Y Y Y Y Y Y Y Y Y Y Y     X @ +       Y Y Y Y Y Y Y Y Y Y Y Y Y Y Y Y Y Y Y Y Y Y Y Y Y Y Y Y Y Y Y Y Y Y ",
"Y Y Y Y Y Y Y Y Y Y Y Y Y Y Y Y Y Y Y       @ @ X     Y Y Y Y Y Y Y Y Y Y Y Y Y Y Y Y Y Y Y Y Y Y Y Y Y Y Y Y Y Y Y Y Y ",
"Y Y Y Y Y Y     Y Y Y Y Y Y Y Y Y Y Y Y       + & +     Y Y Y Y Y Y Y Y Y Y Y Y Y Y Y Y Y Y Y Y Y Y Y Y Y Y Y Y Y Y Y Y ",
"Y Y Y Y Y         Y Y Y Y Y Y Y Y Y Y Y Y Y   . @ & @     Y Y Y Y Y Y Y Y Y Y Y Y Y Y Y Y Y Y Y Y Y Y Y Y Y Y Y Y Y Y Y ",
"Y Y Y Y     +     Y Y Y Y Y Y Y Y Y Y Y Y       + = & +     Y Y Y Y Y Y Y Y Y Y Y Y Y Y Y Y Y Y Y Y Y Y Y Y Y Y Y Y Y Y ",
"Y Y Y Y   X &     Y Y Y Y Y Y Y Y Y Y Y Y   . @ & = = & +     Y Y Y Y Y Y Y Y Y Y Y Y Y Y Y Y Y Y Y Y Y Y Y Y Y Y Y Y Y ",
"Y Y Y     @ @     Y Y Y Y Y Y Y Y Y Y Y Y Y   . @ & = = & +     Y Y Y Y Y Y Y R Y Y Y Y Y Y W Y W Y Y Y Y Y Y Y Y Y Y Y ",
"U Y Y   . = &         Y Y Y Y Y Y Y Y Y Y Y K     + & = = @ .   Y Y Y Y Y K L E 9 Z R G 8 G Q P C 0 Y Y Y Y Y Y Y Y Y Y ",
"Z Y H   + = & X .     Y Y Y Y Y Y Y Y Y Y Y Y Y     @ & = = +     Y Y Y Y w 6 H 7 q T q q Y R C 5 L Y Y Y Y Y Y Y Y Y Y ",
"A C     & = = & +     Y Y Y Y Y Y Y Y Y Y Y Y Y Y   . @ = = @     Y Y Y Y Y Y Y L L Y Y Y Y Y Y Y Y Y Y Y Y Y Y Y Y Y Y ",
"Y C     = = = & X   Y Y Y Y Y Y Y Y Y Y Y Y Y Y Y Y   X & = & +   Y Y Y Y Y Y Y Y Y Y Y Y Y Y Y Y Y Y Y Y Y Y Y Y Y Y Y ",
"Y U   . = = = & .   Y Y Y Y Y Y Y Y Y Y Y Y Y Y Y Y     + = = +     Y Y Y Y Y Y Y Y Y Y Y Y Y Y Y Y Y Y Y Y Y Y Y Y Y Y ",
"Y Y   X = = = &     Y Y Y Y Y Y Y Y Y Y Y Y Y Y Y Y Y   + = = @     Y Y Y Y Y Y Y Y Y Y Y Y Y Y Y Y Y Y Y Y Y Y Y Y Y Y ",
"Y Y   X = = = &     Y Y Y Y Y Y Y Y Y Y Y Y Y Y Y Y Y   + & = & X   Y Y Y Y Y Y Y Y Y Y Y Y Y Y Y Y Y Y Y Y Y Y Y Y Y Y ",
"Y Y   . = = = &     Y Y Y Y Y Y Y Y Y Y Y Y Y Y Y Y Y   X & = & X   Y Y Y Y Y Y Y Y Y Y Y Y Y Y Y Y Y Y Y Y Y Y Y Y Y Y ",
"Y Y     & = = & .   Y Y Y Y Y Y Y Y Y Y Y Y Y Y Y Y Y   + & = @ .   Y Y Y Y Y Y Y Y Y Y Y Y Y Y Y Y Y Y Y Y Y Y Y Y Y Y ",
"Y Y Y   $ = = & +   Y Y Y Y Y Y Y Y Y Y Y Y Y Y         + = = @     Y Y Y Y Y Y Y Y Y Y Y Y Y Y Y Y Y Y Y Y Y Y Y Y Y Y ",
"Y Y Y   + = = = @   Y Y Y Y Y Y Y Y Y Y               . @ = = +     Y Y Y Y Y Y Y Y Y Y Y Y Y Y Y Y Y Y Y Y Y Y Y Y Y Y ",
"Y Y Y     & = = &     Y Y Y Y Y Y         X + + + X   + = = = +     Y Y Y Y Y Y Y Y Y Y Y Y Y Y Y Y Y Y Y Y Y Y Y Y Y Y ",
"Y Y Y Y   + = = & @     Y Y         . + @ & = = = @ X % = = & X   Y Y Y Y Y Y Y Y Y Y Y Y Y Y Y Y Y Y Y Y Y Y Y Y Y Y Y ",
"Y Y Y Y     @ = = & +           X + & = = = = = = & & = = = +       Y Y Y Y Y Y Y Y Y Y Y Y Y Y Y Y Y Y Y Y Y Y Y Y Y Y ",
"Y Y Y Y Y     @ = = & +     + @ & = = = = = = = = = = = = = +       R Y L Y U U Y Y Y Y Y Y Y Y Y Y Y Y Y Y Y Y Y Y Y Y ",
"Y Y Y Y Y     . @ & = & + @ & = = = = = = = = = = = = = = & + . X     l F Q D A Y Y U G Y Y Y Y Y Y Y Y Y Y Y Y Y Y Y Y ",
"Y Y Y Y Y Y       + & = = = = = = = = = = = = = = = = = = = @ @ & X   8 R R w I Y Y L C Y Y Y Y Y Y Y Y Y Y Y Y Y Y Y Y ",
"Y Y Y Y Y Y Y       & = = = = = = = = = = = = = = = = = = = = = = @     Y Q P R Y Y Y U Y Y Y Y Y Y Y Y Y Y Y Y Y Y Y Y ",
"Y Y Y Y Y Y Y Y   X = = = = = = = = = = = = = = = = = = = = = = = & X   Y Y Y Y Y Y Y Y Y Y Y Y Y Y Y Y Y Y Y Y Y Y Y Y ",
"Y Y Y Y Y Y Y Y   X = = = = = = = = = = = = = = = = = = = = = = = = +     Y Y Y Y Y Y Y Y Y Y Y Y Y Y Y Y Y Y Y Y Y Y Y ",
"Y Y Y Y Y Y Y Y   + = = = = = = = = = = = = = = = = = = = = = = = = & .   Y Y Y Y Y Y Y Y Y Y Y Y Y Y Y Y Y Y Y Y Y Y Y ",
"Y Y Y Y Y Y Y Y   + = = = = = = = = = = = = = = = = = = = = = = = = = +   Y Y Y Y Y Y Y Y Y Y Y Y Y Y Y Y Y Y Y Y Y Y Y ",
"Y Y Y Y Y Y Y Y   + = = = = = = = = = = = = = = = = = = = = = = = = = +     Y Y Y Y Y Y Y Y Y Y Y Y Y Y Y Y Y Y Y Y Y Y ",
"Y Y Y Y Y Y Y Y   + = = = = = = = = = = = = = = = = = = = = = = = = = @     Y Y Y Y Y Y Y Y Y Y   Y Y Y Y Y Y Y Y Y Y Y ",
"Y Y Y Y Y Y Y Y   X = = = = = = = = = = = = = = & = : = = = = = = = = & .     Y Y Y Y Y Y Y Y Y   Y Y Y Y Y Y Y Y Y Y Y ",
"R Y Y Y Y Y Y Y   . & = = = = = = = = = = = & @ & = > , > = = = = = = & .         Y Y Y Y Y Y       Y Y Y Y Y Y Y Y Y Y ",
"Y Y Y Y Y Y Y Y     @ = = > , , > = = = = = = 1 p a y r 2 > = = = = = @   + X     Y Y     Y Y Y     Y Y Y Y Y Y Y Y Y Y ",
"Y Y Y Y Y Y Y Y Y   + = & > y s i e , > < 2 t x ! ^ n h i 2 = = = = = +   - $     Y Y     Y Y       Y L Y   U Y Y Y Y Y ",
"Y Y Y Y Y Y Y Y Y   X , 1 a c m n j p r t s x ] &.#.} b d t > = = = & X X 4 *   Y Y     Y Y Y       l F Q     Y Y U G Y ",
"Y Y Y Y Y Y Y Y Y Y . 2 k N _ [ ` ! x d d z M +.<.,.@.M j y , = = = +   ; 1 o Y Y       Y Y Y       8 R R     Y Y L C Y ",
"Y Y Y Y Y Y Y Y Y Y X 4 M ' %.=.o.' B z j x M  .>.:.X.M h y , = = @ . # t *   Y Y     Y Y Y Y       Z Y Q     Y Y Y U Y ",
"Y Y Y Y Y Y Y Y Y Y + 4 B | -.,.*.| ( v z z b ! { } ( c s t , = @ . . 4 3 X   Y       Y Y Y Y       Y Y Y     Y Y Y Y Y ",
"Y Y Y Y Y Y Y Y Y Y Y 4 m ' O.;.$.} ( v j h z z c v z d i e > @ .   . u g *   Y         Y Y Y       Y Y       Y Y Y Y Y ",
"Y Y Y Y Y Y Y Y Y Y Y Y j ~ { ..| ) B z d s s s i i i i r > + .       ; f ;             Y Y         Y Y       Y Y Y Y Y ",
"Y Y Y Y Y Y Y Y Y Y Y Y d j M / B m v h p i t r r r r 2 & +     . .   . + X   Y   X +   Y Y         Y Y       Y Y Y Y Y ",
"Y Y Y Y Y Y Y Y Y Y Y Y Y t t f j j h s t e 2 2 , = # + X . + .   + .       Y Y   . @ .             Y         Y Y Y Y Y ",
"Y Y Y Y Y Y Y Y Y Y Y Y Y Y & & - , 1 - & # @ + + X .     + & +   . +         Y     X       X .   Y Y         Y Y Y Y Y ",
"Y Y Y Y Y Y Y Y Y Y Y Y Y Y X X # @ @ + X . .     X @ @ .   @ & + . X + .                 X +         .     Y Y Y Y Y Y ",
"Y Y Y Y Y Y Y Y Y Y Y Y Y Y     Y Y Y X   X o     + & & @ .   + & @ . . X + o . X X X + + +                 Y Y Y Y Y Y ",
"Y Y Y Y Y Y Y Y Y Y Y Y Y Y     Y Y Y   . @ +       + & & +     X @ @ @ + .   . X + + X .         . .     Y Y Y Y Y Y Y ",
"Y Y Y Y Y Y Y Y Y Y Y Y Y Y             X +           + & & @ .     X @ & @ @ @ + + .       X + + .     Y Y Y Y Y Y Y Y ",
"Y Y Y Y Y Y Y Y Y Y Y Y Y Y   . O     . @ X             . + & @ +       X @ & & & & % @ @ % @ +       Y Y Y Y Y Y Y Y Y ",
"Y J Y Y Y Y Y Y Y Y Y Y Y Y Y   X @ @ @ +                   . @ & @ +       . X X X X X X .       Y Y Y Y Y Y Y Y Y Y Y ",
"Y 0 Y Y Y Y Y Y Y Y Y Y Y Y Y Y       .                         . + @ @ + X                     Y Y Y Y Y Y Y Y Y Y Y Y ",
"U 0 Y U Y Y Y Y Y Y Y Y Y Y Y Y Y                   Y                                     Y Y Y Y Y Y Y Y Y Y Y Y Y Y Y ",
"L w U V Y Y Y Y Y Y Y Y Y Y Y Y Y Y Y Y Y Y Y Y Y Y Y Y Y                           L 8 U Y Y Y Y C L Y Y Y Y Y Y Y Y Y ",
"Y G U C Y Y Y Y Y Y Y Y Y Y Y Y Y Y Y Y Y Y Y Y Y Y Y Y Y Y Y Y Y Y Y Y G G Y Y D Y P S Y Y Y Y G w U Y Y Y Y Y Y Y Y Y ",
"Y Y Y L Y Y Y Y Y Y Y Y Y Y Y Y Y Y Y Y Y Y Y Y Y Y Y Y Y Y Y Y Y Y Y Y Y L Y Y Y Y Y Y Y Y Y Y Y Y Y Y Y Y Y Y Y Y Y Y ",
"Y Y Y Y Y Y Y Y Y Y Y Y Y Y Y Y Y Y Y Y Y Y Y Y Y Y Y Y Y Y Y Y Y Y Y Y Y Y Y Y Y Y Y Y Y Y Y Y Y Y Y Y Y Y Y Y Y Y Y Y "
};
