/* XPM */
static char *_6d3ab1fc6604b2a9c4f11b172a61069UDrD7uGFbUGtuPPR[] = {
/* columns rows colors chars-per-pixel */
"60 60 170 2 ",
"   c #010102",
".  c #05050B",
"X  c #07080E",
"o  c #08090F",
"O  c #0A0B14",
"+  c #0D0D1A",
"@  c #0F111E",
"#  c #13141D",
"$  c #0F0F23",
"%  c #0F1220",
"&  c #121323",
"*  c #151926",
"=  c #1A1C26",
"-  c #14162B",
";  c #15192B",
":  c #1A1C2C",
">  c #171B33",
",  c #191E34",
"<  c #1A1F3B",
"1  c #1F212D",
"2  c #1C2235",
"3  c #1C233A",
"4  c #212027",
"5  c #21212D",
"6  c #232534",
"7  c #24273B",
"8  c #22293D",
"9  c #2D2F3F",
"0  c #302F3A",
"q  c #33323B",
"w  c #50652B",
"e  c #556A31",
"r  c #586D36",
"t  c #5D7336",
"y  c #5D743A",
"u  c #617637",
"i  c #61763B",
"p  c #637A3D",
"a  c #1C2641",
"s  c #1E2943",
"d  c #222740",
"f  c #232C44",
"g  c #2A2F45",
"h  c #222F48",
"j  c #233047",
"k  c #2B3146",
"l  c #26324A",
"z  c #2A344B",
"x  c #2C384E",
"c  c #333241",
"v  c #3B3A44",
"b  c #32374A",
"n  c #32394E",
"m  c #293750",
"M  c #2E3A51",
"N  c #333D54",
"B  c #413F4A",
"V  c #364156",
"C  c #364259",
"Z  c #3A445B",
"A  c #3F495F",
"S  c #45424C",
"D  c #4A454A",
"F  c #4B4750",
"G  c #4C4B55",
"H  c #42495F",
"J  c #4D4D5C",
"K  c #55525C",
"L  c #59555F",
"P  c #667C42",
"I  c #434C61",
"U  c #484F65",
"Y  c #4A5267",
"T  c #4D5469",
"R  c #545462",
"E  c #5B5860",
"W  c #52566A",
"Q  c #555B6F",
"!  c #5C5B69",
"~  c #5A5E72",
"^  c #625D69",
"/  c #5D6275",
"(  c #66626E",
")  c #68636E",
"_  c #636273",
"`  c #696678",
"'  c #6B6C7D",
"]  c #726B76",
"[  c #797479",
"{  c #68803F",
"}  c #6B8245",
"|  c #6E8449",
" . c #71864A",
".. c #738A4D",
"X. c #768C50",
"o. c #798E53",
"O. c #7C9355",
"+. c #7C9359",
"@. c #819656",
"#. c #80965B",
"$. c #849C5E",
"%. c #859B60",
"&. c #899F62",
"*. c #87A060",
"=. c #8DA565",
"-. c #8EA569",
";. c #90A567",
":. c #90A569",
">. c #6F7182",
",. c #757686",
"<. c #7B7683",
"1. c #7A7A8A",
"2. c #837E87",
"3. c #898287",
"4. c #87808A",
"5. c #838291",
"6. c #8B8794",
"7. c #8C8997",
"8. c #8F8C99",
"9. c #938D98",
"0. c #97919E",
"q. c #9B949C",
"w. c #9B95A2",
"e. c #9F99A5",
"r. c #A49CA5",
"t. c #A59EA9",
"y. c #AAA2AC",
"u. c #ADA6B1",
"i. c #B3AAB2",
"p. c #BAAEB5",
"a. c #B9AEB8",
"s. c #BCB4B7",
"d. c #BDB3BB",
"f. c #C0B4BD",
"g. c #C3B9BF",
"h. c #C5BBC2",
"j. c #CBBEC5",
"k. c #CCC0C7",
"l. c #CEC2C9",
"z. c #CCCBCF",
"x. c #D3C5CC",
"c. c #D6C9CF",
"v. c #D7CED2",
"b. c #DBCCD2",
"n. c #D1D0D5",
"m. c #DFD2D6",
"M. c #DCD4D9",
"N. c #E2D2D6",
"B. c #E4D5D9",
"V. c #E8D7DB",
"C. c #E5D9DD",
"Z. c #EBDADE",
"A. c #EDDBDF",
"S. c #DEDEE1",
"D. c #E4DDE1",
"F. c #EADEE1",
"G. c #F1DFE2",
"H. c #EDE2E5",
"J. c #E8E4E8",
"K. c #F2E2E5",
"L. c #F5E6E9",
"P. c #F9E7EA",
"I. c #F4EAED",
"U. c #F9ECEE",
"Y. c #F3EEF0",
"T. c #FBEEF0",
"R. c #F4F1F3",
"E. c #FCF4F5",
"W. c #FCF7F8",
"Q. c #FFFEFE",
/* pixels */
"=.=.=.=.=.=.=.=.=.=.=.=.=.=.=.=.=.=.=.=.=.=.=.=.=.=.=.=.=.=.=.=.=.=.=.=.=.=.=.=.=.=.=.=.=.=.=.=.=.=.=.=.=.=.=.=.=.=.=.=.",
"=.=.=.=.=.=.=.=.=.=.=.=.=.=.=.=.=.=.=.=.=.=.=.=.=.=.=.=.=.=.=.=.=.=.=.=.=.=.=.=.=.=.=.=.=.=.=.=.=.=.=.=.=.=.=.=.=.=.=.=.",
"=.=.=.=.=.=.=.=.=.=.=.=.=.=.=.=.=.=.=.=.=.=.=.=.=.=.=.=.=.=.=.=.=.=.=.=.=.=.=.=.=.=.=.=.=.=.=.=.=.=.=.=.=.=.=.=.=.=.=.=.",
"=.=.=.=.=.=.=.=.=.=.=.=.=.=.=.=.=.=.=.=.=.=.=.=.=.=.=.=.=.=.=.=.=.=.=.=.=.=.=.=.=.=.=.=.=.=.=.=.=.=.=.=.=.=.=.=.=.=.=.=.",
"=.=.=.=.=.=.=.=.=.=.=.=.=.=.=.=.=.=.=.=.=.=.=.=.=.=.=.=.=.=.=.=.=.=.=.=.=.=.=.=.=.=.=.=.=.=.=.=.=.=.=.=.=.=.=.=.=.=.=.=.",
"=.=.=.=.=.=.=.=.=.=.=.=.=.=.=.=.=.=.=.=.=.=.=.=.=.=.=.=.=.=.=.=.=.=.=.=.=.=.=.=.=.=.=.=.=.=.=.=.=.=.=.=.=.=.=.=.=.=.=.=.",
"=.=.=.=.=.=.=.=.=.=.=.=.=.=.=.=.=.=.=.=.=.=.=.=.=.=.=.=.=.=.=.=.=.=.=.=.=.=.=.=.=.=.=.=.=.=.=.=.=.=.=.=.=.=.=.=.=.=.=.=.",
"=.=.=.=.=.=.=.=.=.=.=.=.=.=.=.=.=.=.=.=.  =.=.=.=.=.=.=.=.=.=.=.=.=.=.=.=.=.=.=.=.=.=.=.=.=.=.=.=.=.=.=.=.=.=.=.=.=.=.=.",
"=.=.=.=.=.=.=.=.=.=.=.=.=.=.=.=.=.=.=.. . O . =.=.#.=.=.=.=.=.=.=.=.=.=.=.=.=.=.=.=.=.=.=.=.=.=.=.=.=.=.=.=.=.=.=.=.=.=.",
"=.=.=.=.=.=.=.=.=.=.=.=.=.=.=.=.=.=.=.@ , J ; , -.p *.=.=.=.=.=.=.=.=.=.=.=.=.=.=.=.=.=.=.=.=.=.=.=.=.=.=.=.=.=.=.=.=.=.",
"=.=.=.=.=.=.=.=.=.=.=.=.  =.=.=.=.=.=., N 0.H z =.i =.*.=.=.=.=.=.=.=.=.=.=.=.-.=.=.=.=.=.=.;.=.;.=.=.=.=.=.=.=.=.=.=.=.",
"*.=.=.=.=.=.=.=.=.=.  # O   =.=.=.=.=., I u.>.M *.p *.} *.=.=.=.=.=.=.=.=.#.$.-.y | -.O.t O.:.&.} u =.=.=.=.=.=.=.=.=.=.",
"| =.+.-.:.=.O.=.=.. q <.# o =.=.=.=.@ k ,.f.7.C C O.$.P =.=.=.=.=.=.=.=.=.p e +.r p -.i i =.-.} w $.=.=.=.=.=.=.=.=.=.=.",
" .} +.-.-.i ..-.+ v p.^ o =.=.=.=.g W b.B.N.t.A N =.=.*.=.=.=.=.=.=.=.=.=.=.=.=.$.$.=.=.=.=.=.=.=.=.=.=.=.=.=.=.=.=.=.=.",
"=.} &.-.} p =.@ 0 i.F.^ O . =.=.=.=.z c.G.B.y.I N =.=.=.=.=.=.=.=.=.=.=.=.=.=.=.=.=.=.=.=.=.=.=.=.=.=.=.=.=.=.=.=.=.=.=.",
"=.*.=.=.#.&.;.* 6.U.T.q.= . =.=.=.=.f a.A.N.y.I N =.=.=.=.=.=.=.=.=.=.=.=.=.=.=.=.=.=.=.=.=.=.=.=.=.=.=.=.=.=.=.=.=.=.=.",
"=.=.=.=.=.=.& v C.E.d.B O =.=.=.=.=.f r.Z.b.t.I V =.=.=.=.=.=.=.=.=.=.=.=.=.=.=.=.=.=.=.=.=.=.=.=.=.=.=.=.=.=.=.=.=.=.=.",
"=.=.=.=.=.=.O 2.U.x.G O =.=.=.=.=.=.f i.V.b.0.Z =.=.=.=.=.=.=.=.=.=.=.=.=.=.=.=.=.=.=.=.=.=.=.=.=.=.=.=.=.=.=.=.=.=.=.=.",
"=.=.=.=.=.=.+ c.H.<.+ =.=.=.=.=.=.d n l.B.x.5.N =.=.=.=.=.=.=.=.=.=.=.=.=.=.=.=.=.=.=.=.=.=.=.=.=.=.=.=.=.=.=.=.=.=.=.=.",
"=.=.=.=.=.+ 9 P.j.q O =.=.=.=.=.=.3 _ N.B.h./ M =.=.=.=.=.=.=.=.=.=.=.=.=.=.=.=.=.=.=.=.=.=.=.=.=.=.=.=.=.=.=.=.=.=.=.=.",
"=.=.=.=.=.O K K.9.O =.=.=.=.=.=.=.f t.B.b.e.N z =.=.=.=.=.=.=.=.=.=.=.=.=.=.=.=.=.=.=.=.=.=.=.=.=.=.=.=.=.=.=.=.=.=.=.=.",
"=.=.=.=.=.O <.A.! O =.=.=.=.=.+ , _ x.B.j.~ h =.=.=.=.=.=.=.=.=.=.=.=.=.=.=.=.=.=.=.=.=.=.=.=.=.=.=.=.=.=.=.=.=.=.=.=.=.",
"=.=.=.=.=.O 8.x.B . .   . O * & J d.B.x.1.f 3 =.=.=.=.=.=.=.=.=.=.=.=.=.=.=.=.=.=.=.=.=.=.=.=.=.=.=.=.=.=.=.=.=.=.=.=.=.",
"=.=.=.=.=.. v D = 1 G 2.q.r.1.' h.Z.j.' f & O =.=.=.=.=.=.=.=.=.=.=.=.=.=.=.=.=.=.=.=.=.=.=.=.=.=.=.=.=.=.=.=.=.=.=.=.=.",
"=.=.=.=.  . # _ s.z.S.R.Q.Q.J.D.K.d./ N _ ! 3 , =.=.=.=.=.=.=.=.=.=.=.=.=.=.=.=.=.=.=.=.=.=.=.=.=.=.=.=.=.=.=.=.=.=.=.=.",
"=.=.=.=.o J m.Y.Q.Q.Q.Q.Q.Q.Q.T.c.' T i.x.h.1.M l =.=.=.=.=.=.=.=.=.-.=.$.=.*.*.=.=.=.=.=.=.=.=.=.=.=.=.=.=.=.=.=.=.=.=.",
"=.=.=.+ ! D.Q.Q.Q.Q.Q.Q.Q.Q.Q.Q.Q.U.W.Q.E.A.d.Q M =.=.=.=.=.=.=.=.p %.P o.:.X. .=.=.*.O.=.=.=.=.=.=.=.=.=.=.=.=.=.=.=.=.",
"=.=.=.c g.W.Q.Q.Q.Q.Q.Q.Q.Q.Q.Q.Q.Q.Q.Q.Q.L.b.5.N m =.=.=.=.=.=.$.y X.t -.-.p &.=.=.$.} =.=.=.=.=.=.=.=.=.=.=.=.=.=.=.=.",
"=.=.* R M.W.Q.Q.Q.Q.Q.Q.Q.Q.Q.Q.Q.Q.Q.Q.Q.E.Z.u.Y C =.=.=.=.=.=.-.%.%.| =.:.&.-.=.=.=.*.=.=.=.=.=.=.=.=.=.=.=.=.=.=.=.=.",
"=.=.& ) F.Q.Q.Q.Q.R.D.I.Q.Q.Q.Q.Q.Q.Q.Q.Q.W.K.j.` Z =.=.=.=.=.=.=.=.=.=.=.=.=.=.=.=.=.=.=.=.=.=.=.=.=.=.=.=.=.=.=.=.=.=.",
"=.=.& ] H.Q.Q.Q.I.q.F K u.E.Q.Q.Q.Q.Q.Q.Q.Q.L.b.1.V =.=.=.=.=.=.=.=.=.=.=.=.=.=.=.=.=.=.=.=.=.=.=.=.=.=.=.=.=.=.=.=.=.=.",
"=.=.@ ( B.W.Q.Q.v.S + O 7 l.E.Q.Q.Q.Q.Q.Q.Q.I.N.7.Z =.=.=.=.=.=.=.=.=.=.=.=.=.=.=.=.=.=.=.=.=.=.=.=.=.=.=.=.=.=.=.=.=.=.",
"=.=.. = 6 i.E.W.h.6 . . + ` L.E.Q.Q.Q.Q.Q.Q.U.N.w.Z H =.=.=.=.                      =.=.=.=.=.=.=.=.=.=.=.=.=.=.=.=.=.=.",
"=.=.. O O S U.E.h.6 . . O 8 N.U.Q.Q.Q.Q.Q.Q.U.B.t.A N +       X O & , h x N x j 3 - + O . . =.=.=.=.=.=.=.=.=.=.=.=.=.=.",
"=.=.. O O & K.E.c.B . . O , x.U.Q.Q.Q.Q.Q.Q.T.N.e.A , O @ : k Z I Y T Y I Z N l 3 - + O O . . =.=.=.=.=.=.=.=.=.=.=.=.=.",
"=.=.=.@ O O x.E.D.) o . O 3 b.U.Q.Q.Q.Q.Q.Q.U.b.0.I f f M Z I I H Z n z f s 3 , - & + O O =.=.=.=.=.=.=.=.=.=.=.=.=.=.=.",
"-.=.=.O # O 0.E.U.r.: O + z N.U.Q.Q.Q.Q.Q.Q.I.c.7.I z 8 6 6 2 2 2 3 8 f z x l f < - & $ =.=.=.=.=.=.=.=.=.=.=.=.=.=.=.=.",
"=.=.=.  * O ] W.W.B.( & & W A.T.Q.Q.Q.Q.Q.Q.K.h.' z - & , 8 k b n x z g 8 2 : & @ + O =.=.=.=.=.=.=.=.=.=.=.=.=.=.=.=.=.",
"=.=.=.  # O L W.Q.W.D.y.t.M.E.Q.Q.Q.Q.Q.Q.U.b.0.I h f x Z Z M 8 ; & & & - ; ; - & + + + + =.=.=.=.-.=.$.=.*.*.=.=.=.=.=.",
"=.=.=.=.O ! l.Q.Q.Q.Q.Q.Q.Q.Q.Q.Q.Q.Q.Q.U.b.0.Y l M Z Z M 3 - , h C I Y Y Y U I C x h a < > > =.p %.P o.:.X. .=.=.*.O.=.",
"=.=.=.=.. G H.Q.Q.Q.Q.Q.Q.Q.Q.Q.W.R.F.k.0.W z h M N z 3 , 3 x Z I H V k 3 ; @ O O . . . . . . . y X.t -.-.p &.=.=.$.} =.",
"=.=.=.=.=.X ] h.D.R.E.E.R.J.n.h.y.4.R g , , d l f 3 , d M Z Z N f ; O . .                             . :.&.-.=.=.=.*.=.",
"=.=.=.=.=.=.. 4 K [ 3.3.[ E v 5 # & ; 2 8 8 3 , 2 f M Z N z 2 % . .                                       =.=.=.=.=.=.=.",
"=.=.=.=.=.=.=.    . . . . . . @ & & & & & & ; 3 f z g 2 * O .                     .                 =.=.=.=.=.=.=.=.=.=.",
"=.=.=.=.=.=.=.=.=.=.=.=.=.. . O - 2 2 ; + O O O O O o . .                                     =.=.=.=.=.=.=.=.=.=.=.=.=.",
"=.=.=.=.=.=.=.=.=.=.=.=.=.=.=.=.. O @ , f x n N N N n b k 8 2 & + . . .                 =.=.=.=.=.=.=.=.=.=.=.=.=.=.=.=.",
"=.=.=.=.=.=.=.=.=.=.=.=.=.=.=.=.=.=.      . . . O + & : 6 f l l j a , & O o . . =.=.=.=.=.=.=.=.=.=.=.=.=.=.=.=.=.=.=.=.",
"=.=.=.=.=.=.=.=.=.=.=.=.=.=.=.=.=.=.=.=.=.=.=.                . . . . . . =.=.=.=.=.=.=.=.=.=.=.=.=.=.=.=.=.=.=.=.=.=.=.",
"=.=.=.=.=.=.=.=.=.=.=.=.=.=.=.=.=.=.=.=.=.=.=.=.=.=.=.=.=.=.=.          =.=.=.=.=.=.=.=.=.=.=.=.=.=.=.=.=.=.=.=.=.=.=.=.",
"=.=.=.=.=.=.=.=.=.=.=.=.=.=.=.=.=.=.=.=.=.=.=.=.=.=.=.=.=.=.=.=.=.=.=.=.=.=.=.=.=.=.=.=.=.=.=.=.=.=.=.=.=.=.=.=.=.=.=.=.",
"=.=.=.=.=.=.=.=.=.=.=.=.=.=.=.=.=.=.=.=.=.=.=.=.=.=.=.=.=.=.=.=.=.=.=.=.=.=.=.=.=.=.=.=.=.=.=.=.=.=.=.=.=.=.=.=.=.=.=.=.",
"=.=.=.=.=.=.=.=.=.=.=.=.=.=.=.=.=.=.=.=.=.=.=.=.=.=.=.=.=.=.=.=.=.=.=.=.=.=.=.=.=.=.=.=.=.=.=.=.=.=.=.=.=.=.=.=.=.=.=.=.",
"=.=.=.=.=.=.=.=.=.=.=.=.=.=.=.=.=.=.=.=.=.=.=.=.=.=.=.=.=.=.=.=.=.=.=.=.=.=.=.=.=.=.=.=.=.=.=.=.=.=.=.=.=.=.=.=.=.=.=.=.",
"=.@.=.=.=.=.=.=.=.=.=.=.=.=.=.=.=.=.=.=.=.=.=.=.=.=.=.=.=.=.=.=.=.=.=.=.=.=.=.=.=.=.=.=.=.=.=.=.=.=.=.=.=.=.=.=.=.=.=.=.",
"=.u =.=.=.=.=.=.=.=.=.=.=.=.=.=.=.=.=.=.=.=.=.=.=.=.=.=.=.=.=.=.=.=.=.=.=.=.*.=.=.=.=.=.=.=.=.=.=.=.=.=.=.=.=.=.=.=.=.=.",
"*.u =.*.=.=.=.=.=.=.=.=.=.=.=.=.=.=.=.=.=.=.=.=.=.=.=.=.=.=.=.=.=.=.=.=.*.*.} *.*.*.=.*.=.=.=.=.=.=.=.=.=.=.=.=.=.=.=.=.",
"$.p *.{ =.=.=.=.=.=.=.=.=.=.=.=.=.=.=.=.=.=.=.=.=.=.=.=.=.=.=.=.=.=.=.=.O.O. .=.p O.$.t *.=.=.=.=.} $.=.=.=.=.=.=.=.=.=.",
"=.O.*.} =.=.=.=.=.=.=.=.=.=.=.=.=.=.=.=.=.=.=.=.=.=.=.=.=.=.=.=.=.=.=.=.O.O.=.=.X.=.&...=.=.=.=.O.p *.=.=.=.=.=.=.=.=.=.",
"=.=.=.$.=.=.=.=.=.=.=.=.=.=.=.=.=.=.=.=.=.=.=.=.=.=.=.=.=.=.=.=.=.=.=.=.=.$.=.=.=.=.=.=.=.=.=.=.=.=.=.=.=.=.=.=.=.=.=.=.",
"=.=.=.=.=.=.=.=.=.=.=.=.=.=.=.=.=.=.=.=.=.=.=.=.=.=.=.=.=.=.=.=.=.=.=.=.=.=.=.=.=.=.=.=.=.=.=.=.=.=.=.=.=.=.=.=.=.=.=.=."
};
