/* XPM */
static char *_f80e75ce0314fff801ca20f98038666mzXIkgKNa7IlMHXS[] = {
/* columns rows colors chars-per-pixel */
"32 32 131 2 ",
"   c #4A4241",
".  c #514643",
"X  c #514847",
"o  c #594F4E",
"O  c #57514E",
"+  c #5C5553",
"@  c #605651",
"#  c #625956",
"$  c #6D5D56",
"%  c #645D5C",
"&  c #6D5F59",
"*  c #725D54",
"=  c #715E59",
"-  c #6E644F",
";  c #6E6D4C",
":  c #726C4E",
">  c #6E704A",
",  c #6F6353",
"<  c #6F6E51",
"1  c #66605C",
"2  c #6D625C",
"3  c #716254",
"4  c #706B52",
"5  c #73625C",
"6  c #79665F",
"7  c #736A5C",
"8  c #727252",
"9  c #737358",
"0  c #676362",
"q  c #6C6462",
"w  c #6F6967",
"e  c #6E6968",
"r  c #746661",
"t  c #786761",
"y  c #746965",
"u  c #7A6B64",
"i  c #746D6B",
"p  c #7A6E6A",
"a  c #7B7067",
"s  c #75706E",
"d  c #7C726D",
"f  c #767272",
"g  c #7B7573",
"h  c #7E7976",
"j  c #7D7A79",
"k  c #81726D",
"l  c #817672",
"z  c #837975",
"x  c #897E77",
"c  c #837D7B",
"v  c #887F7B",
"b  c #778F52",
"n  c #7B9355",
"m  c #7F9758",
"M  c #7F8072",
"N  c #839A5B",
"B  c #879F60",
"V  c #838177",
"C  c #85817D",
"Z  c #8A817E",
"A  c #91847F",
"S  c #8DA565",
"D  c #817F80",
"F  c #858382",
"G  c #8B8584",
"H  c #8C8886",
"J  c #8D8B8B",
"K  c #8D8D8D",
"L  c #8E8E8E",
"P  c #918A88",
"I  c #908C8A",
"U  c #908C8D",
"Y  c #948E8D",
"T  c #988C8A",
"R  c #90908E",
"E  c #95908F",
"W  c #969190",
"Q  c #969392",
"!  c #999390",
"~  c #989392",
"^  c #9B9694",
"/  c #9E9B9A",
"(  c #A09592",
")  c #A49B95",
"_  c #A49D9B",
"`  c #A29D9C",
"'  c #A4A09E",
"]  c #A6A1A0",
"[  c #A7A4A3",
"{  c #AAA5A4",
"}  c #ADA7A8",
"|  c #ABA8A8",
" . c #ACADAD",
".. c #B3ACA9",
"X. c #B2AFAE",
"o. c #B8ADAA",
"O. c #BBB2AF",
"+. c #B4AFB0",
"@. c #B7B5B3",
"#. c #BAB6B6",
"$. c #BAB8B7",
"%. c #BFB8B6",
"&. c #BBBAB9",
"*. c #BDBABA",
"=. c #BDBCBC",
"-. c #C0B5AF",
";. c #C0BCBB",
":. c #C1BDBF",
">. c #C6C0BF",
",. c #CAC0BF",
"<. c #C2BFC0",
"1. c #C3C3C3",
"2. c #C4C2C3",
"3. c #C4C3C3",
"4. c #C6C5C4",
"5. c #CAC6C5",
"6. c #CACACA",
"7. c #D5CCC8",
"8. c #D0CECD",
"9. c #D8CECC",
"0. c #D3D1D0",
"q. c #D7D6D5",
"w. c #D8D6D5",
"e. c #E2D9D7",
"r. c #E5E3E2",
"t. c #EAE3E1",
"y. c #ECE9E7",
"u. c #F4F1EE",
"i. c #F5F4F3",
"p. c #F9F7F7",
"a. c #FEFEFD",
/* pixels */
"S S S 2 $ $ $ $ $ $ $ & & 2 z F H H J J J J J H c d $ $ S S S S ",
"S S S $ & 2 2 $ $ 5 p y p C H J J L L L L L J H L H r $ S S S S ",
"S N S $ s F Z g l H Z p F L L L L L L L L L L L L U k $ S S S S ",
"S m S $ h L L L J F i c J J L L L H c j h c F H H J l $ $ S S S ",
"S S & $ c L H H l y i c c j C L D f c c c g 0 s H w r 5 $ S S S ",
"S S & & C L h p h F H j H I q H e ] Y w I ;.@.0.r.C v u $ S S S ",
"S S & 2 F c i l H C c g % + # g h ` +   O X.4.8.^ 0 H l $ 2 S S ",
"S S $ 5 v i c ] g c y + v P ! p P #.h % h &.1.q.*.+ g Z = & S S ",
"S S * 5 d c h c s H z p z q F y E 5.1.*.<.2.4.[ 0 w H H 5 = S S ",
"S S * 5 d P c c c c p d C w + 1 W 4.$.} +.1.4.W y F L J p = S S ",
"S $ $ a G H c ` f g z @ d _ / i W ` 0 o # | 4.W f L L J d = S b ",
"S $ 5 ) W H C s j c y $ # q f q P { 2 . X / 5./ i L L H y $ S N ",
"S 5 O.i.6.W L H J U c & d ! i h h >.[ y f #.4.&.g j L L l = S S ",
"S ( p.a.a.1.L L L J z 2 F { j H i / 5.:.=.1.2.w.#.% H L H r S S ",
"S 7.a.a.i. .L L J c y d F F H L F q ! @.#.#.#.5.! 0 H J J p & S ",
"u -.u.a.2.J J H W H s F L L L L L h 1 2 0 % % ! r.c c J J u & S ",
"& ) 5.>.Z a y y ( %.' R L J H J L J C h s i p y J i j J J y $ S ",
"l e.t...r & = 5 Z o.O.F c l y c J J J J J J J J F c H L L g & S ",
"A t.a.y.Y C C v a d A p y 7 * 5 y p g c c V C C M C J J L v = S ",
"5 T 9.,.Z v F G l 2 z l x x 5 t k p y y 7 4 8 8 > 9 u d l z 5 $ ",
"q & k p 5 5 5 5 5 = 5 & 7 u = 6 l z z z d 8 > > > ; 7 7 5 5 5 $ ",
"S 5 * * u 5 * * 5 6 5 * * * * * * * * * , ; > > > > 4 5 u u 2 r ",
"S S 3 * 5 * * * * * * * * * * * * * * * * - > > ; ; 4 $ * 5 r S ",
"S S 5 = u 5 * * * * * * * * * * * * * * * - ; > ; ; 3 * * 5 S S ",
"n N 5 * u r * * * * * * * * * * * * * * * , ; > : , * * * 5 S S ",
"b N S * u Z l u 7 5 $ * * * * * * * * * * , ; ; 3 * * * * 7 S S ",
"S S S = 5 v H H F v c l d u u 5 5 5 = * $ , > ; $ * * * 5 N S S ",
"S S S 5 = 5 r y p l z v Z Z Z F G Z v z d 9 > 4 5 * 5 5 N n n S ",
"S S S r 2 5 5 5 5 5 5 5 5 7 r y p d l z z 9 > 9 6 5 k 5 S B N B ",
"S S S S 7 5 5 5 5 3 5 5 5 = = = * * * , ; ; > 4 3 5 u 2 S S S S ",
"S S S S q 5 5 5 5 = = = = * * * * * = 3 ; > < , 5 * & 2 S S S S ",
"S S S S S S S S S S S r r 5 5 5 5 5 = , ; ; 7 a z y r S S S S S "
};
