/* XPM */
static char *_a997f54c2cd4284b384ce7cf750e1e1Hkngy9a0i0S9AYRG[] = {
/* columns rows colors chars-per-pixel */
"32 32 157 2 ",
"   c #3D1C1D",
".  c #3B2122",
"X  c #510D09",
"o  c #462E2E",
"O  c #542421",
"+  c #4B3737",
"@  c #523135",
"#  c #713C3A",
"$  c #7F5E34",
"%  c #72723E",
"&  c #737D3F",
"*  c #5C494B",
"=  c #6B484C",
"-  c #766F42",
";  c #7B6D42",
":  c #747445",
">  c #797042",
",  c #757A44",
"<  c #787946",
"1  c #757648",
"2  c #892618",
"3  c #9C3719",
"4  c #953D1B",
"5  c #A03617",
"6  c #AE3116",
"7  c #A5331B",
"8  c #AB321A",
"9  c #A13819",
"0  c #AA391B",
"q  c #B43516",
"w  c #BB3617",
"e  c #BF3816",
"r  c #B13319",
"t  c #BC351A",
"y  c #B53C1F",
"u  c #B83A1E",
"i  c #893529",
"p  c #9E3B23",
"a  c #953B28",
"s  c #9B3D2D",
"d  c #A23523",
"f  c #A33A24",
"g  c #A13D2A",
"h  c #B63D27",
"j  c #BE3F24",
"k  c #C03517",
"l  c #C2361B",
"z  c #CD3D1D",
"x  c #D93D17",
"c  c #D63E1B",
"v  c #D83D1A",
"b  c #CA3F26",
"n  c #D13E21",
"m  c #8C4B25",
"M  c #874E2B",
"N  c #9D402B",
"B  c #914A2D",
"V  c #87522E",
"C  c #89522D",
"Z  c #964234",
"A  c #9D4333",
"S  c #9D4D37",
"D  c #944938",
"F  c #9D4C3B",
"G  c #895834",
"H  c #895D3A",
"J  c #925230",
"K  c #AF422B",
"L  c #BB412D",
"P  c #A34533",
"I  c #A24B3C",
"U  c #BA4933",
"Y  c #A5503F",
"T  c #A8513F",
"R  c #83653D",
"E  c #D4401C",
"W  c #DB411E",
"Q  c #C54529",
"!  c #C2482F",
"~  c #CE492F",
"^  c #D44424",
"/  c #DC4323",
"(  c #D4472A",
")  c #D1492B",
"_  c #DD492A",
"`  c #C44E34",
"'  c #CA4A30",
"]  c #D65035",
"[  c #DD5136",
"{  c #D2553B",
"}  c #D85238",
"|  c #E14624",
" . c #E54B2A",
".. c #E94F2D",
"X. c #E15133",
"o. c #EC5433",
"O. c #E6563B",
"+. c #EA5638",
"@. c #E6583C",
"#. c #EB5C3E",
"$. c #F45937",
"%. c #F65C3B",
"&. c #F95F3F",
"*. c #FB603F",
"=. c #945543",
"-. c #9A5E50",
";. c #A34F40",
":. c #A45446",
">. c #AA5947",
",. c #AD5748",
"<. c #A65A4E",
"1. c #A55F52",
"2. c #AA5F50",
"3. c #866E45",
"4. c #996B49",
"5. c #927649",
"6. c #98714B",
"7. c #A46050",
"8. c #AD6252",
"9. c #A16658",
"0. c #A86B5F",
"q. c #A37B5A",
"w. c #CA5840",
"e. c #D45B44",
"r. c #DB5D46",
"t. c #ED5F41",
"y. c #F15F43",
"u. c #FA5F41",
"i. c #DD6144",
"p. c #DE6E5D",
"a. c #EF6747",
"s. c #E2664B",
"d. c #EC6649",
"f. c #E1694E",
"g. c #ED694B",
"h. c #F36445",
"j. c #FB6141",
"k. c #F06648",
"l. c #E56B50",
"z. c #E67356",
"x. c #E97B61",
"c. c #728541",
"v. c #778F52",
"b. c #7B9355",
"n. c #7E9658",
"m. c #839B5C",
"M. c #879F60",
"N. c #8DA565",
"B. c #F1826F",
"V. c #EC8875",
"C. c #F38F79",
"Z. c #FDAC96",
"A. c #FEAE99",
"S. c #FEB19A",
"D. c #FFB4A3",
"F. c #FFB8A2",
"G. c #FFBCAC",
/* pixels */
"N.N.N.N.N.N.N.N.N.N.N.N.N.N.N.N.N.N.N.N.N.N.N.N.N.N.N.N.N.N.N.N.",
"N.N.N.N.N.N.N.N.N.N.N.N.N.N.N.N.N.N.N.N.N.N.N.N.N.N.N.N.N.N.N.N.",
"N.m.N.m.b.m.m.N.N.N.N.N.N.N.N.N.N.N.N.N.N.N.N.N.N.N.N.N.N.N.N.N.",
"N.n.N.m.n.M.m.N.N.N.N.N.N.N.N.N.N.N.N.N.N.N.N.N.N.N.N.N.N.N.N.N.",
"N.N.N.N.N.N.N.N.N.N.N.N.N.N.N.N.N.N.N.N.N.N.N.N.N.N.N.N.N.N.N.N.",
"N.N.N.N.N.N.N.N.N.N.N.<.I P P g d d N F 7.n.b.m.N.N.N.N.N.N.N.N.",
"N.N.N.N.N.N.N.N.N.8.P 7 8 q q w w q 6 7 p F 0.n.= @ . + N.N.N.N.",
"N.N.N.N.N.N.N.N.;.d 6 e z z c c n ~ r.e.L d Z #     o * N.N.N.N.",
"N.N.N.N.N.N.N.I 7 w z c c v v c ] C.A.A.V.U 2 X O N.N.N.N.N.N.N.",
"N.N.N.N.N.N.:.7 e c c v v v c c f.D.G.G.D.p.7 2 i 1.N.N.N.N.N.N.",
"N.N.N.N.N.2.d t c c v v v v x c r.A.G.G.G.B.b t 8 A N.N.N.N.N.v.",
"N.N.N.N.N.A r z c v v v v x x v ^ x.S.F.Z.l.^ ^ k 7 :.N.N.N.N.m.",
"N.N.N.N.<.d l c v v v v v c c v c ( s.z.i.^ W / z 8 A N.N.N.N.N.",
"N.N.N.N.Y 6 z v v v v c c c v v c c c E c W v v ^ r s N.N.N.N.N.",
"N.N.N.N.I r _  . .| | / / | |  . . ...o.o...| W ^ u s N.N.N.N.N.",
"N.N.N.M.I r +.u.u.&.$.$.%.%.%.&.*.&.*.*.j.&.%.$.+.Q s N.N.N.N.N.",
"N.N.m.b.T 6 o.j.j.*.j.j.*.*.*.*.*.*.*.*.*.*.*.*.j.' Z N.N.N.N.N.",
"N.N.N.m.>.8 X.j.j.*.*.*.*.*.*.*.*.*.*.*.*.*.*.*.j.! D N.N.N.N.N.",
"N.N.N.N.8.f ) j.j.*.*.*.*.*.*.*.*.*.*.*.*.*.*.j.t.K =.N.N.N.N.N.",
"N.N.N.N.N.P u #.j.j.*.*.*.*.*.*.*.*.*.*.*.*.*.j.} s 9.N.N.N.N.N.",
"N.N.N.N.N.,.7 ) j.j.*.*.*.*.*.*.*.*.*.*.*.*.j.#.h F N.N.N.N.N.N.",
"N.N.N.N.N.N.S f { d.d.a.a.a.a.a.a.a.a.a.a.g.d.` a -.N.N.N.N.N.N.",
"N.N.N.N.N.N.q.B f w.f.g.k.k.k.k.k.k.k.k.g.d.` p =.N.N.N.N.N.N.N.",
"N.N.N.N.N.N.N.4.B p U e.y.j.j.j.j.j.j.h.#.Q 3 B q.N.N.N.N.N.N.N.",
"n.m.N.N.N.N.N.n.6.J a f j ~ [ O.#.@.[ ~ y 4 C 5.N.N.N.N.N.N.N.N.",
"v.m.N.N.N.N.N.N.< 3.H B 3 5 7 0 0 0 9 4 m $ > , N.N.N.N.N.N.N.N.",
"N.N.N.N.N.N.N.& % - ; R H G C C M V G R ; ; - % & N.N.N.m.m.N.N.",
"N.N.N.N.N.N.N.N.: : : : : : : : : : 1 1 1 1 1 , c.N.N.N.m.b.n.N.",
"N.N.N.N.N.N.N.N.N.N.N.N.N.N.N.N.N.N.N.N.N.N.N.N.N.N.N.N.N.M.m.M.",
"N.N.N.N.N.N.N.N.N.N.N.N.N.N.N.N.N.N.N.N.N.N.N.N.N.N.N.N.N.N.N.N.",
"N.N.N.N.N.N.N.N.N.N.N.N.N.N.N.N.N.N.N.N.N.N.N.N.N.N.N.N.N.N.N.N.",
"N.N.N.N.N.N.N.N.N.N.N.N.N.N.N.N.N.N.N.N.N.N.N.N.N.N.N.N.N.N.N.N."
};
