/* XPM */
static char *_4c986127a514419b84363eeb30a862bYsO5q22QDwTiPMVa[] = {
/* columns rows colors chars-per-pixel */
"32 32 158 2 ",
"   c None",
".  c #3D1C1D",
"X  c #3B2122",
"o  c #510D09",
"O  c #462E2E",
"+  c #542421",
"@  c #4B3737",
"#  c #513135",
"$  c #713C3A",
"%  c #7F5E34",
"&  c #72723E",
"*  c #727D3F",
"=  c #5C4A4B",
"-  c #6A484C",
";  c #766F42",
":  c #7B6D42",
">  c #747345",
",  c #797042",
"<  c #757A44",
"1  c #787A46",
"2  c #757648",
"3  c #842112",
"4  c #8E2B1E",
"5  c #9E3516",
"6  c #953D1B",
"7  c #9A391B",
"8  c #A03617",
"9  c #AE3116",
"0  c #A5331B",
"q  c #AB321A",
"w  c #A13819",
"e  c #AA391B",
"r  c #B43516",
"t  c #BB3617",
"y  c #BF3816",
"u  c #B13319",
"i  c #BC351A",
"p  c #B53C1F",
"a  c #B83A1E",
"s  c #893529",
"d  c #9E3624",
"f  c #9E3B23",
"g  c #953B28",
"h  c #9B3D2D",
"j  c #943E23",
"k  c #A23523",
"l  c #A33A24",
"z  c #A13D2A",
"x  c #B63D27",
"c  c #BE3F24",
"v  c #C03517",
"b  c #C2361B",
"n  c #CD3D1D",
"m  c #D93D17",
"M  c #D63E1B",
"N  c #D83D1A",
"B  c #CA3F26",
"V  c #D13E21",
"C  c #874E2B",
"Z  c #8C4B25",
"A  c #9D402B",
"S  c #914A2D",
"D  c #87522E",
"F  c #89522D",
"G  c #964234",
"H  c #9D4333",
"J  c #9D4D37",
"K  c #954938",
"L  c #9D4C3B",
"P  c #895834",
"I  c #895D3A",
"U  c #925230",
"Y  c #AF422B",
"T  c #BB412D",
"R  c #A34533",
"E  c #A24C3C",
"W  c #BA4933",
"Q  c #A8513F",
"!  c #83653D",
"~  c #D4401C",
"^  c #DB411E",
"/  c #C54529",
"(  c #C2482F",
")  c #CE492F",
"_  c #D44424",
"`  c #DC4323",
"'  c #D4472A",
"]  c #D1492B",
"[  c #DD492A",
"{  c #C44E34",
"}  c #CA4A30",
"|  c #DC4F34",
" . c #D14A33",
".. c #D65035",
"X. c #DD5136",
"o. c #D85238",
"O. c #D2553B",
"+. c #E14624",
"@. c #E54B2A",
"#. c #E94F2D",
"$. c #E15133",
"%. c #EC5433",
"&. c #E6563B",
"*. c #EA5638",
"=. c #E6583C",
"-. c #EB5C3E",
";. c #F45937",
":. c #F65C3B",
">. c #F95F3F",
",. c #FB603F",
"<. c #945543",
"1. c #9A5E50",
"2. c #A34F40",
"3. c #A45243",
"4. c #AB5847",
"5. c #A65A4E",
"6. c #AB5B4C",
"7. c #A45F53",
"8. c #866E45",
"9. c #996B49",
"0. c #927649",
"q. c #98714A",
"w. c #A36050",
"e. c #AD6253",
"r. c #A26558",
"t. c #A86A5E",
"y. c #A4775A",
"u. c #A27C5B",
"i. c #CA5840",
"p. c #D45B44",
"a. c #DB5D46",
"s. c #ED5F41",
"d. c #F15F43",
"f. c #FA5F41",
"g. c #DD6144",
"h. c #DE6E5D",
"j. c #EF6747",
"k. c #E2664B",
"l. c #EC6649",
"z. c #E1694E",
"x. c #ED694B",
"c. c #F36445",
"v. c #FB6141",
"b. c #F06648",
"n. c #E56B50",
"m. c #E67356",
"M. c #E97B61",
"N. c #728441",
"B. c #F1826F",
"V. c #EC8875",
"C. c #F38F79",
"Z. c #FDAC96",
"A. c #FEAE99",
"S. c #FEB19A",
"D. c #FFB4A3",
"F. c #FFB8A2",
"G. c #FFBBAA",
"H. c #FFBCAC",
/* pixels */
"                                                                ",
"                                                                ",
"                                                                ",
"                                                                ",
"                                                                ",
"                      5.E R R z l l A L w.                      ",
"                  e.R 0 q r r t t r 9 0 d L t.  - # X @         ",
"                2.l 9 y n M M M V  .a.p.T k G $ . . O =         ",
"              E 0 i n M N N N M ..C.A.A.V.W 4 o +               ",
"            3.0 v M N N N N N M z.D.H.H.D.h.0 3 s 7.            ",
"          6.k i M N N N N N m M a.A.H.H.H.B.B i q H             ",
"          H u n N N N N N m m N _ M.S.F.Z.n._ _ v 0 3.          ",
"        5.k b M N N N N N N N N M ' k.m.g._ ^ ` n q H           ",
"        3.9 n N N N N N N N N N N M M ~ N ^ N N _ u h           ",
"        E u [ @.@.+.+.` ` +.+.@.@.@.#.%.%.#.+.^ _ a h           ",
"        E u *.f.f.>.;.;.:.:.:.>.,.>.,.,.v.>.:.;.*./ h           ",
"        Q 9 %.v.v.,.v.v.,.,.,.,.,.,.,.,.,.,.,.,.v.} G           ",
"        4.q $.v.v.,.,.,.,.,.,.,.,.,.,.,.,.,.,.,.v.( K           ",
"        e.l ] v.v.,.,.,.,.,.,.,.,.,.,.,.,.,.,.v.s.Y <.          ",
"          R a -.v.v.,.,.,.,.,.,.,.,.,.,.,.,.,.v.o.h r.          ",
"          4.0 ] v.v.,.,.,.,.,.,.,.,.,.,.,.,.v.-.x L             ",
"            J l O.l.l.j.j.j.j.j.j.j.j.j.j.x.l.{ g 1.            ",
"            y.S l i.z.x.b.b.b.b.b.b.b.b.x.l.{ f <.              ",
"              9.S f W p.d.v.v.v.v.v.v.c.-./ 5 S u.              ",
"                q.U j l c ) | &.-.=.X.) p 6 F 0.                ",
"                1 8.I S 7 8 0 e e e w 6 Z % , <                 ",
"              * & ; : ! I P F F C D P ! : : ; & *               ",
"                > > > > > > > > > > 2 2 2 2 2 < N.              ",
"                                                                ",
"                                                                ",
"                                                                ",
"                                                                "
};
