/* XPM */
static char *d5a9302a1bff4f6685613c04dabc6794FdXlGW39jhsIi5e6[] = {
/* columns rows colors chars-per-pixel */
"32 32 70 1 ",
"  c #000002",
". c #030305",
"X c #00020A",
"o c #070C1D",
"O c #090B1C",
"+ c #060C23",
"@ c #060E2D",
"# c #020A33",
"$ c #171D37",
"% c #101D41",
"& c #212D56",
"* c #232D58",
"= c #32375B",
"- c #283A6F",
"; c #263B73",
": c #283A7B",
"> c #2D3D79",
", c #37417E",
"< c #3F467A",
"1 c #40477C",
"2 c #404A7D",
"3 c #71864B",
"4 c #71894D",
"5 c #778F52",
"6 c #7A9053",
"7 c #7B9356",
"8 c #7D9556",
"9 c #7F9758",
"0 c #819759",
"q c #82985A",
"w c #839B5C",
"e c #849A5C",
"r c #869E5E",
"t c #879F60",
"y c #8AA263",
"u c #8BA364",
"i c #8DA364",
"p c #8BA464",
"a c #8DA565",
"s c #2B4085",
"d c #354D90",
"f c #3E4E96",
"g c #394F9E",
"h c #35509F",
"j c #3F539B",
"k c #3A50A2",
"l c #3B54A6",
"z c #414D81",
"x c #42539A",
"c c #41549C",
"v c #4253A7",
"b c #425BAF",
"n c #415FAF",
"m c #455FAC",
"M c #465DB2",
"N c #4B61AC",
"B c #4F66AF",
"V c #4A60B3",
"C c #4E66BC",
"Z c #6477BB",
"A c #5A78C3",
"S c #5F75CA",
"D c #9095CD",
"F c #B7CAF5",
"G c #BBC8F5",
"H c #B9CAF8",
"J c #BECCFB",
"K c #BDE3F0",
"L c #C0CFF1",
"P c white",
/* pixels */
"aaaaaaaaaaaaaaaaaaaaaaaaaaaaaaaa",
"aaaaaaaaaaaaaaaaaaaaaaaaaaaaaaaa",
"araq6qqyaaaaaaaaaaaaaaaaaaaaaaaa",
"a9yq8tryaayyyaaaaaaaaaaaaaaaaaaa",
"aaaaaaaaPGyrwaaaaaGPaiuaaaaaaaaa",
"aaaaaaaPPPaaaaaaaaPPP97raaaaaaaa",
"aaaaaaGPPGaaaaaaaaGPPG88yaaaaaaa",
"aaaaaaPPGaaaaaaaaaaGPPayaaaaaaaa",
"aaaaaaPGaaaaaaaaaaaaLPaaaaaaaaaa",
"aaaaaaGGaaGGPPPPGGaaFGaaaaaaaaaa",
"aaaaaaGGaGPPPPPPPPGaHGaaaaaaaay5",
"aaaaaaGGGGPPPPPPPPGGHGaaaaaaaaaq",
"aaaaaaDGGGPPPPPPPPGJGDaaaaaaaaaa",
"aaaaaaaGDGGPPPPPPGGDGaaaaaaaaaaa",
"aaaaaaaaaGGGGGGGGGGaaaaaaaaaaaaa",
"aaytyaaaaGGGGGGGGGGaaayytaaaaaaa",
"aar67yaaaDG .GG XGDaaa037aaaaaaa",
"aair9raaaDDoODDo+DDaaauryaaaaaaa",
"aaaaaaaaavD1<DD2zD>aaaaaaaaaaaaa",
"aaaaaaaaCMnDDDDDDN,aaaaaaaaaaaaa",
"aaaaaaadlVSBxcjsf= aaaaaaaaaaaaa",
"aaaaaaabkgMVm*&%$   aaaaaaaaaaaa",
"aaaaaaah:;-#@      ZZZaaaaaaaaaa",
"aaaaaaaytyy       aZKKZaaaaaaaaa",
"8qaaaaa84qq   a  aaZKKKaaaaaaaaa",
"5eaaaaaytuu   aaaaaaZKPPaaaaaaaa",
"aaaaaaaaaaaa  aaaaaaaaPPPaaarrya",
"aaaaaaaaaaaaaaaaaaaaaaaPPAaaq68y",
"aaaaaaaaaaaaaaaaaaaaaaaaZKaaptqt",
"aaaaaaaaaaaaaaaaaaaaaaaaaaaaaaaa",
"aaaaaaaaaaaaaaaaaaaaaaaaaaaaaaaa",
"aaaaaaaaaaaaaaaaaaaaaaaaaaaaaaaa"
};
