/* XPM */
static char *_37a64f2b39247a7977a1e23ea79dccfPGB9sHVHz5qOrEdX[] = {
/* columns rows colors chars-per-pixel */
"32 32 129 2 ",
"   c #010102",
".  c #05050A",
"X  c #07080F",
"o  c #09090D",
"O  c #060611",
"+  c #070811",
"@  c #0A0B13",
"#  c #0B0D1B",
"$  c #0F1015",
"%  c #0E121E",
"&  c #111114",
"*  c #15151A",
"=  c #1A1A1E",
"-  c #0F0F2D",
";  c #0F1425",
":  c #0F112E",
">  c #121522",
",  c #151825",
"<  c #1B1C23",
"1  c #141528",
"2  c #151A2B",
"3  c #191D2D",
"4  c #1C1C38",
"5  c #1C212D",
"6  c #1C2134",
"7  c #1F2639",
"8  c #1E283C",
"9  c #222226",
"0  c #232329",
"q  c #28272D",
"w  c #232532",
"e  c #252935",
"r  c #2B2C34",
"t  c #21263C",
"y  c #302F32",
"u  c #302F3E",
"i  c #313037",
"p  c #33333C",
"a  c #39363F",
"s  c #282E44",
"d  c #2B3145",
"f  c #2D3449",
"g  c #333341",
"h  c #3C3B43",
"j  c #30374C",
"k  c #353C4E",
"l  c #3C3D48",
"z  c #373E53",
"x  c #383F54",
"c  c #3F3F59",
"v  c #394057",
"b  c #3C4359",
"n  c #434248",
"m  c #4B494E",
"M  c #434454",
"N  c #484752",
"B  c #4C4953",
"V  c #40415A",
"C  c #4F4E59",
"Z  c #504E56",
"A  c #53525A",
"S  c #454D64",
"D  c #495066",
"F  c #4A5168",
"G  c #575867",
"H  c #5A5A6B",
"J  c #646266",
"K  c #63616B",
"L  c #68656F",
"P  c #6C686D",
"I  c #676570",
"U  c #6E6C74",
"Y  c #6D6D7D",
"T  c #706D76",
"R  c #75737C",
"E  c #778F52",
"W  c #7B9355",
"Q  c #7E9658",
"!  c #839B5C",
"~  c #879F60",
"^  c #8DA565",
"/  c #7B7584",
"(  c #827D86",
")  c #828085",
"_  c #828089",
"`  c #888589",
"'  c #8D898F",
"]  c #8E8A93",
"[  c #918B95",
"{  c #96939B",
"}  c #99969A",
"|  c #9C99A0",
" . c #A19EA2",
".. c #A7A4AA",
"X. c #AAA6AD",
"o. c #AEA8AE",
"O. c #B1ACAF",
"+. c #ACA8B2",
"@. c #B2ADB5",
"#. c #B2AFB8",
"$. c #B4B0B7",
"%. c #B8B3B6",
"&. c #B3B1BA",
"*. c #BAB6BC",
"=. c #BEBABF",
"-. c #CAC5CA",
";. c #CDC9CF",
":. c #D2CCD2",
">. c #D6D3D6",
",. c #D8D1D5",
"<. c #D4D2D9",
"1. c #DAD6D9",
"2. c #DEDADE",
"3. c #E0DCDF",
"4. c #E1DEE0",
"5. c #E5E2E5",
"6. c #E9E4E7",
"7. c #EAE6E9",
"8. c #EEEAED",
"9. c #F1ECEF",
"0. c #F5F0F2",
"q. c #F7F2F4",
"w. c #F7F5F6",
"e. c #F9F4F5",
"r. c #FAF7F8",
"t. c #FDF8F9",
"y. c #FEFBFC",
"u. c #FEFCFC",
"i. c #FFFEFE",
/* pixels */
"^ ^ ^ ^ ^ ^ ^ ^ ^ ^ ^ ^ ^ ^ ^ ^ ^ ^ ^ ^ ^ ^ ^ ^ ^ ^ ^ ^ ^ ^ ^ ^ ",
"^ ^ ^ ^ ^ ^ ^ ^ ^ ^ ^ ^ ^ ^ o   ^ ^ ^ ^ ^ ^   ^ ^ ^ ^ ^ ^ ^ ^ ^ ",
"^ ! ^ ! W ! ! ^ ^ ^ ^ ^ @ A C   ^ ^ ^ ^ ^ ^   < 0 ^ ^ ^ ^ ^ ^ ^ ",
"^ Q ^ ! Q ~ ! ^ ^ ^ ^ o R 6.L     ^ ^ ^ ^ ^   h @.C # ^ ^ ^ ^ ^ ",
"^ ^ ^ ^ ^ ^ ^ ^ ^ ^   Z 8.i.*.r   ^ ^ ^ ^ ^   0 ;.2.a   ^ ^ ^ ^ ",
"^ ^ ^ ^ ^ ^ ^ ^ ^ ^ * *.i.8.K o ^ ^ ^ ^ ^ Q   * o.i.{ . ^ ^ ^ ^ ",
"^ ^ ^ ^ ^ ^ ^ ^ ^ ^ i 6.i.+.# ^ ^ ^ ^ ^ ^ ! Q   p 4.@.@ ^ ^ ^ ^ ",
"^ ^ ^ ^ ^ ^ ^ ^ ^   a 8.t.T   ^ ^ ^ ^ ^ ^ ^ ^   < :.$.@ ^ ^ ^ ^ ",
"^ ^ ^ ^ ^ ^ ^ ^ ^ ^ q 2.t.U   ^ ^ ^ ^ ^ ^ ^ ^   B 9.]   ^ ^ ^ ^ ",
"^ ^ ^ ^ ^ ^ ^ ^ ^ ^ + { i.X.* * p 9 = * o   ^ r =.,.p   ^ ^ ^ ^ ",
"^ ^ ^ ^ ^ ^ ^ ^ : 4 u l @.0.| I -.>.-.*...[ ' ;.e.R   ^ ^ ^ ^ E ",
"^ ^ ^ ^ ^ ^ ^ - c &.6.#.A X.t.9.e.i.i.i.i.i.i.i.t.;.N   ^ ^ ^ ! ",
"^ ^ ^ ^ ^ ^ # V <.i.i.i.5.2.t.i.i.i.i.i.i.i.i.i.i.i.;.0   ^ ^ ^ ",
"^ ^ ^ ^ ^ ^ 1 +.i.t.t.i.i.i.i.i.i.i.i.i.i.i.i.i.i.i.7.h   ^ ^ ^ ",
"^ ^ ^ ^ ^   g 2.i.t.i.i.i.i.i.i.i.e.3.4.r.i.i.i.i.i.7.h   ^ ^ ^ ",
"^ ^ ^ ~ ^   G 0.i.t.i.i.i.i.i.i.1.J 9 0 T 8.i.i.i.>._ <   ^ ^ ^ ",
"^ ^ ! W W . Y t.i.i.i.i.i.i.i.9.A       . %.i.i.6.n     ^ ^ ^ ^ ",
"^ ^ ^ ! Q   H q.i.i.i.i.i.i.i.2.9       . O.i.i.}       ^ ^ ^ ^ ",
"^ ^ ^   # r w #.y.i.i.i.i.i.i.9.A       m 6.i.t.P       ^ ^ ^ ^ ",
"^ ^ ^ ^ $ N M g U *.5.w.i.i.i.i.3.) J ` 4.i.i.i.o.*   ^ ^ ^ ^ ^ ",
"^ ^ ^ ^ ^   p / B 0 q A (  .=.>.4.6.6.6.4.1.-.} m o ^ ^ ^ ^ ^ ^ ",
"^ ^ ^ ^ ^   w ( [ g % ; , w w 5 r r y i 0 9 = . ^ ^ ^ ^ ^ ^ ^ ^ ",
"^ ^ ^ ^ ^ ^ ^ & < > 6 s S v 6 t f > . 7 3   ^ ^ ^ ^ ^ ^ ^ ^ ^ ^ ",
"^ ^ ^ ^ ^ ^ ^ ^ . 2 f S z 2 d b ,     + 5 + ^ ^ ^ ^ ^ ^ ^ ^ ^ ^ ",
"Q ! ^ ^ ^ ^ ^ Q # t S b 2 d S 5     . * . .   ^ ^ ^ ^ ^ ^ ^ ^ ^ ",
"E ! ^ ^ ^ ^ ^ + % b S 3 6 S k . o *   < &     ^ ^ ^ ^ ^ ^ ^ ^ ^ ",
"^ ^ ^ ^ ^ ^ ^ . 3 S x # j F e   @ * . @ . % . ^ ^ ^ ^ ^ ! ! ^ ^ ",
"^ ^ ^ ^ ^ ^ ^ . 3 S f # b D < & 9 . o . X 8 o ^ ^ ^ ^ ^ ! W Q ^ ",
"^ ^ ^ ^ ^ ^ ^ # 6 b 3 6 S k #   .     . + %   ^ ^ ^ ^ ^ ^ ~ ! ~ ",
"^ ^ ^ ^ ^ ^ ^ X , > + 6 5 + O @ # .   . .   ^ ^ ^ ^ ^ ^ ^ ^ ^ ^ ",
"^ ^ ^ ^ ^ ^ ^ ^ ^ ^ . . O ^ ^ @ @ + ^ ^ ^ ^ ^ ^ ^ ^ ^ ^ ^ ^ ^ ^ ",
"^ ^ ^ ^ ^ ^ ^ ^ ^ ^ ^ ^ ^ ^ ^ ^ ^ ^ ^ ^ ^ ^ ^ ^ ^ ^ ^ ^ ^ ^ ^ ^ "
};
