/* XPM */
static char *eb492af3cd3c4b8fe31e03e7d0ecac79WxZ2ylLKkZ5XmNQe[] = {
/* columns rows colors chars-per-pixel */
"32 32 82 1 ",
"  c #675F51",
". c #6A5D5A",
"X c #6E615A",
"o c #73665E",
"O c #707456",
"+ c #75745C",
"@ c #767C58",
"# c #7A785D",
"$ c #6F6764",
"% c #726662",
"& c #746B64",
"* c #746D6A",
"= c #796E6B",
"- c #747363",
"; c #7A7662",
": c #7F7F65",
"> c #76706B",
", c #79746D",
"< c #7B7A6B",
"1 c #777170",
"2 c #7C7472",
"3 c #7E7973",
"4 c #7F7978",
"5 c #81736E",
"6 c #807673",
"7 c #817B75",
"8 c #837D7B",
"9 c #887F7D",
"0 c #71894D",
"q c #778F52",
"w c #7B855C",
"e c #7F8B5F",
"r c #7C9455",
"t c #7F9758",
"y c #7E8264",
"u c #7E8963",
"i c #7C8269",
"p c #829A5B",
"a c #838C62",
"s c #82856C",
"d c #848A6E",
"f c #879B62",
"g c #8A9E65",
"h c #87936C",
"j c #8B9569",
"k c #8C9D69",
"l c #868773",
"z c #858972",
"x c #8A8D74",
"c c #84827B",
"v c #89827E",
"b c #8A8B7B",
"n c #8B9375",
"m c #8D9973",
"M c #8C927F",
"N c #8A987E",
"B c #8DA465",
"V c #8DA565",
"C c #8DA169",
"Z c #8EA469",
"A c #8FA16C",
"S c #90A567",
"D c #90A268",
"F c #93A86A",
"G c #878381",
"H c #868582",
"J c #878686",
"K c #888280",
"L c #8A8480",
"P c #898685",
"I c #8C8784",
"U c #8A8B81",
"Y c #898886",
"T c #8F8B85",
"R c #8A8789",
"E c #8B8A89",
"W c #8E8B8A",
"Q c #898C88",
"! c #8C8C8B",
"~ c gray55",
"^ c #908987",
"/ c #92908E",
/* pixels */
"VVVVVVVVVVVVVVVVVVVVVVVVVVVVVVVV",
"VVVVVVVVVVVVVVVVVVVVCm7WvlmVVVVV",
"VpVprtpfVVVVVVVVVVVexc!~~~W$&sVV",
"VtVprVCxVVVVVVVVVV@v!~~~~EWHGLLV",
"VVVVuyz,cVVppVVVVx&c!~~~~~~~~~!V",
"VVabHKWELVVVVVVVx3*&=&2GGJ~~~EEV",
"VCcWEW&W~~xVVVVV,ccdl333433Y~~~V",
"VAL3$$&%c~WbVVVVVVVVVVV+1,,U~bsV",
"Vj&=%.%38W~bkVVVVVVVVVVVyVVVwCVV",
"Vgs+> ,<i-QnCVVVVVVVVCs8LnVVVVVV",
"VVVVVVVVVVVVVVVVVVVVks3cITiVVVVq",
"VVVVVVVVVVVVVVVVVVVVhv8vP8ROVVVp",
"VVVVVVVVVVCm7Wvlmffkb!!PG*8vkVVV",
"VVVVVVVVVexc!~~~W$&svY~2~E38<fVV",
"VVVVVVVV@v!~~~~EWHGLL71Y~E!*InZV",
"VVVVFVfx&c!~~~~~~~~~!6&9.7/*^v:C",
"VVVVVCx3*&=&2GGJ~~~EE25XoX%*%=>g",
"VVCuyz,ccdl333433Y~~~8-;#+l32~UC",
"VabHKWELngku,+1,,U~bsmggVgAmbMdC",
"VcWEW&W~~xZfVVZSDgwCVNZVVVVVVVVV",
"VL3$$&%c~WbVVVVVVVVVVVVVVVVVVVVV",
"j&=%.%38W~bVVVVVVVVVVVVVVVVVVVVV",
"gs+> ,<i-QnVVVVVVVVCm7WvlmVVVVVV",
"VVVVVVVVfVVVVVVVVVexc!~~~W$&sVVV",
"rpVVVVVr0ppVpVVVV@v!~~~~EWHGLLVV",
"qpVVVVVVfVVVVVVVx&c!~~~~~~~~~!VV",
"VVVVVVVVVVVVVVVx3*&=&2GGJ~~~EEVV",
"VVVVVVVVVVVVVVV,ccdl333433Y~~~rV",
"VVVVVVVVVVVVVVVVVVVVVV+1,,U~bspf",
"VVVVVVVVVVVVVVVVVVVVVVVVVVVwCVVV",
"VVVVVVVVVVVVVVVVVVVVVVVVVVVVVVVV",
"VVVVVVVVVVVVVVVVVVVVVVVVVVVVVVVV"
};
