/* XPM */
static char *_ca678d538544393a0d3c68c9d001682gj7zWoaGFJQln5bE[] = {
/* columns rows colors chars-per-pixel */
"32 32 96 2 ",
"   c #676A4F",
".  c #696B4C",
"X  c #667F41",
"o  c #74794F",
"O  c #6B6E54",
"+  c #6F625E",
"@  c #716B5D",
"#  c #747A56",
"$  c #7B7F57",
"%  c #73725E",
"&  c #767B5A",
"*  c #7A7E5E",
"=  c #6F6B65",
"-  c #6E6A69",
";  c #756763",
":  c #736C65",
">  c #736C6B",
",  c #757464",
"<  c #797263",
"1  c #7C7C64",
"2  c #75706E",
"3  c #7B756E",
"4  c #7C7B6D",
"5  c #777171",
"6  c #7B7674",
"7  c #7E7975",
"8  c #7E7C7B",
"9  c #817676",
"0  c #807976",
"q  c #837E7B",
"w  c #887F7B",
"e  c #698243",
"r  c #6F854C",
"t  c #71864B",
"y  c #74894C",
"u  c #758352",
"i  c #7C8256",
"p  c #778F51",
"a  c #7C835B",
"s  c #7E8A5C",
"d  c #7B9355",
"f  c #7E9658",
"g  c #7E8166",
"h  c #7D8861",
"j  c #7E846A",
"k  c #818E5D",
"l  c #849C5C",
"z  c #828C64",
"x  c #81866C",
"c  c #859464",
"v  c #889665",
"b  c #879F60",
"n  c #8A9E63",
"m  c #86926A",
"M  c #8B926C",
"N  c #8D9D6B",
"B  c #909F6A",
"V  c #858671",
"C  c #878D74",
"Z  c #898E71",
"A  c #84827C",
"S  c #8E847E",
"D  c #8C8C7B",
"F  c #8C9573",
"G  c #8D9A75",
"H  c #8B947C",
"J  c #909B75",
"K  c #90947B",
"L  c #909979",
"P  c #8DA565",
"I  c #8EA369",
"U  c #90A466",
"Y  c #858383",
"T  c #898483",
"R  c #898384",
"E  c #898685",
"W  c #878A84",
"Q  c #8B8983",
"!  c #8C8980",
"~  c #898C82",
"^  c #8D8F80",
"/  c #8A8B84",
"(  c #8D8885",
")  c #8E8D87",
"_  c #8A8788",
"`  c #8A8889",
"'  c #8F8A8A",
"]  c #8E8C8B",
"[  c #8E8B8C",
"{  c #8D8D8C",
"}  c #908B8A",
"|  c #918C8B",
" . c #908A8C",
".. c #8A9280",
"X. c #8C9180",
"o. c #8E9187",
/* pixels */
"P P P P P P P P P P P P P P P P P P P P P P P P P P P P P P P P ",
"P P P P P P P P P P P P P P P P P P P P P P P P P P P P P P P P ",
"P l P l d l l P n v C N P P P P P P P P P P P P P P P P P P P P ",
"P f P l f b l P u D { D N I P P P P P P P P P P P P P P P P P P ",
"P P P P P P P P & ~ { ) ! Z J N n P P P P P P P P P P P P P P P ",
"P P P P P P P P & 3 { { E > A 4 z P P P P f d l P P P P P P P P ",
"P P P P P P P P a 7 2 } 5 9 6 0 S g # v P P f f P P P P P P P P ",
"P P P P P P P P & / q 0 q R ( 0 q Y : 1 Z u P P P P P P P P P P ",
"P P P P P P P P & / ] > { ` ] Q w w ; + S i P P P P P P P P P P ",
"P P P P P P P P & / { ` { { ] ] 6 q / E T o P P P P P P P P P P ",
"P P P P P P P n & / { { { { { { Y E { { ] . P P P P P P P P P p ",
"P P P P P P P P & / { { { { { { { { { { ] . P P P P P P P P P l ",
"P P P P P P P P & ` { { ` Y { { Y _ { { ) . P P P P P P P P P P ",
"P P P P P P P P & / { { { { { { 6 q { { ~ # P P P P P P P P P P ",
"P P P P P P P P & / { { { { { { 8 Y { { X.a P P P P P P P P P P ",
"P P P b P P P P & / { { { { { { E Y ' { H a P P b P P P P P P P ",
"P P l d d P P P & W { { Y { { Y Y _ ' 0 ^ s P t d P P P P P P P ",
"P P P l P P P P & / { { R 6 7 E ` { { R : s P l P P P P P P P P ",
"P P P P P P P r   / { { [ q 2 { { { { { Y $ P P P P P P y n P P ",
"l P P F D G P P # / 8 { { Y > { { { { { { O P P P P P P n y n P ",
"P P b # O O k P * /  .| { q > { { { { { { , P P P k @ w < c P P ",
"P P P P N x 4 v 1 ` { - { Y 5 { { { { { { 3 P P k , ( ' | M P P ",
"P P P c A q A 4 % Q o.) ] / T ] o...] ] { D U v , ` Y / ' % c P ",
"P P N A { ` q 7 7 D Z M J Z j H G I G H K B P N D q 7 6 A D $ P ",
"P P F q Y ` A E ] / = * I P b P P P P N P P P N V q { Y 7 M s P ",
"P P c z m F L L G F h s P P P P P P P P P P P j 5 R E ` q * P P ",
"P P P P P P P P P P P P p d P P P P P P P P P c m F F F M s P P ",
"P P P P P P P P P P P P e X f P P l b P P P P P P P P P P P P P ",
"P P P P P P P P P P P P l l b P P l b P P P P P P P P P P b l b ",
"P P P P P P P P P P P P P P P P P P P P P P P P P P P P P P P P ",
"P P P P P P P P P P P P P P P P P P P P P P P P P P P P P P P P ",
"P P P P P P P P P P P P P P P P P P P P P P P P P P P P P P P P "
};
