/* XPM */
static char *f90ae06a45d54b66f60c338c8c4b0349FVZxpNm5hFJmVWDs[] = {
/* columns rows colors chars-per-pixel */
"32 32 13 1 ",
"  c black",
". c #553907",
"X c #778F52",
"o c #7A9053",
"O c #7D9556",
"+ c #7F9758",
"@ c #82985A",
"# c #849A5C",
"$ c #869E5E",
"% c #879F60",
"& c #8AA263",
"* c #8BA464",
"= c #8DA565",
/* pixels */
"================================",
"================================",
"=$=@o@@&====........============",
"=+&@O%$&=..............=========",
"========................========",
"======......        ......======",
"=====....              ....=====",
"=====..                  ..=====",
"====..                    ..====",
"===..                      ..===",
"===.                        .=&X",
"===.                        .==@",
"==.                          .==",
"==.                          .==",
"==                            ==",
"==                            ==",
"==                            ==",
"==                            ==",
"==                            ==",
"==                            ==",
"==                            ==",
"===                          ===",
"===                          ===",
"====                        ====",
"O@==                        ====",
"X#===                      =====",
"======                    ==$$&=",
"=======                  ===@oO&",
"=========              =====*%@%",
"============        ============",
"================================",
"================================"
};
