/* XPM */
static char *_c99f55fa44a4e87d43ee372a920651c3hGRbA8Xoz6ebBlQ[] = {
/* columns rows colors chars-per-pixel */
"32 32 145 2 ",
"   c None",
".  c #4A4241",
"X  c #514643",
"o  c #514847",
"O  c #594F4E",
"+  c #57514E",
"@  c #5C5553",
"#  c #605651",
"$  c #625956",
"%  c #6D5D56",
"&  c #645D5C",
"*  c #6D5E59",
"=  c #725D54",
"-  c #715E59",
";  c #6E644F",
":  c #6E6D4C",
">  c #726C4E",
",  c #6E704A",
"<  c #6F6353",
"1  c #6F6E51",
"2  c #66605C",
"3  c #6D625C",
"4  c #716254",
"5  c #706B52",
"6  c #73625C",
"7  c #79665F",
"8  c #736A5C",
"9  c #727252",
"0  c #737358",
"q  c #676362",
"w  c #6C6462",
"e  c #6F6967",
"r  c #6E6968",
"t  c #746661",
"y  c #786761",
"u  c #746965",
"i  c #7A6B64",
"p  c #746D6B",
"a  c #7A6E6A",
"s  c #7B7067",
"d  c #75706E",
"f  c #7C726D",
"g  c #767272",
"h  c #7B7573",
"j  c #7E7976",
"k  c #7D7A79",
"l  c #81726D",
"z  c #817672",
"x  c #837975",
"c  c #897E77",
"v  c #837D7B",
"b  c #887F7B",
"n  c #7F8072",
"m  c #838177",
"M  c #85817D",
"N  c #8A817E",
"B  c #91847F",
"V  c #817F80",
"C  c #858382",
"Z  c #8B8584",
"A  c #8C8886",
"S  c #8D8C8B",
"D  c #908C8A",
"F  c #928C89",
"G  c #908C8D",
"H  c #948E8D",
"J  c #918C8A",
"K  c #988C8A",
"L  c #95908F",
"P  c #90908E",
"I  c #969190",
"U  c #949291",
"Y  c #979290",
"T  c #959392",
"R  c #969492",
"E  c #969393",
"W  c #999390",
"Q  c #9B9694",
"!  c #9A9391",
"~  c #9F9C9B",
"^  c #9E9898",
"/  c #A09594",
"(  c #A39C96",
")  c #A49994",
"_  c #A09A98",
"`  c #A49D9B",
"'  c #A29D9C",
"]  c #A39E9D",
"[  c #A39F9E",
"{  c #A4A09E",
"}  c #A6A1A0",
"|  c #A7A4A3",
" . c #ACA6A5",
".. c #A9A5A4",
"X. c #ADA7A8",
"o. c #ABA8A8",
"O. c #ACADAD",
"+. c #B2AFAE",
"@. c #B3ACA9",
"#. c #B8ADAA",
"$. c #BBB2AF",
"%. c #B4AFB0",
"&. c #B7B5B3",
"*. c #BAB6B6",
"=. c #B9B6B5",
"-. c #BAB8B7",
";. c #BFB8B6",
":. c #BBBAB9",
">. c #BEBAB8",
",. c #BDBABA",
"<. c #BDBCBC",
"1. c #C0B5AF",
"2. c #C0BCBB",
"3. c #C1BDBF",
"4. c #C6C0BF",
"5. c #CAC0BF",
"6. c #C2BFC0",
"7. c #C2C1C0",
"8. c #C2C1C1",
"9. c #C3C3C3",
"0. c #C4C2C3",
"q. c gray77",
"w. c #C7C4C4",
"e. c #C6C5C4",
"r. c #C6C5C5",
"t. c #C4C3C3",
"y. c #C8C6C5",
"u. c #C8C6C7",
"i. c #CAC5C4",
"p. c #CACACA",
"a. c #D0CECD",
"s. c #D5CCC8",
"d. c #D8CECC",
"f. c #D3D1D0",
"g. c #D7D6D5",
"h. c #D8D6D5",
"j. c #E2D9D7",
"k. c #E5E3E2",
"l. c #E5E3E2",
"z. c #EAE3E1",
"x. c #ECE9E7",
"c. c #F4F1EE",
"v. c #F5F4F3",
"b. c #F9F7F7",
"n. c #FEFEFD",
/* pixels */
"      * % % % % % % % * * 3 x C A A S S S S S A M f * %         ",
"      % * 3 3 % % 6 a u a M A S S S S S S S S S S A t %         ",
"      % d C N h x A N a C S S S S S S S S S S S S G l =         ",
"      % j S S S S C p v S S S S S A v k j v C A A S z % %       ",
"    * % v S A A j u p v v k M S V g v v v h q d A e t 6 %       ",
"    * * M S j a j C A k A D w A r } H e D 2.&.f.k.M b i %       ",
"    * 3 C v p x A M v h & @ $ h j ' @ . + +.r.a.Q q A z % 3     ",
"    % 6 b p v } h v u @ b F W a F *.j & j :.9.g.,.@ h N - -     ",
"    = 6 f v j v d A x a x w C u L i.9.,.6.0.r.| w e A A 6 -     ",
"    = 6 f F v v v v a f M e @ 2 I r.-.X.%.9.r.I u C S S a -     ",
"  % % s A A v ' g h x # f ` ^ p I ' w O $ o.r.I g S S S f -     ",
"  % 6 ( R S M d k v u % $ w g w F  .3 X o ~ i.~ p S S A u %     ",
"  6 $.v.p.E S A S G v * f W p j j 4...u g *.r.:.h k S S z -     ",
"  ! b.n.n.9.S S S S x 3 C ..k A p ^ i.3.<.9.t.h.*.& A S A t     ",
"  s.n.n.v.O.S S S v u f C C A S C w W &.*.*.*.i.W q A S S a *   ",
"i 1.c.n.0.S S A I A d C S S S S S j 2 3 w & & ! k.v v S S i *   ",
"* ) i.4.N s u u / ;.{ P S S A S S S M j d p a u S p k S S u *   ",
"x j.z.@.t * - 6 N #.$.C v z u v S S S S S S S S C v A S S h *   ",
"B z.n.x.H M M b s f B a u 6 = 6 u a h v v m M M n M S S S N -   ",
"6 K d.5.N b C Z z 3 x z c c 6 y l a u u 8 5 9 9 , 0 i f x x 6 % ",
"w * l a 6 6 6 6 6 - 6 * 6 i - 7 x x x x f 9 , , , : 8 8 6 6 6 % ",
"  6 = = i 6 = = 6 7 6 = = = = = = = = = < : , , , , 5 6 i i 3 6 ",
"    4 = 6 = = = = = = = = = = = = = = = = ; , , : : 5 % = 6 t   ",
"    6 - i 6 = = = = = = = = = = = = = = = ; : , : : 4 = = 6     ",
"    6 = i 6 = = = = = = = = = = = = = = = < : , > < = = = 6     ",
"      = i N z i 6 6 % = = = = = = = = = = < : : 4 = = = = 6     ",
"      - 6 b A A C b v z f i i 6 6 6 - = % < , : % = = = 6       ",
"      6 - 6 t u a z x b N N N C Z N b x f 0 , 5 6 = 6 6         ",
"      t 3 6 6 6 6 6 6 6 6 6 t u a f z x x 0 , 0 7 6 l 6         ",
"        6 6 6 6 6 6 6 6 6 - - = = = = < : : , 5 4 6 i 6         ",
"        t 6 6 6 6 - - - - = = = = = - 4 : , 1 < 6 = * 3         ",
"                      t t 6 6 6 6 6 - < : : 8 s x u t           "
};
