/* XPM */
static char *f8b936004c7840f5e830dff148b47020XD3oac8YiTweaiUq[] = {
/* columns rows colors chars-per-pixel */
"32 32 56 1 ",
"  c #92A46C",
". c #91A36B",
"X c #8B9D65",
"o c #869761",
"O c #7E8F5A",
"+ c #859760",
"@ c #869861",
"# c #8D9F67",
"$ c #84965F",
"% c #8FA16A",
"& c #82945D",
"* c #8C9E67",
"= c #8A9C65",
"- c #90A26A",
"; c #8FA169",
": c #8EA068",
"> c #8B9D66",
", c #889A63",
"< c #91A46B",
"1 c #91A26B",
"2 c #90A26B",
"3 c #91A46C",
"4 c #91A36C",
"5 c #82945F",
"6 c #80925C",
"7 c #82945E",
"8 c #81935C",
"9 c #8EA16A",
"0 c #7B8D58",
"q c #879962",
"w c #92A56C",
"e c #8D9F68",
"r c #899B64",
"t c #80925D",
"y c #8EA069",
"u c #8C9E68",
"i c #8FA26A",
"p c #859660",
"a c #758552",
"s c #7F905B",
"d c #83955F",
"f c #839560",
"g c #7A8C58",
"h c #7C8D59",
"j c #899B65",
"k c #7B8D57",
"l c #81935D",
"z c #92A46D",
"x c #768854",
"c c #869862",
"v c #7C8E59",
"b c #889963",
"n c #8B9D67",
"m c #7D8F5A",
"M c #90A36B",
"N c white",
/* pixels */
"                                ",
"   ..                           ",
".X.oO+@#                        ",
".$%@&*=#  -;-                   ",
"   .      :>,<       123        ",
"            .       456>        ",
"                     =78;       ",
"                      .:.       ",
"                                ",
"                               .",
"                              90",
"                              4q",
"                               w",
"                                ",
"                                ",
"  ;*:                 ;e*3      ",
" wrOt%   2yu*%*i      pas.      ",
"  1>dr   fghOjke      2>%       ",
"    <.   .;%  .                 ",
"                                ",
"                                ",
"                                ",
"                                ",
"       y*::..                   ",
"lo    zlxc+;X                   ",
"vb     ;n22 .                   ",
"                            >j: ",
"                            +m&;",
"                            M*+*",
"                                ",
"                                ",
"                                "
};
