/* XPM */
static char *_004[] = {
/* columns rows colors chars-per-pixel */
"60 60 165 2 ",
"   c #000001",
".  c #05060A",
"X  c #07080E",
"o  c #0B0B0D",
"O  c #070910",
"+  c #0B0C13",
"@  c #0D0D1A",
"#  c #0E111B",
"$  c #111214",
"%  c #14151B",
"&  c #1B1A1D",
"*  c #131524",
"=  c #131825",
"-  c #1C1C21",
";  c #16162C",
":  c #151B2A",
">  c #1B1F28",
",  c #161930",
"<  c #201F22",
"1  c #1B212E",
"2  c #1F2433",
"3  c #222227",
"4  c #26262B",
"5  c #2C2B2E",
"6  c #232734",
"7  c #252935",
"8  c #2B2B33",
"9  c #222A3D",
"0  c #2B2E3B",
"q  c #312F34",
"w  c #2F3039",
"e  c #323235",
"r  c #33333B",
"t  c #3B393D",
"y  c #50652B",
"u  c #556B32",
"i  c #586D36",
"p  c #5D7337",
"a  c #5D743A",
"s  c #617637",
"d  c #62773D",
"f  c #637A3D",
"g  c #1E2D45",
"h  c #252C42",
"j  c #273246",
"k  c #2A3245",
"l  c #223048",
"z  c #2C354A",
"x  c #3A3B43",
"c  c #323A4E",
"v  c #383C4C",
"b  c #2F3A51",
"n  c #353D53",
"m  c #413F46",
"M  c #374156",
"N  c #3A4156",
"B  c #374259",
"V  c #3B455B",
"C  c #3F485E",
"Z  c #44424A",
"A  c #474549",
"S  c #4B494E",
"D  c #4B4B52",
"F  c #40485E",
"G  c #4D4A58",
"H  c #514F57",
"J  c #504F5C",
"K  c #53535B",
"L  c #5A595D",
"P  c #667C42",
"I  c #687F44",
"U  c #414A60",
"Y  c #575661",
"T  c #585662",
"R  c #5D5B63",
"E  c #64626B",
"W  c #69666E",
"Q  c #6E696E",
"!  c #616371",
"~  c #6E6C74",
"^  c #706C71",
"/  c #6F717B",
"(  c #74737C",
")  c #79747C",
"_  c #7B797F",
"`  c #68803F",
"'  c #6B8244",
"]  c #6E8449",
"[  c #71864A",
"{  c #748B4D",
"}  c #758C51",
"|  c #798E53",
" . c #7B9354",
".. c #7C9259",
"X. c #819656",
"o. c #80965B",
"O. c #859C5E",
"+. c #849B60",
"@. c #899F62",
"#. c #87A060",
"$. c #8DA565",
"%. c #8EA569",
"&. c #90A667",
"*. c #90A569",
"=. c #7E7B83",
"-. c #7B7C8B",
";. c #838086",
":. c #84838A",
">. c #8D878C",
",. c #8E888F",
"<. c #838492",
"1. c #8D8A91",
"2. c #858B99",
"3. c #918E94",
"4. c #908E99",
"5. c #969296",
"6. c #959399",
"7. c #9A999D",
"8. c #A1989B",
"9. c #9A9CA5",
"0. c #9E9EAA",
"q. c #A19DA3",
"w. c #A39FA9",
"e. c #A2A0A4",
"r. c #A8A4A7",
"t. c #A5A4AB",
"y. c #AAA6AE",
"u. c #AAA8AE",
"i. c #A7AAB3",
"p. c #ACABB3",
"a. c #B4AEB5",
"s. c #B2AFB8",
"d. c #AFB1B9",
"f. c #B6B4B7",
"g. c #B8B2B6",
"h. c #B4B2B9",
"j. c #B9B4BB",
"k. c #BEBABF",
"l. c #BCBAC2",
"z. c #C3BEC5",
"x. c #C4C1C7",
"c. c #C6C2CA",
"v. c #CBC8CD",
"b. c #CECDD2",
"n. c #D2CDD2",
"m. c #D7D2D6",
"M. c #D8D1D6",
"N. c #D6D5DA",
"B. c #DAD6DB",
"V. c #DBD9DD",
"C. c #E0D8DD",
"Z. c #E1DFE2",
"A. c #E5E3E6",
"S. c #E8E1E4",
"D. c #E9E7EA",
"F. c #ECEAEC",
"G. c #F3ECED",
"H. c #EFEEF0",
"J. c #F3EFF1",
"K. c #F5F3F4",
"L. c #FBF5F6",
"P. c #FAF7F8",
"I. c #FDF7F8",
"U. c #FEFDFE",
"Y. c white",
/* pixels */
"$.$.$.$.$.$.$.$.$.$.$.$.$.$.$.$.$.$.$.$.$.$.$.$.$.$.$.$.$.$.$.$.$.$.$.$.$.$.$.$.$.$.$.$.$.$.$.$.$.$.$.$.$.$.$.$.$.$.$.$.",
"$.$.$.$.$.$.$.$.$.$.$.$.$.$.$.$.$.$.$.$.$.$.$.$.$.$.$.$.$.$.$.$.$.$.$.$.$.$.$.$.$.$.$.$.$.$.$.$.$.$.$.$.$.$.$.$.$.$.$.$.",
"$.$.$.$.$.$.$.$.$.$.$.$.$.$.$.$.$.$.$.$.$.$.$.$.$.  o . $.$.$.$.$.$.$.$.$.$.$.$.$.$.$.$.$.$.$.$.$.$.$.$.$.$.$.$.$.$.$.$.",
"$.$.$.$.$.$.$.$.$.$.$.$.$.$.$.$.$.$.$.$.$.$.$ r & r H & $.$.$.$.$.$.$.$.$.$.$.$.$..   $.$.$.$.$.$.$.$.$.$.$.$.$.$.$.$.$.",
"$.$.$.$.$.$.$.$.$.$.$.$.$.$.$.$.$.$.$.$.$.. R z.6.j.5.3 $.$.$.$.$.$.$.$.$.$.$.$.  - Z o . .   $.$.$.$.$.$.$.$.$.$.$.$.$.",
"$.$.$.$.$.$.$.$.$.$.$.$.$.$.$.$.$.$.$.$.  - v.Y.P.n.S $.$.$.$.$.$.$.$.$.$.$.$.$.$.3 y.( T K & $.$.$.$.$.$.$.$.$.$.$.$.$.",
"$.$.$.$.$.$.$.$.$.$.$.$.$.$.$.$.$.$.$.$.  T P.Y.P.3.& $.$.$.$.$.$.$.$.$.$.$.$.$.$.$ 6.D.V.z.t $.$.$.$.$.$.$.$.$.$.$.$.$.",
"$.$.$.$.$.$.$.$.$.$.$.$.$.$.$.$.$.$.$.$.  w.Y.Y.Z.R $.$.$.$.$.$.$.$.$.$.$.$.$.$.$.. K P.Y.J.R . $.$.$.$.$.$.$.$.$.$.$.$.",
"$.$.$.$.$.$.$.$.$.$.$.$.$.$.$.$.$.$.$.$.O m.Y.Y.c.t $.$.$.$.$.$.$.$.$.$.$.$.$.$.$.$.e Z.Y.I._ $ $.$.$.$.$.$.$.$.$.$.$.$.",
"$.$.$.$.$.$.$.$.$.$.$.$.$.$.$.$.$.$.$.  : G.Y.Y.f.4 #.$.$.$.$.$.$.$.$.$.$.$.$.$.$.$.3 l.Y.Y.:.% $.$.$.$.$.$.$.$.$.$.$.$.",
"$.$.$.$.$.$.$.$.$.$.$.$.$.$.$.$.$.$.$.  8 I.Y.Y.u.% $.#.$.$.$.$.$.$.$.$.$.$.$.%.$.$.& w.Y.Y.1.& &.$.$.$.$.$.$.$.$.$.$.$.",
"#.$.$.$.$.$.$.$.$.$.$.$.$.$.$.$.$.$.$.  w L.Y.Y.t.# #.' #.$.$.$.$.$.$.$.$.o.O.%.a ] & q.Y.Y.:.% ' s $.$.$.$.$.$.$.$.$.$.",
"] $...%.*.$. .$.$.$.$.$.$.$.$.$.$.$.$.  7 J.Y.Y.h.3 O.P $.$.$.$.$.$.$.$.$.d u ..i d < s.Y.Y.( + y O.$.$.$.$.$.$.$.$.$.$.",
"[ ' ..%.%.d { %.$.$.$.$.$.$.$.$.$.$.$.$.# S.Y.Y.b.m   #.$.$.$.$.$.$.$.$.$.$.$.$.O.  8 n.Y.F.K . $.$.$.$.$.$.$.$.$.$.$.$.",
"$.' @.%.' f $.$.$.$.$.$.$.$.$.$.$.$.$.$.  h.Y.Y.D.W .         X $ $ + o       $.$.. Y J.Y.l.q $.$.$.$.$.$.$.$.$.$.$.$.$.",
"$.#.$.$.o.@.&.$.$.$.$.$.$.$.$.$.$.$.$.$.  K P.Y.P.6.& # r K Q >.7.7.5.;.^ D - .   $ 4.Y.A.~ o $.$.$.$.$.$.$.$.$.$.$.$.$.",
"$.$.$.$.$.$.$.$.$.$.$.$.$.$.$.$.$.$.$.$.$.% a.Y.Y.m.S 0 i.V.D.I.Y.Y.Y.K.F.N.f.8.W 0 <.G.p.4   $.$.$.$.$.$.$.$.$.$.$.$.$.",
"$.$.$.$.$.$.$.$.$.$.$.$.$.$.$.$.$.$.$.$.$.  x v.Y.P.u.r ! S.Y.Y.Y.Y.Y.Y.Y.Y.Y.I.D.b.B.M.R . $.$.$.$.$.$.$.$.$.$.$.$.$.$.",
"$.$.$.$.$.$.$.$.$.$.$.$.$.$.$.$.$.$.$.$.$.$.. A n.Y.K.4.v n.Y.Y.Y.Y.Y.Y.Y.Y.Y.Y.Y.Y.Y.Z.R   $.$.$.$.$.$.$.$.$.$.$.$.$.$.",
"$.$.$.$.$.$.$.$.$.$.$.$.$.$.$.$.$.$.$.$.$.$.. & Z c.Y.P.j.C.Y.Y.Y.Y.Y.Y.Y.Y.Y.Y.Y.Y.Y.I.7.% $.$.$.$.$.$.$.$.$.$.$.$.$.$.",
"$.$.$.$.$.$.$.$.$.$.$.$.$.$.$.$.$.$.$.$.$.  5 z.s.Z.Y.Y.Y.Y.Y.Y.Y.Y.Y.Y.Y.Y.Y.Y.Y.Y.Y.Y.N.D   $.$.$.$.$.$.$.$.$.$.$.$.$.",
"$.$.$.$.$.$.$.$.$.$.$.$.$.$.$.$.$.$.$.$.$.. E L.Y.Y.Y.Y.Y.Y.Y.Y.Y.Y.Y.Y.Y.Y.Y.Y.Y.Y.Y.Y.J.~ . $.$.$.$.$.$.$.$.$.$.$.$.$.",
"$.$.$.$.$.$.$.$.$.$.$.$.$.$.$.$.$.$.$.$.$.o 1.Y.Y.Y.Y.Y.Y.Y.Y.Y.Y.Y.Y.Y.Y.Y.Y.Y.Y.Y.Y.Y.P.;.+ $.$.$.$.$.$.$.$.$.$.$.$.$.",
"$.$.$.$.$.$.$.$.$.$.$.$.$.$.$.$.$.$.$.$.$.o y.Y.Y.Y.Y.Y.Y.Y.Y.Y.Y.Y.Y.Y.Y.Y.Y.Y.Y.Y.Y.Y.Y.6.% $.$.$.$.$.$.$.$.$.$.$.$.$.",
"$.$.$.$.$.$.$.$.$.$.$.$.$.$.$.$.$.$.$.$.$.o l.Y.Y.Y.Y.Y.Y.Y.Y.Y.Y.Y.Y.Y.Y.Y.Y.Y.Y.Y.Y.Y.Y.e.- $.$.$.$.$.$.$.$.$.$.$.$.$.",
"$.$.$.$.$.$.$.$.$.$.$.$.$.$.$.$.$.$.$.$.$.o c.Y.Y.Y.Y.Y.Y.Y.Y.Y.Y.Y.Y.Y.Y.Y.Y.Y.Y.Y.Y.Y.Y.q.& $.$.$.$.$.$.$.$.$.$.$.$.$.",
"$.$.$.$.$.$.$.$.$.$.$.$.$.$.$.#.%.*.#.#.$.o x.Y.Y.Y.Y.Y.Y.Y.Y.Y.P.c.) =.N.Y.Y.Y.Y.Y.Y.G.G.5.% $.$.$.$.$.$.$.$.$.$.$.$.$.",
"$.$.$.$.$.$.$.$.$.$.$.$.$.#.$.' o...| { $.o p.Y.Y.Y.Y.Y.Y.Y.Y.P.a.5 o + E Z.Y.Y.Y.Y.V.L Q ~ $ $.$.$.$.$.$.$.$.$.$.$.$.$.",
"$.$.$.$.$.$.$.$.$.$.$.$.$.$.@.u d } I | $.o ,.Y.Y.Y.Y.Y.Y.Y.Y.F.m       o r.P.Y.Y.Y.g.o & 0 O $.$.$.$.$.$.$.$.$.$.$.$.$.",
"$.$.$.$.$.$.$.$.$.$.$.$.$.$.              . K L.Y.Y.Y.Y.Y.Y.Y.c.O         ) H.Y.Y.K.:.  . @ . $.$.$.$.$.$.$.$.$.$.$.$.$.",
"$.$.$.$.$.$.$.$.$.$.$.$.$.$.  = l g b V B : 8 m.Y.Y.Y.Y.Y.Y.Y.t.          =.J.Y.Y.H.E   . O   $.$.$.$.$.$.$.$.$.$.$.$.$.",
"$.$.$.$.$.$.$.$.$.$.$.$.$.$.$.. 2 j z n N h $ <.P.Y.Y.Y.Y.Y.Y.9.        . q.P.Y.Y.F.J   . + . $.$.$.$.$.$.$.$.$.$.$.$.$.",
"$.$.$.$.$.$.$.$.$.$.$.$.$.$.$.. + % % % # , . x x.Y.Y.Y.Y.Y.Y.i.        8 v.Y.Y.Y.F.G   X O   $.$.$.$.$.$.$.$.$.$.$.$.$.",
"$.$.$.$.$.$.$.$.$.$.$.$.$.  O : j V U C b 2 # + R B.Y.Y.Y.Y.Y.n.-     . W A.Y.Y.Y.H.E + 6 * $.$.$.$.$.$.$.$.$.$.$.$.$.$.",
"$.$.$.$.$.$.$.$.$.$.$.$.$.  # : 1 7 0 n C U c % % ~ A.Y.Y.Y.Y.K.:.4 > K x.Y.Y.Y.Y.P.k.) Y $ $.$.$.$.$.$.$.$.$.$.$.$.$.$.",
"$.$.$.$.$.$.$.$.$.$.$.$.$.          . # 1 z C c # % E v.P.Y.Y.Y.F.d.i.N.P.Y.Y.Y.Y.Y.K.t.q   $.$.$.$.$.$.$.$.$.$.$.$.$.$.",
"%.$.$.$.$.$.$.$.$.$.$.$.$.$.$.$.        + + 2 n z = @ t / l.L.Y.Y.Y.Y.Y.Y.Y.Y.Y.I.v.( 5 . $.$.$.$.$.$.$.$.$.$.$.$.$.$.$.",
"$.$.$.$.$.$.$.$.$.$.$.$.$.$.$.$.  . @ @ ; O . % k n k : @ 4 A L -.s.c.z.p.0.2.! S 5 +   $.$.$.$.$.$.$.$.$.$.$.$.$.$.$.$.",
"$.$.$.$.$.$.$.$.$.$.$.$.$.$.$.$.$.  . 9 n M z * o 2 B V c 9 * o + % & & % $ + .       $.$.$.$.$.$.%.$.O.$.#.#.$.$.$.$.$.",
"$.$.$.$.$.$.$.$.$.$.$.$.$.$.$.$.$.$.    + = z V k # @ 9 B U F V N c j : @ * .   $.$.$.$.$.$.$.$.d +.P | *.| [ $.$.#. .$.",
"$.$.$.$.$.$.$.$.$.$.$.$.$.$.$.$.$.$.$.$.      @ h z = . . % h M M z : .       $.$.$.$.$.$.$.$.O.a } p %.%.d @.$.$.O.' $.",
"$.$.$.$.$.$.$.$.$.$.$.$.$.$.$.$.%.$.O.$.          . X O O .                   $.$.$.$.$.$.$.$.%.+.+.] $.*.@.%.$.$.$.#.$.",
"$.$.$.$.$.$.$.$.$.$.$.$.$.$.$.d +.P | *.                          .             $.$.$.$.$.$.$.$.$.$.$.$.$.$.$.$.$.$.$.$.",
"$.$.$.$.$.$.$.$.$.$.$.$.$.$.O.a } p %.%.      $.O.'                             $.$.$.$.$.$.$.$.$.$.$.$.$.$.$.$.$.$.$.$.",
"$.$.$.$.$.$.$.$.$.$.$.$.$.$.%.+.+.] $.*.    $.$.$.#.                          $.$.$.$.$.$.$.$.$.$.$.$.$.$.$.$.$.$.$.$.$.",
"$.$.$.$.$.$.$.$.$.$.$.$.$.$.$.$.$.$.$.$.$.$.$.$.$.$.                        $.$.$.$.$.$.$.$.$.$.$.$.$.$.$.$.$.$.$.$.$.$.",
"$.$.$.$.$.$.$.$.$.$.$.$.$.$.$.$.$.$.$.$.$.$.$.$.$.$.                              $.$.$.$.$.$.$.$.$.$.$.$.$.$.$.$.$.$.$.",
"$.$.$.$.$.$.$.$.$.$.$.$.$.$.$.$.$.$.$.$.$.$.$.$.$.$.                                $.$.$.$.$.$.$.$.$.$.$.$.$.$.$.$.$.$.",
"$.$.$.$.$.$.$.$.$.$.$.$.$.$.$.$.$.$.$.$.$.$.$.$.$.$.                                $.$.$.$.$.$.$.$.$.$.$.$.$.$.$.$.$.$.",
"$.$.$.$.$.$.$.$.$.$.$.$.$.$.$.$.$.$.$.$.$.$.$.$.$.$.                                $.$.$.$.$.$.$.$.$.$.$.$.$.$.$.$.$.$.",
"$.$.$.$.$.$.$.$.$.$.$.$.$.$.$.$.$.$.$.$.$.$.$.$.$.$.$.                              $.$.$.$.$.$.$.$.$.$.$.$.$.$.$.$.$.$.",
"$.$.$.$.$.$.$.$.$.$.$.$.$.$.$.$.$.$.$.$.$.$.$.$.$.$.$.                              $.$.$.$.$.$.$.$.$.$.$.$.$.$.$.$.$.$.",
"$.$.$.$.$.$.$.$.$.$.$.$.$.$.$.$.$.$.$.$.$.$.$.$.$.$.$.$.                          $.$.$.$.$.$.$.$.$.$.$.$.$.$.$.$.$.$.$.",
"$.X.$.$.$.$.$.$.$.$.$.$.$.$.$.$.$.$.$.$.$.$.$.$.$.$.$.$.$.              $.$.$.    $.$.$.$.$.$.$.$.$.$.$.$.$.$.$.$.$.$.$.",
"$.s $.$.$.$.$.$.$.$.$.$.$.$.$.$.$.$.$.$.$.$.$.$.$.$.$.$.$.$.$.          $.$.#.$.$.$.$.$.$.$.$.$.$.$.$.$.$.$.$.$.$.$.$.$.",
"#.s $.#.$.$.$.$.$.$.$.$.$.$.$.$.$.$.$.$.$.$.$.$.$.$.$.$.$.$.$.        $.#.#.' #.#.#.$.#.$.$.$.$.$.$.$.$.$.$.$.$.$.$.$.$.",
"O.f #.` $.$.$.$.$.$.$.$.$.$.$.$.$.$.$.$.$.$.$.$.$.$.$.$.$.$.$.$.  $.$.$. . .[ $.f  .O.p #.$.$.$.$.' O.$.$.$.$.$.$.$.$.$.",
"$. .#.' $.$.$.$.$.$.$.$.$.$.$.$.$.$.$.$.$.$.$.$.$.$.$.$.$.$.$.$.$.$.$.$. . .$.$.| $.@.{ $.$.$.$. .d #.$.$.$.$.$.$.$.$.$.",
"$.$.$.O.$.$.$.$.$.$.$.$.$.$.$.$.$.$.$.$.$.$.$.$.$.$.$.$.$.$.$.$.$.$.$.$.$.O.$.$.$.$.$.$.$.$.$.$.$.$.$.$.$.$.$.$.$.$.$.$.",
"$.$.$.$.$.$.$.$.$.$.$.$.$.$.$.$.$.$.$.$.$.$.$.$.$.$.$.$.$.$.$.$.$.$.$.$.$.$.$.$.$.$.$.$.$.$.$.$.$.$.$.$.$.$.$.$.$.$.$.$."
};
