/* XPM */
static char *ac0a71b4c43b490cb187b3cc7a7a0518XAMxFTxgnarxP7F4[] = {
/* columns rows colors chars-per-pixel */
"60 60 121 2 ",
"   c #010101",
".  c #080707",
"X  c #070708",
"o  c #07080A",
"O  c #0A0A0B",
"+  c #0D0E11",
"@  c #100F10",
"#  c #131313",
"$  c #14151A",
"%  c #191718",
"&  c #17191E",
"*  c #1B1B1C",
"=  c #1B1D23",
"-  c #211F21",
";  c #1F2129",
":  c #242424",
">  c #282526",
",  c #22242C",
"<  c #2A2728",
"1  c #2C2B2C",
"2  c #262730",
"3  c #272932",
"4  c #2F2F30",
"5  c #2C2F3A",
"6  c #2D303A",
"7  c #343434",
"8  c #3D3C3C",
"9  c #50652B",
"0  c #556B32",
"q  c #586D36",
"w  c #5D7337",
"e  c #5D743A",
"r  c #617637",
"t  c #62773C",
"y  c #637A3D",
"u  c #333642",
"i  c #453F42",
"p  c #444344",
"a  c #4A4547",
"s  c #4D4D4D",
"d  c #514B4D",
"f  c #534D51",
"g  c #525252",
"h  c #585154",
"j  c #5F575A",
"k  c #5B5B5B",
"l  c #60585C",
"z  c #667C42",
"x  c #655D63",
"c  c #656565",
"v  c #6A6265",
"b  c #656568",
"n  c #6C6C6C",
"m  c #736A6D",
"M  c #6F6F70",
"N  c #746B74",
"B  c #786F72",
"V  c #757575",
"C  c #7E7478",
"Z  c #7C7C7C",
"A  c #83797D",
"S  c #68803F",
"D  c #6B8245",
"F  c #6E8549",
"G  c #71864B",
"H  c #738A4D",
"J  c #758B50",
"K  c #798E53",
"L  c #7B9354",
"P  c #7C9259",
"I  c #819656",
"U  c #80965B",
"Y  c #849C5D",
"T  c #849B60",
"R  c #899F62",
"E  c #87A060",
"W  c #8DA565",
"Q  c #8EA569",
"!  c #90A667",
"~  c #90A569",
"^  c #887E81",
"/  c #828383",
"(  c #8D8286",
")  c #898989",
"_  c #8E8E8E",
"`  c #92868B",
"'  c #968B8F",
"]  c #978B90",
"[  c #9A8E93",
"{  c #919191",
"}  c gray58",
"|  c gray60",
" . c #A2959A",
".. c #A79A9F",
"X. c #A3A3A3",
"o. c #A5A5A5",
"O. c #A8A8A8",
"+. c gray68",
"@. c #B2B2B3",
"#. c #B6B6B6",
"$. c gray72",
"%. c #BFBFBF",
"&. c #C1C1C1",
"*. c gray77",
"=. c #C9C9C9",
"-. c #CBCBCC",
";. c #CECECE",
":. c #D3D3D3",
">. c gray83",
",. c gray85",
"<. c gray87",
"1. c gray89",
"2. c #E7E7E7",
"3. c gray91",
"4. c #ECECEC",
"5. c #EEEEEE",
"6. c #EFEFF0",
"7. c #F3F3F3",
"8. c #F6F6F6",
"9. c #FBFBFB",
"0. c white",
/* pixels */
"W W W W W W W W W W W W W W W W W W W W W W W W W W W W W W W W W W W W W W W W W W W W W W W W W W W W W W W W W W W W ",
"W W W W W W W W W W W W W W W W W W W W W W W W W W W W W W W W W W W W W W W W W W W W W W W W W W W W W W W W W W W W ",
"W W W W W W W W W W W W W W W W W W W W W W W W W W W W W W W W W W W W W W W W W W W W W W W W W W W W W W W W W W W W ",
"W W W W W W W W W W W W W W W W W W   .     W W W W W W W W W W W W W W W W W     % #   W W W W W W W W W W W W W W W W ",
"W W W W W W W W W W W W W W W W   O p 8     W W W W W W W W W W W W W W W W W W . 7 c <   W W W W W W W W W W W W W W W ",
"W W W W W W W W W W W W W W W   : / #.8   W W W W W W W W W W W W W W W W W W W   % { O.7   W W W W W W W W W W W W W W ",
"W W W W W W W W W W W W W W   7 O.7.V   W W W W W W W W W W W W W W W W W W W W   1 O.8.} % W W W W W W W W W W W W W W ",
"W W W W W W W W W W W W W W * o.8.9.8     W W W W W W W W W W W W W W W W W W W . g >.0.1.a   W W W W W W W W W W W W W ",
"W W W W W W W W W W W W W   k 1.0.5.V     Q U W W U W W W W W W W W W W W W W W   # V 7.0.) # W W W W W W W W W W W W W ",
"W W W W W W W W W W W W W O | 9.5.s O   W Q D L Q y E W W W W W W W W W W W W W W   : O.0.%.: W W W W W W W W W W W W W ",
"W W W W W W W W W W W W W 1 %.0.X.#   W W W F J W t W E W W W W W W W W W W W Q W W . b 7.:.1   ! W W W W W W W W W W W ",
"E W W W W W W W W W W W W p ;.9.b O W W W W U L E y E D E W W W W W W W W U Y Q e F   s ,.:.4   D r W W W W W W W W W W ",
"F W P Q ~ W L W W W W W W 8 ;.7.p   W W W W W W W L Y z W W W W W W W W W y 0 P q t   p ;.&.< D 9 Y W W W W W W W W W W ",
"G D P Q Q t H Q W W W W W 7 &.5.p   W W W W W     . O # % % # # # # O .     W W Y Y   g <.+.: W W W W W W W W W W W W W ",
"W D R Q D y W W W W W W W * O.8.b O W W   . * 8 k V / _ } { ) ) ) / Z b g 7 O   W   # ) 8.{ % W W W W W W W W W W W W W ",
"W E W W U R ! W W W W W W . / 8.*.<     : n O.=.2.9.0.0.0.0.0.0.9.9.9.7.<.&.} p O . s :.5.k . W W W W W W W W W W W W W ",
"W W W W W W W W W W W W W   p >.9.X.k Z %.3.0.0.0.0.0.0.0.0.0.0.0.0.0.0.0.0.9.:.{ Z =.9.o.: W W W W W W W W W W W W W W ",
"W W W W W W W W W W W W W W O / 5.8.<.5.0.0.0.0.0.0.0.0.0.0.0.0.0.0.0.0.0.0.0.0.8.5.0.=.p . W W W W W W W W W W W W W W ",
"W W W W W W W W W W W W W W   % o.9.0.0.0.0.0.0.0.0.0.0.0.0.0.0.0.0.0.0.0.0.0.0.0.0.>.g O W W W W W W W W W W W W W W W ",
"W W W W W W W W W W W W W W W   # +.0.0.0.0.0.0.0.0.0.0.0.0.0.0.0.0.0.0.0.0.0.0.0.3.b . W W W W W W W W W W W W W W W W ",
"W W W W W W W W W W W W W W W W   # <.0.0.0.0.0.0.0.0.0.0.0.0.0.0.0.0.0.0.0.0.0.9.X.. W W W W W W W W W W W W W W W W W ",
"W W W W W W W W W W W W W W W W W   Z 0.0.0.0.0.0.0.0.0.0.0.0.0.0.0.0.0.0.0.0.0.5.k   W W W W W W W W W W W W W W W W W ",
"W W W W W W W W W W W W W W W W W   7 0.0.0.0.0.0.0.0.0.0.0.0.0.0.0.0.0.0.0.0.0.2.8   W W W W W W W W W W W W W W W W W ",
"W W W W W W W W W W W W W W W W W   % 0.0.0.0.0.0.0.0.0.0.0.0.0.0.0.0.0.0.0.0.0.2.7   W W W W W W W W W W W W W W W W W ",
"W W W W W W W W W W W W W W W W W W O 9.0.0.0.0.0.0.0.0.0.0.0.0.0.0.0.0.0.0.0.0.1.7   W W W W W W W W W W W W W W W W W ",
"W W W W W W W W W W W W W W W W W W O 7.0.0.0.0.0.0.0.0.0.0.0.0.0.0.0.0.0.0.0.0.1.: W W W W W W W W W W W W W W W W W W ",
"W W W W W W W W W W W W W W W E Q Q   ,.0.0.0.0.0.0.0.0.0.0.0.0.0.0.0.0.0.0.0.0.<.% E L W W W W W W W W W W W W W W W W ",
"W W W W W W W W W W W W W E W D U P   $.0.0.0.7.7.9.0.0.0.0.0.0.0.0.0.0.9.0.0.0.=.O Y D W W W W W W W W W W W W W W W W ",
"W W W W W W W W W W W W W W R 0 t J   | 0.1.n < : g %.9.0.0.0.0.0.8.@.k 7 p +.0.O.  W E W W W W W W W W W W W W W W W W ",
"W W W W W W W W W W W W W W W Y G Y   k 7./ .       % &.0.0.0.0.5./ %       # 3.V   W W W W W W W W W W W W W W W W W W ",
"W W W W W W W W W W W W W W W W E W   * 1.g           k 8.0.0.0.@.%         . <.:   W W W W W W W W W W W W W W W W W W ",
"W W W W W W W W W W W W W W W W W W W O O./ .         p 8.0.0.9.| .       . k $..   W W W W W W W W W W W W W W W W W W ",
"W W W W W W W W W W W W W W W W W W W   s *.h % .   O V 9.0.0.0.#.: .   # a *.p O -   W W W W W W W W W W W W W W W W W ",
"W W W W W W W W W W W W W W W W W W W W # / *.} b k V <.0.0.0.0.5.o.c k / @.b O p x . W W W W W W W W W W W W W W W W W ",
"W W W W W W W W W W W W W W W W W W W W   % b +.>.5.9.0.0.0.0.0.0.0.6.-.{ p O : f 1 . W W W W W W W W W W W W W W W W W ",
"W W W W W W W W W W W W W W W W W W W W W   . : g V { o.@.$.%.@.| / M p * : # * O   W W W W W W W W W W W W W W W W W W ",
"Q W W W W W W W W W W W W W W W W W W W W W     O O % : < 1 4 < % # O : x x O   W W W W W W W W W W W W W W W W W W W W ",
"W W W W W W W W W W W W W W W W W W W W W W   O # + 5 3 X   # O $ $ + * N x .   W W W W W W W W W W W W W W W W W W W W ",
"W W W W W W W W W W W W W W W W W W W W W W   O O = ; O O O = 6 & # + O % @   W W W W W W W W W W Q W Y W E E W W W W W ",
"W W W W W W W W W W W W W W W W W W W         O X       . u 2 = 5 & O .     W W W W W W W W W W y T z K ~ J G W W E L W ",
"W W W W W W W W W W W W W W W W W W W   . . . .           . 5 3 = = O .       W W W W W W W W Y e J w Q Q y R W W Y D W ",
"W W W W W W W W W W W W W W W W Q W Y   # x h 1 % O .         X O O O % > #   W W W W W W W W Q T T F W ~ R Q W W W E W ",
"W W W W W W W W W W W W W W W y T z K   . p [  .^ x i 1 : * * - 1 8 j C l O   W W W W W W W W W W W W W W W W W W W W W ",
"W W W W W W W W W W W W W W Y e J w   O   # h ' ...... .` A A ( [  .' x %     W W W W W W W W W W W W W W W W W W W W W ",
"W W W W W W W W W W W W W W Q T T   . $ . O # a A  ........... .] B p # .     W W W W W W W W W W W W W W W W W W W W W ",
"W W W W W W W W W W W W W W W W   O & ; , 3 + O < d v m m m x f 8 * O = 5 ;     W W W W W W W W W W W W W W W W W W W W ",
"W W W W W W W W W W W W W W W W   o , u u , X     . # % % % # O     O , 5 &     W W W W W W W W W W W W W W W W W W W W ",
"W W W W W W W W W W W W W W W W W   O + O .                           o X   W W W W W W W W W W W W W W W W W W W W W W ",
"W W W W W W W W W W W W W W W W W W W W W W W                             W W W W W W W W W W W W W W W W W W W W W W W ",
"W W W W W W W W W W W W W W W W W W W W W W W W                         W W W W W W W W W W W W W W W W W W W W W W W W ",
"W W W W W W W W W W W W W W W W W W W W W W W W W                     W W W W W W W W W W W W W W W W W W W W W W W W W ",
"W W W W W W W W W W W W W W W W W W W W W W W W W         W         W W W W W W W W W W W W W W W W W W W W W W W W W W ",
"W W W W W W W W W W W W W W W W W W W W W W W W W W       W         W W W W W W W W W W W W W W W W W W W W W W W W W W ",
"W I W W W W W W W W W W W W W W W W W W W W W W W W       W W       W W W W W W W W W W W W W W W W W W W W W W W W W W ",
"W r W W W W W W W W W W W W W W W W W W W W W W W W W     W W     W W W W W E W W W W W W W W W W W W W W W W W W W W W ",
"E r W E W W W W W W W W W W W W W W W W W W W W W W W W W W W W W W W W E E D E E E W E W W W W W W W W W W W W W W W W ",
"Y y E S W W W W W W W W W W W W W W W W W W W W W W W W W W W W W W W W L L G W y L Y w E W W W W D Y W W W W W W W W W ",
"W L E D W W W W W W W W W W W W W W W W W W W W W W W W W W W W W W W W L L W W J W R H W W W W L y E W W W W W W W W W ",
"W W W Y W W W W W W W W W W W W W W W W W W W W W W W W W W W W W W W W W Y W W W W W W W W W W W W W W W W W W W W W W ",
"W W W W W W W W W W W W W W W W W W W W W W W W W W W W W W W W W W W W W W W W W W W W W W W W W W W W W W W W W W W W "
};
