/* XPM */
static char *_6e1187a59f342e2af80053fdde4e111SNRlgLGDS5C37uDE[] = {
/* columns rows colors chars-per-pixel */
"60 60 116 2 ",
"   c #010102",
".  c #060609",
"X  c #07080B",
"o  c #090A0D",
"O  c #0C0D13",
"+  c #0E1017",
"@  c #0F1118",
"#  c #121315",
"$  c #12141C",
"%  c #15181F",
"&  c #141720",
"*  c #161923",
"=  c #181B26",
"-  c #1A1E2A",
";  c #1D212D",
":  c #1F2332",
">  c #21232A",
",  c #2A2B2D",
"<  c #222636",
"1  c #232836",
"2  c #2B2D33",
"3  c #242939",
"4  c #292E3D",
"5  c #2C303E",
"6  c #313134",
"7  c #39393A",
"8  c #50652B",
"9  c #556B32",
"0  c #586D36",
"q  c #5D7336",
"w  c #5D743A",
"e  c #617637",
"r  c #61763B",
"t  c #637A3D",
"y  c #2D3241",
"u  c #313644",
"i  c #353945",
"p  c #363A48",
"a  c #393E4C",
"s  c #3C414D",
"d  c #3F4451",
"f  c #424344",
"g  c #43454C",
"h  c #4A4C4E",
"j  c #404452",
"k  c #454955",
"l  c #4C4E55",
"z  c #474B59",
"x  c #494E5A",
"c  c #4D515D",
"v  c #545556",
"b  c #52545C",
"n  c #575A5F",
"m  c #5A5B5D",
"M  c #667C42",
"N  c #525662",
"B  c #555861",
"V  c #5D5E61",
"C  c #605F61",
"Z  c #636363",
"A  c #666768",
"S  c #686868",
"D  c #747475",
"F  c #7B7B7B",
"G  c #68803F",
"H  c #6B8245",
"J  c #6E8449",
"K  c #71864A",
"L  c #738A4D",
"P  c #768C50",
"I  c #798E53",
"U  c #7C9155",
"Y  c #7C9254",
"T  c #7C9356",
"R  c #7F9757",
"E  c #7B9358",
"W  c #7C9059",
"Q  c #7E965A",
"!  c #819656",
"~  c #80965B",
"^  c #81995B",
"/  c #83995C",
"(  c #859B5D",
")  c #849C5E",
"_  c #849A60",
"`  c #879E63",
"'  c #899F62",
"]  c #87A060",
"[  c #8AA262",
"{  c #89A165",
"}  c #8CA365",
"|  c #8CA464",
" . c #8DA565",
".. c #8EA268",
"X. c #8FA569",
"o. c #8FA46C",
"O. c #90A567",
"+. c #90A569",
"@. c #818282",
"#. c #8D8D8D",
"$. c #919191",
"%. c #9B9B9B",
"&. c #A09F9F",
"*. c gray63",
"=. c #ABAAAB",
"-. c #B0AFB0",
";. c #BEBEBE",
":. c #BFBFC0",
">. c #C3C3C3",
",. c #C9C9C9",
"<. c #D3D3D2",
"1. c #DEDDDE",
"2. c #E0E0DF",
"3. c #E7E7E7",
"4. c #E8E7E7",
"5. c #E9E9E8",
/* pixels */
" . . . . . . . . . . . . . . . . . . . . . . . . . . . . . . . . . . . . . . . . . . . . . . . . . . . . . . . . . . . .",
" . . . . . . . . . . . . . . . . . . . . . . . . . . . . . . . . . . . . . . . . . . . . . . . . . . . . . . . . . . . .",
" . . . . . . . . . . . . . . . . . . . . . . . . . . . . .  o X  . . . . . . . . . . . . . . . . . . . . . . . . . . . .",
" . . . . . . . . . . . . . . . . . . . . . . .   . . . . .  $ * X  . . . . . . . . . . . . . . . . . . . . . . . . . . .",
" . . . . . . . . . . . . . . . . . . . . .  O O    . . . . .o ; $ .  . . . . . . . . . . . . . . . . . . . . . . . . . .",
" . . . . . . . . . . . . . . . . . . . .  + = O  . . . . . .  & : @    . . . . . . . . . . . . . . . . . . . . . . . . .",
" . . . . . . . . . . . . . . . . . . .  o ; * .  . . . . .  o $ < - o  . . . . . . . . . . . . . . . . . . . . . . . . .",
" . . . . . . . . . . . . . . . . . . .  - : @    . . . . .  * : < : $    . . . . . . . . . . . . . . . . . . . . . . . .",
" . . . . . . . . . . . . . . . . . .  O < < - @   ^  . . .  @ < < < = .  . . . . . . . . . . . . . . . . . . . . . . . .",
" . . . . . . . . . . . . . . . . . .  - < < = . X.t [  . . .. ; < < : O  . . . . . . . . . . . . . . . . . . . . . . . .",
" . . . . . . . . . . . . . . . . . .. : < : O   { r { [  . .  & < < < $ . }  .X. .}  . . . .O. .O. . . . . . . . . . . .",
"[  . . . . . . . . . . . . . . . . .o < < - .   [ t [ H [  . .O < < < = X ~ ( o.w J X.T q T +.` H e  . . . . . . . . . .",
"J { Q X.+.} T  . . . . . . . . . .  O < < &    . .T ) M {  . .. - < < - . t 9 W 0 t ..r r } X.H 8 /  . . . . . . . . . .",
"K H E X.X.r L X. . . . . . . . . .  @ < < +    . . .{ [  . . .. $ < < = .  .}  .) (  . . . . . . . . . . . . . . . . . .",
"} H ` ..H t }  . . . . . . . . . .  $ < < O    . . . . . . . .  + < < * .  . . . . . . . . . . . . . . . . . . . . . . .",
" .[  . .~ ' O. . . . . . . . . . .  O < < O    . . . . . . . .  O < 3 $ .  . . . . . . . . . . . . . . . . . . . . . . .",
" . . . . . . . . . . . . . . . . .  X < < $    . . . . . . . .  O < 3 +    . . . . . . . . . . . . . . . . . . . . . . .",
" . . . . . . . . . . . . . . . . . .  : < *    . . . . .        @ 3 < O    . . . . . . . . . . . . . . . . . . . . . . .",
" . . . . . . . . . . . . . . . . . .  - < ; .         . . .     * 3 - o    . . . . . . . . . . . . . . . . . . . . . . .",
" . . . . . . . . . . . . . . . . . .  O < : $ X O @ & - : : o + : 3 * .    . . . . . . . . . . . . . . . . . . . . . . .",
" . . . . . . . . . . . . . . . . . .  . : < : ; < 3 3 3 3 < - : 3 < @ . .    . . . . . . . . . . . . . . . . . . . . . .",
" . . . . . . . . . . . . . . . . . .  O < < < 3 3 3 3 < < < < < < ; + $ * .    . . . . . . . . . . . . . . . . . . . . .",
" . . . . . . . . . . . . . . . . .  + : 3 < 3 3 3 < < < < < < < < : - : < $    . . . . . . . . . . . . . . . . . . . . .",
" . . . . . . . . . . . . . . . .  . ; 3 3 3 < < < < < < < < < < < < < 3 1 : .    . . . . . . . . . . . . . . . . . . . .",
" . . . . . . . . . . . . . . . .  $ < 3 3 < < < < < < < < < < < < < < 3 3 1 O    . . . . . . . . . . . . . . . . . . . .",
" . . . . . . . . . . . . . . . .  = 3 < < < < < < < < < < < < < < < < < 1 1 $    . . . . . . . . . . . . . . . . . . . .",
" . . . . . . . . . . . . . . .[   - 3 < < < < < < < < < < < < < < < < < 3 3 -    . .] R  . . . . . . . . . . . . . . . .",
" . . . . . . . . . . . . .[ { H . - 3 3 3 3 3 3 3 1 < < 3 3 3 3 3 1 < < 3 < :      .) H  . . . . . . . . . . . . . . . .",
" . . . . . . . . . . . . . .) 9 # > 1 y y y y y u 2 , , u p y 4 4 3 3 3 < < <      . .[  . . . . . . . . . . . . . . . .",
" . . . . . . . . . . . . . . .^ 7 7 f s j s a d g v F S g x s i y 4 3 3 3 < < .    . . . . . . . . . . . . . . . . . . .",
" . . . . . . . . . . . . . . . .m A %.A b x z x l #.<.;.C b k a y 4 3 3 3 < 3 .    . . . . . . . . . . . . . . . . . . .",
" . . . . . . . . . . . . . . . .D @.,.$.B N x c b *.3.2.F b x a u 5 4 3 3 < < .    . . . . . . . . . . . . . . . . . . .",
" . . . . . . . . . . . . . . . .#.@.,.-.n N c c b &.5.5.$.b x s u 5 4 3 3 < < .    . . . . . . . . . . . . . . . . . . .",
" . . . . . . . . . . . . . . . . .F ;.>.m N c c b #.1.4.#.l x s u y 4 3 3 < :        . . . . . . . . . . . . . . . . . .",
" . . . . . . . . . . . . . . . . .F %.:.m N x z k V =.;.Z l k a u 4 3 3 1 < %   X    . . . . . . . . . . . . . . . . . .",
"{  . . . . . . . . . . . . . . . .F Z D h x j a p 5 6 6 2 a p y 5 4 3 3 < ; X $ *    . . . . . . . . . . . . . . . . . .",
"X. . . . . . . . . . . . . . . . . ., , i a u 5 4 3 < ; 4 4 4 4 3 3 < : * X o = o  . . . . . . . . . . . . . . . . . . .",
" . . . . . . . . . . . . . . . . . . .. % 1 3 3 3 3 3 3 3 3 3 3 < ; * O . o % o    . . . . . . . . . . . . . . . . . . .",
" . . . . . . . . . . . . . . . . . . .    + * ; < < < < ; ; = % @ o     O ; *    . . . . . . . .} X. .)  .[ [  . . . . .",
" . . . . . . . . . . . . . . . . . . . .    . o O @ @ O o o .           * 1 ;    . . . . . . .{ t _ M I +.P K  . .] R  .",
" . . . . . . . . . . . . . . . . . . . . . . .              o   X .     + ; #    . . . . . . .) w P q X.X.t '  . .) H  .",
" . . . . . . . . . . . . . . .} X. .)  .[ [  . . . .  o     * . o O   X . .    . . . . . . . .X._ _ J  .+.` X. . . .[  .",
" . . . . . . . . . . . . . .{ t _ M I +.P K  . .] R   O     & o . + . O .    . . . . . . . . . . . . . . . . . . . . . .",
" . . . . . . . . . . . . . .) w P q X.X.t '  . .)   . O     O O . + o o O    . . . . . . . . . . . . . . . . . . . . . .",
" . . . . . . . . . . . . . .X._ _ J  .+.` X. . .    O o     O +   $ O X $ .    . . . . . . . . . . . . . . . . . . . . .",
" . . . . . . . . . . . . . . . . . . . .          . @ .     o $ . $ O . & .    . . . . . . . . . . . . . . . . . . . . .",
" . . . . . . . . . . . . . . . . . .  . o o       O o       X + . $ O . & .    . . . . . . . . . . . . . . . . . . . . .",
" . . . . . . . . . . . . . . . . .    o O o     . X         O O . $ O . * X    . . . . . . . . . . . . . . . . . . . . .",
" . . . . . . . . . . . . . . .            . X .     . o     $ . X * O X * .    . . . . . . . . . . . . . . . . . . . . .",
" . . . . . . . . . . . . . . . .      X o .     O $ O .   O $   O * X O * .    . . . . . . . . . . . . . . . . . . . . .",
" . . . . . . . . . . . . . . . . .            $ * O     O * .   $ O   $ $      . . . . . . . . . . . . . . . . . . . . .",
" . . . . . . . . . . . . . . . . . . . . .  O O       + * .   X o   o & X    . . . . . . . . . . . . . . . . . . . . . .",
" . . . . . . . . . . . . . . . . . . . .            O O           . O .      . . . . . . . . . . . . . . . . . . . . . .",
" .!  . . . . . . . . . . . . . . . . . .       .                           . . . . . . . . . . . . . . . . . . . . . . .",
"[ e [  . . . . . . . . . . . . . . . . .     . . .                         .[  . . . . . . . . . . . . . . . . . . . . .",
"[ e  .[  . . . . . . . . . . . . . . . .   . . . .     . .         .      [ H [ [ [ { [  . . . . . .{  . . . . . . . . .",
") t [ G  . . . . . . . . . . . . . . . . . . . . .   . . .   .     . .    R K  .t R ) q [  . . .{ H /  . . . . . . . . .",
" .R [ H  . . . . . . . . . . . . . . . . . . . . . . . . . . . . . . .  T T {  .P { ` L  . . . .T t [  . . . . . . . . .",
" . . .)  . . . . . . . . . . . . . . . . . . . . . . . . . . . . . . . . .)  . . . . . . . . . .{  . . . . . . . . . . .",
" . . . . . . . . . . . . . . . . . . . . . . . . . . . . . . . . . . . . . . . . . . . . . . . . . . . . . . . . . . . ."
};
