/* XPM */
static char *_16765690d2646178ff495ca581a66fcGMk4kmBseMghUhoQ[] = {
/* columns rows colors chars-per-pixel */
"60 60 71 1 ",
"  c #50652B",
". c #556C32",
"X c #586D36",
"o c #5D7237",
"O c #5E7636",
"+ c #5E7339",
"@ c #5D743A",
"# c #617637",
"$ c #62773A",
"% c #637838",
"& c #61783F",
"* c #667C3F",
"= c #667B43",
"- c #68803F",
"; c #688041",
": c #6B8443",
"> c #6B8346",
", c #6C8046",
"< c #6D8545",
"1 c #6E8348",
"2 c #6E864A",
"3 c #708549",
"4 c #70884A",
"5 c #72884E",
"6 c #778F4F",
"7 c #748950",
"8 c #778D51",
"9 c #798E53",
"0 c #799153",
"q c #799155",
"w c #7C9356",
"e c #7F9655",
"r c #7B9358",
"t c #7E965A",
"y c #819656",
"u c #80965B",
"i c #81995B",
"p c #829A5C",
"a c #839C5E",
"s c #849C5E",
"d c #859E5F",
"f c #829A60",
"g c #879E63",
"h c #899F62",
"j c #87A060",
"k c #8AA262",
"l c #8CA262",
"z c #89A165",
"x c #8CA264",
"c c #8CA464",
"v c #8DA565",
"b c #8EA268",
"n c #8FA568",
"m c #8FA46C",
"M c #90A567",
"N c #90A569",
"B c gray92",
"V c #EBEBEC",
"C c #EBECED",
"Z c #ECECEC",
"A c #EEEFF0",
"S c #F0EFF0",
"D c #EFF0F2",
"F c #F1F1F1",
"G c #F3F3F4",
"H c #F4F4F4",
"J c #F7F7F8",
"K c #F8F7F8",
"L c #F8F8F8",
"P c #FBFBFC",
"I c white",
/* pixels */
"vvvvvvvvvvvvvvvvvvvvvvvvvvvvvvvvvvvvvvvvvvvvvvvvvvvvvvvvvvvv",
"vvvvvvvvvvvvvvvvvvvvvvvvvvvvvvvvvvvvvvvvvBZvvvvvvvvvvvvvvvvv",
"vvvvvvvvvvvvvvBBvvvvvvvvvvvvvvvvvvvvvvvvvBZZvvvvvvvvvvvvvvvv",
"vvvvvvvvvvvvvFZBvvvvvvvvvvvvvvvvvvvvvvvvBBZFZvvvvvvvvvvvvvvv",
"vvvvvvvvvvvBZHZBBvvvvvvvvvvvvvvvvvvvvvvvBBFHFZvvvvvvvvvvvvvv",
"vvvvvvvvvvvZFHHZBvvvvvvvvvvvvvvvvvvvvvvvBZHLHFZvvvvvvvvvvvvv",
"vvvvvvvvvvZHHLLFBBvvvvvvvvvvvvvvvvvvvvvvBBLILFZvvvvvvvvvvvvv",
"vvvvvvvvvvZHLILFZBvvvvvvvvvvvvvvvvvvvvvvBZLIIHZZvvvvvvvvvvvv",
"vvvvvvvvvBFHIIHFZvvvvnizvivvvBvvvvvvvvvvBZHIIHFZvvvvvvvvvvvv",
"vvvvvvvvvZFHIILZBvvvvn>0nBZZZZZZZZvvvvvvvZFLILFZvvvvvvvvvvvv",
"vvvvvvvvvBFLIIHZvvvvvZBZFFFFHFHFFFFFZZvnvBZLIIHZMvvvvvvvvvvv",
"kvvvvvvvvBFLIIHZZvvvZZFFHHLLLLLLLLHHFFZm+BBHIIHZ>%vvvvvvvvvv",
"2ztnNxwvvBZLIILZBvvZZFHLIIIIIIIIIIILHHFZXBBLIIFB pvvvvvvvvvv",
"3>rnn$5nvBZHIIIFBBBZFHHLLIIIIIIIIIIHHHHFBBZLIIFBvvvvvvvvvvvv",
"x>gb,*xvvvBFIIILZBZFFFFFFIIIIIIIIIHFZFHHZBFIILZBvvvvvvvvvvvv",
"vkvvuhMvvvBBHIIIFZFHFFBBBLIIIIIIIIZBBZZHFBHIIHBBvvvvvvvvvvvv",
"vvvvvvvvvvvBZLIIFZHHFBBBBFIIIIIIILBBBBBFFZHIIZBvvvvvvvvvvvvv",
"vvvvvvvvvvvBBZLLZFLFZBBBBZIIIIIIILBBBBBZFZFLFBBvvvvvvvvvvvvv",
"vvvvvvvvvvvvBBZHFFLFBBBBBZIIIIIIILZBBBBBFZFFBBvvvvvvvvvvvvvv",
"vvvvvvvvvvvvvBBZZHLZBBBBBZIIIIIIIIZBBBBBFFZBBvvvvvvvvvvvvvvv",
"vvvvvvvvvvvvvvBBZHLZBBBBBFIIIIIIIIHBBBBBFFBBvvvvvvvvvvvvvvvv",
"vvvvvvvvvvvvvvvBZFIFBBBBZLIIIIIIIIIFBBBBHFBBvvvvvvvvvvvvvvvv",
"vvvvvvvvvvvvvvvvZFIHBBBZHIIIIIIIIIILFZZFIHBvvvvvvvvvvvvvvvvv",
"vvvvvvvvvvvvvvvvBFIIHZFLIIIIIIIIIIIILHHIIHBvvvvvvvvvvvvvvvvv",
"vvvvvvvvvvvvvvvvBFIIIIIIIIIIIIIIIIIIIIIIIFBvvvvvvvvvvvvvvvvv",
"vvvvvvvvvvvvvvvvBFIIIIIIIIPLLKLLLIIIIIIIIFBvvvvvvvvvvvvvvvvv",
"vvvvvvvvvvvvvvvkBFIIIIIIIHGZZZSFHLIIIIIIIZBevvvvvvvvvvvvvvvv",
"vvvvvvvvvvvvvkz>BZLIIIIIFBBZFZFBZHLIIIIILBB:vvvvvvvvvvvvvvvv",
"vvvvvvvvvvvvvvB.BZHIIIIHZBBZLCFBBZHIIIIIFBvkvvvvvvvvvvvvvvvv",
"vvvvvvBBBBBBBBBBBBZHLIIFBZZBFBZFZVFHLHFZBBBBBBvvvvvvvvvvvvvv",
"vvvvvvBBBBZZZZZZZZBBZFHZZAZZBBFJAVZZZBBBBVVVBBBBBvvvvvvvvvvv",
"vvvvvvZBBBBZZAADFFDAZBBBAHLJBZBZZZZBBBZZAAADAAZZZBvvvvvvvvvv",
"vvvvvvBBZZBBBBBBBZZZDAZBZLHFAHZZZDVBBBBBBBBBCZZAZZBVvvvvvvvv",
"vvvvvvvBBZZZZZZVBBBBVZAZVHFZDLFZFABAZZZZZVZVBBBBZZVBBvvvvvvv",
"vvvvvvvvBBZZAAAAZZZZVBBZBZGFFKHFFBBBZZAFFFFDZBBZBBBBBvvvvvvv",
"zvvvvvvvvBBBCZZZZZZZZZBBBBVZFFFABBZZBBBZAFFFFAVBZvvBvvvvvvvv",
"nvvvvvvvvvBBBBBBBBBBBBBBBBBBBBBBBBBZZZBBBVZDFFABBvvvvvvvvvvv",
"vvvvvvvvvvvBZZZZZZVBBBBBBBBBBBBBBBBBBBBBBBBBZDDZBvvvvvvvvvvv",
"vvvvvvvvvvBZZZZZBBBBBBBBBBBBBBBBBBBBBBvvvvBBBVZZVBvdvkkvvvvv",
"vvvvvvvvvBBZZBBBBBBBBBBBBBBBBBBBBBBBBBvvvvvvBBBZVB=9N83vvjev",
"vvvvvvvvvBBBBBBvvvvvvBBBBBBBBBBBBBBBvvvvvvvvvvBBBBonn&hvvd:v",
"vvvvvvvvvvBBvvvxnvdvkkBBBBBBBBBBBBBvvvvvvvvvvvvBBf1vNgnvvvkv",
"vvvvvvvvvvvvvvz&f=9N83BBBBBBBBBBBBBvvvvvvvvvvvvvvvvvvvvvvvvv",
"vvvvvvvvvvvvvva@7onn&hBBBBBBBBBBBBBvvvvvvvvvvvvvvvvvvvvvvvvv",
"vvvvvvvvvvvvvvnff1vNdvBBBBBBBBBBBBBvvvvvvvvvvvvvvvvvvvvvvvvv",
"vvvvvvvvvvvvvvvvvvvvvvBBBBBBBBBBBBBvvvvvvvvvvvvvvvvvvvvvvvvv",
"vvvvvvvvvvvvvvvvvvvvvvBBBBBBBBBBBBBvvvvvvvvvvvvvvvvvvvvvvvvv",
"vvvvvvvvvvvvvvvvvvvvvvBBBBBBBBBBBBBvvvvvvvvvvvvvvvvvvvvvvvvv",
"vvvvvvvvvvvvvvvvvvvvvvvBBBBBBBBBBBBvvvvvvvvvvvvvvvvvvvvvvvvv",
"vvvvvvvvvvvvvvvvvvvvvvvBBBBBBBBBBBvvvvvvvvvvvvvvvvvvvvvvvvvv",
"vvvvvvvvvvvvvvvvvvvvvvvBBBBBBBBBBBvvvvvvvvvvvvvvvvvvvvvvvvvv",
"vvvvvvvvvvvvvvvvvvvvvvvBBBBBvBBBBBvvvvvvvvvvvvvvvvvvvvvvvvvv",
"vvvvvvvvvvvvvvvvvvvvvvvvBBBBvBBBBvvvvvvvvvvvvvvvvvvvvvvvvvvv",
"vyvvvvvvvvvvvvvvvvvvvvvvBBBBvBBBBvvvvvvvvvvvvvvvvvvvvvvvvvvv",
"l#lvvvvvvvvvvvvvvvvvvvvvBBBBvBBBBvvvvvkvvvvvvvvvvvvvvvvvvvvv",
"k%vkvvvvvvvvvvvvvvvvvvvvvBBvvvBBvvvvkk;kkkzkvvvvvvzvvvvvvvvv",
"d*k-vvvvvvvvvvvvvvvvvvvvvvBvvvvvvvvv0e4v*edOkvvvz<pvvvvvvvvv",
"vek<vvvvvvvvvvvvvvvvvvvvvvvvvvvvvvvv00zv8zg6vvvvq&kvvvvvvvvv",
"vvvdvvvvvvvvvvvvvvvvvvvvvvvvvvvvvvvvvdvvvvvvvvvvzvvvvvvvvvvv",
"vvvvvvvvvvvvvvvvvvvvvvvvvvvvvvvvvvvvvvvvvvvvvvvvvvvvvvvvvvvv"
};
