/* XPM */
static char *_02cba7986db48b2bca36abd89cb242cjNvd4Gyna0adEWNz[] = {
/* columns rows colors chars-per-pixel */
"60 60 122 2 ",
"   c #010101",
".  c #070708",
"X  c #080708",
"o  c #070809",
"O  c #0B0B0C",
"+  c #0E0E12",
"@  c #0F1013",
"#  c #131314",
"$  c #15161A",
"%  c #191719",
"&  c #17181E",
"*  c #1B1B1B",
"=  c #1A1B21",
"-  c #211F20",
";  c #232323",
":  c #22232B",
">  c #2C2B2C",
",  c #302C2D",
"<  c #252730",
"1  c #262932",
"2  c #2A2C36",
"3  c #2B2E38",
"4  c #2F3031",
"5  c #2E313C",
"6  c #333133",
"7  c #383338",
"8  c #3C3A3C",
"9  c #50652B",
"0  c #556B32",
"q  c #586D36",
"w  c #5D7337",
"e  c #5D743A",
"r  c #617637",
"t  c #61773C",
"y  c #637A3D",
"u  c #323641",
"i  c #363845",
"p  c #3B3E4C",
"a  c #443E41",
"s  c #3F4251",
"d  c #434243",
"f  c #4B464A",
"g  c #4D4D4D",
"h  c #534E53",
"j  c #545454",
"k  c #5A5355",
"l  c #5C565C",
"z  c #5C5B5B",
"x  c #60585C",
"c  c #667C42",
"v  c #625B60",
"b  c #646464",
"n  c #6A6265",
"m  c #676769",
"M  c #6C6269",
"N  c #6B6B6B",
"B  c #70676A",
"V  c #736B71",
"C  c #747474",
"Z  c #7C7276",
"A  c #7B7B7B",
"S  c #83797D",
"D  c #68803F",
"F  c #6B8245",
"G  c #6E8549",
"H  c #71864A",
"J  c #738A4D",
"K  c #768C50",
"L  c #798E53",
"P  c #7B9354",
"I  c #7C9359",
"U  c #819656",
"Y  c #80965B",
"T  c #849C5D",
"R  c #849B60",
"E  c #899F62",
"W  c #87A060",
"Q  c #8DA565",
"!  c #8EA569",
"~  c #90A667",
"^  c #90A569",
"/  c #897E82",
"(  c #848484",
")  c #8A8084",
"_  c #8B8B8B",
"`  c #8F8F8F",
"'  c #91868A",
"]  c #93888C",
"[  c #948994",
"{  c #9A8E93",
"}  c #939393",
"|  c #979797",
" . c #9E9297",
".. c #9F9398",
"X. c #999999",
"o. c #9D9D9D",
"O. c #A1959A",
"+. c #A79A9F",
"@. c #A0A0A0",
"#. c #A7A7A7",
"$. c #ABABAB",
"%. c #ACACAC",
"&. c #AFB0B0",
"*. c gray69",
"=. c #B5B5B5",
"-. c #BBBBBB",
";. c #BFBFBF",
":. c #C1C1C1",
">. c #C6C6C6",
",. c #C9C9C9",
"<. c #CECECE",
"1. c #D7D7D7",
"2. c gray86",
"3. c gainsboro",
"4. c #E2E2E2",
"5. c gray90",
"6. c #EAEAEA",
"7. c #EFEFEF",
"8. c gray95",
"9. c #F6F6F6",
"0. c #FBFBFB",
"q. c #FEFEFE",
/* pixels */
"Q Q Q Q Q Q Q Q Q Q Q Q Q Q Q Q Q Q Q Q Q Q Q Q Q Q Q Q Q Q Q Q Q Q Q Q Q Q Q Q Q Q Q Q Q Q Q Q Q Q Q Q Q Q Q Q Q Q Q Q ",
"Q Q Q Q Q Q Q Q Q Q Q Q Q Q Q Q Q Q Q Q Q Q Q Q Q Q Q Q Q Q Q Q Q Q Q Q Q Q Q Q Q Q Q Q Q Q Q Q Q Q Q Q Q Q Q Q Q Q Q Q ",
"Q Q Q Q Q Q Q Q Q Q Q Q Q Q Q Q       Q Q Q Q Q Q Q Q Q Q Q Q Q Q Q Q Q Q Q Q Q Q Q Q Q Q Q Q Q Q Q Q Q Q Q Q Q Q Q Q Q ",
"Q Q Q Q Q Q Q Q Q Q Q Q Q Q   # ; #   Q Q Q Q Q Q Q Q Q Q Q Q Q Q Q Q Q Q Q   X O   Q Q Q Q Q Q Q Q Q Q Q Q Q Q Q Q Q Q ",
"Q Q Q Q Q Q Q Q Q Q Q Q Q   > C z X Q Q Q Q Q Q Q Q Q Q Q Q Q Q Q Q Q Q Q Q   ; z d #   Q Q Q Q Q Q Q Q Q Q Q Q Q Q Q Q ",
"Q Q Q Q Q Q Q Q Q Q Q Q   > $.;.8   Q Q Q Q Q Q Q Q Q Q Q Q Q Q Q Q Q Q Q Q Q # A -.C ;   Q Q Q Q Q Q Q Q Q Q Q Q Q Q Q ",
"Q Q Q Q Q Q Q Q Q Q Q Q # _ 0.1.b # Q Q Q Q Q Q Q Q Q Q Q Q Q Q Q Q Q Q Q Q Q   > =.6.} ;   Q Q Q Q Q Q Q Q Q Q Q Q Q Q ",
"Q Q Q Q Q Q Q Q Q Q Q   8 4.q.4.A #   Q Q Q Q Q Q Q Q Q Q Q Q Q Q Q Q Q Q Q Q   ; $.q.8.A # Q Q Q Q Q Q Q Q Q Q Q Q Q Q ",
"Q Q Q Q Q Q Q Q Q Q Q O A q.8.o.;   Q Q Q ! Y Q Q Y Q Q Q Q Q Q Q Q Q Q Q Q Q   ; ` 6.q.<.>   Q Q Q Q Q Q Q Q Q Q Q Q Q ",
"Q Q Q Q Q Q Q Q Q Q Q % *.q.,.8   Q Q Q Q ! F P ! y W Q Q Q Q Q Q Q Q Q Q Q Q Q   > o.8.9.z X Q Q Q Q Q Q Q Q Q Q Q Q Q ",
"Q Q Q Q Q Q Q Q Q Q   * ,.9.o.X Q Q Q Q Q Q G K Q t Q W Q Q Q Q Q Q Q Q Q Q Q ! Q   g 1.q.} % Q ~ Q Q Q Q Q Q Q Q Q Q Q ",
"W Q Q Q Q Q Q Q Q Q   ; ,.6.A   Q Q Q Q Q Q Y P W y W F W Q Q Q Q Q Q Q Q Y T ! e   ; =.q.%.* E F r Q Q Q Q Q Q Q Q Q Q ",
"G Q I ! ^ Q P Q Q Q Q % =.4.b   Q Q Q Q Q Q Q Q Q P T c Q Q Q Q Q Q Q Q Q y 0 I q t X @.0.$.* F 9 T Q Q Q Q Q Q Q Q Q Q ",
"H F I ! ! t J ! Q Q Q # @.6.A   Q Q Q Q Q                               Q Q Q Q T T X | 9.X.% Q Q Q Q Q Q Q Q Q Q Q Q Q ",
"Q F E ! F y Q Q Q Q Q # ( 0.=.#   Q       O > g N A ( A A ` | ( C j 6 O       Q Q   # %.0.N O Q Q Q Q Q Q Q Q Q Q Q Q Q ",
"Q W Q Q Y E ~ Q Q Q Q   d 9.4.m     X 8 #.6.q.q.q.q.q.q.q.q.q.q.q.q.q.8.:.z #       b 3.9.d   Q Q Q Q Q Q Q Q Q Q Q Q Q ",
"Q Q Q Q Q Q Q Q Q Q Q Q % @.q.1.b d o.8.q.q.q.q.q.q.q.q.q.q.q.q.q.q.q.q.q.0.<.b > d :.q.;.> Q Q Q Q Q Q Q Q Q Q Q Q Q Q ",
"Q Q Q Q Q Q Q Q Q Q Q Q   6 <.q.q.q.q.q.q.q.q.q.q.q.q.q.q.q.q.q.q.q.q.q.q.q.q.q.9.9.q.6.j X Q Q Q Q Q Q Q Q Q Q Q Q Q Q ",
"Q Q Q Q Q Q Q Q Q Q Q Q Q   g 1.q.q.q.q.q.q.q.q.q.q.q.q.q.q.q.q.q.q.q.q.q.q.q.q.q.q.7.( % Q Q Q Q Q Q Q Q Q Q Q Q Q Q Q ",
"Q Q Q Q Q Q Q Q Q Q Q Q Q Q X z 3.q.q.q.q.q.q.q.q.q.q.q.q.q.q.q.q.q.q.q.q.q.q.q.q.6.` ;   Q Q Q Q Q Q Q Q Q Q Q Q Q Q Q ",
"Q Q Q Q Q Q Q Q Q Q Q Q Q Q Q # A 8.q.q.q.q.q.q.q.q.q.q.q.q.q.q.q.q.q.q.q.q.q.q.9.X.;   Q Q Q Q Q Q Q Q Q Q Q Q Q Q Q Q ",
"Q Q Q Q Q Q Q Q Q Q Q Q Q Q Q   8 >.q.q.q.q.q.q.q.q.q.q.q.q.q.q.q.q.q.q.q.q.q.q.1.g   Q Q Q Q Q Q Q Q Q Q Q Q Q Q Q Q Q ",
"Q Q Q Q Q Q Q Q Q Q Q Q Q Q Q Q ; #.q.q.q.q.q.q.q.q.q.q.q.q.q.q.q.q.q.q.q.q.q.q.%.; Q Q Q Q Q Q Q Q Q Q Q Q Q Q Q Q Q Q ",
"Q Q Q Q Q Q Q Q Q Q Q Q Q Q Q Q * X.q.q.q.q.q.q.q.q.q.q.q.q.q.q.q.q.q.q.q.q.q.q.} # Q Q Q Q Q Q Q Q Q Q Q Q Q Q Q Q Q Q ",
"Q Q Q Q Q Q Q Q Q Q Q Q Q Q Q Q * | q.q.q.q.q.q.q.q.q.q.q.q.q.q.q.q.q.q.q.q.q.q.( X Q Q Q Q Q Q Q Q Q Q Q Q Q Q Q Q Q Q ",
"Q Q Q Q Q Q Q Q Q Q Q Q Q Q Q Q % | q.q.q.q.q.q.q.q.q.q.q.q.q.q.q.q.q.q.q.q.q.0.(   Q Q Q Q Q Q Q Q Q Q Q Q Q Q Q Q Q Q ",
"Q Q Q Q Q Q Q Q Q Q Q Q Q Q Q W # ` q.q.q.q.q.q.q.q.q.q.q.q.q.q.q.q.q.q.q.q.q.9.C   W P Q Q Q Q Q Q Q Q Q Q Q Q Q Q Q Q ",
"Q Q Q Q Q Q Q Q Q Q Q Q Q W Q F X A 0.q.q.q.q.q.q.q.q.q.q.q.q.q.q.q.q.q.q.q.q.5.b   T F Q Q Q Q Q Q Q Q Q Q Q Q Q Q Q Q ",
"Q Q Q Q Q Q Q Q Q Q Q Q Q Q E 0   m 7.q.0.8.8.0.q.q.q.q.q.q.q.q.q.9.2.1.8.q.q.1.j   Q W Q Q Q Q Q Q Q Q Q Q Q Q Q Q Q Q ",
"Q Q Q Q Q Q Q Q Q Q Q Q Q Q Q T   g 2.%.6 X X % @.9.q.q.q.q.q.9.| X     # A q.,.d   Q Q Q Q Q Q Q Q Q Q Q Q Q Q Q Q Q Q ",
"Q Q Q Q Q Q Q Q Q Q Q Q Q Q Q Q W 6 %.m           ( 8.q.q.q.q.%.          6 -.#.% Q Q Q Q Q Q Q Q Q Q Q Q Q Q Q Q Q Q Q ",
"Q Q Q Q Q Q Q Q Q Q Q Q Q Q Q Q Q O ( C           # 1.q.q.q.9.g           > #.(   Q Q Q Q Q Q Q Q Q Q Q Q Q Q Q Q Q Q Q ",
"Q Q Q Q Q Q Q Q Q Q Q Q Q Q Q Q     j | 8           ,.q.q.q.9.g           j %.g   Q Q Q Q Q Q Q Q Q Q Q Q Q Q Q Q Q Q Q ",
"Q Q Q Q Q Q Q Q Q Q Q Q Q Q Q Q X # ; } X.d #   X d 4.q.q.q.0.( %   X % j *.} # Q Q Q Q Q Q Q Q Q Q Q Q Q Q Q Q Q Q Q Q ",
"Q Q Q Q Q Q Q Q Q Q Q Q Q Q Q   7 M ; 4 | -.A j N 2.q.q.q.q.q.8.X.z b X.1.o.6   Q Q Q Q Q Q Q Q Q Q Q Q Q Q Q Q Q Q Q Q ",
"Q Q Q Q Q Q Q Q Q Q Q Q Q Q Q   > V l * % m %.3.9.q.q.q.q.q.q.q.q.8.1.&.C %   Q Q Q Q Q Q Q Q Q Q Q Q Q Q Q Q Q Q Q Q Q ",
"! Q Q Q Q Q Q Q Q Q Q Q Q Q Q Q   # 8 8 6 ; ; b ( } | o.@.@.o.X.| ( j #     Q Q Q Q Q Q Q Q Q Q Q Q Q Q Q Q Q Q Q Q Q Q ",
"Q Q Q Q Q Q Q Q Q Q Q Q Q Q Q Q Q Q   % l V f # $ O X # $ # # O X O O     Q Q Q Q Q Q Q Q Q Q Q Q Q Q Q Q Q Q Q Q Q Q Q ",
"Q Q Q Q Q Q Q Q Q Q Q Q Q Q Q Q Q Q Q   f [ v * = X @       # 3 $ O # +   Q Q Q Q Q Q Q Q Q Q Q Q ! Q T Q W W Q Q Q Q Q ",
"Q Q Q Q Q Q Q Q Q Q Q Q Q Q Q Q Q Q Q   - d ; # O   O = 1   + < 3 O # $ X Q Q Q Q Q Q Q Q Q Q Q y R c L ^ K H Q Q W P Q ",
"Q Q Q Q Q Q Q Q Q Q Q Q Q Q Q Q Q Q Q Q       X   % X i : @ <   $ = 6 + &   Q Q Q Q Q Q Q Q Q T e K w ! ! y E Q Q T F Q ",
"Q Q Q Q Q Q Q Q Q Q Q Q Q Q Q Q ! Q T Q W         x - $ + p =   # x l O = o Q Q Q Q Q Q Q Q Q ! R R G Q ^ E ! Q Q Q W Q ",
"Q Q Q Q Q Q Q Q Q Q Q Q Q Q Q y R c L ^ K     X . V B # . &   O h { V . X O   Q Q Q Q Q Q Q Q Q Q Q Q Q Q Q Q Q Q Q Q Q ",
"Q Q Q Q Q Q Q Q Q Q Q Q Q Q T e K w ! ! y         k { / f * ; V  .+.Z           Q Q Q Q Q Q Q Q Q Q Q Q Q Q Q Q Q Q Q Q ",
"Q Q Q Q Q Q Q Q Q Q Q Q Q Q ! R R G Q ^           a { +.O.O.O.+.+.+.Z       .   Q Q Q Q Q Q Q Q Q Q Q Q Q Q Q Q Q Q Q Q ",
"Q Q Q Q Q Q Q Q Q Q Q Q Q Q Q Q Q Q Q Q     # o   X S +.+.+.+.+.+.O.v       o       Q Q Q Q Q Q Q Q Q Q Q Q Q Q Q Q Q Q ",
"Q Q Q Q Q Q Q Q Q Q Q Q Q Q Q Q Q Q Q     o O O X   , { +.+.+.+.+.] 6     O o . .     Q Q Q Q Q Q Q Q Q Q Q Q Q Q Q Q Q ",
"Q Q Q Q Q Q Q Q Q Q Q Q Q Q Q Q Q Q     # 5 p s p $   x O.+.+.+...M X   O 3 5 : = +     Q Q Q Q Q Q Q Q Q Q Q Q Q Q Q Q ",
"Q Q Q Q Q Q Q Q Q Q Q Q Q Q Q Q Q Q Q   O : i 2 @     O M ' ' ) n #       # u s i =   Q Q Q Q Q Q Q Q Q Q Q Q Q Q Q Q Q ",
"Q Q Q Q Q Q Q Q Q Q Q Q Q Q Q Q Q Q Q Q                 X , 6 ;                     Q Q Q Q Q Q Q Q Q Q Q Q Q Q Q Q Q Q ",
"Q Q Q Q Q Q Q Q Q Q Q Q Q Q Q Q Q Q Q Q Q Q                             Q Q Q Q Q Q Q Q Q Q Q Q Q Q Q Q Q Q Q Q Q Q Q Q ",
"Q Q Q Q Q Q Q Q Q Q Q Q Q Q Q Q Q Q Q Q Q Q Q                         Q Q Q Q Q Q Q Q Q Q Q Q Q Q Q Q Q Q Q Q Q Q Q Q Q ",
"Q Q Q Q Q Q Q Q Q Q Q Q Q Q Q Q Q Q Q Q Q Q Q Q                       Q Q Q Q Q Q Q Q Q Q Q Q Q Q Q Q Q Q Q Q Q Q Q Q Q ",
"Q U Q Q Q Q Q Q Q Q Q Q Q Q Q Q Q Q Q Q Q Q Q Q           Q         Q Q Q Q Q Q Q Q Q Q Q Q Q Q Q Q Q Q Q Q Q Q Q Q Q Q ",
"Q r Q Q Q Q Q Q Q Q Q Q Q Q Q Q Q Q Q Q Q Q Q Q Q         Q         Q Q Q Q W Q Q Q Q Q Q Q Q Q Q Q Q Q Q Q Q Q Q Q Q Q ",
"W r Q W Q Q Q Q Q Q Q Q Q Q Q Q Q Q Q Q Q Q Q Q Q       Q Q       Q Q Q W W F W W W Q W Q Q Q Q Q Q Q Q Q Q Q Q Q Q Q Q ",
"T y W D Q Q Q Q Q Q Q Q Q Q Q Q Q Q Q Q Q Q Q Q Q Q     Q Q     Q Q Q Q P P H Q y P T w W Q Q Q Q G T Q Q Q Q Q Q Q Q Q ",
"Q P W G Q Q Q Q Q Q Q Q Q Q Q Q Q Q Q Q Q Q Q Q Q Q Q Q Q Q Q Q Q Q Q Q P P Q Q K Q E J Q Q Q Q P y W Q Q Q Q Q Q Q Q Q ",
"Q Q Q T Q Q Q Q Q Q Q Q Q Q Q Q Q Q Q Q Q Q Q Q Q Q Q Q Q Q Q Q Q Q Q Q Q T Q Q Q Q Q Q Q Q Q Q Q Q Q Q Q Q Q Q Q Q Q Q ",
"Q Q Q Q Q Q Q Q Q Q Q Q Q Q Q Q Q Q Q Q Q Q Q Q Q Q Q Q Q Q Q Q Q Q Q Q Q Q Q Q Q Q Q Q Q Q Q Q Q Q Q Q Q Q Q Q Q Q Q Q "
};
