/* XPM */
static char *_0d28ce7738941a2ff76d89af30bace1KGz48CokoGQUwRML[] = {
/* columns rows colors chars-per-pixel */
"60 60 163 2 ",
"   c #47413E",
".  c #5E7636",
"X  c #617637",
"o  c #62773A",
"O  c #647B3D",
"+  c #4C4645",
"@  c #4E4846",
"#  c #4F4B49",
"$  c #504747",
"%  c #504846",
"&  c #534C4B",
"*  c #55504E",
"=  c #5A524F",
"-  c #565251",
";  c #5B5553",
":  c #5E5956",
">  c #5F5A59",
",  c #625754",
"<  c #625A57",
"1  c #6D5E56",
"2  c #635E5C",
"3  c #6D5E59",
"4  c #705E56",
"5  c #705F59",
"6  c #6D6E4D",
"7  c #6E704E",
"8  c #6D6255",
"9  c #6E6C52",
"0  c #65605E",
"q  c #6D615B",
"w  c #6F6A5D",
"e  c #706453",
"r  c #706D53",
"t  c #72635C",
"y  c #726B5A",
"u  c #6E7051",
"i  c #707052",
"p  c #73735B",
"a  c #79725F",
"s  c #666362",
"d  c #6C6562",
"f  c #6E6866",
"g  c #6E6D6B",
"h  c #726662",
"j  c #746A64",
"k  c #796B64",
"l  c #746D6A",
"z  c #7A6F6A",
"x  c #767762",
"c  c #7B7466",
"v  c #787963",
"b  c #76716E",
"n  c #7C726D",
"m  c #7A796D",
"M  c #777271",
"N  c #7C7573",
"B  c #7D7977",
"V  c #7E7B7A",
"C  c #82746D",
"Z  c #827A6C",
"A  c #817672",
"S  c #837A75",
"D  c #887C77",
"F  c #847D7B",
"G  c #897F7B",
"H  c #68803F",
"J  c #6B8345",
"K  c #6E864A",
"L  c #71864A",
"P  c #748C4D",
"I  c #768E50",
"U  c #7B9354",
"Y  c #7D9559",
"T  c #819656",
"R  c #80965B",
"E  c #859E5E",
"W  c #879F62",
"Q  c #899F62",
"!  c #828174",
"~  c #85817E",
"^  c #8A827E",
"/  c #92857F",
"(  c #87A060",
")  c #8DA565",
"_  c #8FA568",
"`  c #90A569",
"'  c #868281",
"]  c #8B8583",
"[  c #8C8985",
"{  c #8E8C87",
"}  c #8F8B89",
"|  c #8D8B8A",
" . c #8D8B8C",
".. c #8C8D8D",
"X. c #8D8D8D",
"o. c #8E8E8C",
"O. c #928785",
"+. c #908986",
"@. c #928A86",
"#. c #908B88",
"$. c #928B8A",
"%. c #908C89",
"&. c #938E8D",
"*. c #998F8B",
"=. c #93908D",
"-. c #949291",
";. c #999492",
":. c #9C9593",
">. c #9D9996",
",. c #9D9A9A",
"<. c #A09795",
"1. c #A29A97",
"2. c #AA9E97",
"3. c #A09C9B",
"4. c #A29D9C",
"5. c #A49F9D",
"6. c #A6A19D",
"7. c #AAA29F",
"8. c #A6A2A1",
"9. c #AAA5A3",
"0. c #AEA9A6",
"q. c #B1ABA7",
"w. c #B3ADAB",
"e. c #B5B1AF",
"r. c #B8B1AE",
"t. c #B6B2B2",
"y. c #BBB5B4",
"u. c #BEB8B6",
"i. c #BBB7B8",
"p. c #BDBABA",
"a. c #C3BAB7",
"s. c #C2BDBB",
"d. c #C3BEBD",
"f. c #CABEB8",
"g. c #C2C1BF",
"h. c #C6C1BF",
"j. c #C8C2BE",
"k. c #C2BFC0",
"l. c #C5C3C3",
"z. c #C8C3C1",
"x. c #CBC6C3",
"c. c #C9C4C4",
"v. c #CAC5C4",
"b. c #CBC8C7",
"n. c #CECAC9",
"m. c #D3CFCF",
"M. c #D6D2D1",
"N. c #DFD5D1",
"B. c #DDD9D7",
"V. c #DEDBDB",
"C. c #E1DCDB",
"Z. c #E4E1DF",
"A. c #E5E4E4",
"S. c #E9E5E4",
"D. c #EFECEB",
"F. c #F4EDE7",
"G. c #F2EEEB",
"H. c #F5F1EE",
"J. c #F4F3F1",
"K. c #FAF4F3",
"L. c #FCFAF7",
"P. c #FEFDFD",
"I. c #FFFEFE",
/* pixels */
") ) ) ) ) ) ) ) ) ) ) ) ) ) ) ) ) ) ) ) ) ) ) ) ) ) ) ) ) ) ) ) ) ) ) ) ) ) ) ) ) ) ) ) ) ) ) ) ) ) ) ) ) ) ) ) ) ) ) ) ",
") ) ) ) ) ) ) ) ) ) ) ) ) ) ) ) ) ) ) ) ) ) ) ) ) ) ) ) ) ) ) ) ) ) ) ) ) ) ) ) ) ) ) ) ) ) ) ) ) ) ) ) ) ) ) ) ) ) ) ) ",
") ) ) ) ) ) ) ) ) ) ) ) ) ) ) ) ) ) ) ) ) ) ) ) ) ) ) ) ) ) ) ) ) ) ) ) ) ) ) ) ) ) ) ) ) ) ) ) ) ) ) ) ) ) ) ) ) ) ) ) ",
") ) ) ) ) ) ) ) ) ) ) ) ) ) ) ) ) ) ) ) ) ) ) ) ) ) ) ) ) ) ) ) ) ) ) ) ) ) ) ) ) ) ) ) ) ) ) ) ) ) ) ) ) ) ) ) ) ) ) ) ",
") ) ) ) ) ) ) ) ) ) ) ) ) ) ) ) ) ) ) ) ) ) ) ) ) ) ) ) ) ) ) ) ) ) ) ) ) ) ) ) ) ) ) ) ) ) ) ) ) ) ) ) ) ) ) ) ) ) ) ) ",
") ) ) ) ) ) ) ) ) ) ) ) ) ) ) ) ) ) ) ) ) ) ) ) ) ) ) ) ) ) ) ) ) ) ) ) ) ) ) ) ) ) ) ) ) ) ) ) ) ) ) ) ) ) ) ) ) ) ) ) ",
") ) ) ) ) ) ) ) ) ) ) ) ) ) ) ) ) ) ) ) ) ) ) ) ) ) ) ) ) ) ) ) ) ) ) ) ) ) ) ) ) ) ) ) ) ) ) ) ) ) ) ) ) ) ) ) ) ) ) ) ",
") ) ) ) ) ) ) ) ) ) ) ) ) ) ) ) ) ) ) ) ) ) ) ) ) ) q 1 1 3 3 3 3 3 3 3 3 3 3 1 1 1 1 1 1 t n h t h ) ) ) ) ) ) ) ) ) ) ",
") ) ) ) ) ) ) ) ) n t t q q q q 3 3 3 3 3 3 3 3 3 3 h z N N S F F ~ ] ] ] ] ] ] ] ^ F n l q 1 3 3 1 ) ) ) ) ) ) ) ) ) ) ",
") ) ) ) ) ) 1 3 3 3 3 3 3 3 3 3 3 1 3 3 q t t q q l B o.o.o.o.o.o.o.o.o.o.o.o.o.o.o.o.o.o.} D 3 3 1 ) ) ) ) ) ) ) ) ) ) ",
") ) ) ) ) ) 3 1 3 3 q q 1 q 1 1 1 q q j n n h j ] o.o.o.o.o.o.o.o.o.o.o.o.o.o.o.o.o.o.o.o.o.#.A 3 3 ) ) ) ) ) ) ) ) ) ) ",
"( ) ) ) ) ) t 3 1 t [ [ [ [ S j l ~ } { ] h h ] %.o.o.o.o.o.o.o.o.o.o.o.o.o.o.o.o.o.o.o.o.o.o.] q 3 h ) ) ) ) ) ) ) ) ) ",
"K ) Y _ ` ) t 3 1 l o.o.o.%.%.o.%.o.o.] l f ] %.%.o.o.o.o.o.o.o.o.o.o.o.o.o.o.o. .} o.o.o.o.o.[ q 3 3 3 q ) ) ) ) ) ) ) ",
"L J Y _ _ o t 3 1 n %.o.o.%.%.o.} ] S d d ^ } [ } } } o.o.o.o.} ' N f 2 > > 0 g M ~ F ' ' ' ] F j 3 3 3 q ) ) ) ) ) ) ) ",
") J W _ J O 3 3 1 S o.o.o.] %.] l q q 3 N %.: 2 s * s %.%.%.] ; - ' ;.5.6.3.-.M - + # M F - & 3 h q 3 3 n ) ) ) ) ) ) ) ",
") ( ) ) R Q 3 3 1 F o.%.} l l d l F +.] [ { ; &.x.j.; M &.] : B h.u.b < d #.l.v.l.d.V.I.I.S.; ] #.z 3 3 q ) ) ) ) ) ) ) ",
") ) ) ) ) ) 3 3 1 ] o.} N q l ] %.%.o.o.o.o.~ ;   & @ ; %.l * g.;.l @ @ @ @ >.l.l.l.n.A.8.> N &.o.A 3 3 3 ) ) ) ) ) ) ) ",
") ) ) ) ) q 3 1 q [ [ l s B N l ~ ] > * b d @ & y.& l 0 ' d l v.3.- @ @ @ @ V l.l.l.n.n.-.& & M o.[ h 3 3 ) ) ) ) ) ) ) ",
") ) ) ) ) q 3 1 t ] l l N ;.D.C.> ~ s 0.& + ] ; K.; p.w.M f B l.l.w.F f s #.l.l.l.l.M.I.S.2 + s o.#.l 3 3 l ) ) ) ) ) ) ",
") ) ) ) ) 3 3 3 z z l [ N s l 0 l F 2 e.; - 6.l f * %.;.b s F l.l.l.v.z.z.v.l.l.l.l.l.s * ; l } o.&.N 3 3 j ) ) ) ) ) ) ",
") ) ) ) ) 3 3 3 j d ] %.} ] F B F F ; 9.; 2 9.;.& d < + f 2 ] l.l.l.l.l.z.v.l.l.l.l.i.* N B ' &.o.o.] 3 3 h ) ) ) ) ) ) ",
") ) ) ) ) 1 3 3 n N o.o.g l 1.[ M } ; 5.- & >.N 1.7.- q.@ s [ v.l.t.:.s > B d.l.l.l.i.& ' &.o.o.o.o.#.h 3 q ) ) ) ) ) ) ",
") ) ) ) q 3 3 h +.o.o.o.V B ;.#.; ] & 6.< < & = &.x.l H.@ 2 ' l.M - & & & @ ; k.l.l.p.- ' %.o.o.o.o.[ z 3 3 ) ) ) ) ) ) ",
") ) ) ) 3 3 3 ] 8.-.o.o.[ F M l F o.F 0 q j , d = < ; ~ & d B v.3.F @ & & $ @ d.l.l.l.0 V &.o.o.o.o.V q 3 1 B ) ) ) ) ) ",
") ) ) ) 3 3 7.I.K.g.;.o.o.o.} [ o.o.o.o.n 3 3 ; : f f f B B > n.z.a.f & $ % &.l.l.l.l.M # V o.o.o.o.[ h 3 1 l ) ) ) ) ) ",
") ) ) ) 3 s.I.I.I.L.A.,.o.o.o.o.o.o.o.%.F h ; :.J.J.e.- o.} ; ,.v.v.d.t.8.t.l.l.l.l.m.J.b.# g o.o.o.o.O.q 3 j ) ) ) ) ) ",
") ) ) q :.I.I.I.I.I.I.V.-.o.o.o.o.o.o.F l h h f F B l V o.&.V & ,.v.v.l.l.l.l.l.l.l.v.V.l.- ; o.o.o.o.%.n 3 d ) ) ) ) ) ",
") ) ) n F.I.I.I.I.I.A.-.o.o.o.o.o.o.B j j j S &.&.&.&.o.o.o.} l & V e.d.l.l.l.l.l.l.l.l.l # V ' } o.o.o.^ 3 q ) ) ) ) ) ",
") ) ) S N.J.I.I.I.A.-.o.o.o.o.&.o.%.M d d S %.o.o.o.o.o.o.o.o.[ b 2 & * & ; * - - - ' I.I.4.* ' [ } o.o.^ 3 3 ) ) ) ) ) ",
") ) h q ^ a.C.K.H.9.[ [ ] F B N #.u.e.#.^ %.%.o.o.o.o.o.o.o.o.o.[ F N h d q 0 0 2 < & ~ B.B.# V ] { o.o.n 3 3 ) ) ) ) ) ",
") ) 3 q a.M.w.u.#.h q q q 3 q h :.r.x.z.0.;.%.o.o.[ F ] o.o.o.o.o.o.} } ' F V F V V ' l 2 2 2 V [ o.o.o.F 3 3 l ) ) ) ) ",
") ) 3 2.H.K.D.m.;.q q q 3 3 3 3 N <.w.a.a.] N S G S q q N } o.o.} o.} o.o.o.o.o.o.o.o.&.o.] ] [ o.o.o.o.#.h 3 3 ) ) ) ) ",
") ) t f.H.I.I.I.G.] ^ ~ ^ F F S n q n *.F d q 3 3 q q 3 q h z N A F ] } #.} [ [ { o.o.[ ! ~ [ o.o.o.o.o.%.A 3 1 ) ) ) ) ",
") ) 3 D a.S.K.L.Z.=.} %.%.&.&.&.^ q q z +.^ G F S A t q q t t 3 3 3 q d q q w p p x v p u p m ~ ' ] } } } ^ 3 3 h ) ) ) ",
") ) q 3 q ~ a.x.S h j b N S F F S q q k ^ h q C ] +.k q q ^ O.^ G S A n k k y 9 u 6 7 7 7 7 9 8 q q q d d A h 1 3 B ) ) ",
") ) ) ) 3 3 t k 3 t q 3 q q q q q 3 3 3 q 8 3 3 q t t 4 3 j z n N A S S A C a i 7 7 7 7 7 7 9 y k k j q q q t 3 3 d ) ) ",
"_ ) ) ) ) 3 3 3 4 C C t t t t t t t k k t 3 3 3 3 3 t 4 4 3 3 3 3 3 3 3 3 1 8 9 7 7 7 7 7 7 7 y 8 j j k A z q 3 N ) ) ) ",
") ) ) ) ) q 3 3 3 t t 3 3 3 3 3 3 3 t q t 3 3 3 3 3 4 4 3 3 4 4 4 4 4 4 4 3 8 r 7 7 7 7 7 7 7 9 8 1 3 3 3 3 h n ) ) ) ) ",
") ) ) ) ) j 3 3 8 q 3 8 3 3 3 3 4 3 3 3 3 3 3 3 3 3 4 4 4 4 4 4 4 4 4 4 4 3 8 6 6 7 7 7 6 6 6 r 8 1 3 3 3 q ( ) ) ) ) ) ",
") ) ) ) ) ) q 3 1 D k t 3 3 3 3 4 4 4 4 4 4 4 4 4 4 4 4 4 4 4 4 4 4 4 4 4 3 3 8 6 7 7 u 9 r 9 e 3 3 3 3 3 q L ) ) ( U ) ",
") ) ) ) ) ) q 1 1 j n q 3 3 3 3 5 3 3 3 3 4 4 4 4 4 4 4 4 4 4 4 4 4 4 4 4 3 3 8 9 7 7 u y 8 8 3 3 1 3 3 3 q Q ) ) E J ) ",
") ) ) ) ) ) ) 1 1 q A D j q q 3 3 3 3 3 5 4 4 4 4 4 4 4 4 4 4 4 4 4 4 4 4 4 4 8 i 7 i r 8 8 3 3 3 3 3 3 3 j ) ) ) ) ( ) ",
") ) ) ) ) ) ) 1 1 t ] +.%.#.^ S n h d 3 3 3 5 3 3 3 3 3 8 8 3 4 5 4 4 4 4 4 4 8 i 7 r 8 3 3 3 3 3 3 3 3 j ) ) ) ) ) ) ) ",
") ) ) ) ) ) ) q 3 q h F ] [ } %.%.+.+.] ] F S S N n z l j h t q q q 3 3 3 3 8 9 7 7 r 8 3 3 3 3 3 3 3 j ) ) ) ) ) ) ) ) ",
") ) ) ) ) ) ) n 3 3 1 3 q q d j l N S D ^ ^ [ O.+.#.#.%.%.%.#.} [ ] F S N n k y 7 7 r y 8 3 3 3 8 3 q ) ) ) ) ) ) ) ) ) ",
") ) ) ) ) ) ) ) q q t k k t t q 3 3 3 3 q 3 3 q q q d j l N F ^ ] +.#.#.#.%.+.p 7 7 r Z j 8 t S h 3 j ) ) ) ) ) ) ) ) ) ",
") ) ) ) ) ) ) ) l q 8 3 q t t t t t t t t t t t t t 5 3 3 q q q q q q d d w p i 7 7 r c t t h / t 3 ) ) ) ) ) ) ) ) ) ) ",
") ) ) ) ) ) ) ) ) n h h t t q q 3 3 4 5 3 3 4 4 4 4 5 5 5 5 5 t t q q q 8 9 9 7 7 u 9 8 8 t 3 t q 3 ) ) ) ) ) ) ) ) ) ) ",
") ) ) ) ) ) ) ) ) N 2 3 3 3 3 q q q 3 5 5 q q q 8 8 8 8 8 8 8 8 8 t 5 3 8 9 7 7 u 9 8 3 q 3 3 q 3 3 ) ) ) ) ) ) ) ) ) ) ",
") ) ) ) ) ) ) ) ) ) ) ) ) ) ) ) ) ) ) ) l l j h d q q q q q 3 3 3 q t t r i i r i v c D ^ h 3 q l h ) ) ) ) ) ) ) ) ) ) ",
") ) ) ) ) ) ) ) ) ) ) ) ) ) ) ) ) ) ) ) ) ) ) ) ) ) ) ) ) ) ) N n l j q 8 8 8 w 8 w q h S ^ q h ) ) ) ) ) ) ) ) ) ) ) ) ",
") ) ) ) ) ) ) ) ) ) ) ) ) ) ) ) ) ) ) ) ) ) ) ) ) ) ) ) ) ) ) ) ) ) ) ) ) ) ) ) ) ) ) ) ) ) ) ) ) ) ) ) ) ) ) ) ) ) ) ) ",
") ) ) ) ) ) ) ) ) ) ) ) ) ) ) ) ) ) ) ) ) ) ) ) ) ) ) ) ) ) ) ) ) ) ) ) ) ) ) ) ) ) ) ) ) ) ) ) ) ) ) ) ) ) ) ) ) ) ) ) ",
") T ) ) ) ) ) ) ) ) ) ) ) ) ) ) ) ) ) ) ) ) ) ) ) ) ) ) ) ) ) ) ) ) ) ) ) ) ) ) ) ) ) ) ) ) ) ) ) ) ) ) ) ) ) ) ) ) ) ) ",
") X ) ) ) ) ) ) ) ) ) ) ) ) ) ) ) ) ) ) ) ) ) ) ) ) ) ) ) ) ) ) ) ) ) ) ) ) ( ) ) ) ) ) ) ) ) ) ) ) ) ) ) ) ) ) ) ) ) ) ",
"( o ) ( ) ) ) ) ) ) ) ) ) ) ) ) ) ) ) ) ) ) ) ) ) ) ) ) ) ) ) ) ) ) ) ) ( ( J ( ( ( ) ( ) ) ) ) ) ) ) ) ) ) ) ) ) ) ) ) ",
"E O ( H ) ) ) ) ) ) ) ) ) ) ) ) ) ) ) ) ) ) ) ) ) ) ) ) ) ) ) ) ) ) ) ) U U L ) O U E . ( ) ) ) ) J R ) ) ) ) ) ) ) ) ) ",
") U ( J ) ) ) ) ) ) ) ) ) ) ) ) ) ) ) ) ) ) ) ) ) ) ) ) ) ) ) ) ) ) ) ) U U ) ) I ) W P ) ) ) ) U O ( ) ) ) ) ) ) ) ) ) ",
") ) ) E ) ) ) ) ) ) ) ) ) ) ) ) ) ) ) ) ) ) ) ) ) ) ) ) ) ) ) ) ) ) ) ) ) E ) ) ) ) ) ) ) ) ) ) ) ) ) ) ) ) ) ) ) ) ) ) ",
") ) ) ) ) ) ) ) ) ) ) ) ) ) ) ) ) ) ) ) ) ) ) ) ) ) ) ) ) ) ) ) ) ) ) ) ) ) ) ) ) ) ) ) ) ) ) ) ) ) ) ) ) ) ) ) ) ) ) ) "
};
