/* XPM */
static char *_1b3f33e8fe84d00f4efacd549c23eedzWCk3pSyFVvmK2Q4[] = {
/* columns rows colors chars-per-pixel */
"60 60 65 1 ",
"  c #50652B",
". c #556A31",
"X c #556C32",
"o c #586D36",
"O c #5B7135",
"+ c #5D7237",
"@ c #5E7636",
"# c #5E7339",
"$ c #5D743A",
"% c #617637",
"& c #62773A",
"* c #62773D",
"= c #637838",
"- c #627A3C",
"; c #647A3D",
": c #667C3F",
"> c #667B43",
", c #657D40",
"< c #687F44",
"1 c #68803F",
"2 c #688043",
"3 c #6B8443",
"4 c #6B8346",
"5 c #6C8046",
"6 c #6D8545",
"7 c #6E8348",
"8 c #6E864A",
"9 c #708549",
"0 c #71864C",
"q c #70884A",
"w c #72884E",
"e c #758B4E",
"r c #778F4F",
"t c #748950",
"y c #758D50",
"u c #788D53",
"i c #799153",
"p c #7A9254",
"a c #7C9356",
"s c #7F9655",
"d c #7B9358",
"f c #7C9059",
"g c #7E965A",
"h c #819656",
"j c #80965B",
"k c #80965C",
"l c #81995B",
"z c #83995D",
"x c #859B5D",
"c c #839C5E",
"v c #849C5E",
"b c #829A60",
"n c #879E63",
"m c #899F62",
"M c #87A060",
"N c #8AA262",
"B c #8CA262",
"V c #89A165",
"C c #8CA264",
"Z c #8DA565",
"A c #8EA268",
"S c #8FA568",
"D c #8FA46C",
"F c #90A567",
"G c #90A569",
/* pixels */
"ZZZZZZZZZZZZZZZZZZZZZZZZZZZZZZZZZZZZZZZZZZZZZZZZZZZZZZZZZZZZ",
"ZZZZZZZZZZZZZZZZZZZZZZZZZZZZZZZZZZZZZZZZZZZZZZZZZZZZZZZZZZZZ",
"ZZZZZZZZZZZZZZZZZZZZZZZZZZZZZZZZZZZZZZZZZZZZZZZZZZZZZZZZZZZZ",
"ZZZZZZZZZZZZZZZZZZZZZZZZZZZZZZZZZZZZZZZZZZZZZZZZZZZZZZZZZZZZ",
"ZZZZZZZZZZZZZZZZZZZZZZZZZZZZZZZZZZZZZZZZZZZZZZZZZZZZZZZZZZZZ",
"ZZZZZZZZZZZZZZZZZZZZZZZZZZZZZZZZZZZZZZZZZZZZZZZZZZZZZZZZZZZZ",
"ZZZZZZZZZZZZZZZZZZZZZZZZZZZZZZZZZZZZZZZZZZZZZZZZZZZZZZZZZZZZ",
"ZZZZZZZZZZZZZZZZZZZZZZZZZZZZZZZZZZZZZZZZZZZZZZZZZZZZZZZZZZZZ",
"ZZZZZZZZZZZZZZZZZZZZZSlVZlZZZZZZZZZZZZZZZZZZZZZZZZZZZZZZZZZZ",
"ZZZZZZZZZZZZZZZZZZZZZS4iS-NZZZZZZZZZZZZZZZZZZZZZZZZZZZZZZZZZ",
"ZZZZZZZZZZZZZZZZZZZZZZ8yV&VNZZZZZZZZZCZSZCZZZZFZFZZZZZZZZZZZ",
"NZZZZZZZZZZZZZZZZZZZZZlpN;N2NZZZZZZZVjxD#7SaOpGn4=ZZZZZZZZZZ",
"8VgSGCaZZZZZZZZZZZZZZZZZZav,VZZZZZZZZ-.fo*A&&CS5 zZZZZZZZZZZ",
"94dSS&wSZZZZZZZZZZZZZZZZZZVNZZZZZZZZZZCZvxZZZZZZZZZZZZZZZZZZ",
"C4nA5:CZZZZZZZZZZZZZZZZZZZZZZZZZZZZZZZZZZZZZZZZZZZZZZZZZZZZZ",
"ZNZZjmFZZZZZZZZZZZZZZZZZZZZZZZZZZZZZZZZZZZZZZZZZZZZZZZZZZZZZ",
"ZZZZZZZZZZZZZZZZZZZZZZZZZZZZZZZZZZZZZZZZZZZZZZZZZZZZZZZZZZZZ",
"ZZZZZZZZZZZZZZZZZZZZZZZZZZZZZZZZZZZZZZZZZZZZZZZZZZZZZZZZZZZZ",
"ZZZZZZZZZZZZZZZZZZZZZZZZZZZZZZZZZZZZZZZZZZZZZZZZZZZZZZZZZZZZ",
"ZZZZZZZZZZZZZZZZZZZZZZZZZZZZZZZZZZZZZZZZZZZZZZZZZZZZZZZZZZZZ",
"ZZZZZZZZZZZZZZZZZZZZZZZZZZZZZZZZZZZZZZZZZZZZZZZZZZZZZZZZZZZZ",
"ZZZZZZZZZZZZZZZZZZZZZZZZZZZZZZZZZZZZZZZZZZZZZZZZZZZZZZZZZZZZ",
"ZZZZZZZZZZZZZZZZZZZZZZZZZZZZZZZZZZZZZZZZZZZZZZZZZZZZZZZZZZZZ",
"ZZZZZZZZZZZZZZZZZZZZZZZZZZZZZZZZZZZZZZZZZZZZZZZZZZZZZZZZZZZZ",
"ZZZZZZZZZZZZZZZZZZZZZZZZZZZZZZZZZZZZZZZZZZZZZZZZZZZZZZZZZZZZ",
"ZZZZZZZZZZZZZZZZZZZZZZZZZZZZZZZZZCSZvZNNZZZZZZZZZZZZZZZZZZZZ",
"ZZZZZZZZZZZZZZZNSSNNZZZZZZZZZZZZV-b>uGy9ZZMsZZZZZZZZZZZZZZZZ",
"ZZZZZZZZZZZZZNV4kdueZZZZZZZZZZZZc$t+SS-mZZv3ZZZZZZZZZZZZZZZZ",
"ZZZZZZZZZZZZZZnX*t<yZZZZZZZZZZZZSbb7ZGnSZZZNZZZZZZZZZZZZZZZZ",
"ZZZZZZZZZZZZZZZz0zuNZZZZZZZZZZZZZZZZZZZZZZZZZZZZZZZZZZZZZZZZ",
"ZZZZZZZZZZZZZZZZNZZZZZZZZZZZZZZZZZZZZZZZZZZZZZZZZZZZZZZZZZZZ",
"ZZZZZZZZZZZZZZZZZZZZZZZZZZZZZZZZZZZZZZZZZZZZZZZZZZZZZZZZZZZZ",
"ZZZZZZZZZZZZZZZZZZZZZZZZZZZZZZZZZZZZZZZZZZZZZZZZZZZZZZZZZZZZ",
"ZZZZZZZZZZZZZZZZZZZZZZZZZZZZZZZZZZZZZZZZZZZZZZZZZZZZZZZZZZZZ",
"ZZZZZZZZZZZZZZZZZZZZZZZZZZZZZZZZZZZZZZZZZZZZZZZZZZZZZZZZZZZZ",
"VZZZZZZZZZZZZZZZZZZZZZZZZZZZZZZZZZZZZZZZZZZZZZZZZZZZZZZZZZZZ",
"SZZZZZZZZZZZZZZZZZZZZZZZZZZZZZZZZZZZZZZZZZZZZZZZZZZZZZZZZZZZ",
"ZZZZZZZZZZZZZZZZZZZZZZZZZZZZZZZZZZZZZZZZZZZZZZZZZZZZZZZZZZZZ",
"ZZZZZZZZZZZZZZZZZZZZZZZZZZZZZZZZZZZZZZZZZZZZZZZZCSZvZNNZZZZZ",
"ZZZZZZZZZZZZZZZZZZZZZZZZZZZZZZZZZZZZZZZZZZZZZZZV-b>uGy9ZZMsZ",
"ZZZZZZZZZZZZZZZZZZZZZZZZZZZZZZZZZZZZZZZZZZZZZZZc$t+SS-mZZv3Z",
"ZZZZZZZZZZZZZZZCSZvZNNZZZZZZZZZZZZZZZZZZZZZZZZZSbb7ZGnSZZZNZ",
"ZZZZZZZZZZZZZZV-b>uGy9ZZMsZZZZZZZZZZZZZZZZZZZZZZZZZZZZZZZZZZ",
"ZZZZZZZZZZZZZZc$t+SS-mZZv3ZZZZZZZZZZZZZZZZZZZZZZZZZZZZZZZZZZ",
"ZZZZZZZZZZZZZZSbb7ZGnSZZZNZZZZZZZZZZZZZZZZZZZZZZZZZZZZZZZZZZ",
"ZZZZZZZZZZZZZZZZZZZZZZZZZZZZZZZZZZZZZZZZZZZZZZZZZZZZZZZZZZZZ",
"ZZZZZZZZZZZZZZZZZZZZZZZZZZZZZZZZZZZZZZZZZZZZZZZZZZZZZZZZZZZZ",
"ZZZZZZZZZZZZZZZZZZZZZZZZZZZZZZZZZZZZZZZZZZZZZZZZZZZZZZZZZZZZ",
"ZZZZZZZZZZZZZZZZZZZZZZZZZZZZZZZZZZZZZZZZZZZZZZZZZZZZZZZZZZZZ",
"ZZZZZZZZZZZZZZZZZZZZZZZZZZZZZZZZZZZZZZZZZZZZZZZZZZZZZZZZZZZZ",
"ZZZZZZZZZZZZZZZZZZZZZZZZZZZZZZZZZZZZZZZZZZZZZZZZZZZZZZZZZZZZ",
"ZZZZZZZZZZZZZZZZZZZZZZZZZZZZZZZZZZZZZZZZZZZZZZZZZZZZZZZZZZZZ",
"ZZZZZZZZZZZZZZZZZZZZZZZZZZZZZZZZZZZZZZZZZZZZZZZZZZZZZZZZZZZZ",
"ZhZZZZZZZZZZZZZZZZZZZZZZZZZZZZZZZZZZZZZZZZZZZZZZZZZZZZZZZZZZ",
"B%BZZZZZZZZZZZZZZZZZZZZZZZZZZZZZZZZZZZNZZZZZZZZZZZZZZZZZZZZZ",
"N=ZNZZZZZZZZZZZZZZZZZZZZZZZZZZZZZZZZNN2NNNVNZZZZZZVZZZZZZZZZ",
"v:N1ZZZZZZZZZZZZZZZZZZZZZZZZZZZZZZZZisqZ:sv@NZZZV6zZZZZZZZZZ",
"ZsN6ZZZZZZZZZZZZZZZZZZZZZZZZZZZZZZZZiiVZyVnrZZZZp-NZZZZZZZZZ",
"ZZZvZZZZZZZZZZZZZZZZZZZZZZZZZZZZZZZZZvZZZZZZZZZZVZZZZZZZZZZZ",
"ZZZZZZZZZZZZZZZZZZZZZZZZZZZZZZZZZZZZZZZZZZZZZZZZZZZZZZZZZZZZ"
};
