/* XPM */
static char *_66d606b081d467ae5e63f5a2ae2f8f0vg2wt4yM8kHRhLdY[] = {
/* columns rows colors chars-per-pixel */
"60 60 213 2 ",
"   c #2E0C06",
".  c #370D03",
"X  c #2C1205",
"o  c #291804",
"O  c #36190C",
"+  c #36280F",
"@  c #372512",
"#  c #430F01",
"$  c #52190B",
"%  c #482E19",
"&  c #762C1A",
"*  c #743218",
"=  c #642B22",
"-  c #7E471F",
";  c #52472D",
":  c #53532C",
">  c #5F5738",
",  c #7C4222",
"<  c #7E4A24",
"1  c #7F5025",
"2  c #654531",
"3  c #5F6239",
"4  c #5E7437",
"5  c #7E633B",
"6  c #716E3F",
"7  c #627739",
"8  c #647B3D",
"9  c #6D6B47",
"0  c #7D6640",
"q  c #746D44",
"w  c #7B6D45",
"e  c #6E7545",
"r  c #6B7A45",
"t  c #747345",
"y  c #797146",
"u  c #777449",
"i  c #757B4B",
"p  c #797B4B",
"a  c #7C7955",
"s  c #863E1C",
"d  c #8C3C1D",
"f  c #9B371E",
"g  c #933A1E",
"h  c #9B391E",
"j  c #A23A1F",
"k  c #843927",
"l  c #8D3D22",
"z  c #943A22",
"x  c #9C3B21",
"c  c #943828",
"v  c #9A3B2A",
"b  c #A43D23",
"n  c #AA3E24",
"m  c #A53E2A",
"M  c #AB3F2A",
"N  c #85401C",
"B  c #854424",
"V  c #8B4323",
"C  c #824B24",
"Z  c #8F4827",
"A  c #864329",
"S  c #844B2A",
"D  c #8D4D2B",
"F  c #924726",
"G  c #82512B",
"H  c #86572C",
"J  c #874F32",
"K  c #835535",
"L  c #8C5431",
"P  c #835B34",
"I  c #8D5B35",
"U  c #825C3A",
"Y  c #88583A",
"T  c #935733",
"R  c #A44126",
"E  c #AB4126",
"W  c #A54228",
"Q  c #AC432B",
"!  c #B44227",
"~  c #B4442B",
"^  c #BB462C",
"/  c #B24A2E",
"(  c #BB492D",
")  c #A94532",
"_  c #B64B36",
"`  c #BD4C32",
"'  c #BE5136",
"]  c #BE5239",
"[  c #896236",
"{  c #86633D",
"}  c #886539",
"|  c #8B6A3D",
" . c #94633C",
".. c #C54A2C",
"X. c #C94B2D",
"o. c #C34B31",
"O. c #CC4F31",
"+. c #C45136",
"@. c #CE5233",
"#. c #C3543B",
"$. c #C6583E",
"%. c #C9583E",
"&. c #D15436",
"*. c #D45739",
"=. c #D4593D",
"-. c #D95D3F",
";. c #805440",
":. c #BB5642",
">. c #836542",
",. c #8A6440",
"<. c #836B46",
"1. c #8B6D43",
"2. c #966B43",
"3. c #9A6C43",
"4. c #8B7345",
"5. c #8E774E",
"6. c #8C7A4A",
"7. c #927446",
"8. c #977349",
"9. c #9B744B",
"0. c #917C4B",
"q. c #9C794E",
"w. c #8A7F51",
"e. c #977D51",
"r. c #A57E54",
"t. c #C45A44",
"y. c #CC5D42",
"u. c #D05E46",
"i. c #DC5F41",
"p. c #C7634C",
"a. c #D56347",
"s. c #DC6244",
"d. c #D4624A",
"f. c #DB664C",
"g. c #DE694F",
"h. c #C76854",
"j. c #CC6852",
"k. c #D96A51",
"l. c #D7745C",
"z. c #E26547",
"x. c #E26649",
"c. c #E66A4B",
"v. c #E96A4B",
"b. c #E46B51",
"n. c #E86B51",
"m. c #D27160",
"M. c #DC7B63",
"N. c #68803F",
"B. c #6C8346",
"V. c #6E8549",
"C. c #73844B",
"Z. c #7B824E",
"A. c #738A4D",
"S. c #7B8451",
"D. c #768C50",
"F. c #7C8A52",
"G. c #7B9354",
"H. c #7D9359",
"J. c #98804E",
"K. c #888754",
"L. c #818B56",
"P. c #938352",
"I. c #9D8254",
"U. c #968C57",
"Y. c #9E8359",
"T. c #958C59",
"R. c #998C5A",
"E. c #84935B",
"W. c #849659",
"Q. c #88945D",
"!. c #859C5D",
"~. c #9A935E",
"^. c #99975F",
"/. c #A18758",
"(. c #A38B5C",
"). c #A3905F",
"_. c #8E8B65",
"`. c #9A8A63",
"'. c #859B60",
"]. c #8B9D62",
"[. c #8D9867",
"{. c #949761",
"}. c #9D9361",
"|. c #959A63",
" X c #9B9C66",
".X c #919869",
"XX c #9C9E69",
"oX c #A39462",
"OX c #A19B66",
"+X c #A19E68",
"@X c #87A060",
"#X c #8DA565",
"$X c #8EA568",
"%X c #93A466",
"&X c #9AA166",
"*X c #93A36A",
"=X c #9AA26A",
"-X c #DD806A",
";X c #E3846C",
":X c #EB8A76",
">X c #EC947D",
",X c #EE9580",
"<X c #EE9B86",
"1X c #F29380",
"2X c #F5A18A",
"3X c #FAA68F",
"4X c #FDAD98",
"5X c #FDB39D",
"6X c #FFB7A1",
"7X c #FEBAA5",
"8X c #F6BBA9",
"9X c #FCBDAB",
"0X c #FBBEB0",
/* pixels */
"#X#X#X#X#X#X#X#X#X#X#X#X#X#X#X#X#X#X#X#X#X#X#X#X#X#X#X#X#X#X#X#X#X#X#X#X#X#X#X#X#X#X#X#X#X#X#X#X#X#X#X#X#X#X#X#X#X#X#X#X",
"#X#X#X#X#X#X#X#X#X#X#X#X#X#X#X#X#X#X#X#X#X#X#X#X#X#X#X#X#X#X#X#X#X#X#X#X#X#X#X#X#X#X#X#X#X#X#X#X#X#X#X#X#X#X#X#X#X#X#X#X",
"#X#X#X#X#X#X#X#X#X#X#X#X#X#X#X#X#X#X#X#X#X#X#X#X#X#X#X#X#X#X#X#X#X#X#X#X#X#X#X#X#X#X#X#X#X#X#X#X#X#X#X#X#X#X#X#X#X#X#X#X",
"#X#X#X#X#X#X#X#X#X#X#X#X#X#X#X#X#X#X#X#X#X#X#X#X#X#X#X#X#X#X#X#X#X#X#X#X#X#X#X#X#X#X#X#X#X#X#X#X#X#X#X#X#X#X#X#X#X#X#X#X",
"#X#X#X#X#X#X#X#X#X#X#X#X#X#X#X#X#X#X#X#X#X#X#X#X#X#X#X#X#X#X#X#X#X#X#X#X#X#X#X#X#X#X#X#X#X#X#X#X#X#X#X#X#X#X#X#X#X#X#X#X",
"#X#X#X#X#X#X#X#X#X#X#X#X#X#X#X#X#X#X#X#X#X#X#X#X#X#X#X#X#X#X#X#X#X#X#X#X#X#X#X#X#X#X#X#X#X#X#X#X#X#X#X#X#X#X#X#X#X#X#X#X",
"#X#X#X#X#X#X#X#X#X#X#X#X#X#X#X#X#X#X#X#X#X#X#X#X#X#X#X#X#X#X#X#X#X#X#X#X#X#X#X#X#X#X#X#X#X#X#X#X#X#X#X#X#X#X#X#X#X#X#X#X",
"#X#X#X#X#X#X#X#X#X#X#X#X#X#X#X#X#X#X#X#X#X#X#X#X#X#X#X#X#X#X#X#X#X#X#X#X#X#X#X#X#X#X#X#X#X#X#X#X#X#X#X#X#X#X#X#X#X#X#X#X",
"#X#X#X#X#X#X#X#X#X#X#X#X#X#X#X#X#X#X#X#X#X$XW.#X#XW.#X#X#X#X#X#X#X#X#X#X#X#X#X#X#X#X#X#X#X#X#X#X#X#X#X#X#X#X#X#X#X#X#X#X",
"#X#X#X#X#X#X#X#X#X#X#X#X#X#X#X#X#X#X%X=X=X X}.U.e.0.7.| } [ [ [ } 1.0.U.^.&X%X%X#X#X#X#X#X#X#X#X#X#X#X#X#X#X#X#X#X#X#X#X",
"#X#X#X#X#X#X#X#X#X#X#X#X#X#X#X$X#X%X X}.I.2.I D Z Z V V d d d d d V B H | J.~.&X%X#X#X#X#X#X*X*X.X[.[.].].#X#X#X#X#X#X#X",
"@X#X#X#X#X#X#X#X#X#X#X#X#X#X#X*X=XOXY. .D V d g g g g g g h h h g g g d N C I P. X%X*X$X*X*X[.a 9 > : e '.#X#X#X#X#X#X#X",
"V.#XH.$X*X#XG.#X#X#X#X#X#X#X*XXXoX9.L B d g x h h x b b b n n n b b f h x z s S 4.~.=X*X[.9 ; @ o o o : E.#X#X#X#X#X#X#X",
"C.B.H.$X$X7 A.$X#X#X#X#X#X=X XY. .A d g h b b n E ~ ^ ^ ( ( ( ^ ^ ~ Q M b x x d B U `._.> @ X X X X + 3 '.#X#X#X#X#X#X#X",
"#XB.].$XB.8 #X#X#X#X#X#X#X}.q.L B l h b n ! ^ ^ ( ........o.o.` ` ] t.:._ Q m x z k ;.2 O X X o @ + : S.].#X#X#X#X#X#X#X",
"#X@X#X#XW.].%X#X#X#X#X#XOX9.D l z x b ! ^ ................o.` ] j.;X>X,X-Xp._ m v k = O   X O ; a _.|.=X#X#X#X#X#X#X#X#X",
"#X#X#X#X#X#X#X#X#X#X#X Xq.D d g x ~ ( ....................o.#.l.2X6X7X7X5X<Xh.) v k $ . . % u .X*X*X%X%X#X#X#X#X#X#X#X#X",
"#X#X#X#X#X#X#X#X#X#X XY.L l g x E ( ......................` j.2X7X7X9X8X7X6X,X:.v k $ # # 2 `.=X#X#X#X#X#X#X#X#X#X#X#X#X",
"#X#X#X#X#X#X#X#X#X&X/.I V g x E ^ ........................' M.5X7X9X9X9X7X7X5Xm.) c & & * , U T.=X#X#X#X#X#X#X#X#X#X#X#X",
"#X#X#X#X#X#X#X#X%XoX .l g h b ( ..........................] M.6X9X9X0X0X9X9X7X>X:.m v z z l * }  X*X#X#X#X#X#X#X#X#X#X#X",
"#X#X#X#X#X#X#X%X Xq.Z g h b ~ ............................` l.4X9X9X0X0X9X7X7X1Xt.` ~ M b z d C 0.=X#X#X#X#X#X#X#X#X#X#X",
"#X#X#X#X#X#X#X&X~.I l h b ~ o.............................` t.>X7X9X9X9X9X7X6X:X#.o.o.^ n x g s [ {.*X#X#X#X#X#X#X#X#X#X",
"#X#X#X#X#X#X#XOX8.V g b ~ ................................o.' j.<X7X7X7X7X7X3Xk.o.....o.( b x d < P.=X#X#X#X#X#X#X#X#X#X",
"#X#X#X#X#X#X#X).I d h n ^ ..................................` ] h.>X4X5X4X2XM.#.........o.~ x z , 1.XX#X#X#X#X#X#X#X#X#X",
"#X#X#X#X#X#X#XI.V g j ~ o.....................................o.` #.j.l.l.p.#.o...........` b z s U  X#X#X#X#X#X#X#X#X#X",
"#X#X#X#X#X#X#Xq.V h n ^ o...........................................o.o.o.o...............` Q h d G T.#X#X#X#X#X#X#X#X#X",
"#X#X#X#X#X#X#X9.g h ! o.o.............................................X.o.X...............o.~ h d < P.#X#X#X#X#X#X#X#X#X",
"#X#X#X#X#X#X#X3.g h ~ o...................................................X.X.......X.X...o.~ x g B 6.#X#X#X#X#X#X#X#X#X",
"#X#X#X#X#X#X#X3.g h ( +...............................................X.X.O.@.&.&.&.&.&.O.o.~ b z A 6.#X#X#X#X#X#X#X#X#X",
"#X#X#X#X#X#X#X3.d h ( =.*.&.&.@.@.@.@.@.O.X.X.X.X.O.O.@.@.&.&.&.*.=.-.i.s.s.z.x.x.x.z.z.i.=.` b z A 6.#X#X#X#X#X#X#X#X#X",
"#X#X#X#X#X#X#X3.d h ~ a.c.c.c.x.x.z.z.s.s.i.-.-.i.s.s.z.z.c.c.c.c.c.c.v.v.v.v.v.v.v.v.v.c.x.%.W z A 4.#X#X#X#X#X#X#X#X#X",
"#X#X#X#X#X#X#X3.g h ~ f.n.c.c.c.c.c.c.c.c.c.c.c.c.c.c.c.c.c.c.c.c.c.c.c.c.c.c.v.v.v.v.c.c.c.a.W d C P.#X#X#X#X#X#X#X#X#X",
"#X#X#X#X#X#X#X3.g h Q f.n.c.c.c.c.c.c.c.c.c.c.c.c.c.c.c.c.c.c.c.c.c.c.c.c.c.c.v.v.v.v.c.c.c.f.W d G U.#X#X#X#X#X#X#X#X#X",
"#X#X#X#X#X#X#X9.V g E a.n.c.c.c.c.c.c.c.c.c.c.c.c.c.c.c.c.c.c.c.c.c.c.c.c.c.c.v.v.v.v.c.c.c.f.W s P ^.#X#X#X#X#X#X#X#X#X",
"#X#X#X#X#X#X#Xr.F g b u.c.c.c.c.c.c.c.c.c.c.c.c.c.c.c.c.c.c.c.c.c.c.c.c.c.c.c.v.v.v.v.v.v.c.a.R N } |.#X#X#X#X#X#X#X#X#X",
"#X#X#X#X#X#X#X(.T g j #.c.c.c.c.c.c.c.c.c.c.c.c.c.c.c.c.c.c.c.c.c.c.c.c.c.c.c.v.v.v.v.v.v.b.y.x B 6.%X#X#X#X#X#X#X#X#X#X",
"$X#X#X#X#X#X#XoX .d h ` f.c.c.c.c.c.c.c.c.c.c.c.c.c.c.c.c.c.c.c.c.c.c.c.c.c.c.v.v.v.v.v.c.g.] d G U.#X#X#X#X#X#X#X#X#X#X",
"#X#X#X#X#X#X#XOX8.V h M u.c.c.c.c.c.c.c.c.c.c.c.c.c.c.c.c.c.c.c.c.c.c.c.c.c.c.v.v.v.v.c.b.y.W d [ {.#X#X#X#X#X#X#X#X#X#X",
"#X#X#X#X#X#X#X XY.D g b ' x.c.c.v.v.v.v.v.v.v.v.c.c.c.c.c.c.c.c.c.c.c.c.c.c.c.v.v.c.c.c.g.` h B 7.&X#X!.#X@X@X#X#X#X#X#X",
"#X#X#X#X#X#X#X&XoX .g h E y.b.c.c.v.v.v.v.v.v.v.c.c.c.c.c.c.c.c.c.c.c.c.c.c.c.v.v.c.c.b.u.E g H R.'.r D.*XD.C.#X#X@XG.#X",
"#X#X#X#X#X#X#X#XOXq.D g j ( a.b.c.v.v.v.v.v.v.v.v.c.c.c.c.c.c.c.c.c.c.c.c.c.c.c.v.n.b.d.` h s | |.D.4 $X$X8 ].#X#X!.B.#X",
"#X#X#X#X#X#X#X#XXX(. .d h j +.c.b.v.v.v.v.v.v.v.v.c.c.c.c.c.c.c.c.c.c.c.c.c.c.c.v.c.g.#.b d - 0.'.'.V.#X*X].$X#X#X#X@X#X",
"#X#X#X#X#X#X#X#X#XOXq.D d h E $.g.n.v.c.v.v.v.v.v.v.c.c.c.c.c.c.c.c.c.c.c.c.c.c.c.g.$.W g N H T.#X#X#X#X#X#X#X#X#X#X#X#X",
"#X#X#X#X#X#X#X#X#X=XoX3.Z g h E %.g.c.c.v.c.v.v.v.v.v.c.c.c.c.c.c.c.c.c.c.c.c.n.b.%.E g s 1 0.|.#X#X#X#X#X#X#X#X#X#X#X#X",
"#X#X#X#X#X#X#X#X#X#X+X/. .V g h E +.a.c.c.c.c.v.v.v.v.c.c.c.c.c.c.c.c.c.c.c.c.g.$.Q g s C 4.^.%X#X#X#X#X#X#X#X#X#X#X#X#X",
"#X#X#X#X#X#X#X#X#X#X=XOX/. .Z g h b ` y.f.c.c.c.v.v.v.c.c.c.c.c.c.c.c.c.c.c.f.$.Q h d - | ~.%X#X#X#X#X#X#X#X#X#X#X#X#X#X",
"#X#X#X#X#X#X#X#X#X#X*X=X+X(.2.Z z h h Q ' y.f.g.b.b.b.n.n.c.c.c.c.c.c.b.c.a.' W g d , | R. X#X#X#X#X#X#X#X#X#X#X#X#X#X#X",
"#X#X#X#X#X#X#X#X#X#X$X%X%X X(.3.D l g h x E / ] y.d.f.b.b.n.n.b.c.g.f.a.$./ x g d S | R. X%X#X#X#X#X#X#X#X#X#X#X#X#X#X#X",
"#X#X#X#X#X#X#X#X#X#X#X#X].{.}.Y.8.L V l z z g x W Q _ ] $.u.d.d.y.#._ Q b g d B S ,.e.T.].].#X#X#X#X#X#X#X#X#X#X#X#X#X#X",
"#X#X#X#X#X#X#X#X#X#X#X].Q.L.K.w.5.1.I S V l l l z z x x W Q Q Q b x z g d B S K { <.u p F.E.].#X#X#X#X#X#X#X#X#X#X#X#X#X",
"#X#X#X#X#X#X#X#X#X#X#XQ.L.p p y w <.<.{ Y J S A l l l z z z z z d d l B S K U <.w w t t i F.W.#X#X#X#X#X#X#X#X#X#X#X#X#X",
"#X#X#X#X#X#X#X#X#X#X].E.Z.i t 6 q w w w >.>.,.Y Y J S S A A V A C S G K { >.w w w t t e r C.H.].#X#X#X#X#X#X#X#X#X#X#X#X",
"#X#X#X#X#X#X#X#X#X%X#XE.Z.t 6 6 q q q q q w w <.<.>.>.U U K K U U 5 0 w w q q q q t t u i Z.F.!.#X#X#X#X#X#X#X#X#X#X#X#X",
"#XW.#X#X#X#X#X#X#X#X#XQ.F.i t t t t t t t t t y y w w w w w w w w y t t t t t e t p p Z.S.F.W.!.#X#X#X#X#X#X#X#X#X#X#X#X",
"#X7 #X#X#X#X#X#X#X#X#X!.E.F.Z.p p i i i p p p p i i p i p p p p p p p i Z.Z.S.S.S.L.L.L.E.Q.].].#X#X#X#X#X#X#X#X#X#X#X#X",
"@X7 #X@X#X#X#X#X#X#X#X#X].W.W.L.L.L.L.L.L.L.L.L.L.L.L.L.L.L.L.L.L.L.L.L.E.E.Q.Q.Q.!.!.!.].[.*X[.#X#X#X#X#X#X#X#X#X#X#X#X",
"!.8 @XN.#X#X#X#X#X#X#X#X#X#X#X#X#X#X#X#X#X#X#X#X#X#X#X#X#X#X#X#X#X#X#X#XG.G.C.#X8 G.!.4 @X#X#X#X#XB.!.#X#X#X#X#X#X#X#X#X",
"#XG.@XB.#X#X#X#X#X#X#X#X#X#X#X#X#X#X#X#X#X#X#X#X#X#X#X#X#X#X#X#X#X#X#X#XG.G.#X#XD.#X].A.#X#X#X#XG.8 @X#X#X#X#X#X#X#X#X#X",
"#X#X#X!.#X#X#X#X#X#X#X#X#X#X#X#X#X#X#X#X#X#X#X#X#X#X#X#X#X#X#X#X#X#X#X#X#X!.#X#X#X#X#X#X#X#X#X#X#X#X#X#X#X#X#X#X#X#X#X#X",
"#X#X#X#X#X#X#X#X#X#X#X#X#X#X#X#X#X#X#X#X#X#X#X#X#X#X#X#X#X#X#X#X#X#X#X#X#X#X#X#X#X#X#X#X#X#X#X#X#X#X#X#X#X#X#X#X#X#X#X#X"
};
