/* XPM */
static char *_514eb6d95c2478af42c648f6492b5fe5MjBOefsSkiYRIYs[] = {
/* columns rows colors chars-per-pixel */
"60 60 141 2 ",
"   c #50652B",
".  c #556A31",
"X  c #586D36",
"o  c #5D7436",
"O  c #5E7339",
"+  c #617637",
"@  c #61763B",
"#  c #637A3D",
"$  c #645551",
"%  c #675E50",
"&  c #6A5C55",
"*  c #6C5F5B",
"=  c #666344",
"-  c #65624C",
";  c #66684C",
":  c #6E7B4E",
">  c #6B6354",
",  c #6E6C52",
"<  c #66605F",
"1  c #6D655B",
"2  c #6D6A5C",
"3  c #716E54",
"4  c #72655E",
"5  c #726C5B",
"6  c #6E7253",
"7  c #6E7059",
"8  c #737655",
"9  c #767B56",
"0  c #73735B",
"q  c #757B5B",
"w  c #797C5C",
"e  c #6E6563",
"r  c #6F6963",
"t  c #726563",
"y  c #726B63",
"u  c #786A64",
"i  c #746C6B",
"p  c #796E6D",
"a  c #767265",
"s  c #797562",
"d  c #767963",
"f  c #7B7C63",
"g  c #76726C",
"h  c #7A736D",
"j  c #7D7C6C",
"k  c #766F70",
"l  c #777270",
"z  c #7C7573",
"x  c #7E7A74",
"c  c #7E7A7A",
"v  c #817E65",
"b  c #837F69",
"n  c #817774",
"m  c #817C74",
"M  c #827C7B",
"N  c #68803F",
"B  c #6C8345",
"V  c #6E854A",
"C  c #708549",
"Z  c #738A4D",
"A  c #7A8353",
"S  c #768E50",
"D  c #7A8A55",
"F  c #76825C",
"G  c #7A835C",
"H  c #7E8B5D",
"J  c #7B9354",
"K  c #7C9359",
"L  c #7C8263",
"P  c #7F8C65",
"I  c #7E8269",
"U  c #7F8271",
"Y  c #828E5E",
"T  c #819656",
"R  c #82935C",
"E  c #859C5E",
"W  c #808565",
"Q  c #848C64",
"!  c #82836C",
"~  c #848B6B",
"^  c #888D6F",
"/  c #859462",
"(  c #889565",
")  c #879C61",
"_  c #8A9C65",
"`  c #87926A",
"'  c #8A956B",
"]  c #8D9C69",
"[  c #929E6E",
"{  c #848473",
"}  c #878B72",
"|  c #8A8C74",
" . c #85817C",
".. c #89827D",
"X. c #8B8D7E",
"o. c #8B9473",
"O. c #8B9A73",
"+. c #8C937C",
"@. c #8C9879",
"#. c #939E72",
"$. c #92957F",
"%. c #92997E",
"&. c #87A060",
"*. c #8DA565",
"=. c #8EA369",
"-. c #90A567",
";. c #90A369",
":. c #92A36B",
">. c #90A569",
",. c #91A170",
"<. c #857F80",
"1. c #838081",
"2. c #868382",
"3. c #898181",
"4. c #8C8380",
"5. c #8A8582",
"6. c #8F8682",
"7. c #898484",
"8. c #8A8584",
"9. c #8B8685",
"0. c #8D8787",
"q. c #878982",
"w. c #898A81",
"e. c #8F8E82",
"r. c #8C8C84",
"t. c #8D8C87",
"y. c #8E8F87",
"u. c #8B8788",
"i. c #8E8988",
"p. c #8D8B89",
"a. c #8E8C89",
"s. c #8D8D8B",
"d. c #8E8B8C",
"f. c #8D8D8C",
"g. c #908B8A",
"h. c #928E88",
"j. c #908C8C",
"k. c #8B9280",
"l. c #8E9283",
"z. c #8E918A",
"x. c #909284",
/* pixels */
"*.*.*.*.*.*.*.*.*.*.*.*.*.*.*.*.*.*.*.*.*.*.*.*.*.*.*.*.*.*.*.*.*.*.*.*.*.*.*.*.*.*.*.*.*.*.*.*.*.*.*.*.*.*.*.*.*.*.*.*.",
"*.*.*.*.*.*.*.*.*.*.*.*.*.*.*.*.*.*.*.*.*.*.*.*.*.*.*.*.*.*.*.*.*.*.*.*.*.*.*.*.*.*.*.*.*.*.*.*.*.*.*.*.*.*.*.*.*.*.*.*.",
"*.*.*.*.*.*.*.*.*.*.*.*.*.*.*.*.*.*.*.*.*.*.*.*.*.*.*.*.*.*.*.*.*.*.*.*.*.*.*.*.*.*.*.*.*.*.*.*.*.*.*.*.*.*.*.*.*.*.*.*.",
"*.*.*.*.*.*.*.*.*.*.*.*.*.*.*.*.*.*.*.*.*.*.*.*.*.*.*.*.*.*.*.*.*.*.*.*.*.*.*.*.*.*.*.*.*.*.*.*.*.*.*.*.*.*.*.*.*.*.*.*.",
"*.*.*.*.*.*.*.*.*.*.*.*.*.*.*.*.*.*.*.*.*.*.*.*.*.*.*.*.*.*.*.*.*.*.*.*.*.*.*.*.*.*.*.*.*.*.*.*.*.*.*.*.*.*.*.*.*.*.*.*.",
"*.*.*.*.*.*.*.*.*.*.*.*.*.*.*.*._ R H ` ' _ *.*.*.*.*.*.*.*.*.*.*.*.*.*.*.*.*.*.*.*.*.*.*.*.*.*.*.*.*.*.*.*.*.*.*.*.*.*.",
"*.*.*.*.*.*.*.*.*.*.*.*.*.*.*._ H ~ { q.w.I ) *.*.*.*.*.*.*.*.*.*.*.*.*.*.*.*.*.*.*.*.*.*.*.*.*.*.*.*.*.*.*.*.*.*.*.*.*.",
"*.*.*.*.*.*.*.*.*.*.*.*.*.*.*./ Q +.y.f.y.! q _ *.*.*.*.*.*.*.*.*.*.*.*.*.*.*.*.*.*.*.*.*.*.*.*.*.*.*.*.*.*.*.*.*.*.*.*.",
"*.*.*.*.*.*.*.*.*.*.*.*.*.*.*./ / k.z.f.a.$.| - [ =.*.*.*.*.*.*.*.*.*.*.*.*.*.*.*.*.*.*.*.*.*.*.*.*.*.*.*.*.*.*.*.*.*.*.",
"*.*.*.*.*.*.*.*.*.*.*.*.*.*.*.H Q +.z.f.f.f.a.3.2 X.! L ( _ *.*.*.*.*.*.*.*.*.*.*.*.*.*.*.*.*.*.*.*.*.*.*.*.*.*.*.*.*.*.",
"*.*.*.*.*.*.*.*.*.*.*.*.*.*.*.Q 3  .a.f.f.f.f.j.y i.a.y. .q ;.*.*.*.*.*.*.*.*.=.*.*.*.*.*.*.-.*.-.*.*.*.*.*.*.*.*.*.*.*.",
"&.*.*.*.*.*.*.*.*.*.*.*.*.*.*.] w 2 5.f.f.f.f.d.n p z l l y W =.*.*.*.*.*.T E =.O V =.J o J >.) B + *.*.*.*.*.*.*.*.*.*.",
"V *.K =.>.*.J *.*.*.*.*.*.*.*.] G { e 9.d.f.f.i.e t 3.3...4.> 3 ( >.*.*.*.# . K X @ =.@ @ *.=.B   E *.*.*.*.*.*.*.*.*.*.",
"C B K =.=.@ Z =.*.*.*.*.*.*.*.] G e...e g.h.M < 4.n M j.M r M ..> , 9 F D *.*.*.E E *.*.*.*.*.*.*.*.*.*.*.*.*.*.*.*.*.*.",
"*.B ) =.B # *.*.*.*.*.*.*.*.*.] F X.a.M h z e i.j...i M g h j.f.i.n y - w ' ] *.*.*.*.*.*.*.*.*.*.*.*.*.*.*.*.*.*.*.*.*.",
"*.&.*.*.R _ -.*.*.*.*.*.*.*.*.] G X.a.i.p i 0.f.9.l 3.9.h.t z i.a.f.y.1 n 4 5 w ) *.*.*.*.*.*.*.*.*.*.*.*.*.*.*.*.*.*.*.",
"*.*.*.*.*.*.*.*.*.*.*.*.*.*.*.] w +.a.f.M c f.f.1.M f.f.z...* h h h u p 6.p 4 % Y *.*.*.*.*.*.*.*.*.*.*.*.*.*.*.*.*.*.*.",
"*.*.*.*.*.*.*.*.*.*.*.*.*.*.*.] w +.f.f.2.1.f.f.d.f.f.f.z.a.M & u & $ t l z M 1 R *.*.*.*.*.*.*.*.*.*.*.*.*.*.*.*.*.*.*.",
"*.*.*.*.*.*.*.*.*.*.*.*.*.*.*.] q +.f.f.i.d.f.f.f.f.f.f.a.a.i.p g  .5.9.i.i...> R *.*.*.*.*.*.*.*.*.*.*.*.*.*.*.*.*.*.*.",
"*.*.*.*.*.*.*.*.*.*.*.*.*.*.*.] G +.f.f.f.f.f.f.f.9.c f.a.a.f.M M a.a.f.f.f.M % A &.*.*.*.*.*.*.*.*.*.*.*.*.*.*.*.*.*.*.",
"*.*.*.*.*.*.*.*.*.*.*.*.*.*.*./ G +.f.f.f.f.f.f.f.d.i.f.f.f.f.9. .a.a.f.f.f.i.y H *.*.*.*.*.*.*.*.*.*.*.*.*.*.*.*.*.*.*.",
"*.*.*.*.*.*.*.*.*.*.*.*.*.*.*.H w +.f.f.f.f.f.f.f.f.f.f.f.f.f.a.i.f.a.f.f.f.a.y F *.*.*.*.*.*.*.*.*.*.*.*.*.*.*.*.*.*.*.",
"*.*.*.*.*.*.*.*.*.*.*.*.*.*.*._ f e.f.f.f.f.f.f.f.f.f.f.f.f.f.f.f.f.f.f.f.f.a.5 F &.*.*.*.*.*.*.*.*.*.*.*.*.*.*.*.*.*.*.",
"*.*.*.*.*.*.*.*.*.*.*.*.*.*.*.] j y.f.f.f.f.f.f.f.f.f.f.f.f.f.f.f.f.f.f.f.f.a.0 H *.*.*.*.*.*.*.*.*.*.*.*.*.*.*.*.*.*.*.",
"*.*.*.*.*.*.*.*.*.*.*.*.*.*.*.] w e.f.f.f.f.f.f.c 1.f.f.f.f.f.9.c f.f.f.f.f.y.s Y *.*.*.*.*.*.*.*.*.*.*.*.*.*.*.*.*.*.*.",
"*.*.*.*.*.*.*.*.*.*.*.*.*.*.*.] L e.f.f.f.f.f.f.f.f.f.f.f.f.f.<.M f.f.f.f.f.l.f / *.*.*.*.*.*.*.*.*.*.*.*.*.*.*.*.*.*.*.",
"*.*.*.*.*.*.*.*.*.*.*.*.*.*.*.] f y.f.f.f.f.f.f.f.f.f.f.f.f.a.M 2.f.f.f.f.f.l.f / *.&.J *.*.*.*.*.*.*.*.*.*.*.*.*.*.*.*.",
"*.*.*.*.*.*.*.*.*.*.*.*.*.&.*.] w k.f.f.f.f.f.f.f.f.f.f.f.f.d.M 9.f.f.f.f.f.l.f / *.E B *.*.*.*.*.*.*.*.*.*.*.*.*.*.*.*.",
"*.*.*.*.*.*.*.*.*.*.*.*.*.*.) ] w r.f.f.f.f.f.f.f.f.f.f.f.f.i.M i.f.f.f.f.f.l.f / *.*.&.*.*.*.*.*.*.*.*.*.*.*.*.*.*.*.*.",
"*.*.*.*.*.*.*.*.*.*.*.*.*.*.*.] w X.f.f.f.f.f.f.f.f.f.f.f.f.d.9.f.f.f.f.f.f.k.w / *.*.*.*.*.*.*.*.*.*.*.*.*.*.*.*.*.*.*.",
"*.*.*.*.*.*.*.*.*.*.*.*.*.*.*.] q +.f.f.f.f.f.f.f.f.f.f.f.f.f.f.d.2.9.d.f.f.x.f / *.*.*.*.*.*.*.*.*.*.*.*.*.*.*.*.*.*.*.",
"*.*.*.*.*.*.*.*.*.*.*.*.*.*.*.] w +.f.f.f.f.f.f.f.f.f.f.f.f.i.2.M M i M 2.f.x.f / *.*.*.*.*.*.*.*.*.*.*.*.*.*.*.*.*.*.*.",
"*.*.*.*.*.*.*.*.*.*.*.*.*.*.*.] w +.f.f.f.f.2.c f.f.f.f.9.M 1.c 9.f.i.c i M e.f / *.*.*.*.*.*.*.*.*.*.*.*.*.*.*.*.*.*.*.",
"*.*.*.*.*.*.*.*.*.*.*.*.*.*.*.] w +.f.f.f.f.9.z k z 9.M M M 9.f.f.f.f.f.3.p h s / *.*.*.*.*.*.*.*.*.*.*.*.*.*.*.*.*.*.*.",
"*.*.*.*.*.*.*.*.*.*.*.*.*.*.*.] w r.f.f.f.f.f.i.0.n i 3.i.f.f.f.f.f.f.f.f.0.n > / *.*.*.*.*.*.*.*.*.*.*.*.*.*.*.*.*.*.*.",
"*.*.*.*.*.*.*.*.*.*.*.*.*.*.*.: 0 y.f.f.f.f.f.f.f.2.p j.f.f.f.f.f.f.f.f.f.f.j.j ( *.*.*.*.*.*.*.*.*.*.*.*.*.*.*.*.*.*.*.",
"=.*.*.*.*.*.*.( ` ( *.*.*.*.*.: 0 r.f.f.f.f.f.f.f.3.h 9.f.f.f.f.f.f.f.f.f.f.f.x ( *.*.*.*.*.*.*.*.*.*.*.*.*.*.*.*.*.*.*.",
"*.*.*.*.*.=.L j  .U ' =.*.*.*._ L y.f.9.u.f.f.f.f.3.p 9.f.f.f.f.f.f.f.f.f.f.f.2.L &.*.*.*.*.*.*.*.*.=.] _ / D E *.*.*.*.",
"*.*.*.*.*.F 2 m 5.w.U H *.*.*.] I i.f.2.c f.f.f.f.9.l 2.f.f.f.f.f.f.f.f.f.f.f.9.w &.*.*.*.*.*.*.] w v ! b 0 9 *.*.*.*.*.",
"*.*.*.*.*./ ( ` ` ` ` ( >.*.*.] { a.f.i.z 2.f.f.f.9.z ..f.f.f.f.f.f.f.f.f.f.f.i.f &.*.*.*.*.*.] 8 m z  .h t ; =.*.&.J *.",
"*.*.*.*.*.*.*.*.*.;.Q d +.' *._ { a.f.f.c c f.f.f.9.p M f.f.f.f.f.f.f.f.f.f.f.2.7 ] *.*.*.*._ ; e.i.x i M 5.f A *.E B *.",
"*.*.*.*.*.*.*.*.] f j h 5.d _ ] j i.f.f.1.c i.f.f.i.z M f.f.f.f.f.f.f.f.f.f.i.M 5 _ *.*.*./ 6 X.f.f.i.9.a.a.e.W *.*.&.*.",
"*.*.*.*.*.*.=.~  .5.5.z i. .L ' j i.f.f.i.9.i.f.f.i.2.9.f.f.f.a.y.a.f.f.f.f.d.y.a ] *.*./ w X.a.f.a.f.a.f.a.y.f Y *.*.*.",
"*.*.*.*.*.;.~ x i.f.9.z y.y.m f h e.k.k.e.y.y.a.a.f.9.2.f.a.a.k.O.@.a.f.f.f.9.m 0 ( *.( 0 { a.f.f.i.2.2.M a.a.{ 8 _ *.*.",
"*.*.*.*.=.~ h 9.f.f.i...M x n z m j { +.o.o.o.+.%.%.{ x +.+.@.] *.=.@.+.+.$.{ w / *.*._ L x 9.y.z M g n g ..h.5.f H *.*.",
"*.*.*.*.] a i.f.f.f.f.a...x y.i.i.y.x h } #.,.[ O.O.w H =.*.*.*.*.*.=.O.O.] _ _ *.*.*.*.*.' { y ..y.9.z i r 5 > = = E *.",
"*.*.*.=.f 4.f.f.f.f.f.f.l y.f.f.f.f.f.9.h L _ ] =.*.*.*.*.*.*.*.*.*.*.*.=.=.*.*.*.*.*.*.=.W y i.a.f.f.f.2.2 0 ;.>.;.*.*.",
"*.*.*.=.L m  ...2.2.2.9.2.5.9.9.5.5...x h q _ *.*.*.*.*.*.*.*.*.*.*.*.*.*.*.*.*.*.*.*._ L a M i.f.f.f.f.f.i.y ( *.*.*.J ",
"*.*.*.*.=.Y H G G L L I I I ! f f L L P ' ] *.*.*.*.*.*.*.*.*.*.*.*.*.*.*.*.*.*.*.*.*.L a 5.n x u.f.f.f.f.a.M 0 ] *.*.T ",
"*.*.*.*.*.*.*.*.*.*.*.*.*._ _ ) _ =.*.*.*.*.*.*.*.*.*.*.*.*.*.*.*.*.*.*.*.*.*.*.*.*.*.~ { n z e l M M x z h g 0 R *.*.*.",
"*.*.*.*.*.*.*.*.*.*.*.*.*.*.*.*.*.*.*.*.*.*.*.*.*.*.*.*.*.*.*.*.*.*.*.*.*.*.*.*.*.*.*.=.] o.| ^ I I ! ! } ~ f 6 _ *.*.*.",
"*.*.*.*.*.*.*.*.*.*.*.*.*.*.*.*.*.*.*.*.*.*.*.*.*.*.*.*.*.*.*.*.*.*.*.*.*.*.*.*.*.*.*.*.*.*.*.*.*.*.*.*.*.*.=.;.*.*.*.*.",
"*.*.*.*.*.*.*.*.*.*.*.*.*.*.*.*.*.*.*.*.*.*.*.*.*.*.*.*.*.*.*.*.*.*.*.*.*.*.*.*.*.*.*.*.*.*.*.*.*.*.*.*.*.*.*.*.*.*.*.*.",
"*.T *.*.*.*.*.*.*.*.*.*.*.*.*.*.*.*.*.*.*.*.*.*.*.*.*.*.*.*.*.*.*.*.*.*.*.*.*.*.*.*.*.*.*.*.*.*.*.*.*.*.*.*.*.*.*.*.*.*.",
"*.+ *.*.*.*.*.*.*.*.*.*.*.*.*.*.*.*.*.*.*.*.*.*.*.*.*.*.*.*.*.*.*.*.*.*.*.*.&.*.*.*.*.*.*.*.*.*.*.*.*.*.*.*.*.*.*.*.*.*.",
"&.+ *.&.*.*.*.*.*.*.*.*.*.*.*.*.*.*.*.*.*.*.*.*.*.*.*.*.*.*.*.*.*.*.*.*.&.&.B &.&.&.*.&.*.*.*.*.*.*.*.*.*.*.*.*.*.*.*.*.",
"E # &.N *.*.*.*.*.*.*.*.*.*.*.*.*.*.*.*.*.*.*.*.*.*.*.*.*.*.*.*.*.*.*.*.J J C *.# J E o &.*.*.*.*.B E *.*.*.*.*.*.*.*.*.",
"*.J &.B *.*.*.*.*.*.*.*.*.*.*.*.*.*.*.*.*.*.*.*.*.*.*.*.*.*.*.*.*.*.*.*.J J *.*.S *.) Z *.*.*.*.J # &.*.*.*.*.*.*.*.*.*.",
"*.*.*.E *.*.*.*.*.*.*.*.*.*.*.*.*.*.*.*.*.*.*.*.*.*.*.*.*.*.*.*.*.*.*.*.*.E *.*.*.*.*.*.*.*.*.*.*.*.*.*.*.*.*.*.*.*.*.*.",
"*.*.*.*.*.*.*.*.*.*.*.*.*.*.*.*.*.*.*.*.*.*.*.*.*.*.*.*.*.*.*.*.*.*.*.*.*.*.*.*.*.*.*.*.*.*.*.*.*.*.*.*.*.*.*.*.*.*.*.*."
};
