/* XPM */
static char *b2e680b092e548d9a9bc36b4b85dcccfTJSnVnxXSKv0RXC1[] = {
/* columns rows colors chars-per-pixel */
"60 60 39 1 ",
"  c black",
". c #5B3105",
"X c #5E7636",
"o c #617637",
"O c #62773A",
"+ c #637838",
"@ c #627A3C",
"# c #667C3F",
"$ c #68803F",
"% c #6B8443",
"& c #6B8346",
"* c #6C8046",
"= c #6D8545",
"- c #6E864A",
"; c #708549",
": c #72884E",
"> c #778F4F",
", c #768E50",
"< c #789151",
"1 c #799155",
"2 c #7C9356",
"3 c #7F9655",
"4 c #7B9358",
"5 c #7E965A",
"6 c #819656",
"7 c #80965B",
"8 c #829A5C",
"9 c #859E5F",
"0 c #879E63",
"q c #899F62",
"w c #87A060",
"e c #8AA262",
"r c #8CA262",
"t c #89A165",
"y c #8CA264",
"u c #8DA565",
"i c #8EA268",
"p c #8FA568",
"a c #90A569",
/* pixels */
"uuuuuuuuuuuuuuuuuuuuuuuuuuuuuuuuuuuuuuuuuuuuuuuuuuuuuuuuuuuu",
"uuuuuuuuuuuuuuuuuuuuuuuuuuuuuuuuuuuuuuuuuuuuuuuuuuuuuuuuuuuu",
"uuuuuuuuuuuuuuuuuuuuuuuu............uuuuuuuuuuuuuuuuuuuuuuuu",
"uuuuuuuuuuuuuuuuuuuuu..................uuuuuuuuuuuuuuuuuuuuu",
"uuuuuuuuuuuuuuuuuu........................uuuuuuuuuuuuuuuuuu",
"uuuuuuuuuuuuuuuu............................uuuuuuuuuuuuuuuu",
"uuuuuuuuuuuuuu................................uuuuuuuuuuuuuu",
"uuuuuuuuuuuuu...........            ...........uuuuuuuuuuuuu",
"uuuuuuuuuuuu........                    ........uuuuuuuuuuuu",
"uuuuuuuuuuu.......                        .......uuuuuuuuuuu",
"uuuuuuuuuu......                            ......uuuuuuuuuu",
"euuuuuuuu.....                                .....uuuuuuuuu",
"-t5pay2u....                                    ....uuuuuuuu",
";&4ppO:....                                      ....uuuuuuu",
"y&0i*#....                                        ....uuuuuu",
"ueuu7q...                                          ...uuuuuu",
"uuuuu...                                            ...uuuuu",
"uuuuu..                                              ..uuuuu",
"uuuu...                                              ...uuuu",
"uuuu..                                                ..uuuu",
"uuuu.                                                  .uuuu",
"uuu..                                                  ..uuu",
"uuu.                                                    .uuu",
"uuu.                                                    .uuu",
"uu.                                                      .uu",
"uu.                                                      .uu",
"uu.                                                      .uu",
"uu.                                                      .uu",
"uu                                                        uu",
"uu                                                        uu",
"uu                                                        uu",
"uu                                                        uu",
"uu                                                        uu",
"uu                                                        uu",
"uu                                                        uu",
"tu                                                        uu",
"pu                                                        uu",
"uuu                                                      uuu",
"uuu                                                      uuu",
"uuu                                                      w3u",
"uuu                                                      9%u",
"uuuu                                                    uueu",
"uuuu                                                    uuuu",
"uuuuu                                                  uuuuu",
"uuuuu                                                  uuuuu",
"uuuuuu                                                uuuuuu",
"uuuuuuu                                              uuuuuuu",
"uuuuuuu                                              uuuuuuu",
"uuuuuuuu                                            uuuuuuuu",
"uuuuuuuuu                                          uuuuuuuuu",
"uuuuuuuuuu                                        uuuuuuuuuu",
"uuuuuuuuuuu                                      uuuuuuuuuuu",
"uuuuuuuuuuuu                                    uuuuuuuuuuuu",
"u6uuuuuuuuuuuu                                uuuuuuuuuuuuuu",
"roruuuuuuuuuuuuu                            uuuuuuuuuuuuuuuu",
"e+ueuuuuuuuuuuuuuu                        teuuuuuutuuuuuuuuu",
"9#e$uuuuuuuuuuuuuuuu                    #39Xeuuut=8uuuuuuuuu",
"u3e=uuuuuuuuuuuuuuuuuuuu            <<tu,t0>uuuu1@euuuuuuuuu",
"uuu9uuuuuuuuuuuuuuuuuuuuuuuuuuuuuuuuu9uuuuuuuuuutuuuuuuuuuuu",
"uuuuuuuuuuuuuuuuuuuuuuuuuuuuuuuuuuuuuuuuuuuuuuuuuuuuuuuuuuuu"
};
