/* XPM */
static char *_28fe087e3f44c98f29623b21c0d2d1bcxLrz3J4TWsB6wOi[] = {
/* columns rows colors chars-per-pixel */
"60 60 225 2 ",
"   c #1F1A03",
".  c #2A0F07",
"X  c #2F0E0C",
"o  c #3C0702",
"O  c #330F0E",
"+  c #3C0E0C",
"@  c #2A1506",
"#  c #271806",
"$  c #2D130B",
"%  c #2E1A0A",
"&  c #31120C",
"*  c #331A0C",
"=  c #3C1A0E",
"-  c #340E14",
";  c #390E11",
":  c #2E1112",
">  c #2F1418",
",  c #341114",
"<  c #3B1314",
"1  c #321D11",
"2  c #3A1818",
"3  c #2D2308",
"4  c #32220B",
"5  c #37290D",
"6  c #352512",
"7  c #3A2214",
"8  c #3B2C15",
"9  c #3E2B19",
"0  c #3A3116",
"q  c #3D3319",
"w  c #3A1D21",
"e  c #470E09",
"r  c #500F0C",
"t  c #43140C",
"y  c #4D140C",
"u  c #52160D",
"i  c #55190E",
"p  c #400F11",
"a  c #451413",
"s  c #491617",
"d  c #431B14",
"f  c #4B1C16",
"g  c #4D1C1A",
"h  c #511612",
"j  c #541A14",
"k  c #571B17",
"l  c #5B1E1B",
"z  c #631D16",
"x  c #4C231A",
"c  c #462A1A",
"v  c #592416",
"b  c #53231D",
"n  c #5D241C",
"m  c #43351E",
"M  c #48371D",
"N  c #632519",
"B  c #7D2E1A",
"V  c #4A2B27",
"C  c #5B2622",
"Z  c #572823",
"A  c #5B2B28",
"S  c #443422",
"D  c #443C21",
"F  c #4C3A28",
"G  c #482E32",
"H  c #543836",
"J  c #672625",
"K  c #642C24",
"L  c #6A2D23",
"P  c #742426",
"I  c #722926",
"U  c #7C2729",
"Y  c #77292A",
"T  c #79292B",
"R  c #6A332A",
"E  c #6D332B",
"W  c #743428",
"Q  c #72342C",
"!  c #612D31",
"~  c #673D3A",
"^  c #743B34",
"/  c #7C3B33",
"(  c #43451D",
")  c #4C4629",
"_  c #53432C",
"`  c #59452B",
"'  c #58462B",
"]  c #524D2B",
"[  c #4F532A",
"{  c #5A4435",
"}  c #5A4B33",
"|  c #5B5533",
" . c #595636",
".. c #5B5A35",
"X. c #664832",
"o. c #7A4034",
"O. c #7D413A",
"+. c #62553B",
"@. c #50652B",
"#. c #5A6535",
"$. c #5D7336",
"%. c #5D743A",
"&. c #63663D",
"*. c #617637",
"=. c #61763B",
"-. c #637A3D",
";. c #703C40",
":. c #685A44",
">. c #6C5352",
",. c #696644",
"<. c #656842",
"1. c #70614A",
"2. c #716D4C",
"3. c #6B7546",
"4. c #72764A",
"5. c #756D52",
"6. c #747351",
"7. c #797453",
"8. c #7A7D56",
"9. c #89301E",
"0. c #94371B",
"q. c #943C1E",
"w. c #9B3A1D",
"e. c #802629",
"r. c #853829",
"t. c #9A3A26",
"y. c #823A30",
"u. c #A23C21",
"i. c #AB3E24",
"p. c #96401E",
"a. c #894825",
"s. c #934324",
"d. c #98412C",
"f. c #86542C",
"g. c #834234",
"h. c #884235",
"j. c #85443B",
"k. c #8A453A",
"l. c #8C493D",
"z. c #9B4537",
"x. c #954D3E",
"c. c #9C4E3C",
"v. c #8C5533",
"b. c #935732",
"n. c #AD4126",
"m. c #AA4429",
"M. c #BA462D",
"N. c #BA482E",
"B. c #A64A37",
"V. c #B54B39",
"C. c #BD5137",
"Z. c #8D6134",
"A. c #92653B",
"S. c #C54A2D",
"D. c #C84B2E",
"F. c #C34A31",
"G. c #C45236",
"H. c #C55239",
"J. c #CC593E",
"K. c #D35438",
"L. c #8E4C42",
"P. c #954E42",
"I. c #9A4F41",
"U. c #955043",
"Y. c #995041",
"T. c #B95A4A",
"R. c #956843",
"E. c #9B764A",
"W. c #9C7F54",
"Q. c #C95C44",
"!. c #DA5E41",
"~. c #C96449",
"^. c #DF6142",
"/. c #D56952",
"(. c #E16549",
"). c #E66A4E",
"_. c #E86A4C",
"`. c #E66B51",
"'. c #E86A51",
"]. c #DE7662",
"[. c #68803F",
"{. c #6C8245",
"}. c #6E8449",
"|. c #71864A",
" X c #738A4D",
".X c #7C8354",
"XX c #768C50",
"oX c #7B8E55",
"OX c #7B9354",
"+X c #7C9359",
"@X c #818057",
"#X c #81845C",
"$X c #838C5C",
"%X c #978656",
"&X c #819656",
"*X c #84945D",
"=X c #849C5D",
"-X c #898A63",
";X c #8B9364",
":X c #8B9366",
">X c #849B60",
",X c #8B9D63",
"<X c #969968",
"1X c #9A9B70",
"2X c #A19A7C",
"3X c #87A060",
"4X c #8DA565",
"5X c #8EA469",
"6X c #90A567",
"7X c #92A36B",
"8X c #99A26A",
"9X c #9CA575",
"0X c #E3826B",
"qX c #958688",
"wX c #AD9D9E",
"eX c #B29EA1",
"rX c #BFAEAF",
"tX c #F59C85",
"yX c #F0A590",
"uX c #FCBDA8",
"iX c #DCCCCE",
"pX c #E5DFE0",
"aX c #F7EFF0",
"sX c #F9F5F5",
"dX c white",
/* pixels */
"4X4X4X4X4X4X4X4X4X4X4X4X4X4X4X4X4X4X4X4X4X4X4X4X4X*X4X4X4X4X4X4X4X4X4X4X4X4X4X4X4X4X4X4X4X4X4X4X4X4X4X4X4X4X4X4X4X4X4X4X",
"4X4X4X4X4X4X4X4X4X4X4X4X4X4X4X4X4X4X4X4X4X4X4X4X,X( $X4X4X4X4X4X4X4X4X4X6X,X6X4X4X4X4X4X4X4X4X4X4X4X4X4X4X4X4X4X4X4X4X4X",
"4X4X4X4X4X4X4X4X4X4X4X4X4X4X4X4X4X4X4X4X4X4X4X4X4XD q *X4X4X4X4X4X4X4X4X*X[ 4X4X4X4X4X4X4X4X4X4X4X4X4X4X4X4X4X4X4X4X4X4X",
"4X4X4X4X4X4X4X4X4X4X4X4X4X4X4X4X4X4X4X4X4X4X4X4X4X6.@ ..4X4X4X4X4X4X4X4X7.0 ,X4X4X4X4X4X4X4X4X4X4X4X4X4X4X4X4X4X4X4X4X4X",
"4X4X4X4X4X4X4X4X4X4X4X4X4X4X4X4X4X4X4X4X4X4X4X4X4X:XF 8 4X4X4X4X4X4X4X4X,.6 :X4X4X4X4X4X4X4X4X4X4X4X4X4X4X4X4X4X4X4X4X4X",
"4X4X4X4X4X4X4X4X4X4X4X4X4X4X4X4X4X4X4X4X4X4X4X4X4X..F q 4X4X4X4X4X>X4X7X2.* @X4X4X4X4X4X4X4X4X4X4X4X4X4X4X4X4X4X4X4X4X4X",
"4X4X4X4X4X4X4X4X4X4X4X4X4X4X4X4X4X4X4X4X4X4X4X4X4X9 2 D 4X4X4X4XoX( ,X7X-X% &.4X4X4X4X4X4X4X4X4X4X4X4X4X4X4X4X4X4X4X4X4X",
"4X4X4X4X4X4X4X4X4X4X4X4X4X4X4X4X4X4X4X4X4X4X4X4X4X+.: F 7X6X.X4.1XM ..<X_ @ ,.4X4X4X4X4X4X4X4X4X4X4X4X4X4X4X4X4X4X4X4X4X",
"4X4X4X4X4X4X4X4X4X4X4X4X4X4X4X4X4X4X4X4X4X5X&X4X4X:X7 1 6.7XW.6 5.1.@ { @ m :X4X4X4X4X4X4X4X4X4X4X4X4X4X4X4X4X4X4X4X4X4X",
"4X4X4X4X4X4X4X4X4X4X4X4X4X4X4X4X4X4X4X4X4X5X.X( $X7X8.6 6 $X9X_ % 1.c , 7 #X6X4X4X4X4X4X4X4X4X4X4X4X4X4X4X4X4X4X4X4X4X4X",
"4X4X4X4X4X4X4X4X4X4X4X4X4X4X4X4X4X4X4X4X4X4X}.5 4 .X9X:.$ ] 7X-X1 { 1., F 7X4X5X4X4X4X4X4X4X6X4X6X4X4X4X4X4X4X4X4X4X4X4X",
"3X4X4X4X4X4X4X4X4X4X4X4X4X4X4X4X4X4X4X4X4X4X&X2.3 4  .:.2 % <.<X:.1 H 2 1 $X6X5X%.}.5XOX$.OX6X,X{.*.4X4X4X4X4X4X4X4X4X4X",
"}.4X+X5X6X4XOX4X4X4X4X4X4X4X4X4X4X4X4X4X4X4X4X7X*X#.8 % $ : # .X9X+.1 $ & | 7X+X$.-.5X=.=.4X5X{.@.=X4X4X4X4X4X4X4X4X4X4X",
"|.{.+X5X5X=. X5X4X4X4X4X4X4X4X4X4X4X4X4X4X4X4X8X7X7X<X-X#X} . ] 7X5X:X:., 9 :X4X=X=X4X4X4X4X4X4X4X4X4X4X4X4X4X4X4X4X4X4X",
"4X{.,X5X{.-.4X4X4X4X4X4.#.5X4X4X7X<XR.f.a.a.f.f.A.%X8X8X7X:X* * :X4X4X1XS , 2.4X4X4X4X4X4X4X4X4X4X4X4X4X4X4X4X4X4X4X4X4X",
"4X3X4X4X*X,X6X4X4X4X4X3.  ..<X<XR.s.w.u.u.u.t.w.w.a.Z.%X8X7X7.& ] 7X4X4X7.1 m 4X4X4X4X4X4X4X4X4X4X4X4X4X4X4X4X4X4X4X4X4X",
"4X4X4X4X4X4X4X4X4X4X4X:XS # +.v.0.i.M.M.F.F.F.S.M.n.w.a.W.1X2XV # -X4X4X7XF @ .X4X4X4X4X4X4X4X4X4X4X4X4X4X4X4X4X4X4X4X4X",
"4X4X4X4X4X4X4X4X4X4X4X4X-Xc e 9.m.Q.].Q.F.S.S.S.S.S.N.t.n c c 2 $ m | 4.:X:.@ <.4X4X4X4X4X4X4X4X4X4X4X4X4X4X4X4X4X4X4X4X",
"4X4X4X4X4X4X4X4X4X4X4X4X<XR.B t.C.yXuXtXS.S.S.S.S.F.V.N + p j g ; < + @ 7 V $ ] 4X4X4X4X4X4X4X4X4X4X4X4X4X4X4X4X4X4X4X4X",
"4X4X4X4X4X4X4X4X4X4X4X4XW.s.u.M.H.yXuXtXF.S.S.S.N.t.z u R j.P.O.; s ;.! Z 2 O S 4X4X4X4X4X4X4X4X4X4X4X4X4X4X4X4X4X4X4X4X",
"4X4X4X4X4X4X4X4X4X4X4X4Xb.w.M.S.S.~.0XQ.S.S.S.S.d.u v j.c.c.c.l.a - < < < 2 , % 6.4X4X4X4X4X4X4X4X4X4X4X4X4X4X4X4X4X4X4X",
"4X4X4X4X4X4X4X4X4X4X4X4Xs.i.F.D.D.S.F.S.S.S.S.B.y j x.c.c.c.c.P.A - - - - - - X % 4X4X4X4X4X4X4X4X4X4X4X4X4X4X4X4X4X4X4X",
"4X4X4X4X4X4X4X4X4X4X4X4Xq.n.K.!.(.^.^.!.K.K.H.r.o / I.c.c.c.c.L.d - - - - - - - X m 4X4X4X4X4X4X4X4X4X4X4X4X4X4X4X4X4X4X",
"4X4X4X4X4X4X4X4X4X4X4X4Xq.G.`._._._._._._._./.z n x.c.c.c.c.c./ ; , - - , - - - - @ 2.4X4X4X4X4X4X4X4X4X4X4X4X4X4X4X4X4X",
"4X4X4X4X4X4X4X4X4X4X4X4Xq.J.'._._._._._._.`.T.u j.c.c.c.c.c.I.K , , , > G w : - - O 4 4X4X4X4X4X4X4X4X4X4X4X4X4X4X4X4X4X",
"4X4X4X4X4X4X4X4X4X4X4X4Xs.J.'._._._._._._./.y.n P.c.c.c.c.c.P.b - , > qXaXiXH - - - $ D 4X4X4X4X4X4X4X4X4X4X4X4X4X4X4X4X",
"4X4X4X4X4X4X4X4X4X4X4X4Xb.C.'._._._._._._./.i Q c.c.c.c.c.c.P.g - - G sXdXdXwX, - - - % 3.4X4X4X4X4X4X4X4X4X4X4X4X4X4X4X",
"4X4X4X4X4X4X4X4X4X4X4X4XE.m.(._._._._._._.T.e g.c.c.c.c.c.c.P.b - , >.dXdXdXiX, - - - $ 0 4X4X4X4X4X4X4X4X4X4X4X4X4X4X4X",
"4X4X4X4X4X4X4X4X4X4X4X4X4Xs.G.)._._._._.).B.e x.c.c.c.c.c.c.x.C ; - G sXdXdXeX, - - - , @ <.4X4X4X4X4X4X4X4X4X4X4X4X4X4X",
"4X4X4X4X4X4X4X4X4X4X4X4X4XA.u.!._._._._.).z.u x.c.c.c.c.c.c.c.E ; - : wXpXrXG - - - - - & ) 4X4X4X4X4X4X4X4X4X4X4X4X4X4X",
"4X4X4X4X4X4X4X4X4X4X4X4X4X4Xa.u.J.).)._.`.z.N x.c.c.c.c.c.c.c.j.a - : w G w , , - - - - , 6 4X4X4X4X4X4X4X4X4X4X4X4X4X4X",
"4X4X4X4X4X4X4X4X4X4X4X4X4X4X4Xa.w.H.(.).`.z.N x.c.c.c.c.c.c.c.x.Q + - , - , - - - - - - - * 4X4X4X4X4X4X4X4X4X4X4X4X4X4X",
"4X4X4X4X4X4X4X4X4X4X4X4X4X4X4X4Xb.p.n.C.Q.y.j x.c.c.c.c.c.c.c.c.x.L g a p ; - - , , - - - $ &.4X4X4X4X4X4X4X4X4X4X4X4X4X",
"4X4X4X4X4X4X4X4X4X4X4X4X4X4X4X4X4X%Xv.a.s.N j x.c.c.c.c.c.c.c.c.c.P.L.j./ K s < , , - - - & ) 4X4X4X4X4X4X4X4X4X4X4X4X4X",
"4X4X4X4X4X4X4X4X4X4X4X4X4X4X4X4X4X4X4X4X%XX.j x.c.c.c.c.c.c.c.c.c.c.I.Y.Y.P.l.Q b < - - - - m 4X4X4X4X4X4X4X4X4X4X4X4X4X",
"4X4X4X4X4X4X4X4X4X4X4X4X4X4X4X4X4X4X4X4X4X+.v c.c.c.c.c.c.c.c.c.c.c.c.c.c.c.c.I.L.g < - - , 8 4X4X4X4X4X4X4X4X4X4X4X4X4X",
"5X4X4X4X4X4X4X4X4X4X4X4X4X4X4X4X4X4X4X4X4X} v c.c.c.k.L L k.c.c.c.c.c.c.c.c.c.c.I.b { V , - 4 4X4X4X4X4X4X4X4X4X4X4X4X4X",
"4X4X4X4X4X4X4X4X4X4X4X4X4X4X4X4X4X4X4X4X4X} N c.c.x.N j y R c.c.c.c.c.c.c.c.c.c.c.b ,.#X7 O 4 4X4X4X4X4X4X4X4X4X4X4X4X4X",
"4X4X4X4X4X4X4X4X4X4X4X4X4X4X4X4X4X4X4X4X4X' R c.c.h.y J J l x.c.c.c.c.c.c.c.c.c.I.b ..7X2.7 0 4X4X5X4X=X4X3X3X4X4X4X4X4X",
"4X4X4X4X4X4X4X4X4X4X4X4X4X4X4X4X4X4X4X4X4X' E c.c.g.e P T j g.c.c.c.c.c.c.c.c.c.I.x  .7X7X8.&.4X-.>X3.oX6XXX|.4X4X3XOX4X",
"4X4X4X4X4X4X4X4X4X4X4X4X4X4X4X4X4X4X4X4X4X' ^ I.c./ r P T j W c.c.c.c.c.c.c.c.c.Y.b ] 4X4X4X4X=X%.XX$.5X5X-.,X4X4X=X{.4X",
"4X4X4X4X4X4X4X4X4X4X4X4X4X4X4X4X5X4X=X4X3X' o.I.c./ u U Y j I c.c.c.c.c.c.c.c.c.Y.A ) 4X4X4X4X5X>X>X}.4X6X,X5X4X4X4X3X4X",
"4X4X4X4X4X4X4X4X4X4X4X4X4X4X4X-.>X3.oX6XXX_ o.I.x.K l U Y j W c.c.c.c.c.c.c.c.c.I.R M 4X4X4X4X4X4X4X4X4X4X4X4X4X4X4X4X4X",
"4X4X4X4X4X4X4X4X4X4X4X4X4X4X=X%.XX$.5X5X-.M o.P.g.f J U Y j I c.c.c.c.c.c.c.c.c.I.R 8 4X4X4X4X4X4X4X4X4X4X4X4X4X4X4X4X4X",
"4X4X4X4X4X4X4X4X4X4X4X4X4X4X5X>X>X}.4X6X,XM O.P.K h P U T j W c.c.c.c.c.c.c.c.c.I.E 4 4X4X4X4X4X4X4X4X4X4X4X4X4X4X4X4X4X",
"4X4X4X4X4X4X4X4X4X4X4X4X4X4X4X4X4X4X4X4X4Xc O.Q e z U e.Y h j.c.c.c.c.c.c.c.c.c.I.^ % 4X4X4X4X4X4X4X4X4X4X4X4X4X4X4X4X4X",
"4X4X4X4X4X4X4X4X4X4X4X4X4X4X4X4X4X4X4X4X4Xc C h j P e.U J j x.c.c.c.c.c.c.c.c.c.c.O.@ 4X4X4X4X4X4X4X4X4X4X4X4X4X4X4X4X4X",
"4X4X4X4X4X4X4X4X4X4X4X4X4X4X4X4X4X4X4X4X4X= g h J U U U l n c.c.c.c.c.c.c.c.c.c.c.j.& 4X4X4X4X4X4X4X4X4X4X4X4X4X4X4X4X4X",
"4X4X4X4X4X4X4X4X4X4X4X4X4X4X4X4X4X4X4X4X4X* ~ Z j P T P h Q c.c.c.c.c.c.c.c.c.c.c.l.= ) 4X4X4X4X4X4X4X4X4X4X4X4X4X4X4X4X",
"4X4X4X4X4X4X4X4X4X4X4X4X4X4X4X4X4X4X4X4X4X* < ~ A a l b y k.c.c.c.c.c.c.c.c.c.c.c.x.b m 4X4X4X4X4X4X4X4X4X4X4X4X4X4X4X4X",
"4X4X4X4X4X4X4X4X4X4X4X4X4X4X4X4X4X4X4X4X4X7 K K f Z x t E x.c.c.c.c.c.c.c.c.c.c.c.P.C 8 4X4X4X4X4X4X4X4X4X4X4X4X4X4X4X4X",
"4X4X4X4X4X4X4X4X4X4X4X4X4X4X4X4X4X4X4X4X4X= O.j.L h y J P.c.c.c.c.c.c.c.c.c.c.c.c.c.Q * 4X4X4X4X4X4X4X4X4X4X4X4X4X4X4X4X",
"4X4X4X4X4X4X4X4X4X4X4X4X4X4X4X4X4X4X4X4X2.t j.P.U.P.Y.c.c.c.c.c.c.c.P.x.x.c.c.c.c.x.^ 7 4X4X4X4X4X4X4X4X4X4X4X4X4X4X4X4X",
"4X&X4X4X4X4X4X4X4X4X4X4X4X4X4X4X4X4X4X4XM d n L U.P.U.Y.x./ h.k.k./ L n n Q l.P.P.Q A * 4X4X4X4X4X4X4X4X4X4X4X4X4X4X4X4X",
"4X*.4X4X4X4X4X4X4X4X4X4X4X4X4X4X4X4X4X4X..7 V d f g b A f < d p p + + & d = = x x d c 4 4X4X4X4X4X4X4X4X4X4X4X4X4X4X4X4X",
"3X*.4X3X4X4X4X4X4X4X4X4X4X4X4X4X4X4X4X4X4X:X<X2.] } m 4 # ' { , O , X m 3X3X{.3X3X3X4X3X4X4X4X4X4X4X4X4X4X4X4X4X4X4X4X4X",
"=X-.3X[.4X4X4X4X4X4X4X4X4X4X4X4X4X4X4X4X4X4X4X4X4X4X4X4X4X4X+.$ 1 S 6 4XOXOX|.4X-.OX=X$.3X4X4X4X4X{.=X4X4X4X4X4X4X4X4X4X",
"4XOX3X{.4X4X4X4X4X4X4X4X4X4X4X4X4X4X4X4X4X4X4X4X4X4X4X4X4X4X) @ ,.:X$X4XOXOX4X4XXX4X,X X4X4X4X4XOX-.3X4X4X4X4X4X4X4X4X4X",
"4X4X4X=X4X4X4X4X4X4X4X4X4X4X4X4X4X4X4X4X4X4X4X4X4X4X4X4X4X4X8.<.7X4X4X4X4X=X4X4X4X4X4X4X4X4X4X4X4X4X4X4X4X4X4X4X4X4X4X4X",
"4X4X4X4X4X4X4X4X4X4X4X4X4X4X4X4X4X4X4X4X4X4X4X4X4X4X4X4X4X4X4X6X4X4X4X4X4X4X4X4X4X4X4X4X4X4X4X4X4X4X4X4X4X4X4X4X4X4X4X4X"
};
